<?xml version="1.0" standalone="no"?>
<!DOCTYPE svg PUBLIC "-//W3C//DTD SVG 1.1//EN" "http://www.w3.org/Graphics/SVG/1.1/DTD/svg11.dtd" >
<svg xmlns="http://www.w3.org/2000/svg">
<metadata></metadata>
<defs>
<font id="draftsmanregular" horiz-adv-x="1139" >
<font-face units-per-em="2048" ascent="1638" descent="-410" />
<missing-glyph horiz-adv-x="569" />
<glyph horiz-adv-x="2048" />
<glyph horiz-adv-x="2048" />
<glyph unicode="&#xd;" horiz-adv-x="569" />
<glyph unicode=" "  horiz-adv-x="569" />
<glyph unicode="&#x09;" horiz-adv-x="569" />
<glyph unicode="&#xa0;" horiz-adv-x="569" />
<glyph unicode="!" horiz-adv-x="569" d="M110 463q49 147 30 185q15 300 161 851l10 9l36 8q37 8 50 -19q19 -38 -91 -584q-42 -297 -5 -372l23 -47q17 -78 -61 -95q-121 0 -153 64zM151 122q49 142 83 142q167 0 167 -121q0 -143 -167 -143q-48 0 -83 122z" />
<glyph unicode="&#x22;" horiz-adv-x="727" d="M0 1237l21 25v63l-10 51l10 13v13l-10 13v11q13 77 30 77h73q43 0 43 -215h-11l20 -64h-9l9 -13v-13l-9 -13l9 -12l-20 -140l11 -37h-11l11 -13v-13l-11 -13l11 -13v-12l-21 -26h-84q-27 0 -41 152h10zM291 1121l11 128v13l-11 89h11l-11 12v13l11 13l-11 13v75l21 26 h115l10 -13h11l-32 -520h-9l9 -13v-13l-9 -38h-73q-26 0 -43 215z" />
<glyph unicode="#" d="M92 933v17l28 27h38q294 41 294 83l155 302h5q23 -9 23 -38v-6l-95 -242l17 -16q126 0 150 55q10 51 166 285q61 -11 61 -60q-133 -168 -133 -225l16 -17l128 17q55 -19 55 -55q0 -59 -205 -77l-50 11q-24 0 -61 -99v-11l17 -16h17l127 16q50 -26 50 -60v-28 q0 -9 -39 -22l-33 6q-211 0 -211 -44q-67 -207 -99 -237h-22q-34 23 -34 55v6l39 77q28 68 28 93q0 14 -22 17q-172 -20 -172 -83q-20 -105 -50 -137h-5q-50 19 -50 55l22 88q0 8 -22 16l-33 -5q-41 0 -67 49q0 50 89 50q113 0 144 99l5 22l-16 16h-17q-125 -33 -188 -33 q-50 9 -50 49zM435 840h6q144 14 144 55l27 71q-155 -14 -155 -76q-8 0 -22 -50z" />
<glyph unicode="$" horiz-adv-x="1200" d="M20 1000v20q0 142 592 252q42 0 114 252l8 6h48q49 -27 49 -66l-40 -132l32 -20h16q78 0 122 218l8 7h24q57 0 73 -66l-32 -119v-7q0 -13 113 -40q41 -26 41 -59q-11 -28 -41 -40l-97 20h-65q-29 0 -154 -272q-49 -58 -49 -86q0 -22 106 -73q65 -68 65 -93h8 q0 -197 -462 -304q-57 -53 -138 -186q-96 -163 -146 -192l-8 7q12 54 137 311l-24 13h-24q-38 -23 -154 -305l-25 -19h-32l-24 19v14l97 238v13q0 20 -49 20l-48 40v40q0 37 40 46l49 -13q109 0 170 219q16 0 73 152q-36 29 -251 66q-122 44 -122 119zM158 1007 q46 -25 211 -66l8 6l40 -6h17q36 23 113 212h-8q-381 -94 -381 -146zM369 504l8 -7h8q72 0 203 285l-57 13q-49 -49 -162 -291zM596 914h8l32 -6h33l138 285v6h-8q-87 0 -122 -126q-81 -126 -81 -159zM620 563q195 67 195 133l-81 46q-44 -25 -114 -179z" />
<glyph unicode="%" horiz-adv-x="1200" d="M20 1114q0 78 208 259q0 42 183 92q89 0 183 -84h17q139 0 440 117q42 -12 42 -58q0 -33 -91 -126q-757 -1030 -757 -1152q-24 -12 -100 -134l-34 -8q-41 0 -41 75v17q33 116 441 660l366 534v25l-25 25q-266 -30 -266 -92q0 -172 -358 -267l-108 -8q-81 0 -100 125z M145 1122l66 -8q124 0 275 117l8 25l-8 8q-112 -33 -225 -33h-25q-90 -80 -91 -100v-9zM544 187v84q0 93 183 242h25l108 -75q83 0 83 -117q-35 -101 -208 -201l-99 -16q-92 0 -92 83zM660 245h9q52 0 158 76v16q-5 25 -67 25q-83 -66 -100 -117z" />
<glyph unicode="&#x26;" horiz-adv-x="1200" d="M88 396q0 151 275 257q72 35 72 64q-166 50 -166 135q0 174 397 263q16 13 108 235q71 128 102 143q50 -21 50 -65q-123 -198 -123 -249l36 -21q105 7 138 21q27 0 58 -42v-22q0 -40 -253 -57q-365 -94 -398 -156v-29q0 -42 174 -57h65q139 0 368 86q58 -19 58 -64 q0 -79 -166 -79q-548 -163 -679 -320q0 -43 122 -43h65q427 17 427 79q5 49 29 49q123 -32 123 -92v-7q0 -74 -224 -93q-181 -21 -181 -57l-87 -185q0 -42 -21 -42h-44l-22 21l51 206l-22 22l-29 -7q-303 0 -303 106z" />
<glyph unicode="'" horiz-adv-x="391" d="M9 1411v21q0 83 94 83q63 0 157 -376q32 0 63 -239l-31 -31h-21q-40 32 -262 542z" />
<glyph unicode="(" horiz-adv-x="682" d="M0 632v13l17 184l-8 7v6q56 273 205 442q165 190 265 231h8q86 -9 86 -61l-145 -122q-291 -247 -291 -748q0 -320 205 -448l34 -88q-25 -48 -77 -48h-8q-75 0 -248 306q-43 128 -43 326z" />
<glyph unicode=")" horiz-adv-x="682" d="M30 1467q26 48 85 48q56 0 231 -183q180 -188 247 -476v-7l-8 -27l17 -177v-13q0 -357 -179 -537q-40 -69 -111 -95h-9q-77 9 -77 61q25 78 128 150q111 154 111 380q0 532 -341 781q-94 64 -94 95z" />
<glyph unicode="*" horiz-adv-x="797" d="M48 1060v5l4 5v5l127 -15l4 5l19 -5h64l59 -5l8 15v10q-32 44 -154 155l-12 52l12 5q30 0 102 -88l88 -93h11q16 0 16 62v88l-27 197v10h43q32 -54 32 -336v-26l8 -10h4q28 0 170 145q30 -15 35 -31v-16q-16 -30 -114 -114l-4 -15q10 -16 107 -16h15q14 0 32 21h4 q91 -37 91 -67q-8 -31 -32 -31q-41 14 -178 31l-4 -5l-19 5h-60q-12 -5 -12 -31l182 -222v-21q0 -13 -31 -26q-10 0 -68 98l-110 135h-8l-16 -21v-15q0 -74 12 -161l-4 -51l4 -62q-22 -21 -40 -21l-24 41l8 119l-4 98v62q-8 21 -19 21q-106 -66 -143 -124l-59 -52 q-40 22 -40 62q167 124 178 145v16l-8 10h-8l-59 5l-12 -5l-43 5h-91q-30 0 -36 52z" />
<glyph unicode="+" horiz-adv-x="1196" d="M200 796q0 41 289 41q104 16 104 34q20 0 44 259q10 0 23 116l29 27q63 0 89 -40v-21q-59 -213 -59 -313l37 -21q124 0 245 21q111 0 111 -55v-34q-30 -41 -74 -41h-15l-111 20q-215 0 -215 -47l-60 -348v-75l-14 -14h-89q-30 14 -30 35l74 381l-30 28l-274 -35 q-74 30 -74 82z" />
<glyph unicode="," horiz-adv-x="569" d="M232 312v15q0 117 164 142q173 -71 173 -202l8 -30q0 -232 -189 -307l-16 23l74 186v45l-25 23l-90 -15q-64 0 -99 120z" />
<glyph unicode="-" horiz-adv-x="682" d="M125 831l22 30l69 -8l267 16h134q59 0 59 -82q-17 -52 -43 -52l-144 22q-179 0 -315 -37q-49 32 -49 111z" />
<glyph unicode="." horiz-adv-x="569" d="M200 145v51q91 116 151 116q138 0 158 -64l14 -65q0 -117 -165 -167q-112 0 -158 129z" />
<glyph unicode="/" horiz-adv-x="690" d="M0 47v79q0 34 79 172q99 169 204 439q175 399 319 691q48 94 65 94q37 -10 37 -55q-254 -511 -435 -981q-14 -14 -65 -156q-83 -160 -125 -306q-17 -24 -33 -24h-18z" />
<glyph unicode="0" d="M20 351v6q0 367 261 807q169 238 203 238q166 113 318 113h6q186 0 260 -169q89 -176 89 -388v-31q0 -181 -94 -401q-116 -210 -203 -276q-95 -101 -198 -144q-183 -106 -334 -106h-37q-197 0 -261 238zM135 357q0 -182 193 -182q237 0 511 251q214 245 214 494v119 q0 77 -63 226q-72 93 -151 93h-31q-139 0 -355 -194q-159 -184 -250 -444q-68 -172 -68 -326v-37z" />
<glyph unicode="1" horiz-adv-x="492" d="M107 1368q0 150 71 150l100 19h14q22 0 22 -25q0 -598 50 -1330q14 0 14 -44v-63q0 -46 -86 -75q-156 0 -156 132z" />
<glyph unicode="2" horiz-adv-x="1335" d="M20 1015v28q0 106 142 230q137 113 453 236q72 21 149 21q142 0 200 -181l13 -97q-17 -198 -220 -501l-291 -445v-35q582 139 731 160h33q70 0 103 -139q-27 -111 -84 -111q-29 0 -123 42l-880 -223q-90 22 -90 90v14q0 52 123 202l530 842l19 69q0 136 -97 153 q-62 0 -413 -209q-136 -111 -136 -208q-21 -35 -52 -35h-19q-91 0 -91 97z" />
<glyph unicode="3" horiz-adv-x="1286" d="M10 1357q0 99 441 159v-7l7 7h7l186 6q338 -19 338 -95q18 0 28 -51v-63q0 -109 -221 -241l-20 -26v-19q0 -18 220 -82q189 -115 262 -317l21 -102q0 -197 -310 -374q-231 -106 -387 -127q0 -10 -144 -25q-176 0 -242 127q0 78 124 108q19 0 124 -70h63q613 95 613 380 v38q0 111 -186 248q-93 50 -214 50h-96q-166 0 -290 -120l-55 -25q-75 34 -110 76v6q0 111 234 165q442 229 442 342v13q0 40 -152 44h-69q-257 0 -490 -126q-109 53 -124 101z" />
<glyph unicode="4" d="M0 704q0 49 230 254q529 529 581 566l30 6h49q66 -54 66 -133l-18 -81v-352l6 -173q200 -12 200 -127v-17q-25 -75 -85 -75l-115 34v-6q0 -390 31 -525q0 -61 -91 -75h-37q-68 0 -90 98l12 81l6 450h-279q-193 0 -339 -17q-157 0 -157 92zM278 779l170 18l6 -6l315 23 v422z" />
<glyph unicode="5" horiz-adv-x="1318" d="M20 84q31 78 122 78q714 140 906 278q135 116 135 188v26q0 130 -453 214l-7 -7h-7l-175 7q-345 -51 -345 -130q-40 -65 -95 -65q-67 36 -67 78h-7q15 719 34 719q42 39 114 39h555l40 6q68 0 95 -117q0 -56 -88 -64l-108 13h-453l-13 -402l-7 -19q230 78 405 78l27 -7 l21 7l6 -7h7l48 7q267 -39 432 -123q176 -77 176 -259v-7q0 -106 -183 -259q-124 -78 -216 -116q-174 -85 -744 -214q-30 -26 -60 -26q-61 0 -95 84z" />
<glyph unicode="6" horiz-adv-x="1400" d="M0 311v48q0 199 152 439q324 392 579 602q126 122 152 122q55 -23 55 -68v-6q0 -95 -183 -210q-603 -577 -603 -839q0 -122 61 -122l79 136q119 125 555 277q63 27 213 47h61q195 0 268 -162l12 -61v-54q0 -120 -164 -264q-276 -155 -463 -155l-287 -41h-79 q-280 49 -280 88q-128 122 -128 223zM365 237q13 -41 49 -41h146q415 0 610 163q67 42 67 108v20q-14 102 -134 102h-13q-239 0 -658 -258q0 -11 -60 -54z" />
<glyph unicode="7" horiz-adv-x="1400" d="M20 1302v6q0 108 115 108q55 -2 55 -12l1100 126q72 0 109 -96v-24q0 -35 -149 -186l-265 -474q-157 -362 -157 -480l-13 -78l7 -48q-39 -144 -143 -144h-14q-95 0 -108 102v24q95 270 197 510q136 328 326 624l20 48v12q0 15 -27 18l-890 -102l-68 -6q-42 0 -95 72z" />
<glyph unicode="8" horiz-adv-x="1400" d="M20 254v127q61 209 165 286l104 101v26q0 13 -153 63q-116 84 -116 260q21 116 220 280q195 133 287 133q33 0 92 -38q163 38 214 38q275 -30 275 -241v-7q0 -142 -98 -273v-19q0 -19 166 -57q138 -62 201 -139l37 -83l-6 -6v-7l6 -25h-6l6 -6q0 -199 -348 -483 q-192 -108 -294 -146q-47 -19 -165 -38l-55 6h-49l-24 -6q-132 0 -294 63q-106 55 -165 191zM185 343q0 -145 318 -159q235 0 440 127q105 45 245 203q67 106 67 134v31q0 94 -336 153h-49q-270 -42 -569 -311q-116 -111 -116 -165v-13zM191 1098q0 -127 245 -127h49 q277 0 458 203q19 25 19 58v31q0 102 -153 102h-31q-296 0 -538 -178q-49 -58 -49 -89z" />
<glyph unicode="9" horiz-adv-x="1313" d="M0 1132v13q0 137 192 241q202 136 457 136q283 0 509 -167q159 -131 159 -408v-50q0 -250 -218 -563q-264 -256 -351 -285q-69 -49 -119 -49h-33q-73 12 -73 62q0 42 106 86q256 191 370 353q51 39 93 186q17 0 40 253l-7 7l7 43v31l-14 56h-33q-139 -112 -278 -161 q-142 -93 -291 -93q-317 29 -317 74q-199 75 -199 235zM185 1126q0 -111 252 -142h26q229 0 384 136l172 111v13q-87 80 -284 117h-27q-468 0 -523 -210v-25z" />
<glyph unicode=":" horiz-adv-x="569" d="M200 761q49 131 117 131q0 12 55 18q68 -25 68 -93q-77 -175 -137 -175q-70 0 -103 119zM211 290v7q0 100 129 100q100 -39 100 -100q0 -43 -129 -153l-24 -7q-76 38 -76 153z" />
<glyph unicode=";" horiz-adv-x="569" d="M200 379v11q0 85 98 103q102 -51 102 -146l5 -22q0 -168 -112 -222l-10 16l44 136v32l-15 16l-53 -10q-39 0 -59 86zM200 764q0 101 63 135l49 22q49 -19 49 -27v-76q-34 -119 -102 -119q-27 0 -59 65z" />
<glyph unicode="&#x3c;" horiz-adv-x="1196" d="M30 702q0 107 213 185q88 57 607 308l136 118l60 12q77 -10 77 -49q0 -96 -299 -216l-282 -155q-123 -37 -256 -154v-31q25 -25 256 -142q135 -91 419 -327q111 -35 111 -80v-6q-7 -105 -111 -105q-98 0 -188 167q-397 307 -419 308q-171 81 -307 117z" />
<glyph unicode="=" horiz-adv-x="932" d="M186 447v82l12 18h713l12 -18v-82l-12 -18h-713zM186 739v88l12 20h713l12 -20v-88l-12 -20h-713z" />
<glyph unicode="&#x3e;" horiz-adv-x="1196" d="M200 1354q19 46 59 46q55 0 113 -99q208 -161 475 -337q6 -16 146 -105q52 -66 52 -132q0 -58 -125 -93q-194 -112 -251 -205q-220 -207 -271 -350q-33 -33 -86 -33q-72 27 -72 99v20q0 35 132 132q181 233 343 350l132 106v33q-76 103 -264 211q-79 73 -310 225 q-71 61 -73 132z" />
<glyph unicode="?" d="M88 1266q0 107 340 228l234 28q339 0 447 -192l21 -107q0 -157 -340 -419q-309 -161 -309 -313v-121q-37 -50 -106 -50h-11q-100 0 -117 114l11 28l-11 29q48 181 203 306q336 160 446 426v36q0 92 -234 114q-164 0 -266 -93q-32 -135 -138 -135q-142 0 -170 121zM279 71 v36q21 71 107 71h53q106 -14 106 -71v-36q-21 -71 -106 -71h-53q-107 14 -107 71z" />
<glyph unicode="@" horiz-adv-x="1400" d="M85 278q0 260 344 546q320 231 652 231q273 0 313 -213l6 -60q0 -290 -370 -474q-42 -20 -140 -30q-51 11 -96 60h-26q-181 -107 -275 -107q-98 0 -133 95v29q0 218 427 492l90 24h25q81 0 121 -89l-6 -29l19 -48q0 -101 -134 -266q-12 -2 -19 -42v-12q0 -18 25 -18 q217 0 403 273q20 34 31 160q0 147 -210 184h-76q-291 0 -581 -207q-320 -278 -320 -492q0 -147 128 -190q70 -18 179 -18h18q283 0 581 107q0 13 77 24h13v-12q-37 -58 -255 -137q-269 -59 -416 -59q-269 0 -350 112q-45 84 -45 166zM449 355q0 -29 44 -29q156 13 294 130 l39 131l108 160v6q-10 29 -44 29v7q-201 -60 -390 -297q-51 -83 -51 -137z" />
<glyph unicode="A" horiz-adv-x="1366" d="M10 202v6q0 29 559 1039l122 232q42 43 70 43q67 0 99 -293q61 -351 215 -673l273 -422l12 -42q0 -52 -64 -92q-114 0 -157 110q0 49 -99 159h-17l-53 -6l-46 18q-629 -55 -722 -73q-41 -110 -99 -110h-6q-77 0 -87 104zM301 397l17 6l600 43v6q-221 605 -233 612 l-384 -648v-19z" />
<glyph unicode="B" horiz-adv-x="1366" d="M69 167v19l7 1150q0 104 102 130h34q15 -1 89 -74l21 -6q452 136 690 136h47q301 -53 301 -260q0 -153 -287 -291l-41 -37q280 -66 280 -124q23 0 28 -105q-50 -145 -226 -241q-97 -60 -423 -186q-417 -134 -417 -179q-15 -99 -103 -99h-20q-82 0 -82 167zM260 291 q885 312 902 383l14 31q0 81 -158 81l-20 6q-447 0 -724 -105l-14 -37v-359zM260 885l14 -13q680 198 813 266q123 88 123 137v6q0 105 -219 105q-187 0 -649 -167q-82 -14 -82 -31v-303z" />
<glyph unicode="C" horiz-adv-x="1479" d="M0 543q0 217 188 512q445 467 805 467q218 -59 218 -184v-38q0 -99 -71 -99h-5q-40 0 -126 122l-61 8h-5q-325 0 -659 -413q-157 -217 -157 -375q0 -238 355 -321q96 -23 212 -23h36l20 -8l5 8l21 -8l344 8q180 40 269 107h15q71 -49 71 -115q-19 -130 -71 -130h-30 q-49 0 -147 -38q-128 -23 -264 -23h-157q-638 0 -781 390z" />
<glyph unicode="D" horiz-adv-x="1479" d="M40 137q14 0 42 1160l-6 38l6 25l-12 87v31q0 22 132 44q36 0 42 -50v-62q0 -38 35 -38q72 38 462 88q597 0 700 -312l30 -94l-6 -25l6 -18q0 -148 -293 -381q-292 -195 -785 -399q-142 -80 -173 -181q-42 -50 -102 -50q-78 45 -78 137zM244 356h6q149 49 526 224 q255 128 426 275q125 135 125 180q0 182 -359 250l-132 6h-36q-388 0 -550 -156z" />
<glyph unicode="E" horiz-adv-x="1441" d="M70 1238q21 139 82 139l69 19q42 0 103 -63h7l754 189q103 -27 103 -101q0 -56 -192 -120l-62 -13h-6l-42 7l-617 -177q-21 -31 -21 -82v-19l7 -190l631 146q117 -8 117 -108q0 -90 -199 -101q-278 -44 -528 -139l-21 -19q0 -353 41 -353l7 -7h7q917 133 974 158h35 q130 -28 130 -120q-18 -76 -69 -76h-164q-933 -111 -933 -164q-58 -44 -131 -44q-31 0 -68 57v19l-7 82l7 120v297l-7 82l7 88v89z" />
<glyph unicode="F" horiz-adv-x="1251" d="M50 55l13 1332q47 74 81 74q74 -49 119 -49h44l6 -7q773 117 839 117q71 -18 94 -55v-13q0 -85 -94 -116l-225 -61q-32 42 -57 42l-657 -116v-362l6 -6v-6q801 42 864 61h19q73 0 94 -111q-25 -73 -94 -73l-889 -74v-313l19 -233q-34 -86 -94 -86q-88 18 -88 55z" />
<glyph unicode="G" horiz-adv-x="1593" d="M20 498q0 268 604 706q231 196 457 326q106 -18 106 -80q0 -80 -147 -110q-149 -89 -557 -418q-316 -257 -316 -437q42 -79 146 -79h100q457 45 457 73q375 95 375 172l-29 19l-416 -68q-48 0 -65 92v19q0 73 205 86l546 67h11q85 0 100 -110q0 -58 -100 -123 q-35 -89 -35 -117v-12l6 -19l-6 -30v-172q0 -135 35 -203q-11 -80 -35 -80h-141q-12 3 -23 31l18 166v116q0 136 -24 136h-6q-587 -191 -797 -191h-252q-199 63 -199 166q-12 0 -18 74z" />
<glyph unicode="H" horiz-adv-x="1479" d="M119 1476q0 33 74 46q87 -23 87 -111v-169l6 -19l-6 -33v-149l6 -260l34 -27q295 0 803 118q52 0 120 -78h7l-14 617q17 111 74 111h13q114 -18 114 -98l-13 -58l20 -1138q40 -86 40 -117q0 -64 -114 -78h-13q-114 0 -114 52l20 156l-6 396l-7 78q-21 0 -80 -45 q-34 -17 -275 -33l-589 -91q0 -185 20 -455q-7 -91 -87 -91q-113 0 -113 85v6l6 20l-6 32z" />
<glyph unicode="I" horiz-adv-x="569" d="M226 86l5 113v1243q0 80 52 80l5 -7h5l5 7h5q78 0 78 -113q19 -1309 36 -1309q0 -100 -114 -100q-53 0 -72 66z" />
<glyph unicode="J" horiz-adv-x="1024" d="M0 243q35 73 54 84h16q137 -163 298 -163l32 -6q217 0 432 157q39 43 49 97l-5 6l5 25l11 1030q0 31 59 49q76 0 76 -24v-1152q0 -157 -178 -225q-220 -121 -390 -121l-21 6l-22 -6l-5 6h-6l-5 -6h-5q-270 44 -309 127q-76 77 -86 116z" />
<glyph unicode="K" horiz-adv-x="1366" d="M40 1390q18 132 104 132h12q79 0 98 -119v-6l-25 -94l-6 -407l-6 -63l12 -19q17 0 513 514q23 94 116 94h6q65 0 86 -94q0 -98 -129 -188l-372 -388v-7q81 -76 452 -300q342 -238 445 -276q37 -49 37 -69q0 -94 -49 -94l-79 -6q-21 0 -226 150q-122 69 -708 451 q-98 -62 -98 -131l6 -7v-119q31 -117 31 -162v-32q0 -125 -116 -125h-25q-48 0 -67 75z" />
<glyph unicode="L" d="M0 104l5 1330q8 30 39 30h38q46 0 66 -79v-12h-6l33 -1092l33 -31q799 91 799 110h27q82 0 88 -128q0 -95 -104 -110l-55 6l-509 -67v6q-170 -18 -339 -67q-94 0 -115 104z" />
<glyph unicode="M" horiz-adv-x="1706" d="M60 1394q0 91 100 91h14q90 0 128 -152q32 -90 192 -219q268 -201 313 -201l619 591l92 18h50q128 0 128 -134q-17 0 -36 -1345q-14 -38 -35 -43h-107q-68 0 -92 122v18l7 37l-7 6q28 0 49 1083l-14 12q-137 -98 -405 -353q-32 -27 -50 -176q0 -77 -171 -104h-28 q-31 0 -150 122l-384 238l-14 -19q14 -702 36 -797q0 -70 -128 -86q-74 0 -100 92v1071z" />
<glyph unicode="N" horiz-adv-x="1479" d="M31 1355l52 62l52 25q69 0 127 -87q31 -606 74 -606q83 -239 291 -359q237 -143 522 -143h37l45 38v1089l-8 37q27 111 104 111q142 0 142 -118l-22 -105l-8 -866l-7 -204l7 -118q-37 -55 -82 -55q-148 0 -559 80l-163 68q-93 52 -239 161q-110 111 -134 111v-389l7 -25 q-30 -62 -119 -62q-104 0 -104 37l7 105z" />
<glyph unicode="O" horiz-adv-x="1593" d="M10 358v7q0 260 248 650q218 274 327 338q71 63 138 87l47 -7q234 53 280 53h84q270 0 375 -352q32 -80 32 -225v-13q-20 -218 -127 -379q-184 -246 -369 -345q-385 -172 -512 -172l-6 7l-37 -7h-137q-239 12 -311 192q-32 77 -32 166zM137 365q0 -212 227 -212h95 q277 0 633 219q338 261 338 557v13q0 228 -148 358q-40 33 -174 60q-200 0 -464 -159q-118 -67 -307 -312q-200 -305 -200 -524z" />
<glyph unicode="P" horiz-adv-x="1366" d="M10 177l6 40l13 1135l-6 27q0 136 110 136q19 0 98 -54l39 -7l357 47l6 -6l111 6h39q406 0 565 -197l19 -54v-61q0 -158 -461 -387l-708 -381q-4 -54 -13 -54l7 -34v-48l19 -149v-48q-22 -88 -117 -88q-36 0 -78 54v95zM172 713q0 -54 52 -54h13q81 6 734 353 q211 127 227 177v41q0 49 -195 102q-78 5 -78 13l-64 -7h-189q-493 -37 -493 -183v-251l-7 -62l7 -6l-7 -48v-75z" />
<glyph unicode="Q" horiz-adv-x="1593" d="M20 238v111q22 246 308 706q265 340 512 423q138 37 248 37q319 0 410 -201q92 -114 92 -363q-23 -184 -103 -320q-84 -125 -237 -237l-5 -38q0 -31 145 -133q44 -72 44 -104v-22q-18 -97 -71 -97h-21q-65 0 -108 111l-146 164h-16q-511 -253 -610 -253v8q0 -17 -172 -30 h-49q-150 0 -205 163q-16 38 -16 75zM144 275q0 -104 151 -104q176 0 604 185q65 33 65 67q-119 187 -119 238q23 89 76 89q58 0 151 -193q39 -52 65 -52q209 101 297 282q48 62 48 193q0 257 -221 364l-81 15q-427 0 -680 -342q-303 -344 -356 -690v-52z" />
<glyph unicode="R" horiz-adv-x="1479" d="M20 137v1304q0 89 157 89h15q68 -33 68 -102l30 -14l486 82l98 7h299q133 0 263 -116q30 -50 37 -117q0 -96 -202 -252q-131 -114 -854 -335q-23 -17 -23 -41q42 -43 405 -178l577 -239l60 -75l-8 -34l8 -27q0 -47 -128 -89q-89 0 -195 137q-584 259 -868 355h-23l8 -48 v-130q0 -154 15 -191q-39 -96 -143 -96h-7q-75 49 -75 110zM192 840q19 -41 68 -41q1011 297 1011 465q0 82 -187 82q-504 0 -824 -151q-63 -24 -68 -252l8 -7l-8 -48v-48z" />
<glyph unicode="S" horiz-adv-x="1366" d="M20 874q0 181 468 487q321 183 399 183h31q117 0 117 -106q-16 -84 -74 -84h-61q-159 0 -603 -332l-74 -84v-29l25 -28h12q89 0 547 64h62l25 -7l6 7h6l6 -7h6l25 7l6 -7h6l6 7q167 0 351 -127q43 -66 43 -120q0 -178 -375 -423q0 -28 -382 -219q-119 -56 -258 -56 q-31 0 -55 85v21q0 110 221 141q254 47 621 359q43 56 43 78q0 92 -406 92l-498 -78h-37q-156 0 -203 141z" />
<glyph unicode="T" horiz-adv-x="1744" d="M40 1172v12q0 64 73 105l125 -12h13q144 0 1115 198l251 47h7q125 -14 125 -99q-33 -99 -152 -99l-119 6q-445 -76 -475 -100v-11l66 -64l20 -105l-6 -30v-128l6 -221l-6 -193q19 -299 59 -367v-6q0 -105 -73 -105h-13q-148 0 -158 76l46 169l-20 910l7 52l-27 12 l-745 -146q-76 0 -119 99z" />
<glyph unicode="U" horiz-adv-x="1479" d="M10 1397v31q23 87 80 87q99 0 128 -143v-143l6 -37l-6 -6l6 -68l14 -777q0 -156 214 -173q308 0 723 80q41 25 41 69v509q0 340 -14 552q34 100 101 100h6q114 -14 114 -100l-13 -80l13 -969l7 -118q40 -31 40 -87q0 -46 -114 -118h-13q-42 0 -134 56h-20l-556 -62l-7 6 h-7l-67 -6q-350 0 -448 149q-67 99 -67 192l6 7l-6 18l6 845v62z" />
<glyph unicode="V" horiz-adv-x="1707" d="M20 1423q18 95 113 95q82 0 126 -169l505 -1051l46 -13q47 0 239 372q398 675 398 692q27 196 87 196l6 7h47q72 0 106 -142v-21q-30 -85 -451 -786l-180 -318q-106 -278 -179 -278l-53 -7h-66q-62 0 -87 75l-637 1267z" />
<glyph unicode="W" horiz-adv-x="1850" d="M50 193v1253q13 69 65 69h7q124 -26 124 -96l-19 -1068q18 -53 39 -62q529 873 544 930q42 34 65 34q92 0 124 -103q61 -370 171 -468q259 -310 360 -310h52q26 0 26 158l7 896q31 96 65 96h20q118 -22 118 -117l-7 -35l-32 -1322q-36 -48 -105 -48q-72 0 -72 83 q0 43 -249 179l-151 131q-267 276 -320 454l-20 14q-47 -8 -190 -248q-351 -535 -386 -565l-33 -7q-203 49 -203 152z" />
<glyph unicode="X" horiz-adv-x="1366" d="M20 145q0 74 398 471l104 118v28q-378 472 -378 560q-33 57 -33 83q0 83 92 125q123 -30 123 -132q140 -249 176 -290l176 -201h7l508 540q28 21 66 21q84 0 104 -132v-7q0 -53 -183 -221l-352 -353v-7q305 -276 476 -409v-27q0 -136 -111 -160h-26q-64 0 -136 111 l-346 325h-20q-325 -323 -436 -526q-8 -28 -66 -62h-13q-117 0 -130 145z" />
<glyph unicode="Y" horiz-adv-x="1620" d="M20 1401v13q0 64 74 86q105 -25 105 -105q7 -102 154 -253q134 -131 332 -198l191 -55q112 0 154 74q357 362 382 420q24 80 93 80q92 -41 92 -105v-25q0 -51 -117 -148l-394 -407l-19 -74q13 -667 25 -667q-42 -37 -68 -37l-6 6h-6l-37 -6q-38 0 -74 37q-33 636 -68 636 q0 40 -86 92q-307 89 -524 291q-178 208 -203 345z" />
<glyph unicode="Z" horiz-adv-x="1600" d="M20 120q95 255 565 691q496 432 515 432l111 80v13l-37 7l-726 -47h-18q-156 22 -156 73l-6 33v20q8 100 81 100l112 -33l763 20l56 6q60 -13 180 -13q130 -35 130 -120v-13q0 -91 -261 -179q-136 -54 -564 -439q-435 -424 -460 -465v-20q19 0 19 -13l403 33h286 q509 -13 509 -67q25 -35 25 -59v-14q0 -87 -100 -126h-6q-33 0 -87 46q-72 47 -223 47h-304q-434 0 -683 -106l-43 -7q-81 28 -81 120z" />
<glyph unicode="[" horiz-adv-x="569" d="M0 150l108 545q78 352 78 642l-4 35q9 53 22 53q89 0 309 79q0 16 18 18q41 -30 41 -97v-17q0 -64 -85 -88l-30 26q-142 -53 -193 -53h-4l-11 -26v-53q-45 -374 -167 -950q-8 0 -8 -70l15 -27h34l40 9l4 -9h4l41 9h7l37 -9l19 9l67 -9q22 35 33 35q26 0 45 -88 q-5 -114 -37 -114h-4q-34 35 -93 44l-41 -9h-85l-15 -9l-11 9l-34 -17l-3 8h-4l-41 -8h-11q-34 0 -41 132z" />
<glyph unicode="\" horiz-adv-x="569" d="M20 1441v16q0 56 12 61h8q39 0 72 -145l112 -360q40 -103 256 -773q56 -100 56 -130q-12 -100 -44 -100h-12q-36 0 -60 199q-19 24 -116 360z" />
<glyph unicode="]" horiz-adv-x="569" d="M0 72q6 0 14 63q0 16 89 28l14 -19l21 10h7l3 -10l114 37l38 -9q9 41 17 162q17 49 31 190q7 0 14 81l82 406q49 190 49 262q-8 27 -62 36l-4 -9l-24 9l-203 18q-14 0 -24 82q0 59 24 99h17q39 -36 86 -54l17 9l104 -18l3 9h4l17 -9l17 9v-9l4 9h3l10 -9l31 9 q52 -14 52 -100l-3 -9v-9l3 -27q-35 -215 -121 -587q-79 -400 -79 -614l4 -9v-9q0 -32 -14 -72l-24 9h-14l-28 -9l-27 9l-35 -18l-17 9l-38 -18h-7v9l-34 -9h-110q-12 12 -21 72z" />
<glyph unicode="^" horiz-adv-x="961" d="M0 1046v4q0 29 72 72q103 87 112 88q0 16 156 114q91 68 104 68l32 8q70 -59 240 -171l164 -114q68 -41 68 -69q-14 -45 -48 -45h-12q-25 0 -116 110l-264 186l-64 31h-12q-14 0 -84 -61q-62 -41 -144 -110q-81 -71 -152 -145h-12q-40 5 -40 34z" />
<glyph unicode="_" d="M0 47v18l30 63h1083l17 -36v-9l-38 -72h-1075z" />
<glyph unicode="`" horiz-adv-x="682" d="M72 1367v58l52 48q106 0 238 -463q41 -33 41 -77l-41 -20q-97 0 -197 222q0 37 -93 232z" />
<glyph unicode="a" />
<glyph unicode="b" />
<glyph unicode="c" horiz-adv-x="1024" />
<glyph unicode="d" />
<glyph unicode="e" />
<glyph unicode="f" horiz-adv-x="569" />
<glyph unicode="g" />
<glyph unicode="h" />
<glyph unicode="i" horiz-adv-x="455" />
<glyph unicode="j" horiz-adv-x="455" />
<glyph unicode="k" horiz-adv-x="1024" />
<glyph unicode="l" horiz-adv-x="455" />
<glyph unicode="m" horiz-adv-x="1706" />
<glyph unicode="n" />
<glyph unicode="o" />
<glyph unicode="p" />
<glyph unicode="q" />
<glyph unicode="r" horiz-adv-x="682" />
<glyph unicode="s" horiz-adv-x="1024" />
<glyph unicode="t" horiz-adv-x="569" />
<glyph unicode="u" />
<glyph unicode="v" horiz-adv-x="1024" />
<glyph unicode="w" horiz-adv-x="1479" />
<glyph unicode="x" horiz-adv-x="1024" />
<glyph unicode="y" horiz-adv-x="1024" />
<glyph unicode="z" horiz-adv-x="1024" />
<glyph unicode="{" horiz-adv-x="477" d="M0 747q0 21 99 152l7 69l-22 70l7 69l-15 90v20q0 246 213 291h15q41 -23 69 -76q0 -54 -92 -90q-38 -25 -53 -138l31 -319l-54 -145v-7l38 -110v-83q-76 -196 -76 -298v-28q25 -89 99 -89l84 6q53 -20 53 -62q0 -54 -114 -69q-170 0 -228 131q-23 0 -31 118q0 95 69 291 v48q0 24 -69 97q-30 41 -30 62z" />
<glyph unicode="|" horiz-adv-x="532" d="M200 14v1494l6 14h61l6 -14v-1494l-6 -14h-61z" />
<glyph unicode="}" horiz-adv-x="400" d="M0 76q0 33 42 56l65 -7q77 23 77 90v28q0 103 -59 299v83l30 112v7l-42 146l24 326q-22 160 -89 160q-23 31 -24 63q22 53 53 76h12q167 -45 167 -292v-21l-12 -104l6 -56q-18 -38 -18 -76q0 -84 83 -195v-20q0 -34 -77 -146v-63q53 -192 53 -306q0 -119 -95 -208 q-44 -21 -107 -28q-89 12 -89 76z" />
<glyph unicode="~" horiz-adv-x="1196" d="M31 940v30q93 444 331 444h19q53 0 268 -326q101 -89 165 -89q101 0 211 297q0 167 25 167q38 0 38 -98l7 -10l6 -40q0 -141 -121 -355q-101 -122 -185 -149q-123 0 -318 317q-64 138 -115 138q-193 0 -267 -227q-10 -1 -45 -99h-19z" />
<glyph unicode="&#xa1;" horiz-adv-x="682" />
<glyph unicode="&#xa2;" />
<glyph unicode="&#xa3;" />
<glyph unicode="&#xa4;" />
<glyph unicode="&#xa5;" />
<glyph unicode="&#xa6;" horiz-adv-x="532" />
<glyph unicode="&#xa7;" />
<glyph unicode="&#xa8;" horiz-adv-x="682" />
<glyph unicode="&#xa9;" horiz-adv-x="1509" />
<glyph unicode="&#xaa;" horiz-adv-x="758" />
<glyph unicode="&#xab;" />
<glyph unicode="&#xac;" horiz-adv-x="1196" />
<glyph unicode="&#xad;" horiz-adv-x="682" d="M125 831l22 30l69 -8l267 16h134q59 0 59 -82q-17 -52 -43 -52l-144 22q-179 0 -315 -37q-49 32 -49 111z" />
<glyph unicode="&#xae;" horiz-adv-x="1509" />
<glyph unicode="&#xaf;" horiz-adv-x="1131" />
<glyph unicode="&#xb0;" horiz-adv-x="819" />
<glyph unicode="&#xb1;" horiz-adv-x="1124" />
<glyph unicode="&#xb2;" horiz-adv-x="682" />
<glyph unicode="&#xb3;" horiz-adv-x="682" />
<glyph unicode="&#xb4;" horiz-adv-x="682" />
<glyph unicode="&#xb5;" horiz-adv-x="1180" />
<glyph unicode="&#xb6;" horiz-adv-x="1100" />
<glyph unicode="&#xb7;" horiz-adv-x="569" />
<glyph unicode="&#xb8;" horiz-adv-x="682" />
<glyph unicode="&#xb9;" horiz-adv-x="682" />
<glyph unicode="&#xba;" horiz-adv-x="748" />
<glyph unicode="&#xbb;" />
<glyph unicode="&#xbc;" horiz-adv-x="1708" />
<glyph unicode="&#xbd;" horiz-adv-x="1708" />
<glyph unicode="&#xbe;" horiz-adv-x="1708" />
<glyph unicode="&#xbf;" horiz-adv-x="1251" />
<glyph unicode="&#xc0;" horiz-adv-x="1366" />
<glyph unicode="&#xc1;" horiz-adv-x="1366" />
<glyph unicode="&#xc2;" horiz-adv-x="1366" />
<glyph unicode="&#xc3;" horiz-adv-x="1366" />
<glyph unicode="&#xc4;" horiz-adv-x="1366" />
<glyph unicode="&#xc5;" horiz-adv-x="1366" />
<glyph unicode="&#xc6;" horiz-adv-x="2048" />
<glyph unicode="&#xc7;" horiz-adv-x="1479" />
<glyph unicode="&#xc8;" horiz-adv-x="1366" />
<glyph unicode="&#xc9;" horiz-adv-x="1366" />
<glyph unicode="&#xca;" horiz-adv-x="1366" />
<glyph unicode="&#xcb;" horiz-adv-x="1366" />
<glyph unicode="&#xcc;" horiz-adv-x="569" />
<glyph unicode="&#xcd;" horiz-adv-x="569" />
<glyph unicode="&#xce;" horiz-adv-x="569" />
<glyph unicode="&#xcf;" horiz-adv-x="569" />
<glyph unicode="&#xd0;" horiz-adv-x="1479" />
<glyph unicode="&#xd1;" horiz-adv-x="1479" />
<glyph unicode="&#xd2;" horiz-adv-x="1593" />
<glyph unicode="&#xd3;" horiz-adv-x="1593" />
<glyph unicode="&#xd4;" horiz-adv-x="1593" />
<glyph unicode="&#xd5;" horiz-adv-x="1593" />
<glyph unicode="&#xd6;" horiz-adv-x="1593" />
<glyph unicode="&#xd7;" horiz-adv-x="1196" />
<glyph unicode="&#xd8;" horiz-adv-x="1593" />
<glyph unicode="&#xd9;" horiz-adv-x="1479" />
<glyph unicode="&#xda;" horiz-adv-x="1479" />
<glyph unicode="&#xdb;" horiz-adv-x="1479" />
<glyph unicode="&#xdc;" horiz-adv-x="1479" />
<glyph unicode="&#xdd;" horiz-adv-x="1366" />
<glyph unicode="&#xde;" horiz-adv-x="1366" />
<glyph unicode="&#xdf;" horiz-adv-x="1251" />
<glyph unicode="&#xe0;" />
<glyph unicode="&#xe1;" />
<glyph unicode="&#xe2;" />
<glyph unicode="&#xe3;" />
<glyph unicode="&#xe4;" />
<glyph unicode="&#xe5;" />
<glyph unicode="&#xe6;" horiz-adv-x="1821" />
<glyph unicode="&#xe7;" horiz-adv-x="1024" />
<glyph unicode="&#xe8;" />
<glyph unicode="&#xe9;" />
<glyph unicode="&#xea;" />
<glyph unicode="&#xeb;" />
<glyph unicode="&#xec;" horiz-adv-x="569" />
<glyph unicode="&#xed;" horiz-adv-x="569" />
<glyph unicode="&#xee;" horiz-adv-x="569" />
<glyph unicode="&#xef;" horiz-adv-x="569" />
<glyph unicode="&#xf0;" />
<glyph unicode="&#xf1;" />
<glyph unicode="&#xf2;" />
<glyph unicode="&#xf3;" />
<glyph unicode="&#xf4;" />
<glyph unicode="&#xf5;" />
<glyph unicode="&#xf6;" />
<glyph unicode="&#xf7;" horiz-adv-x="1124" d="M247 633q0 32 37 65h567q125 0 149 -71q-12 -27 -25 -29h-684zM502 343q0 110 81 148l62 24q63 -21 63 -30v-83q-44 -130 -131 -130q-34 0 -75 71zM524 870q0 111 81 149l62 23q62 -21 62 -29v-83q-44 -131 -131 -131q-33 0 -74 71z" />
<glyph unicode="&#xf8;" horiz-adv-x="1251" />
<glyph unicode="&#xf9;" />
<glyph unicode="&#xfa;" />
<glyph unicode="&#xfb;" />
<glyph unicode="&#xfc;" />
<glyph unicode="&#xfd;" horiz-adv-x="1024" />
<glyph unicode="&#xfe;" />
<glyph unicode="&#xff;" horiz-adv-x="1024" />
<glyph unicode="&#x152;" horiz-adv-x="2048" />
<glyph unicode="&#x153;" horiz-adv-x="1933" />
<glyph unicode="&#x178;" horiz-adv-x="1366" />
<glyph unicode="&#x2c6;" horiz-adv-x="682" />
<glyph unicode="&#x2dc;" horiz-adv-x="682" />
<glyph unicode="&#x2000;" horiz-adv-x="776" />
<glyph unicode="&#x2001;" horiz-adv-x="1552" />
<glyph unicode="&#x2002;" horiz-adv-x="776" />
<glyph unicode="&#x2003;" horiz-adv-x="1552" />
<glyph unicode="&#x2004;" horiz-adv-x="517" />
<glyph unicode="&#x2005;" horiz-adv-x="388" />
<glyph unicode="&#x2006;" horiz-adv-x="258" />
<glyph unicode="&#x2007;" horiz-adv-x="258" />
<glyph unicode="&#x2008;" horiz-adv-x="194" />
<glyph unicode="&#x2009;" horiz-adv-x="310" />
<glyph unicode="&#x200a;" horiz-adv-x="86" />
<glyph unicode="&#x2010;" horiz-adv-x="682" d="M125 831l22 30l69 -8l267 16h134q59 0 59 -82q-17 -52 -43 -52l-144 22q-179 0 -315 -37q-49 32 -49 111z" />
<glyph unicode="&#x2011;" horiz-adv-x="682" d="M125 831l22 30l69 -8l267 16h134q59 0 59 -82q-17 -52 -43 -52l-144 22q-179 0 -315 -37q-49 32 -49 111z" />
<glyph unicode="&#x2012;" horiz-adv-x="682" d="M125 831l22 30l69 -8l267 16h134q59 0 59 -82q-17 -52 -43 -52l-144 22q-179 0 -315 -37q-49 32 -49 111z" />
<glyph unicode="&#x2013;" d="M0 24q0 21 56 44h850q188 0 224 -48q-18 -18 -37 -20h-1028z" />
<glyph unicode="&#x2014;" horiz-adv-x="2048" d="M-663 752q0 18 33 37h497q111 0 131 -40q-10 -15 -21 -17h-601z" />
<glyph unicode="&#x2018;" horiz-adv-x="455" d="M0 1435v15q0 58 57 58q39 0 96 -260q19 0 38 -167l-19 -21h-13q-23 22 -159 375z" />
<glyph unicode="&#x2019;" horiz-adv-x="455" d="M280 1068q0 79 80 290q25 160 79 160q58 0 58 -76q-154 -373 -181 -397h-14z" />
<glyph unicode="&#x201a;" horiz-adv-x="455" />
<glyph unicode="&#x201c;" horiz-adv-x="682" d="M0 1369v16q0 63 70 63q46 0 115 -285q24 0 47 -182l-23 -24h-16q-28 25 -193 412zM247 1377q0 48 54 48h8q116 -222 116 -357v-39q0 -48 -31 -48q-49 0 -62 135q-27 0 -85 261z" />
<glyph unicode="&#x201d;" horiz-adv-x="682" d="M400 1060v36q0 126 97 330h7q45 0 45 -52q0 -42 -84 -300q0 -58 -52 -58zM562 1016q0 76 71 278q22 154 71 154q52 0 52 -74q-138 -358 -162 -380h-13z" />
<glyph unicode="&#x201e;" horiz-adv-x="682" />
<glyph unicode="&#x2022;" horiz-adv-x="717" />
<glyph unicode="&#x2026;" horiz-adv-x="2048" />
<glyph unicode="&#x202f;" horiz-adv-x="310" />
<glyph unicode="&#x2039;" horiz-adv-x="682" />
<glyph unicode="&#x203a;" horiz-adv-x="682" />
<glyph unicode="&#x205f;" horiz-adv-x="388" />
<glyph unicode="&#x20ac;" />
<glyph unicode="&#x2122;" horiz-adv-x="2048" />
<glyph unicode="&#x25fc;" horiz-adv-x="500" d="M0 0z" />
</font>
</defs>
</svg>
