<?xml version="1.0" encoding="utf-8"?>
<!-- Generator: Adobe Illustrator 15.0.0, SVG Export Plug-In . SVG Version: 6.00 Build 0)  -->
<!DOCTYPE svg PUBLIC "-//W3C//DTD SVG 1.1//EN" "http://www.w3.org/Graphics/SVG/1.1/DTD/svg11.dtd">
<svg version="1.1" id="LinkedIn" xmlns="http://www.w3.org/2000/svg" xmlns:xlink="http://www.w3.org/1999/xlink" x="0px" y="0px"
	 width="300px" height="300.961px" viewBox="0 753.859 300 300.961" enable-background="new 0 753.859 300 300.961"
	 xml:space="preserve">
<path fill="#FFA400" d="M150,756.84c-81,0-146.664,65.321-146.664,145.901C3.336,983.318,69,1048.641,150,1048.641
	c81.001,0,146.664-65.322,146.664-145.898C296.664,822.161,231.001,756.84,150,756.84z M106.153,986.379h-38.6v-111.17h38.6V986.379
	z M87.359,866.245c-12.514,0-22.658-9.934-22.658-22.188c0-12.254,10.144-22.188,22.658-22.188c12.514,0,22.659,9.934,22.659,22.188
	C110.019,856.312,99.874,866.245,87.359,866.245z M232.164,986.379h-36.516v-51.17c0,0,1.016-35.75-21.734-32.5
	c-13.75,4.5-15.25,19.25-15.25,19.25v64.42h-35.5V875.208h35.5v18c0,0,3.375-18,34-18c22.5-1.166,35,19.834,37.5,29.5
	c1.833,3.5,2.039,13,2.039,13L232.164,986.379z"/>
</svg>
