<?xml version="1.0" encoding="utf-8"?>
<!-- Generator: Adobe Illustrator 15.0.0, SVG Export Plug-In . SVG Version: 6.00 Build 0)  -->
<!DOCTYPE svg PUBLIC "-//W3C//DTD SVG 1.1//EN" "http://www.w3.org/Graphics/SVG/1.1/DTD/svg11.dtd">
<svg version="1.1" id="LinkedIn" xmlns="http://www.w3.org/2000/svg" xmlns:xlink="http://www.w3.org/1999/xlink" x="0px" y="0px"
	 width="288px" height="288px" viewBox="0 0 288 288" enable-background="new 0 0 288 288" xml:space="preserve">
<path fill="#FDFFF0" d="M144,1C64.938,1,0.846,64.556,0.846,142.956C0.846,221.353,64.938,284.91,144,284.91
	c79.063,0,143.154-63.558,143.154-141.954C287.155,64.556,223.063,1,144,1z M101.202,224.332H63.526V116.169h37.676V224.332z
	 M82.859,107.446c-12.215,0-22.117-9.664-22.117-21.587c0-11.924,9.902-21.59,22.117-21.59c12.214,0,22.117,9.666,22.117,21.59
	C104.976,97.782,95.073,107.446,82.859,107.446z M224.198,224.332h-35.642v-49.787c0,0,0.992-34.784-21.214-31.62
	c-13.421,4.378-14.885,18.729-14.885,18.729v62.679h-34.65V116.168h34.65v17.514c0,0,3.294-17.514,33.187-17.514
	c21.962-1.136,34.162,19.297,36.604,28.703c1.789,3.404,1.989,12.646,1.989,12.646L224.198,224.332z"/>
</svg>
