<?xml version="1.0" encoding="utf-8"?>
<!-- Generator: Adobe Illustrator 15.0.0, SVG Export Plug-In . SVG Version: 6.00 Build 0)  -->
<!DOCTYPE svg PUBLIC "-//W3C//DTD SVG 1.1//EN" "http://www.w3.org/Graphics/SVG/1.1/DTD/svg11.dtd">
<svg version="1.1" xmlns="http://www.w3.org/2000/svg" xmlns:xlink="http://www.w3.org/1999/xlink" x="0px" y="0px" width="288px"
	 height="288px" viewBox="-143.5 954.938 288 288" enable-background="new -143.5 954.938 288 288" xml:space="preserve">
<g id="Layer_1">
	<g>
		<path fill="#FDFFF0" d="M-0.001,955.938c-78.689,0-142.499,63.796-142.499,142.5c0,62.958,40.831,116.374,97.449,135.217
			c7.121,1.317,9.737-3.093,9.737-6.857c0-3.395-0.132-14.623-0.194-26.529c-39.643,8.621-48.008-16.812-48.008-16.812
			c-6.482-16.471-15.821-20.85-15.821-20.85c-12.931-8.846,0.974-8.664,0.974-8.664c14.308,1.005,21.844,14.686,21.844,14.686
			c12.708,21.786,33.335,15.486,41.467,11.845c1.278-9.209,4.97-15.496,9.047-19.056c-31.651-3.602-64.925-15.822-64.925-70.423
			c0-15.558,5.567-28.269,14.685-38.249c-1.48-3.592-6.357-18.083,1.38-37.712c0,0,11.968-3.829,39.196,14.609
			c11.367-3.158,23.557-4.741,35.668-4.797c12.109,0.056,24.31,1.639,35.698,4.797c27.199-18.437,39.148-14.609,39.148-14.609
			c7.757,19.629,2.878,34.12,1.399,37.712c9.137,9.98,14.667,22.69,14.667,38.249c0,54.732-33.336,66.781-65.068,70.311
			c5.11,4.422,9.666,13.094,9.666,26.389c0,19.066-0.164,34.412-0.164,39.104c0,3.795,2.565,8.237,9.785,6.839
			c56.592-18.862,97.371-72.26,97.371-135.197C142.498,1019.734,78.697,955.938-0.001,955.938z"/>
		<path fill="#FDFFF0" d="M-88.528,1160.535c-0.312,0.709-1.428,0.922-2.442,0.435c-1.035-0.466-1.613-1.43-1.278-2.141
			c0.306-0.727,1.421-0.933,2.454-0.444C-88.76,1158.85-88.171,1159.824-88.528,1160.535L-88.528,1160.535z"/>
		<path fill="#FDFFF0" d="M-82.755,1166.972c-0.68,0.632-2.009,0.338-2.91-0.658c-0.933-0.994-1.105-2.321-0.417-2.961
			c0.7-0.629,1.988-0.334,2.922,0.659C-82.227,1165.016-82.046,1166.335-82.755,1166.972L-82.755,1166.972z"/>
		<path fill="#FDFFF0" d="M-77.138,1175.179c-0.873,0.608-2.302,0.039-3.185-1.229c-0.874-1.268-0.874-2.788,0.02-3.396
			c0.883-0.608,2.292-0.061,3.186,1.196C-76.245,1173.038-76.245,1174.561-77.138,1175.179L-77.138,1175.179z"/>
		<path fill="#FDFFF0" d="M-69.441,1183.108c-0.781,0.863-2.445,0.631-3.662-0.546c-1.247-1.148-1.592-2.779-0.812-3.642
			c0.792-0.861,2.466-0.618,3.692,0.547C-68.984,1180.614-68.609,1182.258-69.441,1183.108L-69.441,1183.108z"/>
		<path fill="#FDFFF0" d="M-58.822,1187.713c-0.346,1.115-1.947,1.621-3.561,1.147c-1.613-0.489-2.667-1.794-2.341-2.922
			c0.333-1.124,1.945-1.65,3.57-1.146C-59.542,1185.28-58.487,1186.577-58.822,1187.713L-58.822,1187.713z"/>
		<path fill="#FDFFF0" d="M-47.159,1188.565c0.038,1.176-1.331,2.151-3.024,2.172c-1.704,0.039-3.084-0.914-3.102-2.069
			c0-1.188,1.339-2.149,3.041-2.18C-48.548,1186.454-47.159,1187.398-47.159,1188.565L-47.159,1188.565z"/>
		<path fill="#FDFFF0" d="M-36.307,1186.721c0.202,1.146-0.974,2.323-2.658,2.636c-1.655,0.304-3.185-0.407-3.397-1.541
			c-0.205-1.176,0.993-2.354,2.645-2.657C-38.031,1184.865-36.521,1185.554-36.307,1186.721L-36.307,1186.721z"/>
	</g>
</g>
<g id="Layer_2">
</g>
</svg>
