<?xml version="1.0" encoding="utf-8"?>
<!-- Generator: Adobe Illustrator 15.0.0, SVG Export Plug-In . SVG Version: 6.00 Build 0)  -->
<!DOCTYPE svg PUBLIC "-//W3C//DTD SVG 1.1//EN" "http://www.w3.org/Graphics/SVG/1.1/DTD/svg11.dtd">
<svg version="1.1" id="Layer_1" xmlns="http://www.w3.org/2000/svg" xmlns:xlink="http://www.w3.org/1999/xlink" x="0px" y="0px"
	 width="300px" height="300.877px" viewBox="0 0 300 300.877" enable-background="new 0 0 300 300.877" xml:space="preserve">
<g>
	<path fill-rule="evenodd" clip-rule="evenodd" fill="#FFA400" d="M149.067,4.001C68.289,4.001,2.786,69.49,2.786,150.282
		c0,64.63,41.914,119.463,100.036,138.806c7.309,1.353,9.995-3.175,9.995-7.038c0-3.486-0.135-15.012-0.199-27.234
		c-40.695,8.849-49.282-17.26-49.282-17.26c-6.654-16.907-16.242-21.403-16.242-21.403c-13.273-9.08,1-8.893,1-8.893
		c14.688,1.031,22.424,15.075,22.424,15.075c13.046,22.363,34.22,15.897,42.568,12.159c1.313-9.453,5.103-15.908,9.287-19.561
		c-32.491-3.697-66.648-16.242-66.648-72.292c0-15.97,5.715-29.019,15.074-39.264c-1.519-3.686-6.526-18.563,1.417-38.713
		c0,0,12.285-3.93,40.236,14.997c11.669-3.242,24.183-4.867,36.615-4.924c12.43,0.057,24.955,1.682,36.645,4.924
		c27.921-18.926,40.187-14.997,40.187-14.997c7.963,20.15,2.954,35.027,1.436,38.713c9.38,10.245,15.055,23.293,15.055,39.264
		c0,56.185-34.221,68.554-66.794,72.176c5.246,4.539,9.921,13.442,9.921,27.089c0,19.573-0.168,35.325-0.168,40.144
		c0,3.894,2.633,8.454,10.046,7.019c58.093-19.363,99.954-74.178,99.954-138.786C295.348,69.49,229.854,4.001,149.067,4.001z"/>
	<path fill="#FFA400" d="M58.19,214.027c-0.321,0.729-1.466,0.946-2.507,0.447c-1.062-0.479-1.656-1.469-1.312-2.198
		c0.314-0.746,1.459-0.956,2.519-0.456C57.952,212.297,58.557,213.298,58.19,214.027L58.19,214.027z M56.39,212.694"/>
	<path fill="#FFA400" d="M64.116,220.636c-0.698,0.646-2.062,0.345-2.987-0.676c-0.958-1.021-1.135-2.385-0.428-3.04
		c0.719-0.646,2.041-0.344,3,0.676C64.658,218.628,64.844,219.982,64.116,220.636L64.116,220.636z M62.72,219.139"/>
	<path fill="#FFA400" d="M69.883,229.06c-0.896,0.625-2.363,0.04-3.269-1.261c-0.897-1.302-0.897-2.862,0.021-3.486
		c0.906-0.625,2.352-0.062,3.27,1.228C70.799,226.863,70.799,228.424,69.883,229.06L69.883,229.06z M69.883,229.06"/>
	<path fill="#FFA400" d="M77.784,237.2c-0.802,0.886-2.51,0.646-3.759-0.56c-1.28-1.179-1.634-2.853-0.833-3.738
		c0.813-0.885,2.531-0.636,3.79,0.561C78.253,234.64,78.638,236.326,77.784,237.2L77.784,237.2z M77.784,237.2"/>
	<path fill="#FFA400" d="M88.685,241.927c-0.355,1.144-1.999,1.665-3.655,1.177c-1.656-0.501-2.737-1.842-2.403-2.999
		c0.342-1.154,1.996-1.695,3.664-1.176C87.945,239.429,89.028,240.761,88.685,241.927L88.685,241.927z M88.685,241.927"/>
	<path fill="#FFA400" d="M100.657,242.802c0.04,1.206-1.365,2.207-3.104,2.229c-1.749,0.04-3.166-0.938-3.184-2.125
		c0-1.219,1.375-2.206,3.122-2.237C99.231,240.635,100.657,241.605,100.657,242.802L100.657,242.802z M100.657,242.802"/>
	<path fill="#FFA400" d="M111.797,240.908c0.208,1.176-1,2.385-2.728,2.706c-1.699,0.312-3.27-0.417-3.487-1.582
		c-0.211-1.207,1.019-2.416,2.715-2.728C110.027,239.002,111.577,239.71,111.797,240.908L111.797,240.908z M111.797,240.908"/>
</g>
</svg>
