<?xml version="1.0" encoding="utf-8"?>
<!-- Generator: Adobe Illustrator 15.0.0, SVG Export Plug-In . SVG Version: 6.00 Build 0)  -->
<!DOCTYPE svg PUBLIC "-//W3C//DTD SVG 1.1//EN" "http://www.w3.org/Graphics/SVG/1.1/DTD/svg11.dtd">
<svg version="1.1" id="Layer_1" xmlns="http://www.w3.org/2000/svg" xmlns:xlink="http://www.w3.org/1999/xlink" x="0px" y="0px"
	 width="300px" height="300.877px" viewBox="0 0 300 300.877" enable-background="new 0 0 300 300.877" xml:space="preserve">
<g>
	<path fill="#FFFFFF" d="M149.067,4.001C68.289,4.001,2.786,69.49,2.786,150.282c0,64.63,41.914,119.463,100.036,138.806
		c7.309,1.353,9.995-3.175,9.995-7.038c0-3.486-0.135-15.012-0.199-27.234c-40.695,8.85-49.282-17.26-49.282-17.26
		c-6.654-16.906-16.242-21.402-16.242-21.402c-13.273-9.08,1-8.894,1-8.894c14.688,1.031,22.424,15.075,22.424,15.075
		c13.046,22.363,34.22,15.896,42.568,12.159c1.313-9.453,5.103-15.908,9.287-19.562c-32.491-3.697-66.648-16.242-66.648-72.292
		c0-15.97,5.715-29.019,15.074-39.264c-1.519-3.686-6.526-18.563,1.417-38.713c0,0,12.285-3.93,40.236,14.997
		c11.669-3.242,24.183-4.867,36.615-4.924c12.43,0.057,24.955,1.682,36.645,4.924c27.921-18.926,40.187-14.997,40.187-14.997
		c7.963,20.15,2.955,35.027,1.437,38.713c9.38,10.245,15.056,23.293,15.056,39.264c0,56.185-34.222,68.553-66.795,72.176
		c5.246,4.539,9.922,13.441,9.922,27.089c0,19.573-0.168,35.325-0.168,40.144c0,3.895,2.633,8.454,10.045,7.02
		c58.094-19.363,99.955-74.178,99.955-138.786C295.348,69.49,229.854,4.001,149.067,4.001z"/>
	<path fill="#FFFFFF" d="M58.19,214.026c-0.321,0.729-1.466,0.947-2.507,0.447c-1.062-0.479-1.656-1.469-1.312-2.197
		c0.314-0.746,1.459-0.957,2.519-0.457C57.952,212.297,58.557,213.298,58.19,214.026L58.19,214.026z"/>
	<path fill="#FFFFFF" d="M64.116,220.636c-0.698,0.646-2.062,0.346-2.987-0.676c-0.958-1.021-1.135-2.385-0.428-3.04
		c0.719-0.646,2.041-0.344,3,0.677C64.658,218.628,64.844,219.981,64.116,220.636L64.116,220.636z"/>
	<path fill="#FFFFFF" d="M69.883,229.06c-0.896,0.625-2.363,0.041-3.269-1.261c-0.897-1.302-0.897-2.862,0.021-3.485
		c0.906-0.625,2.352-0.062,3.27,1.228C70.799,226.862,70.799,228.424,69.883,229.06L69.883,229.06z"/>
	<path fill="#FFFFFF" d="M77.784,237.2c-0.802,0.886-2.51,0.646-3.759-0.561c-1.28-1.179-1.634-2.853-0.833-3.738
		c0.813-0.885,2.531-0.635,3.79,0.562C78.253,234.64,78.638,236.326,77.784,237.2L77.784,237.2z"/>
	<path fill="#FFFFFF" d="M88.685,241.927c-0.355,1.145-1.999,1.665-3.655,1.178c-1.656-0.502-2.737-1.842-2.403-3
		c0.342-1.153,1.996-1.694,3.664-1.176C87.945,239.429,89.028,240.761,88.685,241.927L88.685,241.927z"/>
	<path fill="#FFFFFF" d="M100.657,242.802c0.04,1.206-1.365,2.207-3.104,2.229c-1.749,0.04-3.166-0.938-3.184-2.125
		c0-1.22,1.375-2.206,3.122-2.237C99.231,240.635,100.657,241.604,100.657,242.802L100.657,242.802z"/>
	<path fill="#FFFFFF" d="M111.797,240.908c0.208,1.176-1,2.385-2.728,2.706c-1.699,0.312-3.27-0.418-3.487-1.582
		c-0.211-1.207,1.019-2.416,2.715-2.729C110.027,239.002,111.577,239.71,111.797,240.908L111.797,240.908z"/>
</g>
</svg>
