<?xml version="1.0" encoding="utf-8"?>
<!-- Generator: Adobe Illustrator 15.0.0, SVG Export Plug-In . SVG Version: 6.00 Build 0)  -->
<!DOCTYPE svg PUBLIC "-//W3C//DTD SVG 1.1//EN" "http://www.w3.org/Graphics/SVG/1.1/DTD/svg11.dtd">
<svg version="1.1" id="Layer_1" xmlns="http://www.w3.org/2000/svg" xmlns:xlink="http://www.w3.org/1999/xlink" x="0px" y="0px"
	 width="203px" height="215px" viewBox="0 0 203 215" enable-background="new 0 0 203 215" xml:space="preserve">
<g>
	
		<image overflow="visible" opacity="0.62" width="594" height="565" xlink:href="AA86BDD.png"  transform="matrix(1 0 0 1 -111.0801 -82.0801)">
	</image>
	<g>
		
			<image overflow="visible" opacity="0.62" width="465" height="465" xlink:href="AA86BDF.png"  transform="matrix(1 0 0 1 -32.3999 -41.3999)">
		</image>
		<g>
			<g>
				<defs>
					<path id="SVGID_1_" d="M102,105C46.22,105,1,153.1,1,180.875c0,8.41-1,20.033-1,34.125c0,0,49.473,0.119,101.5,0H203
						c0-20.262,0-25.232,0-34.125C203,153.1,157.781,105,102,105z"/>
				</defs>
				<clipPath id="SVGID_2_">
					<use xlink:href="#SVGID_1_"  overflow="visible"/>
				</clipPath>
				<g clip-path="url(#SVGID_2_)">
					
						<image overflow="visible" width="400" height="400" xlink:href="../../../../../Desktop/basecamp-whiter copy.png"  transform="matrix(0.9999 0 0 0.9999 0 0)">
					</image>
				</g>
			</g>
		</g>
	</g>
</g>
</svg>
