<?xml version="1.0" standalone="no"?>
<!DOCTYPE svg PUBLIC "-//W3C//DTD SVG 1.1//EN" "http://www.w3.org/Graphics/SVG/1.1/DTD/svg11.dtd" >
<svg xmlns="http://www.w3.org/2000/svg">
<metadata></metadata>
<defs>
<font id="ld_architectregular" horiz-adv-x="1176" >
<font-face units-per-em="2048" ascent="1638" descent="-410" />
<missing-glyph horiz-adv-x="733" />
<glyph horiz-adv-x="2048" />
<glyph horiz-adv-x="2048" />
<glyph unicode="&#xd;" horiz-adv-x="733" />
<glyph unicode=" "  horiz-adv-x="733" />
<glyph unicode="&#x09;" horiz-adv-x="733" />
<glyph unicode="&#xa0;" horiz-adv-x="733" />
<glyph unicode="!" horiz-adv-x="729" d="M55 113q0 80 132 80q16 0 78 -17q70 -20 102.5 -36.5t32.5 -75.5q0 -6 -8 -52.5t-8 -66.5q-10 -4 -31 -29t-29 -25h-53q-144 0 -193 121q-6 16 0 45q0 8 -11.5 26t-11.5 30zM195 499v176q0 20 12 99q16 96 33 145q45 99 142 376q2 16 7 39.5t25.5 52.5t38.5 29 q49 0 102.5 -33t105.5 -68q2 -8 14 -32.5t12 -32.5q0 -4 -69 -175q-80 -201 -121 -334q-4 -16 -4 -80q0 -8 -11.5 -25.5t-13.5 -26.5q-4 -57 -19 -162q-68 -47 -100 -47q-14 0 -80 33q-74 39 -74 66z" />
<glyph unicode="&#x22;" horiz-adv-x="838" d="M84 1178q2 21 19 63q10 20 63 70q63 60 90 58q6 0 27 -11.5t31 -11.5q43 -234 43 -238q0 -8 -7 -9t-7 -9q-2 -8 3 -20.5t5 -16.5q8 -127 4 -167l-10 -30q-47 -23 -56 -41q-8 0 -35.5 -4.5t-36.5 -4.5q-10 2 -10 5.5t-2 3.5q-14 -2 -26 2q-10 -2 -70 2q-23 2 -21 18 q8 74 17 162q0 8 -10.5 89.5t-10.5 89.5zM507 856q0 14 5 58t5 81q-6 103 -10 222q0 6 90 135q25 2 64 2q4 -6 47 -16q43 -109 51 -181q21 -203 17 -273q-16 -23 -39 -73q-205 -14 -175 -15q-29 2 -43 10q-12 23 -12 50z" />
<glyph unicode="#" horiz-adv-x="1400" d="M45 486q6 4 17 13q14 -2 39 0q33 4 38 4t23.5 3t28.5 3q90 0 96 100q-12 12 -26 11q-8 0 -24.5 -7.5t-23.5 -7.5h-43q-92 0 -92 99q0 8 -9.5 26.5t-11.5 24.5q-4 16 -4 121q35 31 43 31q2 0 19 -14h66q4 0 67.5 7t100.5 9q23 29 45 107q23 90 39 117q2 18 7 49t32 82 q29 12 37 12t30.5 -9t33.5 -9q25 -37 53 -72q37 -53 37 -84q0 -25 -53 -146q6 -4 30 -4q35 0 43 19q27 90 91 279q14 20 30 51q8 23 15 68q8 12 24 28q16 4 44 3q27 0 90 -52q29 -23 43 -68q10 -33 10 -67q0 -10 -8 -35q-8 -31 -10 -39q-10 -4 -23 -23q-18 -39 -47 -123 q16 -4 100 -4q8 0 18.5 7t18.5 7q90 0 138 -18q21 -8 64 -37q52 -37 73 -49q2 -6 2 -15q0 -29 -36 -100q-23 -12 -79 -29q-88 -18 -141 -18q-20 0 -96 -4q-103 -8 -181 -35q-14 -4 -33 -56q-18 -45 -18 -55v-27q14 -14 20 -14q8 0 29.5 8t32.5 8q-4 0 78 -10q16 -10 2 -18 q20 -12 74 -15q31 0 59 -33q0 -37 -25 -71q-16 -21 -71 -31q-82 -16 -82 -17q-86 -29 -169 -43q-35 -59 -41 -147l-4 -144q-25 -31 -53 -31q-53 0 -78 62q-12 43 -23 88q-10 16 -24 45q12 -2 12 16v56q-12 12 -33 12q-27 0 -55 -20q-18 -82 -21 -138q2 -27 2 -82 q-23 -18 -41 -18q-59 0 -86 107.5t-57 107.5q-10 0 -22.5 -4t-21.5 -4q-45 0 -90 33q0 29 -6 88q-12 41 -33 135zM486 566q0 -20 35 -20q27 10 43 53q7 33 17 64h-49q-47 -60 -46 -97z" />
<glyph unicode="$" horiz-adv-x="1439" d="M39 324q0 31 31 78q88 -21 98 -22q49 0 88 -25q45 -31 177 -86h21q4 4 4 29q0 53 -23 231q-18 20 -61 23q-33 4 -66 6q-18 4 -91 45q-8 8 -6 15q-35 20 -51 72q-10 37 -21.5 73.5t-11.5 90.5q0 8 7.5 46t7.5 60q49 39 143 109q33 16 66 33q51 29 51 60q0 23 -4 93.5 t-4 105.5v80q8 64 47 65q2 0 41 -7t60 -3q47 -33 49 -127q0 -76 -2 -150q68 21 67 23t3 16q-10 -2 -9 16q0 25 39 62t68 37q-8 0 60 -17q6 -2 33.5 -39t27.5 -47q31 -8 23 -8l49 4q43 4 64 2q6 0 53 -10q98 -21 168 -76q33 -27 33 -99q0 -27 -44 -67.5t-62 -40.5 q-8 0 -25 12t-27 12h-219q-20 -31 -19 -78q0 -8 4 -46t4 -56q57 -12 187 -60q82 -41 177 -117q2 -2 71 -110q33 -47 83 -144q18 -50 18 -103l-10 -28q-8 -41 -48 -103q-31 -45 -63 -90q-12 -18 -99.5 -60.5t-118.5 -42.5q6 0 -39 2q-29 4 -49 -2q2 -8 -7 -22.5t-9 -20.5 q0 -12 16 -21q-4 -2 -33 -20q-10 -6 -37 -6q-74 0 -112 31q-10 29 -44 63q-27 2 -92 10q-6 -2 -2 -10q-2 -18 -2 -59q12 -18 12 -23q0 -21 -16 -55q-105 0 -160 16q0 6 4 21.5t4 25.5q0 27 -25 115q-6 12 -18 17q-43 10 -150 45q-98 31 -105 31q-10 0 -12 -3.5t-10 -3.5 q-53 0 -82 31q-14 12 -25 45q-16 47 -20 54q-25 49 -25 102zM575 856q0 -10 2 -19q61 -12 110 0v62q0 12 -8 24.5t-8 14.5q-29 -14 -59 -27q-37 -20 -37 -55zM599 540q4 -60 23 -179v-66q8 -23 22 -69q83 0 101 -2v57q0 12 -3 13.5t-7 1.5q2 21 -9 80q0 60 -12 156 q-8 23 -53 24q-29 0 -62 -16zM886 517q0 -8 15 -117q18 -119 24 -174q2 0 5.5 -4t13.5 -4q18 0 66 16q57 18 88 37q25 18 57.5 60.5t32.5 54.5q0 41 -89 98.5t-130 55.5h-83v-23z" />
<glyph unicode="%" horiz-adv-x="1654" d="M16 1088q0 70 60 182q55 103 103 138q8 6 98 20q84 14 183 13q10 0 78.5 -37t75.5 -37q10 0 38.5 9t43.5 11q60 10 170 10q164 0 242 -10q33 -4 88 -29q8 -12 25 -34q4 -2 74 -33q45 -43 45 -90q0 -27 -53 -120q-43 -80 -70 -117q-14 -29 -45 -80q-72 -98 -197 -287 q-18 -6 -23 -14q-2 -14 -12 -37q-29 -39 -84 -119q-62 -99 -125 -250q-4 -6 -3 -64q-2 -12 -43 -64q-47 -57 -71 -57q-20 0 -26.5 12t-14.5 25q-31 14 -56 57q-31 51 -53 68q-4 49 6 70q35 101 121 301q29 55 66 117q4 6 314 472q-10 12 -39 11q18 0 -189 -33 q-21 -33 -21 -70q0 -16 6 -27q-23 -23 -63 -104q-33 -37 -107 -109q-31 -27 -92.5 -55.5t-79.5 -28.5q-8 0 -47 -4t-48 -4q-55 0 -98 26q-31 18 -71 62.5t-50 75.5q-21 64 -41 127q-16 55 -15 107zM244 1003q35 -18 51 -18q21 0 124 60q33 21 64.5 72.5t21.5 74.5h-8 q-14 6 -44 6q-82 0 -123 -47q-14 -18 -86 -148zM1010 361l12 17q10 47 4 67q18 8 19 35q4 41 6 47q25 76 72 76q8 0 17 -8t17 -8q20 0 55.5 26.5t80.5 26.5q37 0 109 -30q60 -23 88 -40q49 -31 78 -92q20 -49 39.5 -97t19.5 -69q0 -8 -8 -28.5t-10 -31.5q-6 -23 -14 -67 q-8 -6 -25 -31q-2 -14 -14 -37q-115 -103 -249 -103q-64 0 -82 9.5t-47 38.5q-35 39 -45 47q-27 21 -70 76q-6 18 -19 53q6 14 0 27q-20 14 -18 50t-16 46zM1274 334q0 -10 3.5 -20t3.5 -14h28q76 38 76 71q0 18 -10 17q-43 0 -49 -2q-53 -33 -52 -52z" />
<glyph unicode="&#x26;" horiz-adv-x="1375" d="M55 382q0 101 54 158q45 47 209 201q127 121 127 131l-72 134q-45 88 -45 156q0 12 45 192q23 31 76 82q113 76 241 76q20 0 119 -43q62 -25 88 -53q35 -41 74 -144q4 -8 4 -39q0 -66 -11 -115q-14 -66 -104 -207q-8 -14 -62 -80q-45 -55 -45 -66q0 -29 69 -101.5 t110 -86.5q27 37 76 110q8 25 36 80q20 31 44 31q6 0 113 -26q29 -39 65 -66q16 -57 39 -103q-10 -8 -27 -24q-39 -70 -119 -197q-4 0 -16 -8q-2 -47 47 -70q72 -33 78 -41q45 -103 45 -123q0 -29 -61 -89q-18 -18 -56 -18q-8 0 -115 76q0 20 -12 51q-43 43 -55 43 q-10 0 -78 -55q-10 -6 2 -15q-21 -6 -52 -22q-23 -14 -67 -47q-8 4 -23 4q-103 -62 -256 -62q-189 0 -306 88q-35 27 -72 52q-43 39 -59 88q-49 156 -48 148zM269 285q78 -39 98 -39q10 0 45 -3t44 -3q82 0 199 62q112 60 151 117q-72 72 -203 211q-18 -20 -178 -158 q-117 -105 -156 -162v-25zM577 1112q0 -10 5 -53t5 -55q33 21 82 61q29 35 59 82q8 23 19 58q19 27 29 47l-56 10q-39 -6 -96 -33q-35 -43 -41 -59.5t-6 -57.5z" />
<glyph unicode="'" horiz-adv-x="407" d="M84 1178q2 21 19 63q10 20 63 70q63 60 90 58q6 0 27 -11.5t31 -11.5q43 -234 43 -238q0 -8 -7 -9t-7 -9q-2 -8 3 -20.5t5 -16.5q8 -127 4 -167l-10 -30q-47 -23 -56 -41q-8 0 -35.5 -4.5t-36.5 -4.5q-10 2 -10 5.5t-2 3.5q-14 -2 -26 2q-10 -2 -70 2q-23 2 -21 18 q0 8 8.5 81t8.5 81t-10.5 89.5t-10.5 89.5z" />
<glyph unicode="(" horiz-adv-x="731" d="M25 484q0 107 32 259q20 55 54 154q14 51 49 141q14 25 129 193q39 74 128 216q20 27 53 28q49 0 117 -28q43 -18 84 -35q12 -14 25.5 -31t13.5 -27q0 -2 -33 -84q-27 -25 -68 -74q-47 -74 -139 -219q-8 -21 -35 -74q-18 -18 -39.5 -59.5t-52.5 -131.5q-31 -127 -37 -220 q0 -6 -4 -24.5t-4 -30.5q0 -6 8 -68.5t8 -89.5q6 -10 18 -29q14 -78 50 -119q20 -31 39 -63q27 -43 57 -47q31 -25 82 -80q25 -41 25 -52q0 -14 -34 -68.5t-40 -54.5h-45q-12 0 -60.5 22.5t-69 42t-73.5 71.5q-21 21 -111 139q-20 41 -66 121q4 8 4 14q0 8 -8 18.5t-10 16.5 q-6 33 -19 87q-27 80 -28 186z" />
<glyph unicode=")" horiz-adv-x="717" d="M76 1326q0 88 27 96q78 -16 219 -76q25 -31 82 -90q53 -74 105 -150q59 -88 88 -156q33 -80 76 -312q-8 -8 0 -184q-8 -82 -31 -236q-39 -88 -111 -278q-14 -16 -38 -53q-29 -76 -87 -104q-8 -2 -32 -1q-33 0 -74 17q-16 14 -44 39q-60 35 -61 66v141q39 12 64 58 q152 281 137 463q12 18 12 21q0 82 -10 125q-49 209 -113 308q-39 60 -102 127q-39 29 -103 101q-4 4 -4 78z" />
<glyph unicode="*" horiz-adv-x="1037" d="M55 837q39 25 64 58q14 18 41 18q29 0 185 -66h20q14 16 13 78q0 107 -58 130v29q0 60 76 92q57 23 111 24q10 0 13 -11t12 -11q10 0 8 4t8 4q35 0 80 -51.5t49 -77.5q-8 -31 -6 -99q16 10 72 58q45 37 55 37t9.5 -4t7.5 -4t40 15t42 15q30 -1 106 -61q0 -60 -18 -84 q-25 -37 -75 -77t-142 -116q-8 -8 -7 -56q0 -8 8.5 -45t10.5 -49q-2 -20 4 -51q2 -4 99.5 -89.5t97.5 -103.5q0 -10 -32 -40t-44 -30q-10 0 -20.5 7t-20.5 7t-18.5 -3t-18.5 -3q-49 0 -131 45q-72 43 -144 88q-35 -41 -103 -116q-12 -12 -59 -27q-12 -6 -31 -23 q-12 -12 -43 -12q-10 0 -8 -4t-8 -4q-8 0 -44 9t-51 9q0 8 -16 17q-21 16 -23 18q-4 39 8 56q27 29 78 88l39 78t35 78q0 45 -111 123q-57 35 -114 72q-21 23 -46 61z" />
<glyph unicode="+" horiz-adv-x="1121" d="M39 733v61q49 31 70 31q80 0 125 -4l23 -12q8 0 19 6t17 6q47 4 93 6q62 6 86 25q0 4 6 14q-2 20 0 59q4 10 -10 27q0 4 7 11.5t9 11.5q-8 16 6 37q-2 12 -12 28v66q0 23 19 115q47 16 69 16q-10 0 52 -20q119 -41 119 -150q0 -25 -9 -96q-8 -62 -6 -95q8 0 19.5 -4 t21.5 -4l15 16q16 0 54 3.5t46 3.5q10 0 42 -18.5t40 -18.5q10 0 10.5 4t10.5 4q18 0 57 -30t39 -44q0 -84 -61 -131q-6 -6 -60 -19q-14 -4 -45 -22.5t-39 -18.5q-10 0 -8 4t-8 4q-18 0 -59.5 -14t-49.5 -23q-16 -18 -16 -41q0 -8 8 -22.5t8 -22.5q0 -86 18 -147 q25 -86 25 -91q0 -25 -29 -65q-35 -47 -71 -46q-39 0 -81 52q-4 21 -12 53q-16 18 -41 53q-25 49 -49 234q-20 27 -53 27q-8 0 -125.5 -18.5t-127.5 -18.5q-18 0 -64.5 43t-50.5 57.5t-27 65.5q-20 43 -20 52z" />
<glyph unicode="," horiz-adv-x="587" d="M14 -177q59 189 58 230q0 6 -26 48.5t-26 56.5q0 10 19.5 38t20.5 32q156 49 174 49q31 0 80 -49q23 -23 48.5 -72.5t25.5 -65.5q0 -35 -105 -254q-10 -6 -26 -19q4 -14 -29 -41.5t-58.5 -35t-56.5 -7.5q-10 0 -41 33q-37 41 -58 57z" />
<glyph unicode="-" d="M72 519q0 12 13 39t27.5 36t88.5 9l749 54q25 0 148 -97q2 -8 10 -41t8 -41q0 -129 -125 -129l-386 -17q-10 0 -114.5 -16t-114.5 -16q-76 0 -126 2q-16 14 -20 14q-10 0 -10 -8t-9 -8q-59 0 -106 121q0 2 -25 30q4 14 -2 38t-6 30z" />
<glyph unicode="." horiz-adv-x="653" d="M101 138q0 16 18 67q6 21 96 49q8 2 20.5 14.5t20.5 12.5q10 0 55.5 -12t59.5 -13q113 -12 113 -96q0 -23 -10 -39q-20 -29 -59 -70t-49.5 -41t-27 -4t-26.5 -4q-68 0 -113 23q-29 27 -86 74q-12 8 -12 39z" />
<glyph unicode="/" horiz-adv-x="1004" d="M64 215l330 403q-2 -8 16 -8q14 0 62 86q16 31 76 123q62 60 117 150q0 20 4 51q41 84 84 84q6 0 58.5 -22.5t62.5 -22.5t11.5 4t9.5 4q39 0 67 -55q23 -41 23 -74q0 -23 -4 -31q-86 -70 -174 -191q-62 -86 -124 -170q-2 -14 -12 -35q-20 -20 -51 -68q-12 -4 -33 -22 q-60 -105 -153 -229t-132 -190q-29 -18 -62 -18q-18 0 -100 39q-16 16 -44 37q-2 57 -32 155z" />
<glyph unicode="0" horiz-adv-x="1414" d="M57 398q0 -2 7 90q8 84 4 117q14 51 49 148q82 168 310 374q68 60 205 137q168 96 254 95q41 0 60 -7q29 -12 80 -55q45 -53 133 -144q70 -60 91 -82q41 -41 63 -82q25 -51 37 -96q23 -102 23 -164q0 -84 -17 -148q-25 -92 -117 -220q-41 -55 -127 -135 q-168 -156 -507 -228q-107 0 -158 -4t-41 -4q-14 0 -59 14q-55 16 -80 33q-176 111 -201 324q-2 8 -6 13q-4 14 -3 24zM226 417q0 -8 12 -27q-2 -8 -2 -23q33 -47 127 -74q76 -23 154 -24q39 0 87.5 9t128.5 32q-176 84 -175 332q0 137 37 136q37 0 66 -43q14 -20 41 -87 q18 -45 66 -98q80 -88 86 -94q-2 -8 5 -25t7 -25q0 -14 -31 -55q94 37 181 113q129 109 176 242q2 6 10.5 21.5t8.5 23.5q0 99 -86.5 161.5t-192.5 62.5q-41 0 -107 -18.5t-97 -43.5q-53 -45 -153 -121q-33 51 -33 58q0 12 5 15t5 5q-4 18 -14 25q-111 -76 -202.5 -208.5 t-99.5 -228.5q-2 -6 -6 -19.5t-4 -21.5z" />
<glyph unicode="1" horiz-adv-x="793" d="M29 1081q0 31 28 107q2 18 54 31q35 8 68 14q51 14 88 29q31 14 111 45q10 4 73 43q47 29 83 29q45 0 108 -41q33 -29 99 -88q-2 -12 8 -44t10 -38q0 -8 -8 -33q-8 -31 -10 -41q-10 -12 -25 -29q-2 -55 -33 -181q-35 -135 -39 -180q-25 -246 -26 -337q0 -10 18.5 -120 t18.5 -116q0 -43 -45 -111q-12 0 -41 -5t-38 -5q-37 0 -102 52q-72 59 -74 59v335q18 27 19 90v94q0 27 6 45q4 55 16 160q-2 12 -4 37q2 8 12 24.5t10 25.5q0 12 -4 20t-4 10q-6 4 -20 3q-8 0 -41 -15.5t-45 -19.5q-74 -16 -105 -15q-57 0 -76 19q-35 39 -72 78 q0 12 -9 35.5t-9 33.5z" />
<glyph unicode="2" horiz-adv-x="1096" d="M29 1055q0 66 35 143q43 27 200 67t233 40q127 0 279 -107q29 -20 64.5 -76.5t35.5 -83.5v-188q0 -14 -37 -103q-41 -96 -76 -162q-6 -12 -74 -97q-53 -64 -57 -104q27 -6 103 8q86 16 90 16q14 0 87 -27.5t81 -37.5q23 -37 74 -119q-16 0 -27 -13q2 -12 2 -30 q-10 -20 -38 -60q-23 2 -50 -4q-6 -2 -20.5 -14.5t-24.5 -12.5t-41 7.5t-39 7.5q-88 0 -287 -43q-16 -4 -31 0l-13 -8q-12 -7 -22 -7t-34.5 3t-31.5 3q-10 0 -63.5 -25.5t-63.5 -25.5h-35q-8 0 -51 21q-49 25 -70.5 33t-42.5 51q2 16 2 45q-2 12 -14.5 34.5t-12.5 31.5 q0 23 31 74t52 61q16 0 43 10q84 66 145 138q55 64 160 236q121 199 120 252q0 29 -46 29q-10 0 -24.5 -7t-20.5 -7q-96 -10 -191 -54q-86 -43 -154 -43q-74 0 -117 84q-27 53 -28 64z" />
<glyph unicode="3" horiz-adv-x="1258" d="M25 1289q0 8 14 52t18 65q43 29 64 30q10 0 27.5 -3t27.5 -3t65 10.5t63 10.5t38.5 -7.5t39.5 -7.5q10 0 58 11.5t55 11.5q191 0 180 0q138 -6 326 -41q41 -6 60 -27q14 -12 68 -53q41 -27 63 -64q10 -16 25 -131q-27 -20 -68 -64q-10 -2 -29 -4q-45 -55 -131 -115 q-66 -47 -133 -94q72 -45 228 -146q141 -133 141 -240q0 -84 -39 -139.5t-141 -116.5q-55 -33 -206 -78q-39 -12 -168 -74q-18 -20 -66 -54q-33 -16 -76 -16q-49 0 -79.5 21.5t-58.5 63.5t-28 57q0 21 29 98q29 84 49 84q8 0 21.5 -4t23.5 -4q8 0 26.5 15.5t23.5 17.5 q33 8 102 35q18 8 168 67q99 39 132 81q-27 37 -146 71q-105 29 -164 29q-84 0 -119 -29h-113q-8 0 -9 16.5t-3 22.5q-21 14 -49 52q-23 76 -23 71q0 14 25 138q49 23 147 76q109 72 234 174q-12 23 -41 23q-8 0 -35.5 -8t-46.5 -9q-68 -2 -213 -14q-18 -2 -69.5 -18.5 t-58.5 -16.5q-8 0 -41 10q-41 10 -75 15q-14 2 -63.5 72.5t-49.5 79.5z" />
<glyph unicode="4" horiz-adv-x="1384" d="M39 367q0 88 27 109q2 6 0 14q25 21 47 56q33 53 47 70q144 183 310 349q94 90 263 264q25 43 53 88q47 74 74 74q10 0 31 -14q31 -20 37 -23q35 -12 112 -49q14 -8 25.5 -44t9.5 -52q10 -27 9 -21q0 -10 -8.5 -31.5t-10.5 -29.5l8 -27q-10 -53 -14 -156q-2 -123 -6 -162 q-2 -14 -10.5 -46t-8.5 -42q0 -8 3 -34t3 -38q18 -4 31 -4q14 0 35 7t35 7q41 0 133 -62q16 -14 43 -36q4 -14 22.5 -42t18.5 -38q0 -2 -34 -91q-98 -47 -119 -47q-14 0 -29 14l-14 -14q-14 6 -52 6q-70 0 -96.5 -14.5t-26.5 -57.5v-65q-12 -74 -23 -148q-21 -76 -104 -76 q-37 0 -62 23q-39 35 -78 69q-33 25 -33 68q0 41 44 74v100q-150 -8 -193 -14q-105 -14 -214 -57q-8 -4 -40 -30t-46 -26q-8 0 -38 7.5t-40 9.5q-2 0 -18 22q-8 14 -17 13q-10 0 -14 -3.5t-12 -3.5q-27 0 -46 64q-14 49 -14 90zM540 573h92q-29 2 158 24q14 152 14 248 q-20 -8 -47 -26q-148 -162 -217 -246z" />
<glyph unicode="5" horiz-adv-x="1345" d="M20 792q0 20 27 53q-10 23 -2 50q14 70 53 207q8 33 13 88q0 4 -5 25.5t-3 32.5q33 27 51 113q74 8 250 36q158 25 166 25h234q6 0 47.5 10.5t51.5 10.5q18 0 101 -39q29 -29 88 -76q4 -18 8 -37q10 -29 23 -35q-2 -4 -35 -72q-21 -41 -62 -41q-279 8 -486 -29 q-33 -6 -109 -12q-4 -8 -55 -53q-35 -31 -33 -70q62 4 199 18q123 12 129 11q90 0 154 -9q137 -21 250 -80q57 -29 132 -108q88 -90 98 -152v-80q0 -2 5 -14.5t5 -22.5q0 -8 -8 -23.5t-8 -21.5q-12 -103 -101 -222q-82 -109 -194 -183q-23 -8 -66 -28q-133 -64 -230 -64 q-6 0 -50 -3t-59 -3q8 0 -127 22q-2 8 -6 23q-33 57 -39 72q-2 8 -2 55q0 45 45 136h61q10 0 40 -10.5t38 -10.5h33q-8 0 66 19q181 47 271 178q12 8 33 29q53 84 53 102q0 27 -57 62q-49 29 -60 29q-10 0 -10 -4t-10 -4q-8 0 -33 12q-31 14 -41 16q-27 8 -101 8 q-16 0 -49 -3t-39 -3q-12 0 -12 -5t-2 -7q-57 -6 -206 -37q-62 -14 -180 -74q-18 -10 -50 -10q-127 0 -186 142q-4 16 0 32q-10 37 -9 29z" />
<glyph unicode="6" horiz-adv-x="1279" d="M35 507q0 129 68 306q0 12 -2 39q16 0 20 6q31 43 56 107q18 20 47 55q213 289 355 289q47 0 119 -49q64 -45 83 -77t19 -75q0 -14 -22.5 -39t-38.5 -29q-27 -2 -80 -20q-142 -84 -214 -201q-14 -6 -37 -29q-2 4 -8 -37q-16 -10 -39 -37q-41 -86 -49 -146q-6 -8 -17 -24 q0 -14 -5 -46t-5 -40q0 -10 8 -45q8 -43 9 -58q2 -29 39 -41q18 0 18 8t-18.5 56.5t-18.5 56.5q0 129 47 209q33 57 148 160q125 72 191 89q94 23 199 24q10 0 14.5 -7t14.5 -7t14 4t12 4q10 0 46 -22q55 -29 63 -33q4 -12 23 -33q43 -27 115 -92q18 -23 32.5 -91t14.5 -115 q0 -117 -156 -258q-70 -62 -222 -164q-55 -35 -168 -74q-98 -31 -119 -31q-8 0 -94.5 -4t-96.5 -4q-6 0 -39 14.5t-43 14.5t-8 -3.5t-6 -3.5q8 0 -97 68q-33 23 -104 117q-14 20 -11 27q4 10 7 18q-21 14 -44 121q-20 96 -20 142zM571 415q0 -14 18 -44q21 -39 45 -39 q51 0 212.5 113.5t167.5 168.5q-4 8 -44 24.5t-51 16.5q-23 0 -94 -21q-55 -16 -125 -57q-18 -12 -68 -66q-60 -66 -61 -96z" />
<glyph unicode="7" horiz-adv-x="1277" d="M49 1200q0 10 17 50q23 53 30 70q23 6 39 6t45 -9.5t64 -9.5l552 51q10 0 89 14.5t88 14.5q57 0 96 -10q16 -4 66 -43q8 -21 8 -23q105 -72 105 -166q0 -45 -9 -70q-16 -41 -51 -119q-31 -37 -84 -111q-70 -127 -211 -375q-49 -64 -128 -207q-20 -47 -26 -154 q-8 -10 -17 -37q-14 -80 -65 -90q-12 -2 -37 -2q-10 0 -34 8t-32 8q-23 0 -55 55q-23 41 -29 66q-2 8 -2 49q0 25 20 86q6 16 0 43q33 92 109 259q29 45 84 136q78 129 230 391q-14 0 -48 1.5t-42 1.5t-105 -19q-33 -8 -96 -21q-213 -31 -331 -32q-53 0 -119 28 q-72 29 -96 70q-2 20 -6 52l-10 14q-9 14 -9 24z" />
<glyph unicode="8" horiz-adv-x="1197" d="M27 337q0 -8 10 30q0 88 22 148q14 37 56 117q37 68 37 76t-25 41q-29 43 -37 57q-33 60 -33 163q0 37 39 193q8 31 69 108.5t122 118.5q2 2 70 35q53 23 55 43q146 -74 150 -74q10 0 46 25t47 45q10 2 43 9.5t43 7.5q98 0 139 -31q138 -115 169 -154q45 -62 45 -172 q0 -101 -64 -195q-49 -70 -164 -171q162 -125 213 -193q68 -92 68 -223q0 -90 -29 -181q-10 -12 -30 -39q-62 -103 -174 -174.5t-212 -79.5q-10 -2 -39 -10.5t-39 -8.5q-105 0 -115 -4q-4 2 -10 0q-10 -4 -19 -4q-8 0 -37 12.5t-37 14.5q-80 16 -119 32q-64 25 -102 70 q-123 146 -148 287q-10 53 -10 81zM277 285q0 -41 4 -45q14 -27 51 -66q84 -39 197 -39q8 0 57.5 6.5t59.5 6.5q27 0 85 35q49 27 96 57q16 8 33.5 33t19.5 29q46 45 46 74q0 -4 -11 43q-10 41 -141 125q-31 8 -85 33q-31 20 -43 43q-8 16 -30 16q-16 0 -63.5 -13t-59.5 -20 q-125 -88 -169 -168q-8 -18 -28 -82q-20 -72 -19 -68zM330 965q0 -43 41 -42h54q117 0 254.5 74.5t186.5 170.5q-49 55 -76 55q-10 0 -89 -21.5t-89 -21.5t-10.5 4t-10.5 4q2 0 -90 -26q-4 -6 -16.5 -16.5t-39.5 -20.5q-12 -2 -61 -64q-55 -66 -54 -96z" />
<glyph unicode="9" horiz-adv-x="1330" d="M66 1079q0 88 18 148q4 16 23 33q27 23 31 27q33 43 71 80q12 2 37 12q18 16 58 39q35 10 96 27q4 6 15 18q164 10 145 10q220 0 394 -98q59 -53 214 -166q14 0 39 -11q21 -21 65 -61q0 -18 8.5 -66.5t8.5 -56.5q0 -12 -5.5 -13.5t-7.5 -3.5q6 -92 4 -271q-2 -8 -20 -94 q-14 -62 -10 -92h-21q-4 -45 -72 -154q-6 -21 -26 -60q-47 -51 -138 -160q-39 -29 -119 -82q-60 -35 -166.5 -62.5t-165.5 -27.5q-14 0 -54.5 13.5t-56.5 25.5q-29 21 -51 68q4 10 0 20q0 4 -9.5 21.5t-9.5 27.5q0 8 15.5 51.5t15.5 65.5q14 16 39 15q10 0 24.5 -3t24.5 -3 q62 0 175 41q96 39 129 64.5t88 90.5q33 41 68 79.5t49 72.5q16 43 27 60l-12 12q-20 -20 -66 -65q-86 -74 -191 -97q-70 -16 -213 -16q-14 0 -171 69q-10 16 -37 39q-137 66 -205 206q-55 107 -55 227zM281 1014q0 -84 82 -134q74 -47 171 -47q57 0 75 2q27 2 159 86 q153 93 153 152q0 35 -71 56q-43 12 -85 22q-55 21 -238 21q-12 0 -35.5 -9.5t-31.5 -11.5q-51 -10 -103 -37q-59 -33 -74 -67q-2 -12 -2 -33z" />
<glyph unicode=":" horiz-adv-x="653" d="M43 585q0 2 6 27q6 20 2 34v9q37 23 105 57q49 18 103 17q6 0 26.5 -5.5t32.5 -3.5q18 -21 53 -59q-2 -8 4.5 -30t6.5 -30t-17.5 -47t-21.5 -59q-6 0 -28 -3.5t-32 -3.5t-4 -8t-4 -8t-24.5 -4t-24.5 -4q-59 0 -107 41q-21 31 -76 80zM101 138q0 16 18 67q6 21 96 49 q8 2 20.5 14.5t20.5 12.5q10 0 55.5 -12t59.5 -13q113 -12 113 -96q0 -23 -10 -39q-20 -29 -59 -70t-49.5 -41t-27 -4t-26.5 -4q-68 0 -113 23q-29 27 -86 74q-12 8 -12 39z" />
<glyph unicode=";" horiz-adv-x="481" d="M53 575q0 35 9 61q18 18 59 43q49 18 119 17q51 0 87 -41t36 -80q0 -31 -46 -76.5t-69 -45.5q-6 0 -40 3.5t-44 3.5q-43 0 -80 45q-31 39 -31 70zM60 -133q0 10 19 95t19 95t-9 21l-9 10q0 10 -10 48t-10 59q39 14 45 43q49 6 86 19q31 12 68 12q35 0 92 -33 q12 -10 37 -29l12 -12t6 -18q0 -4 -10 -29q6 -62 -21.5 -152t-62.5 -123q-10 -25 -43 -64q-84 -55 -101 -55q-27 0 -67.5 40t-40.5 73z" />
<glyph unicode="&#x3c;" horiz-adv-x="1022" d="M53 564q0 8 50 58q82 80 153 158q2 6 3 18q109 131 219 261q158 185 185 185q8 0 48 -14.5t49.5 -16.5t33 -42t23.5 -55q0 -43 -41 -88q-55 -60 -156 -187q-193 -283 -193 -291q0 -25 90 -58q49 -16 97 -32q10 -33 30 -33q10 0 8 4t7 4q6 0 49 -27q55 -35 70 -45 q123 -66 199 -141q-8 -15 10 -56q-21 -29 -61 -74q-6 -2 -40 -2h-49q-10 0 -43 19q-51 31 -63 37q-170 88 -397 150q-123 35 -190 75q-31 20 -82 124q-8 14 2 41q0 2 -5.5 10t-5.5 18z" />
<glyph unicode="=" horiz-adv-x="1008" d="M53 626q0 12 3.5 13t5.5 3q-4 14 0 29q-2 12 -2 80q0 27 18 27q10 0 95.5 -4t95.5 -4t204 21.5t204 21.5q27 0 74 -17q23 -8 90 -65q74 -66 74 -97q0 -6 -11 -31.5t-11 -36.5q-271 -68 -277 -69q-8 0 -9.5 8t-11.5 8t-24.5 -7t-18.5 -7q-187 -23 -396 -23q4 0 -35 10 q-29 51 -51 60q-2 8 -9.5 39t-7.5 41zM66 232q0 35 10 51q29 20 84 19q135 -2 136 -2q70 4 270 20q187 16 191 15q6 0 166 -89q-4 -14 0 -41q7 -33 7 -35q0 4 -7.5 -11t-7.5 -42q-125 -59 -211 -74.5t-302 -30.5q-181 -14 -213 -14q-10 0 -41 16q-37 18 -49 21 q-4 31 -19 117q-14 70 -14 80z" />
<glyph unicode="&#x3e;" horiz-adv-x="1950" d="M82 1022q0 4 9.5 40t6.5 54q23 23 54 23q6 0 36 -22.5t46 -26.5q53 -14 164 -43q18 0 49 -5q29 -12 162 -63q99 -39 109 -39t8 4t7 4q6 0 119 -70q33 -27 100 -72q6 -12 25 -34q-4 -6 3 -27t7 -29q0 -21 -61 -65l-66 -42q-23 -25 -62 -63q-62 -60 -156 -183 q-121 -158 -137 -178q2 -8 0 -15q-23 -37 -72 -80q-10 -2 -35 -6t-33 -4q6 0 -104 47q-2 6 -27 45q6 23 -17 50q0 -4 5 22q-8 0 -7 15q0 80 31 117q6 8 306 355q-23 27 -81.5 41t-113.5 26q-16 0 -45 6q-20 4 -58.5 26t-46.5 22q-10 0 -12 -3.5t-10 -3.5q-10 0 -23.5 12.5 t-19.5 12.5q-2 25 -44 60q0 14 -8 48t-8 44z" />
<glyph unicode="?" horiz-adv-x="1076" d="M39 542q0 74 33 96l98 62q64 39 101 47q10 10 35 23q234 80 404 252v20q-4 2 -64 21q-39 12 -69 12q-144 0 -245 -31q-8 -2 -21 -19t-20 -17h-62t-13.5 -2.5t-16.5 -2.5t-34.5 20.5t-47.5 25.5q-6 10 -37 65q-25 43 -25 54q0 4 3.5 45t3.5 67q82 18 244 44q68 8 156 8 q8 0 46 -3t123 -33t89 -30q10 0 11.5 4t11.5 4q2 0 31.5 -21.5t66.5 -25.5q21 -27 50 -55q12 0 30 -4q25 -23 50 -64q31 -49 45 -62q0 -8 5 -33.5t5 -35.5t-11.5 -24.5t-13.5 -18.5q-21 -62 -45 -103q-21 -14 -63 -47q-68 -68 -120.5 -98.5t-158.5 -88.5q12 -27 55 -41 q31 -8 60 -18q41 -31 119 -85q-10 -39 -31 -114q-88 -47 -107 -46q-21 0 -72 19q-14 -4 -43 -4q-68 18 -148 18q-25 0 -72 -2t-67 -2q-92 0 -156 39q-31 33 -88 90q0 10 -12.5 47.5t-12.5 47.5zM224 107v26q59 37 76 37q10 0 45 -18.5t45 -18.5q8 0 10 3.5t12 3.5 q37 0 95 -33q45 -25 57 -56q6 -18 6 -69q0 -121 -137 -120q-127 0 -183 163q4 23 -26 82z" />
<glyph unicode="@" horiz-adv-x="1720" d="M43 597q0 220 195 406q168 160 439 257q248 90 462 90q209 0 380 -141q180 -148 180 -351q0 -156 -182.5 -347t-336.5 -191q-66 0 -125 64q-31 33 -84 121q-72 -21 -144 -43q-86 -25 -148 -25q-119 0 -133 6q-47 16 -64 99l-18 16q2 18 -7.5 45t-9.5 37q0 195 316 368 l-4 12q-176 -47 -349 -197q-199 -170 -199 -330l17 -64q148 -133 203 -152q117 -27 234 -55l84 -97l-12 -76q-55 -43 -146 -43q-107 0 -199 51q-152 86 -248 224q-101 150 -101 316zM741 706q70 -2 104 5t42 7v27q-10 0 -15 10q-14 20 -16 21q-39 -25 -115 -70zM765 1016h19 v14h-19v-14zM786 1030q16 0 39 2t29 2q82 0 113 -43q25 -29 59 -80q8 -43 25 -123q-6 -60 -6 -45q55 -174 108 -173q12 0 24.5 9.5t18.5 9.5q121 39 251 193q90 105 90 144q0 33 -12 47q-68 86 -140 113q-51 14 -102 26q-12 4 -82 4q-119 0 -214 -18q-72 -27 -201 -68z" />
<glyph unicode="A" horiz-adv-x="1443" d="M49 228q0 6 91 197q55 94 162 281q31 47 90 150q60 98 170 293q39 82 109 220q10 8 29 22q12 2 51 10.5t49 8.5q111 0 126 -84q18 -12 47 -31q2 -6 35 -49q0 -2 22 -97q33 -140 113 -375q31 -74 86 -214q10 -18 25 -51q20 -66 65 -179q10 -37 35 -108q16 -23 31 -45 q19 -29 19 -66q0 -10 -25 -54.5t-29 -60.5h-119q-10 0 -13 6l-3 6q-70 18 -95 72q-10 14 -24 47q-16 99 -54 197q-35 88 -71 173q-16 -7 -39 -7q-15 0 -33 3q-6 -6 -19 -17q-29 -4 -143 -25q-18 -12 -50 -26q-179 -37 -272 -62q-73 -79 -73 -158q0 -15 3 -29 q-96 -92 -105 -92h-33q-59 0 -96 33q-18 14 -40 56t-22 55zM566 638h44q10 0 16 3t16 3q31 0 238 82v25q-21 72 -69 205q-6 14 -37 41z" />
<glyph unicode="B" horiz-adv-x="1570" d="M59 1336q18 4 54.5 35t58.5 37q33 12 82 12q318 0 509 -41q90 -25 249 -72q20 -18 53 -41q35 -14 68 -27q47 -21 67 -59v-82q-121 -123 -207 -191q0 -12 6 -16q68 -14 134 -27q80 -16 132 -44t102 -59q60 -37 92.5 -73.5t59.5 -94.5q20 -38 20 -61q0 -33 -37 -90.5 t-68 -78.5q-51 -39 -244 -117q-16 -14 -45 -31q-43 -18 -199 -88q-119 -55 -129 -55t-8 4t-7 4q6 0 -81 -33t-136 -33q-10 0 -8 -4t-7 -4q-37 0 -59 17q-27 21 -74 73q2 -2 -23 -28q-47 -47 -102 -47q-70 0 -148 90q0 76 -9 229l-9 152l-58 505v175q0 62 -29 164zM361 989 q0 -12 12 -31q0 -6 1 -30q2 -18 0 -29q-2 -18 -11 -31h39q219 117 400 254q-66 17 -106 17h-4q-10 0 -55.5 8t-55.5 8h1q0 -1 -221 -24v-142zM406 490q-2 -43 37 -219h76q22 8 64 8h18q8 10 23 27q55 8 176 47l154 70q70 29 140 57q92 45 156 111q-18 14 -52 31 q-142 31 -223 31q-314 0 -569 -111v-52z" />
<glyph unicode="C" horiz-adv-x="1310" d="M33 636q0 106 2 106v-1q23 39 33 65q25 80 98 185q92 133 99 148q105 84 211 170q126 97 214 97h2q55 0 133 -62q59 -51 117 -103q2 -14 13.5 -66.5t11.5 -64.5q0 -70 -93 -70q-23 0 -56.5 43.5t-56.5 43.5q-12 0 -67 -41q-80 -57 -87 -60q-117 -76 -229 -234 q-123 -174 -122 -300q0 -195 230 -196q8 0 56.5 8t58.5 8q135 0 368 178q39 31 78 101q2 18 18 64h31q21 0 78 -78q10 -2 27 -6q21 -18 59 -56q25 -33 25 -86q0 -29 -19 -43q-2 -6 0 -13q-88 -170 -398 -313q-29 -14 -131 -39q-115 -27 -173 -27q-125 0 -209 43 q-115 59 -168 142q-20 16 -49 47q-105 183 -105 410z" />
<glyph unicode="D" horiz-adv-x="1492" d="M60 1190q0 10 9 34t11 36l-1 -3q-3 0 -3 63q0 10 7 28.5t9 26.5q14 23 29 35q31 2 96 2q8 0 41 -19.5t46 -21.5q121 -14 242 -25q152 -18 244 -41q72 -20 392 -158q8 -14 29 -39q47 -27 121 -84q29 -29 61 -86q25 -49 48 -95q-2 -16 4 -51q6 -41 6 -47q0 -74 -31 -135 q-29 -51 -139 -128q-88 -64 -150 -94q-86 -47 -261 -134q-101 -47 -251.5 -107.5t-164.5 -60.5q-8 0 -34 19.5t-36 23.5q-14 -33 -25 -67q-25 -54 -48 -54h-1q-8 0 -27.5 -5t-30.5 -5q-33 0 -88 57q-14 21 -43 70q-10 15 -10 64q0 21 2 49q0 -8 -15 279q0 8 -7 30.5t-7 34 t-2 40.5q-2 37 -2 53q-2 98 -10 331q6 12 10 34q0 27 -4 80q0 12 -8 35t-8 35zM314 823q0 10 10 -35q-2 -8 -8 -16v-9q10 -140 25 -248q0 -8 -2 -32.5t-2 -29.5h47l14 17q13 -17 24 -17h1q8 0 207 83q131 55 259 110q150 68 225 122q25 20 33 47q-8 25 -37 43 q-41 25 -125 70q-16 2 -35 6q-14 12 -45 30q-154 45 -296 62q-37 -4 -102 -4q-6 6 -12 8q-25 0 -72 4l-47 4q-18 0 -44 -20q-6 -45 -14 -134q12 -33 12 -47t-8 -14h-8z" />
<glyph unicode="E" horiz-adv-x="1191" d="M72 170q0 6 15.5 22.5t17.5 24.5q12 33 12 83q0 2 -16.5 83t-18.5 124q-1 22 -1 46q0 59 7 124q0 8 -8 20.5t-8 22.5q0 8 8 37t8 41q3 31 3 56q0 36 -7 57q17 81 17 143v7q14 29 14 41q0 8 -10.5 8t-10.5 8q0 -8 7 5q6 10 -5 43v8q21 18 44 80q12 27 45 27q68 0 57 -1 q176 41 384 107q131 41 164 41q59 0 133 -33l44 -55q39 -51 39 -80q0 -10 -15 -47q-25 -51 -29 -62q-12 1 -26 1q-43 0 -109 -5q-64 -14 -181 -51q-133 -43 -193 -58q-33 -8 -94 -26q-16 -59 -29 -134v-72q6 -4 17 -4l525 113q23 -25 82 -70q33 -12 97 -45q-6 -23 -45 -117 q-12 -4 -31 -12q-25 -20 -58 -25q-51 -10 -53 -10q-72 -25 -220 -66q-111 -27 -191 -73q-16 -8 -45 -7q2 0 -74 13q-12 -6 -12 -17q0 -10 12 -30q-4 -19 -4 -43q0 -27 5 -60q2 0 6 -3t14 -3t26.5 12t24.5 14q35 6 103 17q41 10 150 43q92 27 102 27t8 -3.5t5 -3.5 q96 0 178 56q45 0 99.5 -29t77.5 -65q32 -48 32 -107q0 -20 -37.5 -58.5t-50.5 -38.5q-10 0 -17 3.5t-16 3.5q-49 0 -367 -83q-82 -20 -162 -41q-103 -35 -156 -92q-27 -31 -76 -31q-8 0 -168 72q-39 99 -39 127z" />
<glyph unicode="F" horiz-adv-x="1111" d="M35 566q0 82 35 323q14 49 37 141v51q0 31 35 105q43 90 84 90q12 0 14 -4t6 -4l581 162q203 -92 203 -170q0 -21 -23.5 -67t-31.5 -48q-117 -21 -207.5 -47.5t-287.5 -77.5q-43 -12 -63 -17q-35 -14 -50.5 -30.5t-23.5 -44.5q-12 -45 -13 -52q439 45 439 47h-1 q84 0 305 -75v-58q-64 -57 -223 -96q-125 -31 -249 -62q-84 -35 -236 -98q-27 -6 -74 -17q-4 -4 -4 -25q0 -33 52 -197q18 -21 55 -63q-4 -12 7 -42t11 -38q0 -99 -153 -150q-25 12 -68 39q-2 4 -92 127q6 20 6 45q0 51 -35 171.5t-35 181.5z" />
<glyph unicode="G" horiz-adv-x="1443" d="M18 453q14 14 19 23q0 27 -4 84q-6 70 -6 91q-1 21 -1 41q0 93 23 153q20 37 52 122q18 23 46.5 70t94.5 143q41 53 158 133q134 93 194 93h1q21 0 125 -25q12 -23 43 -37q47 -20 54 -25q35 -51 72 -100q70 -103 71 -154q0 -6 -7 -27.5t-5 -33.5q-6 -18 -27 -46 q-49 -33 -71 -33q-10 0 -20.5 3.5t-20.5 3.5q-43 0 -78 76t-58 76q-6 0 -31 -19q-45 -8 -119 -94q-55 -51 -158 -167q-4 -18 -20 -55q-53 -90 -58 -199q-12 -20 -12 -21q0 -27 27 -94q-2 -10 -2 -20q0 -33 22.5 -57t59.5 -24q10 0 12 -8t10 -8q10 0 101.5 8t103 8t101.5 23 t135 39q66 23 122 62q-17 4 -46 4q-19 0 -43 -2l-70 -4h1q-20 0 -103 26q-8 2 -43 56.5t-35 71.5q0 8 8 39.5t10 48.5v55q23 33 76 33q8 0 98.5 -8t98.5 -8q10 0 115 4t113 4q47 0 119 -47q66 -41 109 -91q33 -39 33 -111q0 -10 -4 -8q-6 2 -7 0v-8q0 -20 -6 -86 q-20 -35 -67 -105q-57 -68 -115 -108t-154.5 -87t-112.5 -47q-10 0 -10 4t-9 4q-6 0 -65 -16q-68 -18 -115 -25q-8 -2 -29.5 -14.5t-28.5 -12.5q-105 0 -125 -6q-8 -2 -57 -2q-8 0 -24.5 5.5t-22.5 5.5q-213 12 -304 143q-16 35 -58 101q4 6 4 22q-43 38 -43 90q0 10 2 21 q0 12 -39 53z" />
<glyph unicode="H" horiz-adv-x="1476" d="M47 172v675q6 6 10 23q4 117 7 150q8 94 26 156q2 6 8 86q4 60 27 88q41 47 99 64q37 12 69 12q31 0 50 -16q25 -21 53 -43v-15q0 -88 -41 -293q-4 -14 -4 -148q0 -57 -4 -141q-12 -21 -12 -23q0 -10 6 -30.5t6 -27.5q0 -129 -2 -155q4 -10 9 -20.5t15 -10.5q33 0 212 43 q238 59 431 133q6 2 36.5 28t45.5 26q10 0 16 -3.5t8 -3.5t19 31q27 203 33 425q1 8 1 19q0 22 -3 56q-4 50 -4 73q0 -4 22 70q35 0 86 -3q6 0 28 -15t32 -15t12 9t12 9q8 0 37 -16q37 -18 48 -21q12 -21 36 -49q0 -14 -12 -43l13 -21q10 -14 10 -28q0 -10 -12.5 -50.5 t-16.5 -56.5q-2 -59 -12 -174q-16 -226 -49 -674q1 -12 1 -27q0 -38 -4 -96q-6 -20 -34 -51q-33 -35 -56 -35q-8 0 -27.5 -4t-29.5 -4q-59 0 -121 88q-31 57 -64 111q0 -6 20 29q2 6 0 16q-4 12 -4 16q0 14 23 25v54q-14 14 -16 14l-692 -189q-4 4 -45 2q2 -7 2 -14 q0 -33 -42 -91q-52 -70 -92 -71q-8 0 -27.5 9t-29.5 9q-16 0 -55 29q-35 23 -48 39q0 6 -5 27.5t-5 33.5z" />
<glyph unicode="I" horiz-adv-x="497" d="M55 174v89q4 4 11 16q0 158 10 452l82 621q42 58 73 58h1q21 0 100 -29q90 -33 97 -61q18 -64 18 -97q0 -18 -28 -119q-27 -109 -29 -119q-45 -289 -60 -470q0 2 0 -197q0 -6 -4 -21.5t-4 -27.5q0 -10 14.5 -71t14.5 -71q0 -12 -8.5 -21.5t-8.5 -11.5q4 -25 -16 -47 q-33 -35 -82 -35q-16 0 -68.5 28t-60.5 40q-16 29 -52 94z" />
<glyph unicode="J" horiz-adv-x="1172" d="M43 355v189q2 16 27 55q31 47 59 47q10 0 38 -13t36 -15q39 0 105 -13q76 -33 76 -121q0 -47 -10 -70q-25 -12 -72 -45q0 2 -4 -12q-4 -6 8 -6t14 3t6 3q-14 -12 0 -37q2 -8 72 -37t94 -29q10 0 98.5 3.5t98.5 3.5q49 0 95 45q39 39 51 80q29 99 29 219q0 6 9 24.5 t9 27.5q0 51 -16 115q-2 64 -12 195q-8 35 -19 98q0 51 -8 150q-2 12 -14.5 49t-12.5 47q0 23 21 37q21 68 37 68q8 0 53 -8t64 -10q12 -10 29 -25q43 -4 77 -21q44 -72 44 -125q0 -33 -37 -57q0 -4 8 -10.5t8 -18.5v-228q0 -8 12 -27q2 -20 7 -94q8 -62 8 -98q0 -16 4 -50 l2 -2q12 -6 12 -12q0 -10 -5 -9t-5 -3q-2 -76 -12 -218q-8 -68 -64 -263q-21 -25 -72 -71q-31 -21 -98 -43q-54 -19 -72 -19h-2q-10 0 -31 8t-29 8t-23.5 -8t-25.5 -8q-8 0 -73.5 14.5t-74.5 14.5q-8 0 -16 -3t-17 -3q-16 0 -115 22q-113 25 -176 49q-47 18 -146 120 q-27 29 -37 77q-10 62 -12 62v-2z" />
<glyph unicode="K" horiz-adv-x="1273" d="M45 217l45 768q0 160 31 351q2 20 43 70l27 12q10 0 58.5 -25.5t58.5 -25.5t10 4t8 4q31 0 66 -53q25 -37 25 -87q0 6 -27 -88q-4 -47 -14 -137q-14 -47 -25 -113v-50h8q98 68 271 204l111 111q18 8 43 26q51 45 191 201q203 -23 250 -90q14 -20 10 -57l7 -7 q0 -12 -1 -39q-137 -117 -309 -258q-20 -18 -66 -56q-25 -20 -53 -39q-31 -27 -31 -55q0 -18 119 -168q140 -177 178 -236q84 -133 83 -171q0 -103 -109 -104q-78 0 -123 53q-45 72 -91 142q-41 62 -82 125q-49 68 -102 113q-60 84 -80 84q-18 0 -70 -51l-54 -54 q-39 -21 -119 -72q-8 -47 -10 -186v-210q-68 -53 -98 -53q-8 0 -23.5 4t-23.5 4q-16 0 -54.5 20.5t-52.5 39.5q-25 35 -25 149z" />
<glyph unicode="L" horiz-adv-x="1146" d="M47 542q0 8 4 24.5t4 26.5v211q0 96 15 169q25 131 92 381q-2 12 -2 29q12 16 37 45q23 0 74 -12q66 -14 74 -16q49 -6 67 -19q12 -16 37 -47q-2 -18 9 -49v-5q-2 0 -43 -84q-47 -92 -54 -139q-9 -56 -9 -103q0 -16 1 -31q-6 -12 -18 -30q-11 -54 -11 -163v-18 q0 -37 -6 -112t-6 -77q0 -45 20 -133q23 -111 54 -111q133 0 406 226q53 44 53 66q0 4 -2 8q6 0 21.5 8t24.5 8q39 0 192 -74q19 -45 19 -94q0 -64 -78 -124.5t-154 -119.5q-27 -27 -150 -93q-135 -72 -178 -72q-8 0 -41 -3t-41 -3q-138 0 -243.5 78t-111.5 185 q-12 18 -25 49q-31 189 -31 218z" />
<glyph unicode="M" horiz-adv-x="1667" d="M23 295l227 780q43 146 56 247q2 29 12 78q16 12 41 12q39 0 109 -35q29 -14 80 -53q45 -47 102 -165q14 -29 42 -86q86 -172 162 -345q41 23 117 120q57 76 115 155q70 80 141 159q92 103 99 155q21 25 45 25q14 0 75 -24l60 -23q10 0 8 4t7 4q14 0 41 -35q8 -23 35 -65 q5 -46 34 -138q-45 -27 -49 -62q-12 -94 -16 -250q-8 -207 -11 -256q-1 -25 -1 -47q0 -48 6 -77v3q2 0 2 -290q0 -14 -20.5 -48t-31.5 -34q-8 0 -14 8t-16 8q-8 0 -26 -8t-28 -8q-16 0 -94 49q-14 27 -47 78q0 8 -5.5 31t-5.5 33q0 18 15 47l-8 31q8 57 22 176q-4 4 -4 78 t4 218q6 6 -12 6q-4 0 -109 -129q-23 -20 -68 -72q-29 -41 -59 -94q-21 -37 -37 -138q0 -4 3 -12t3 -11q-41 -74 -76 -75q-10 0 -37 -3.5t-37 -3.5q-16 0 -66.5 40t-58.5 57q-21 51 -27 133q-6 6 -16 21q0 14 -6 39q-43 98 -138 312q-14 31 -63 92q-59 -189 -181 -597 q-10 -36 -10 -68q0 -35 12 -65q-12 -31 -41 -78q-41 -33 -84 -33q-18 0 -73.5 40t-66.5 58q-8 41 -32 131z" />
<glyph unicode="N" horiz-adv-x="1400" d="M55 121q0 74 29 211q23 113 49 226q12 37 27 99q18 103 47 281q4 98 35 267q148 41 203 41q49 0 62 -19l133 -195q70 -103 189 -230q144 -154 201 -225q14 16 15 47q4 21 2 63q-2 45 -2 62q2 57 10 191q8 119 8 127q0 10 -3 20.5t-3 18.5q0 6 2 47q2 33 0 52 q-2 23 -13.5 61.5t-11.5 44.5q0 47 78 74q60 21 121 21q45 0 85 -42t40 -86q0 -43 -22 -90q0 2 8 -29q-4 -4 -14 -16q0 -84 -12.5 -304.5t-12.5 -212.5q0 -92 17 -365q0 -17 57 -76q-29 -96 -60 -130q-39 -41 -116 -41q-35 0 -41 7q-25 27 -81 65q0 41 -28 74 q-80 101 -160 205q-99 123 -195 222q-47 49 -122 141.5t-120 137.5q-33 -189 -87 -392q-12 -43 -53 -275v-13q0 -54 -14 -133q-21 -39 -93 -39q-57 0 -110 41q-12 14 -35 39q-10 31 -9 27z" />
<glyph unicode="O" horiz-adv-x="1694" d="M47 472v37q0 -12 8 27q-2 23 -2 49q0 140 84 289q45 80 140.5 184t171.5 153q2 2 87 39q60 39 121 78q113 72 156 72q18 0 62 -24t51 -24q10 0 12 3.5t10 3.5q10 0 39 -28t37 -28q10 0 92 24.5t91 24.5q10 0 8 -4q-4 -8 0 -10h15q88 0 174 -64q2 -2 84 -45q60 -31 90 -70 q23 -33 49.5 -135.5t26.5 -145.5q0 -57 -43 -178q-39 -105 -64 -148q-105 -146 -303 -289q-189 -137 -349 -191q-163 -56 -237 -56h-3q-8 0 -30 -7t-30 -7t-102.5 4t-104.5 4q-18 0 -62 19q-51 20 -111 65q-45 35 -108 126q-4 4 -13 59q-6 8 -16 23q-4 39 -6 57 q-2 10 -12.5 35t-10.5 38t-2 40zM293 415q0 -43 46 -105q14 0 48 -8.5t40 -8.5q10 0 34.5 3.5t31.5 3.5q66 0 141 18q4 6 10 13.5t17 7.5q8 0 10 -3.5t12 -3.5q12 0 88.5 23t102.5 35q392 191 507 474q33 78 33 101q0 53 -51 82q-43 23 -99 24q-55 0 -131 -27 q-140 -53 -154 -57q-96 -29 -93 -29q-29 0 -49 17q-27 31 -55 63q-4 18 -19 17q-72 -43 -162 -117q-41 -49 -109 -123q-127 -127 -182 -284q3 -17 3 -44q0 -14 -1 -31q-2 -10 -10.5 -20.5t-8.5 -20.5z" />
<glyph unicode="P" horiz-adv-x="1394" d="M49 1289q0 8 7.5 34.5t7.5 37.5q29 35 61 43q39 8 90 8q6 0 121 -3t154 -3q59 -8 169 -23q21 -4 80 -20q53 -16 61 -15q10 0 11.5 4t11.5 4q8 0 44 -19.5t46 -19.5q8 0 10 3.5t11 3.5q14 0 136 -62t182 -101q27 -27 90 -86q2 -23 17.5 -77t15.5 -62q0 -115 -125 -210 q-16 -12 -236 -145q-74 -35 -234 -127q-35 -12 -103 -37q-29 -16 -70 -56q-27 -29 -69 -29q-8 0 -23.5 7.5t-24.5 7.5q-14 0 -18 -6q-14 -27 -21 -95q-2 -8 6.5 -53t8.5 -74q0 -41 -15 -68q-4 0 -37.5 -15.5t-42.5 -15.5q-12 0 -73.5 42.5t-69.5 54.5q-14 21 -19 49 q-6 60 -24 177q12 20 8 39q-4 27 -47 392q-16 119 -41 338q-10 2 -25 13q-31 86 -31 164zM374 1061q0 -8 16 -156q20 -160 24 -226q18 -27 25 -28q23 20 95 45q18 2 39 6q119 64 238 129q139 74 215 162q-154 78 -336 101l-237 29q-10 0 -34.5 -3.5t-34.5 -3.5 q-10 -23 -10 -55z" />
<glyph unicode="Q" horiz-adv-x="1554" d="M43 453q0 43 10 157q10 23 23 73q21 117 84 220q70 115 279 302q80 72 183 127q123 66 203 66q20 0 105 -21q105 -25 195 -60q193 -76 285 -205q14 -20 35 -86q16 -53 32 -57q2 -35 4.5 -96t2.5 -69q0 -267 -191 -470q29 -68 121 -133q-2 -103 -12 -135q-20 -54 -85 -54 h-2q-72 0 -157 80t-109 80q-10 0 -11 -6v-8q-21 -6 -229 -84q-137 -54 -234 -54h-4q-90 0 -232 35q-25 16 -72 43q-76 39 -136.5 126.5t-68.5 171.5q0 8 -9.5 27.5t-9.5 29.5zM279 445q0 -43 38 -79t83 -36q10 0 14.5 3.5t14.5 3.5q8 0 20.5 -7.5t22.5 -7.5t21.5 6t17.5 6 q123 6 296 78q-45 55 -89 109q-68 88 -68 140q0 8 6.5 48t4.5 59q29 45 49 45q37 0 84 -29q37 -14 111 -66q12 -12 25.5 -45t23.5 -41q92 -90 91 -90h22q14 0 59.5 53t69.5 92q43 68 50 105q18 70 18 72q0 21 -33 86.5t-55 79.5q-62 45 -127 45q-8 0 -63.5 -24.5 t-64.5 -24.5q-8 0 -63.5 15.5t-65.5 15.5q-35 0 -197 -129q-12 -16 -29 -35q-80 -51 -156 -156q-21 -33 -73 -136q-59 -121 -58 -156z" />
<glyph unicode="R" horiz-adv-x="1388" d="M53 437l7 370q20 131 47 369q4 41 31 166q33 17 64 17h3h10q110 0 497 39q29 4 144 4q113 0 234 -35q20 -6 76 -47q88 -60 96 -64q31 -21 44 -46.5t28 -72.5q4 -21 4 -47q0 -96 -160 -255q-82 -84 -175 -154q43 -37 76 -111q45 -103 62 -129q33 -68 109 -213 q31 -43 65 -84q54 -74 54 -101q0 -51 -36 -84t-81 -33q-10 0 -25.5 10.5t-19.5 10.5q-55 20 -154 149q-14 21 -25 25q-20 68 -45 72q-21 29 -53 103q-4 20 -19 63q-25 33 -78 103q-12 27 -37 88q-29 0 -102 -31q-78 -33 -113 -37q-6 0 -18.5 -7t-24.5 -7q-8 0 -9.5 5 t-11.5 5t-51 -16.5t-51 -16.5q-6 0 -35 4t-46 4l-8 -6q-7 -57 -7 -105q0 -19 1 -36q2 -21 9.5 -74t7.5 -62l-7 -10q8 -20 8 -42q0 -13 -3 -28q-4 -14 -41 -49t-58 -35q-18 0 -59 19q-49 21 -68 49q-27 31 -39 135q-17 136 -17 219v9zM330 733h107q12 0 14.5 4t2.5 8 q55 6 90 22q27 18 74 42q115 41 232 129q131 96 166 184q-220 0 -236 -2l-15 -10q-41 0 -172 -20q-197 -29 -217 -31q-47 -269 -46 -275v-51z" />
<glyph unicode="S" horiz-adv-x="1341" d="M35 942q0 148 76 252q8 12 80 54q183 109 304 135q80 18 227 35q123 14 148 14q8 0 44 -10t53 -12q62 -8 131 -51q59 -39 119 -78q2 -8 24 -48q16 -33 15 -41q0 -39 -43 -69.5t-86 -30.5q-8 0 -52 18q-51 20 -72 23q-27 0 -75 6q-14 8 -42 18q-29 2 -162 2 q-99 0 -250 -73q-160 -76 -174 -152q0 -20 12 -19l677 8q33 0 127 -55q20 -12 84 -86q33 -25 83 -74q34 -52 34 -150q0 -8 -4 -57q-6 -57 -8 -84q-27 -37 -66 -117q-20 -12 -32 -29q-72 -99 -275 -181q-193 -80 -329 -80h-129q-12 0 -82 23q-80 27 -111 45q-49 33 -139 74 q-23 39 -44 76q-25 47 -26 76q0 45 4 33q14 31 27 90q43 25 43 26q35 0 71 -36q8 -39 21 -39q10 0 8 4t6 4q10 0 85 -45t83.5 -45t33 -6.5t34.5 -6.5q119 0 249 47q152 53 250 148q18 14 47 39q23 23 39 86q-18 20 -49 23q-98 10 -304 10q-8 0 -90 -11t-94 -11 q-177 0 -300 32q-16 4 -74 37q-39 21 -72 74q-18 23 -45 72q-10 25 -10 113z" />
<glyph unicode="T" horiz-adv-x="1476" d="M27 1116q0 14 27.5 52.5t51 55.5t79.5 18q43 2 86 2q8 2 55 12q39 8 62 8q20 0 33 -4l603 86q193 49 185 49q10 0 10 -5t10 -5q6 0 23.5 16.5t28.5 16.5q14 0 73.5 -46t86.5 -83q34 -45 34 -70q0 -18 -33.5 -56t-44.5 -43q-39 -21 -129 -32q-70 -8 -141 -13 q-78 -14 -230 -37l-82 -669q12 -10 12 -63q2 -60 6 -72q20 -76 19 -92q0 -41 -37 -70q-20 -16 -86 -49q-53 31 -175 147q21 37 25 56q-12 41 -11 47v191q4 4 9 16q2 72 24 246q6 35 11 87v172q0 2 -1.5 8t-11.5 6q-51 0 -326 -67q-6 -2 -17.5 -15.5t-21.5 -13.5 q-33 0 -90.5 31t-75.5 59q-12 18 -26.5 63.5t-14.5 59.5z" />
<glyph unicode="U" horiz-adv-x="1443" d="M49 780v240q16 49 64 304q4 16 27.5 46t36.5 30q29 0 75 -39q21 -21 43 -41q27 -10 74 -27q27 -64 27 -93q0 -10 -16 -75q-20 -78 -25 -107q-8 -16 -25.5 -52t-17.5 -102v-222q0 -10 9 -39.5t11 -40.5q-4 -18 -2 -49q14 -37 48 -113q49 16 141 43q12 10 37 27 q250 140 472 404q8 18 19 47q18 18 41 58q10 29 20 88q4 2 17 29q4 21 14 72q-8 20 -14 65q6 82 67 183q45 -16 128 -60q25 -27 77 -75q35 -123 35 -122q0 -8 -20.5 -61.5t-24.5 -79.5q-8 -94 -31 -279v-285q19 -61 19 -81q0 -4 -4 -30q-4 -20 0 -27q74 -154 74 -207 q0 -4 -9 -35q-35 -29 -69 -58q-25 -18 -64 -18q-98 0 -139 127q-12 10 -25 41q-4 23 -25 302q-6 6 -20 6q-23 0 -86 -70l-66 -74q-96 -66 -189 -131q-131 -86 -232 -121l-12 -10q-12 -11 -23 -11q-6 0 -20 3q-12 2 -19 0q-21 -14 -32 -13q-45 0 -85 27q-62 43 -127.5 137.5 t-77.5 159.5q-16 53 -45 163q-6 33 -8 127q-2 68 -23 119z" />
<glyph unicode="V" horiz-adv-x="1283" d="M55 1231q0 14 7.5 21.5l9.5 9.5q-8 29 -8 27q6 8 28 65q14 39 35 39q10 2 19 2q72 0 189 -151q20 -27 24 -74l4 -78q4 -55 39 -144q-2 -14 -2 -35q18 -31 19 -68q2 -47 4 -51q20 -57 47 -162q10 -64 37 -115q133 123 265 316q129 187 174 316q51 148 103 255 q70 -18 141 -76q82 -66 82 -134q0 -47 -55 -156q-33 -94 -121 -273q-66 -101 -197 -275q-150 -203 -179 -244q-18 -27 -110 -213l-10 -5q-11 -5 -23 -5q-146 0 -179 55q-16 27 -68 174q-57 154 -86 259q-62 218 -113 460q-8 41 -43 151q-33 101 -33 109z" />
<glyph unicode="W" horiz-adv-x="1646" d="M25 1004q0 37 24.5 83t55.5 46q53 0 123 -33q37 -20 53 -37q21 -25 58 -84q25 -68 80 -203q21 -18 47 -54q31 -105 82 -193q29 20 51 72q16 43 31 84q49 72 66 128q9 27 9 50q0 13 -3 24q6 10 18 26q-2 10 -4 29q27 33 51 33q27 0 93 -13q27 -6 75 -38.5t58 -57.5 q8 -41 27 -113q10 -6 25 -31q21 -74 65 -203q6 -18 23 -35q25 51 39 125q10 60 12 99q6 8 17 21q39 127 77 254q45 152 62 259q14 88 14 168q2 2 19 16q12 10 24 10q8 0 41 -16t40 -16q10 0 8 4t6 4q45 0 131 -119q2 -12 6.5 -44t4.5 -40t-60 -179q-68 -197 -86 -258 q-57 -183 -93 -355q-2 -16 -4 -31q-2 -23 -16 -29q4 -20 -10 -45q-18 -33 -19 -45q-37 -259 -72 -259q-8 0 -47 6.5t-49 6.5q-45 0 -84 34q-74 64 -132 191q-49 107 -96 214q-31 -27 -62 -93q-25 -55 -51 -108q-23 -43 -37 -91q-4 -16 15 -37q-10 -12 -19 -30q2 -6 2 -13 q0 -25 -26.5 -52.5t-47.5 -27.5h-55q-14 0 -78 48.5t-88 74.5v37q-2 29 -19 39q-14 96 -57 119q6 14 6 39l-131 273q-90 176 -138 224q-8 8 -14 35q-6 35 -7.5 41t-17.5 31.5t-16 34.5z" />
<glyph unicode="X" horiz-adv-x="1423" d="M62 166q0 35 55 90q12 12 35 19q4 12 22 31q94 62 144 113q57 68 172 203q14 0 37 12q25 23 80 78q-94 109 -262 277q-45 37 -128.5 126.5t-132.5 130.5q2 -6 10 53q123 115 144 115q53 0 86 -10q16 -6 50 -46q43 -53 123 -151q47 -43 139 -128q86 -88 138 -156 q35 -10 24 -10q12 0 179.5 173.5t159.5 198.5q0 12 4 24.5t4 14.5q86 -14 154 -50q96 -49 96 -113q0 -31 -119 -147q-12 -10 -63 -68q-33 -39 -146 -150q-92 -90 -92 -100q0 -2 78 -115q47 -66 129 -185q43 -53 86 -105q82 -111 82 -143q0 -95 -136 -95h-3q-16 0 -31.5 -3 t-20.5 -3q-25 0 -78 52q-70 70 -155 201q-109 168 -140 209h-19q-41 -47 -160 -164q-60 -57 -120 -115t-159 -183q-41 -53 -74 -53q-70 0 -116 24q-10 6 -43 66t-33 82z" />
<glyph unicode="Y" horiz-adv-x="1468" d="M20 1287q0 18 18.5 43.5t35.5 25.5q23 0 125 -53q90 -49 101 -57q16 -33 78 -87q55 -45 110 -92l78 -82q66 -70 82 -70q14 0 126 80t176 136q123 111 226 223q0 18 22 41q4 -2 11.5 1.5t17.5 3.5q12 0 13.5 -9.5t1.5 -11.5q35 -16 131 -64q31 -16 43 -53q10 -29 10 -82 q0 -10 -131 -121q-185 -160 -253 -222q-86 -76 -151 -145q0 -16 8 -44q10 -39 10 -43q-35 -41 -35 -112q0 -35 10 -76q0 -4 -12 -9.5t-18 -13.5q14 -14 14 -29q0 -6 -10 -52t-10 -67q0 -8 3 -42t3 -56q0 -130 -86 -130h-1q-33 0 -112 54q2 6 -5 29q-39 31 -47 151 q-4 41 -12 128q0 21 -4 69q4 10 8 29q6 25 6 52q0 21 -4 43q0 6 -9 24.5t-9 28.5q0 25 -17 59q-18 14 -55 44q-66 70 -179 172q-35 43 -111 123q-62 57 -180 176q0 14 -8.5 46t-8.5 41z" />
<glyph unicode="Z" horiz-adv-x="1511" d="M41 160q0 10 12 29q20 27 21 31q-2 12 -2 30q31 29 141 167q49 49 142 151q86 99 363 446q-4 2 -33 2q-10 0 -70.5 -17.5t-70.5 -17.5h-283q-29 0 -56 8q-43 16 -74 45q-12 14 -37 52q-31 49 -32 67q0 4 12 23q-2 16 -2 43q4 31 43 70q10 0 34.5 -4.5t33.5 -4.5 q59 -2 160 -2q70 0 162 2q57 1 76 1q9 0 8 0q8 0 17.5 9t17.5 11q18 6 215 45q86 12 249 49q6 2 24.5 21.5t28.5 19.5q20 0 101.5 -66.5t89.5 -82.5q33 -72 33 -97q0 -33 -89 -94q-20 -20 -57 -55t-109 -95q-217 -185 -304 -302h-10l-277 -338l6 -11q74 -6 318 -6 q10 0 130.5 6.5t130.5 6.5t16.5 -3t16.5 -3q8 0 75.5 18t74.5 18l52 -30q52 -29 69 -29l22 -53q12 -4 29 -9q8 -26 31 -67q-18 0 -21 -6q21 -14 21 -35q0 -33 -57.5 -75t-82.5 -42q-6 0 -36.5 13t-47.5 15q-25 2 -107 2l-792 -22q-8 0 -26.5 -9.5t-22.5 -9.5 q-55 -18 -105 -18q-72 0 -141 82q-2 23 -12 68q-20 53 -19 53z" />
<glyph unicode="[" horiz-adv-x="706" d="M59 595v207q16 20 19 117q0 6 8 24.5t8 25.5q0 8 -2 35.5t-2 39.5q2 18 11 66q6 41 6 66q0 -2 -4 45q-2 35 2 51q6 27 26 76q2 2 -10 35q6 12 29 80q217 47 262 47q23 0 80 -32q37 -21 64 -60q41 -57 41 -117q0 -43 -26.5 -76t-90.5 -45q-105 -18 -107 -18 q-20 -8 -33.5 -40t-13.5 -49q0 -96 -8 -156q-2 -27 -16.5 -96.5t-14.5 -77.5v-320q0 -25 21 -107q25 -94 45 -94q8 0 57.5 11t61.5 11q43 0 49 -2q23 -14 58 -47q2 -2 20 -6q39 -29 60 -72q12 2 12 -16q0 -23 -25.5 -67t-44.5 -52q-66 -18 -191 -56q-14 -6 -71 -39 q-43 -25 -58 -25q-45 0 -88 25q-8 10 -29 29q0 2 -20 45q8 39 -25 51q14 16 14 23q0 8 -10 18.5t-10 18.5v80q0 12 -29 265q-10 80 0 117q-25 39 -25 61z" />
<glyph unicode="\" horiz-adv-x="1031" d="M35 903q0 23 6 37q20 27 62 66q57 41 90 41q45 0 82 -15.5t74 -30.5q8 -20 25 -51q94 -98 268 -289q199 -226 353 -439q11 -15 11 -46q0 -41 -119 -112q-18 -10 -54 -9q-57 0 -96 39q-41 60 -123 175q-51 68 -230 265q-62 72 -185 203q-53 37 -103 76q-60 45 -61 90z" />
<glyph unicode="]" horiz-adv-x="651" d="M29 1408q0 8 15 40t18 44q23 16 160 16q117 0 203 -86q12 -6 31 -14q25 -60 73 -117q-4 -6 -4 -50q0 -142 -2 -164q0 -4 -7 -22.5t-7 -26.5v-209q0 -6 4 -26.5t4 -31.5v-96q4 -57 21 -158q20 -113 24 -154q-4 -20 -4 -49q0 -37 6 -99q8 -72 7 -98q2 -41 20 -109 q17 -74 19 -107q-10 -8 -31 -22q4 -12 0 -21q-14 -23 -54.5 -43t-68.5 -20q-8 0 -55.5 15t-57.5 15q-8 0 -26.5 -3t-25.5 -3q-8 0 -47 19q-51 29 -63 34q-20 25 -19 97l10 10q-6 59 2 82q53 18 158 64q-10 14 -10 37q0 18 8.5 51t8.5 43q0 21 -17 58q10 47 10 104 q0 59 -14 152q-16 119 -18 142q0 4 4 16q0 21 -4.5 73t-4.5 59v242q-12 41 -16 86q-27 21 -35 22q-10 0 -41 -12t-41 -12q-8 0 -21.5 5t-19.5 5q-25 49 -59 76q-2 6 -5 21l-18 110q-10 0 -10 15z" />
<glyph unicode="^" horiz-adv-x="1180" d="M45 751q0 6 7 31t5 45q88 94 175 187q107 123 152 217q-2 12 -2 19q0 35 33 41q4 2 57 2q4 0 77 -15.5t102 -17.5q144 -189 353 -324q60 -74 133 -142q2 -6 11 -31.5t9 -33.5q0 -33 -42 -62t-70 -29q-8 0 -46 15q-45 20 -61 24q-37 60 -170 140q-10 18 -39 49 q-111 96 -136 96q-23 0 -78 -76q-27 -43 -55 -84q-33 -21 -70 -76q-43 -64 -56.5 -78t-54.5 -39q-47 -29 -61 -30q-35 0 -99 47l-37 47t-37 78z" />
<glyph unicode="_" horiz-adv-x="856" d="M0 -53h856v-121h-856v121z" />
<glyph unicode="`" horiz-adv-x="417" d="M39 1120q-6 23 2 64q4 23 41 88q43 74 68 80q6 0 29.5 -5t35.5 -3q51 -99 105 -215q2 -8 -4 -10.5t-6 -10.5q8 -12 20 -33q41 -119 50 -162q0 4 -2 -31q-39 -33 -43 -53q-25 -14 -66 -29q-10 -2 -11 2t-2 4q-14 -6 -25 -8t-71 -16q-21 -4 -25 12q0 8 -13 80t-14 80 t-34 83t-35 83z" />
<glyph unicode="a" horiz-adv-x="1211" d="M31 197q0 6 70 170q86 189 119 284q39 111 119 338q33 51 63 144q47 156 47 160q37 20 64 20q14 0 68.5 -17.5t75.5 -31.5q82 -55 98 -96q20 -51 56 -111q-4 -12 0 -23q14 -20 88 -184q14 -12 33 -39q12 -47 49 -136q8 -12 76 -104q16 -19 16 -57v-9q0 -53 6 -70 q10 -27 60 -117q-2 -6 -2 -20q59 -87 59 -124q0 -21 -31.5 -62.5t-39.5 -41.5q-57 0 -126 41q-53 31 -84 84q0 14 -4 39q-16 41 -55 121q-148 -29 -485 -111q-45 -72 -49 -109q-16 -148 -105 -149q-66 0 -125 49q-8 6 -51 100q-10 20 -10 62zM513 603q0 -31 10 -41 q31 16 123 29q84 12 111 35q-39 86 -107 240q-14 23 -32 23q-105 -261 -105 -286z" />
<glyph unicode="b" horiz-adv-x="1457" d="M55 1096q16 14 18.5 45t12.5 43q21 27 43 53q27 33 39 33q8 0 17.5 -4t19.5 -4t45 14.5t43 14.5t17.5 -6.5t19.5 -6.5q49 0 140 17q99 18 142 20q84 5 146 5h20q14 0 81 -32t110 -59q27 -18 71 -103.5t44 -117.5q0 -59 -37 -146q41 -14 117 -45q45 -29 139 -88 q70 -45 101 -101q26 -47 26 -131q0 -76 -31.5 -149t-179.5 -165q-74 -49 -200 -99.5t-210 -67.5q-25 -6 -120 -34q-80 -23 -94 -23q-117 0 -221 133q-2 -6 -7 -22q-4 0 -29.5 -14.5t-37.5 -14.5h-29q-29 0 -92.5 105.5t-63.5 148.5q-2 10 10 29q-2 41 -14 220 q-12 47 -25 141q-2 6 5 46.5t7 64.5q0 33 -10 49q4 59 4 208q0 6 -37 43zM341 486v-15q0 -69 16 -163q12 -54 38 -54h1q10 0 49 -4t47 -4q86 0 300 82q185 70 253 113q36 25 98 72v25q-23 14 -62 30q-103 9 -132 9h-5q-10 0 -14 -5l-4 -4q-13 1 -27 1q-69 0 -152 -17 q-53 -14 -152 -37q-12 0 -31.5 -9t-27.5 -9q-10 0 -9.5 3t-9.5 3q-8 0 -35.5 -10.5t-32.5 -10.5q-23 0 -57 17q-47 25 -51 26v-39zM341 860q8 -16 24 -45q2 0 9.5 -8.5t17.5 -8.5q55 0 293 128q46 24 97 98q-22 2 -52.5 2t-68.5 -2q-78 -12 -154 -23q-84 -14 -133 -36 q-33 -16 -33 -31v-74z" />
<glyph unicode="c" horiz-adv-x="1267" d="M47 474q0 8 6 53q8 53 9 74q21 199 125 351q68 103 172.5 202.5t188.5 142.5q51 25 76 25q43 0 156 -33q20 -6 72 -29q92 -43 145 -92q16 -18 58 -58v1l4 -83q2 -2 8 -2t6 -10q0 -35 -35 -62.5t-63 -27.5q-16 0 -78 45t-129 45q-41 0 -44 -4q-49 -29 -133 -84 q-14 -8 -39 -35q-29 -33 -29 -48q-14 0 -24 -4q-41 -37 -66 -92q-35 -23 -82 -98q0 -12 -4 -37q-10 -12 -25 -29q-29 -115 -29 -177q0 -39 15 -104q23 -13 78 -13h8h82q16 0 99 23q96 27 153 53q45 21 99 66q16 14 125 138q55 12 51 12q10 0 33 -12.5t35 -14.5 q43 -43 111 -129l-4 -13l5 -4t5 -14q0 -55 -133 -172q-113 -101 -163.5 -125.5t-140.5 -59.5q-55 -16 -160 -33q-92 -14 -111 -14q-8 0 -37 4t-40 4t-66.5 17.5t-79.5 29.5l-58 54q-99 96 -137 252q-15 66 -15 115v6z" />
<glyph unicode="d" horiz-adv-x="1423" d="M33 1239q0 10 18 25l29 29q41 20 80 20q209 0 316 -10q51 -12 121 -27h23q38 0 96 -4q10 -4 39 -18q23 -12 35 -12q53 0 179 -48q31 -12 145 -78q25 -20 80 -53q43 -25 86 -78q62 -74 91 -115q4 -12 0 -25q10 -18 26 -51q5 -14 5 -61q0 -10 -5.5 -37t-5.5 -37 q-4 -53 -28 -156q-41 -92 -111 -146q-127 -98 -224 -129q-33 -16 -103 -45q-53 -21 -108 -58q-33 -2 -146 -55l-113 -54q-37 0 -113 2q-18 14 -28 13q-20 -25 -39 -49q-38 -44 -53 -44h-1h-22q-62 0 -128 93q-18 16 -41 51q-14 45 -20 107q0 -12 8 47q2 21 2 39q0 63 -27 90 q4 16 7 49q-10 53 -27 161q-8 45 -8 92q0 117 -4 185v16q0 67 -13 248q-15 127 -18 127v-4zM316 915l47 -597q76 18 191 58q92 33 183 67q16 12 39 25q64 23 152 66q47 23 121 92q94 87 94 146t-174 137q-160 72 -232 72q-10 0 -11.5 -4t-11.5 -4q-8 0 -35.5 12t-38.5 14 q-102 13 -246 13h-21q-57 0 -57 -97z" />
<glyph unicode="e" horiz-adv-x="1053" d="M47 583q0 4 12 24q4 181 19 286q8 49 8 133q0 10 10.5 46t10.5 50q12 10 31 29q101 35 279 90q355 83 429 83h2q8 0 36 -11q45 -35 146 -119q12 -12 12 -55q0 -57 0 -45q-2 -20 -24.5 -32.5t-91.5 -19.5q-90 -10 -109 -16q-265 -59 -398 -103q-14 -16 -39 -39 q-45 -29 -45 -86q0 -29 -15 -59q24 -2 56 -2q48 0 116 4q117 7 117 8h-2q23 0 46 -2q14 -20 104 -74q70 -43 70 -96q0 -25 -40 -55t-58 -36q-111 -16 -325 -49q-12 -2 -84 -39q0 -6 -4 -17.5t-4 -21.5q0 -43 29 -43q6 0 94 11.5t121 13.5q150 10 267 10q20 0 111 -76 q33 -29 49 -66q0 -6 7 -29.5t7 -29.5q0 -12 -23.5 -37t-45.5 -39q-4 -2 -60 -2q-2 0 -7 -6.5t-14 -6.5q-207 0 -318 -12q-14 0 -49 -13t-43 -13q-10 0 -13 3t-12 3q-8 0 -36.5 -14.5t-41.5 -14.5q-59 0 -168 16q-27 53 -63 144q-10 84 -39 257q4 20 4 48v19q-2 62 -2 80 l-10 6q-9 5 -9 15z" />
<glyph unicode="f" horiz-adv-x="1131" d="M31 944q0 12 22 76q25 72 41 82q43 12 126 41q21 16 69 39q39 14 119 43q107 37 329 76q12 6 37 16q61 17 115 17h6q45 0 96 -39q8 -14 33 -39q23 -6 64 -33q41 -47 41 -82q0 -8 -7.5 -29.5t-9.5 -30.5q-68 -47 -113 -47q-8 0 -18 6.5t-19 6.5q-6 0 -54 -15.5t-71 -17.5 q-144 -18 -338 -93q-47 -12 -132 -47q-37 -21 -37 -55q0 -58 34 -58h1q-2 0 285 21q47 -59 89 -84q21 -14 53 -19q31 -55 31 -82q0 -39 -55 -63q-49 -10 -150 -33q-39 -14 -132 -25q-66 -8 -104 -33q-1 -18 -1 -35q0 -108 33 -193v-11q0 -30 7 -91q0 -2 11 -8t11 -17 q0 -12 -18.5 -36.5t-36.5 -31.5q-31 -18 -62 -18q-18 0 -61 16q-51 20 -74 44q-54 59 -54 93q0 9 14.5 18.5t14.5 17.5q0 12 -5 17l-5 5q-6 57 -16 150q0 37 -13 107q-21 18 -49 59l-8 70q-4 51 -23 66q45 60 45 74q0 10 -9 26.5t-9 22.5q-2 25 -8 74q-2 14 -18.5 41 t-16.5 41z" />
<glyph unicode="g" horiz-adv-x="1332" d="M23 534q0 57 12 112q14 68 51 201q23 74 66 140q27 43 74 88q70 64 178 125q29 16 89 41q70 21 188 48q109 23 125 24q33 0 48 -16q0 -2 92 -62q86 -59 86 -92q0 -51 -27.5 -93t-72.5 -42q-8 0 -17.5 4t-19.5 4q-8 0 -15.5 -6.5t-17.5 -6.5q-8 0 -17.5 6.5t-19.5 6.5 q-62 0 -187 -51q-185 -74 -279 -214q-82 -125 -82 -281q0 -8 7 -37t9 -43q12 -76 62 -103q37 -18 113 -18q10 0 67.5 7t69 7t68 17.5t88.5 33.5q224 113 279 220h-84q-8 1 -17 1q-53 0 -141 -21q-109 -23 -133 -23q-20 0 -59.5 41t-45.5 58q-2 6 -2 43q0 72 41 145 q18 10 51 19q273 25 349 26q90 0 99 -2q18 -6 107 -71q35 -23 90 -74q27 -34 27 -87q0 -10 -9.5 -21t-11.5 -18q-4 -49 -20 -145q-39 -94 -159 -203q-125 -115 -203 -121q-59 -43 -157.5 -79t-141.5 -36q-8 0 -21.5 -3.5t-21.5 -3.5q-10 0 -19.5 3.5t-19.5 3.5h-29 q-64 0 -174 51q-119 57 -150 117q-23 21 -62 70q-47 74 -74 150q0 35 -6 98q-2 8 -12 33q-8 20 -8 29z" />
<glyph unicode="h" horiz-adv-x="1287" d="M49 273v618q10 96 27 273q10 35 20 94q6 4 23 20h15q42 0 65 -10q88 -39 131 -68q4 -12 23.5 -45t19.5 -43q0 -12 -10 -17t-10 -6t-14 -81q-2 -45 -7 -132q-23 -191 -24 -217q0 -39 22 -82q2 -4 11 -13q142 70 447 156q76 21 158 70q4 142 14 433q0 10 27 74q10 8 27 22 q5 3 21 3h9q27 0 91 -41q29 -16 88 -72q27 -33 27 -97q0 -12 -13.5 -62.5t-13.5 -78.5q0 -21 6 -35q-4 -27 -20 -74q10 2 10 -15q0 -14 -12 -32q-3 -17 -3 -38q0 -28 5 -63q-2 -8 -9 -24q0 -31 -6 -118.5t-6 -128.5v-104q-3 -44 -3 -80q1 -51 7 -89q10 -53 9 -70 q-1 -8 -9 -30t-8 -33q-21 -47 -53 -47q-10 0 -16.5 7t-16.5 7q-39 0 -95 47q-29 23 -36 31q-21 23 -25 51q0 96 -12 273q-4 25 -41 25q-80 0 -288 -88q-224 -96 -244 -158v1q0 1 2 -1v-11q0 4 -6 -42q-4 -28 -4 -48q0 -14 2 -25q-72 -39 -88 -39q-10 0 -14.5 6.5t-14.5 6.5 t-12 -4t-11 -4q-51 0 -108 86q-14 20 -54 162z" />
<glyph unicode="i" horiz-adv-x="567" d="M72 261l45 1056q2 0 10 4.5t17 4.5q10 0 28 -15q45 0 103 -49q55 -41 92 -96q2 -16 6 -31q7 -27 25 -37q-25 -35 -27 -123q-6 -119 -8 -128q-14 -129 -18 -334q10 -29 6 -35q-17 -105 -17 -182v-9q0 -10 14.5 -87t14.5 -89q0 -43 -43 -82t-78 -39q-8 0 -10 9t-12 9 q-66 0 -109 99q-30 72 -30 121q0 8 1 16q-10 -2 -10 17z" />
<glyph unicode="j" horiz-adv-x="1088" d="M57 376q0 41 18.5 134t35.5 116q21 33 66 88q45 -14 135 -55q21 -12 63 -63.5t42 -61.5t-21 -54q-29 -59 -31 -66q-21 -4 -40 -29.5t-19 -35.5q0 -66 86 -66q6 0 14.5 -3t18.5 -3q6 0 84 18q144 35 183 208q6 8 18 22q12 60 35 185q4 20 -6 35q31 137 31 139v169 q0 2 -9 30q4 18 4 35q0 29 -12 61t-12 40q0 14 31.5 52t38.5 38q27 0 102 -39q39 -29 119 -80q2 -8 7 -28.5t5 -32.5q0 -6 -9 -47.5t-9 -63.5v-257q-2 -35 -47 -289q-8 -37 -56 -193q-25 -76 -82 -152q-12 -8 -30 -26q-23 -31 -87 -48q-10 -10 -37 -26q-50 -15 -91 -15h-5 q-10 0 -45 4t-46.5 4t-87.5 21q-82 23 -128 42.5t-79 45.5q-129 99 -145 206q-3 18 -3 34v7z" />
<glyph unicode="k" horiz-adv-x="1248" d="M47 1164v-1q3 0 33 89q8 4 23 16q23 -4 69 -16q37 -16 89 -43q39 -21 64.5 -65t25.5 -99q0 -10 -9.5 -19.5t-9.5 -17.5q-10 -101 -10 -169q0 4 6 -18q6 -18 -2 -39q2 -4 2 -27q4 0 6.5 -3t12.5 -3q8 0 50 42t46 44q115 84 169.5 146.5t163.5 161.5q133 119 178 164 q14 6 41 17q0 -20 28 -30.5t81 -43.5q86 -80 86 -105q0 -20 -15.5 -60.5t-25.5 -50.5q-103 -84 -367 -338q21 -33 53 -126q18 -21 47 -63q0 -14 8.5 -37t35.5 -29q14 -31 36 -92q12 -16 23 -23q27 -49 72 -139q10 -8 26 -21q25 -55 25 -80q0 -39 -36 -64.5t-68 -25.5 q-29 0 -56 18q-86 53 -156 156q-6 20 -20 56q-6 12 -39 37q-43 129 -148 260q-33 -20 -109 -80q-12 -25 -53 -61q-20 -8 -88 -8v2q-1 0 -11 -78q0 -8 5 -22.5t5 -19.5q0 -6 -4 -26.5t-4 -30.5q0 -8 8 -57q6 -39 0 -58q-25 -88 -82 -88q-84 0 -143 72q-10 12 -19 59 q-8 10 -18 35q-2 4 2 51q0 8 -2 107v11q0 53 18 96q4 10 -10 27q6 14 4 44.5t2 41.5q0 8 -7 20.5t-7 20.5q-2 10 -2 30q0 30 4 83q1 15 1 29q0 48 -11 81q12 26 12 56q0 13 -2 27q-2 18 -17 199q4 18 3 57q-14 20 -13 21z" />
<glyph unicode="l" horiz-adv-x="1121" d="M60 698q0 6 10 22.5t8 24.5q-4 18 -4 44q0 43 12 106q-10 37 -10 30q14 29 16 46q12 84 15 262q12 25 45 80l109 -45q10 0 8 4t8 4q12 0 15.5 -7t5.5 -13q8 -18 37 -39q18 -14 38 -27q0 -10 8.5 -51t8.5 -51t-10.5 -40t-10.5 -38v-115q-31 -41 -37 -89q4 -134 4 -203.5 t-4 -73.5q6 -20 7 -102q2 -66 26 -90q224 57 364 92q16 4 86 33q64 25 74 26l59 -45q62 -51 88 -65q10 -17 41 -50q-16 -47 -57 -97t-80 -63q-117 -45 -331 -106q-192 -54 -214 -54h-1h-62q-59 0 -78 10q-55 27 -71.5 61l-49.5 102q0 21 -2 55q-23 78 -53 240q6 35 8 97 q-4 18 -16 71q-10 43 -10 54z" />
<glyph unicode="m" horiz-adv-x="1706" d="M31 205q0 10 28 99q35 117 44 152q12 25 30 71q6 53 29 146q39 90 66 255q3 13 3 35q0 25 -4 61q-7 68 -7 96q4 49 10 64q16 33 57 33q25 0 171 -66q33 -14 53 -53q4 -10 4 -54q0 -10 10.5 -28.5t10.5 -26.5q-1 -8 -1 -18q0 -34 11 -87q125 -217 261 -400 q111 99 224.5 248.5t173.5 281.5q35 64 100 193q8 18 -4 35q14 8 39 49q20 33 45 33q8 0 21 -13q6 1 13 1q69 0 188 -93q33 -90 33 -99q0 -8 -9 -45q-14 -45 -18 -65q-3 -10 -3 -21q0 -22 11 -47q-8 -34 -8 -68.5t8 -69.5q-8 -18 -8 -86q0 -82 2 -102q-12 -20 -12 -25 q0 -18 18 -205q-2 -18 -2 -36q0 -87 39 -194q0 -6 9.5 -19.5t9.5 -25.5q0 -21 -15 -51q-105 -49 -113 -48q-10 0 -59 25q-59 31 -76 39q-23 47 -60 141q9 71 9 134v12q0 16 -8.5 60.5t-8.5 62.5q0 4 8 126q0 10 -8 18q-23 -8 -45 -53q-18 -35 -35 -70q-31 -53 -91.5 -123 t-185.5 -216q-8 -29 -35 -78q-31 -31 -80 -31q-4 0 -40 11.5t-73 13.5q-18 18 -69 45q-4 16 -3 47q-25 14 -53 101q-6 21 -51 92q-74 117 -142 206q-14 -76 -55 -214q-21 -53 -58 -160q-6 -37 -20 -109q0 -20 -8 -65q-62 -23 -64 -23h-84q-12 0 -17.5 9.5t-7.5 11.5 q-41 27 -69 81q-23 44 -22 77q0 7 1 14z" />
<glyph unicode="n" horiz-adv-x="1558" d="M66 232q0 78 39 209q29 80 90 246q0 16 4 42q21 53 55 149q12 72 42 214q2 8 -3.5 22.5t-5.5 24.5v13q-1 26 5 72q8 58 8 85q25 8 100 8q8 0 119 -26q18 -20 58 -60q-2 -8 -2 -24q16 -10 39 -37q6 -29 26 -76q23 -25 78.5 -76t77.5 -72q117 -125 327 -412q2 0 14 22 q68 396 68 462q0 33 -9 104q-2 8 -11 21.5t-9 24.5q0 18 15.5 60t21.5 48q29 12 28 11q8 0 35 -21q90 -6 195 -104q2 -8 -8 -33q2 -23 9.5 -74.5t7.5 -59.5q0 -6 -17.5 -74.5t-21.5 -97.5q-4 -62 -13 -185q-16 -49 -39 -154q-4 -53 -16 -160q-14 -92 -14 -107 q0 -203 -64 -203q-8 0 -39 3.5t-43 3.5t-45 22q-39 23 -54 49q-6 8 -63 126q-51 105 -87 151q-2 0 -94 121q-57 72 -98 101q0 8 -4 23q-64 74 -234 250q-4 -25 -15 -82q-64 -195 -168 -505q4 -20 2 -55q-18 -35 -18 -70q0 -10 2 -25.5t2 -21.5q0 -51 -44 -62q-20 -6 -53 -6 q-50 1 -104 53q-46 44 -46 81q0 7 2 14q-27 29 -28 47z" />
<glyph unicode="o" horiz-adv-x="1447" d="M25 478q0 88 34 211q49 174 216 345q164 166 335 226q10 4 61 29q41 23 57 24q6 0 28 -8t34 -6q12 1 25 1q166 0 347 -124q123 -82 203 -195q14 -16 46 -146.5t32 -169.5q0 -88 -27 -148q-47 -99 -103 -166q-92 -111 -154 -154q-187 -127 -338 -160q-98 -21 -374 -21 q-35 0 -100 35q-53 25 -142 78q-76 55 -88 78q-55 96 -76 177q0 20 -4 55q-12 41 -12 39zM300 427q0 -27 12 -46.5t44 -40t54 -20.5q54 -4 96 -4h26q33 0 58.5 6t27.5 6q14 0 25.5 7.5t19.5 7.5q10 0 12 -4t12 -4q14 0 93.5 32.5t130.5 61.5q88 51 133 94q138 132 138 245 q0 53 -31 110q-43 74 -121 95q-10 2 -28.5 12t-32.5 10q-10 0 -43 -12t-42 -12q-10 0 -22 4t-19 4q-39 0 -149 -70q-96 -59 -128 -91t-92 -94q-49 -43 -111 -112q-21 -39 -43 -107q-20 -60 -20 -78z" />
<glyph unicode="p" horiz-adv-x="1279" d="M39 1118q0 8 9 51.5t11 61.5q33 25 85 74q10 0 40.5 5t39.5 5l437 -45q-6 0 164 -51q98 -29 121 -37q78 -25 129 -57q31 -35 93 -89q25 -18 39 -55q32 -91 32 -144q0 -33 -17 -50t-32 -30q-59 -96 -106 -135q-35 -27 -120 -72q-105 -53 -139 -74q-72 -47 -215 -102 q-150 -59 -216 -95q0 -10 9 -38t9 -44v-135q-12 -62 -34 -62q-8 0 -41 8t-42 8q-57 0 -114 46q-8 18 -33 53q-20 146 -78 480q18 31 16 58q-2 10 -12 67q-10 51 -10 76q0 12 4 82q1 17 1 32q0 29 -3 50q-2 18 -15 85q-12 60 -12 73zM328 628h46q14 0 133 51.5t193 92.5 q36 18 186 133q0 4 -4 17.5t-4 17.5q-14 0 -47 8t-41 8t-57.5 15.5t-59.5 15.5q-12 0 -18.5 -4t-14.5 -4q-20 0 -53 6q-39 10 -53 10q-55 6 -163 6q-20 0 -43 -24v-257q18 -30 18 -53t-18 -39z" />
<glyph unicode="q" horiz-adv-x="1517" d="M43 560q0 64 31 173q4 0 12 10q53 162 199 338q152 183 298 247q21 10 61 35q12 -14 76 -54q78 -49 103 -49q8 0 45 7t47 7q131 0 271 -96q135 -96 201 -226q41 -195 41 -277q0 -105 -26 -172q-16 -37 -76 -121q-55 -76 -54 -84q0 -20 80 -76q94 -64 109 -85l45 -45 t31 -72q0 -31 -38 -69.5t-69 -38.5q-49 0 -131 39q-47 21 -140 102q-86 74 -92 74q-10 0 -29.5 -16.5t-25.5 -18.5q-94 -47 -199 -65q-166 -25 -199 -25q-21 0 -44 4q-90 18 -98 19q-64 16 -96 34q-12 0 -29 3q-23 16 -66 45q-62 45 -90 72q-8 20 -25 51q-113 153 -113 294 v10q-10 37 -10 26zM308 488q0 -60 39 -131q6 -10 57.5 -32.5t69.5 -22.5h131q45 0 202 55q0 6 -1 16q-18 14 -65 70q-37 43 -64 50q0 10 -8 29.5t-8 27.5q0 -8 10 29q-6 20 -23 51q4 4 37 55q26 44 49 44h1q57 0 61 -1q62 -31 150 -92q33 -39 33 -88q14 -8 28.5 -15.5 t14.5 -23.5h27q143 164 143 240q0 8 -6 32.5t-4 31.5v10q0 69 -50 115q-55 49 -126 49q-94 0 -195 -31q-39 -16 -78 -30q-52 -19 -100 -19h-5q-10 0 -19.5 4t-17.5 4q-16 0 -21 -4q-41 -41 -119 -123q-4 -18 -20 -45q-33 -27 -78 -118t-45 -137z" />
<glyph unicode="r" horiz-adv-x="1560" d="M25 1164q0 14 45 119q240 33 238 34l706 -8q53 0 152 -29q94 -29 131 -55q41 -35 123 -90q29 -33 82 -115q25 -57 25 -127q0 -37 -41 -76q-23 -25 -66 -72q-14 -14 -37 -21q-29 -10 -35 -14q-60 -41 -154 -82q-123 -55 -147 -66q84 -82 219 -215q82 -135 220 -273 q0 -2 9 -33t9 -43q0 -25 -2 -39q-51 -57 -127 -57q-49 0 -81 33.5t-96 103.5q-68 78 -223 246q-6 6 -86 62q-21 29 -72 76q4 6 -13 33q-10 14 -36 14h1q0 -3 -157 -43q-12 -2 -191 -33q-21 -25 -21 -82q0 -10 2 -23v-22q0 -12 13.5 -37t13.5 -33t-9.5 -20.5t-9.5 -20.5 l4 -27q2 -20 -1 -30.5t-16 -39t-13 -45.5q-6 0 -32 -4t-36 -4q-37 0 -90 29q-45 27 -52 39q-20 43 -57 148q12 47 8 59q-10 33 -14 82q-6 4 -17 13q7 22 7 59v10q0 25 -15 56q2 12 2 37q-4 33 -18 96q2 -4 8 45q-16 101 -16 155q0 18 2 30q3 21 3 45q0 45 -10 101 q-31 160 -32 154zM320 819q0 -57 21 -111q0 -10 37 -10q62 0 299 61q76 20 288 113q10 2 30 4q70 39 177 113q-10 12 -31 12q-10 0 -122 14.5t-122 14.5q-123 0 -169 -4l1 -8q2 -4 -9 -4q-8 0 -28.5 8t-30.5 8t-37 -7t-37 -7q-64 -4 -129 -6q-94 -10 -115 -37 q-23 -35 -23 -154z" />
<glyph unicode="s" horiz-adv-x="1453" d="M43 786q0 18 8 90q6 49 37 93q76 115 341 232q256 115 406 116q8 0 45 -8t58 -8q12 -6 27 -16q29 10 53 2q39 -14 80 -27q4 -8 16 -21q20 -10 48 -26q31 -29 34 -45q10 -4 25 -13q10 -10 27 -33q12 -14 12 -51q0 -27 -30 -60.5t-62 -33.5h-64q-2 0 -103 39q-41 16 -82 16 q-66 0 -96 -10q-18 -8 -66 -19q-6 0 -28.5 -16t-30.5 -16q-10 0 -8 3t-7 3q-8 0 -43 -21q-49 -31 -57 -35q-18 -4 -51 -12q-70 -27 -142 -94q12 -9 17 -9h2q15 0 110 -4q123 -4 187 -6q156 -4 236 -14q152 -23 256 -86q2 -6 9 -15q66 -55 172 -168q8 -12 8 -62q0 -6 3 -22.5 t3 -19.5t9.5 -9t9.5 -16q0 -37 -17 -99q-12 -18 -30 -55q-21 -53 -216 -156q-76 -41 -152 -58q-62 -10 -125 -22q-91 -17 -113 -17h-2q-10 0 -24.5 3.5t-20.5 3.5h3h-108q-6 0 -26 10q-72 8 -146 16q-84 12 -137 35q-2 0 -11 25q-33 31 -37 41t-4 55q0 123 80 123 q8 0 120 -23.5t122 -23.5q162 0 316 43q191 53 267 154q-10 29 -41 39q-103 35 -137 35h-21h3q0 1 -66 4q-20 1 -38 1q-37 0 -67 -3q-18 12 -27 12q-8 0 -23.5 -7t-25.5 -7q-8 0 -23.5 6t-23.5 6q-94 0 -93 0l-14 -6t-23 -6q-8 0 -14 7t-14 7q-10 0 -11.5 -7t-11.5 -7 q-8 0 -36.5 11.5t-43.5 13.5h-15q-47 0 -122 10q-78 23 -138 61q-21 14 -41 64q-16 37 -29 76q-12 27 -12 37z" />
<glyph unicode="t" horiz-adv-x="1652" d="M25 1120q0 18 26 50q49 -6 154 -9q78 12 234 31q41 4 374 43q14 -3 40 -3q13 0 29 1q92 16 353 56q27 4 101 26q68 21 76 21t46 -18.5t56 -18.5q27 -21 68 -58q41 -68 41 -86q0 -8 -13 -27.5t-16 -29.5q-16 -18 -73 -43q4 -2 -13 -2q-10 0 -96 -4t-94.5 -4t-151.5 -19 q-166 -23 -230 -29q-4 -4 -11 -14q-4 -78 -18 -332q-14 -224 -14 -232q0 -6 4 -89q4 -94 6 -133q10 -12 18 -18q-2 -4 3.5 -21.5t5.5 -24.5q-18 -117 -33 -117q-8 0 -30 -8t-32 -8q-20 0 -72.5 44t-58.5 57q-16 37 -27 110q-8 49 -8 169q0 23 -6 152q-5 85 -5 137q0 17 1 31 q10 78 18 234q0 33 -37 33q-10 0 -78.5 -14.5t-76 -14.5t-117 -3t-118.5 -3q-51 0 -123 53t-82 99l-10 13t-10 23z" />
<glyph unicode="u" horiz-adv-x="1394" d="M47 897q4 118 4 179t-4 65q18 25 18 56q0 12 -3 26q49 25 53 25q8 0 80 -45q92 -57 117 -68q10 -12 23 -31q10 -42 10 -99q0 -24 -2 -51q0 -6 -8.5 -32.5t-8.5 -37.5q0 -218 21 -371q6 -31 37 -78q-1 -9 -1 -16q0 -83 97 -84h49q172 0 273 92q94 84 222 332q8 16 12 112 t25 210q12 60 14 169q14 21 27.5 41t38.5 20q12 0 18 -8q8 -14 7 -14q107 -55 144.5 -112t37.5 -149q0 -6 -13 -66.5t-16 -95.5q1 -16 1 -39t-1 -55q-2 -31 -10 -109q-6 -66 -6 -76q0 -66 16 -246q4 -43 31 -128.5t27 -93.5t-9 -38t-9 -42q-16 -16 -54 -47q-27 -17 -76 -17 h-6q-21 0 -55.5 32t-49.5 63q-21 43 -37 180q-35 -45 -116 -123q-90 -68 -144 -84q-127 -37 -269 -37q-8 0 -29.5 4t-30.5 4q-27 0 -96 27q-55 21 -68 31q-47 27 -100 94q-27 51 -86 150q-2 31 -29 103q-33 92 -41 125q2 25 4 78q-8 25 -19 80v5q0 19 9 89q-6 35 -19 101z " />
<glyph unicode="v" horiz-adv-x="1390" d="M45 1188q0 10 14 62q14 60 17 82q55 -14 148 -56q107 -78 108 -158q0 -8 -2 -16q45 -101 150 -277q39 -168 171 -374q64 129 199 382q74 111 215 345q23 45 57 146q2 0 74 -15q55 -14 82 -41q39 -39 66 -98q17 -37 17 -58v1q-1 0 -11 -91q-41 -35 -90 -115 q-66 -109 -86 -135q-109 -146 -189 -304q-21 -47 -156 -341q-2 -8 -2 -22q6 -10 6 -23q0 -14 -11 -42t-13 -38q-18 0 -67.5 -4t-56.5 -4q-29 0 -94 55q-16 14 -43 54q-12 16 -21.5 60t-19.5 61q-18 14 -41 53q-27 94 -62 152q-23 23 -55 63q-14 47 -49 136q-23 51 -70 115 q0 10 -4 29q-10 8 -25 24q-4 39 -102 212q-8 29 -27 92q-10 10 -25 37q-2 6 -2 51z" />
<glyph unicode="w" horiz-adv-x="1860" d="M39 1223l23 115q8 0 26.5 4t28.5 4q6 0 117 -55q4 -27 48 -45.5t50 -45.5q-4 -53 -4 -102q0 -83 11 -156q2 -49 5 -99.5t25 -93.5q-2 -12 -4 -37q8 -76 25 -125q86 133 256 375q80 103 154 253q4 21 7 45q8 35 36 53q17 11 64 11h8q20 0 160 -95q4 -25 27 -80v-7 q0 -85 45 -196q14 -39 97 -205q2 -20 12 -56q20 -33 51 -100q2 -4 25 -27q8 0 16 12q10 72 37 193q23 78 109 300q8 53 35 158q21 37 59 109q49 0 89 -23q35 -21 114 -88q10 -8 23.5 -34t13.5 -40q0 -12 -14 -18.5t-14 -8.5q2 -10 2 -28q-21 -47 -58 -128q-20 -51 -51 -151 q-10 -14 -25 -37q0 -18 -4 -56q-4 -14 -53 -170q2 -4 12 -17h-24q-12 -78 -27 -227q-4 -10 -14 -37q-2 -39 -5 -119q6 -20 17 -60q-82 -59 -113 -59q-16 0 -58.5 15t-60.5 32.5t-58 67.5q-12 14 -22 67q-10 6 -23 21q0 33 -96 170q-2 2 -27 72q-18 20 -45 51q4 12 2 21 q-31 31 -43 67.5t-23 75.5q-25 2 -38 56q-16 66 -31 84q-162 -185 -220 -298q-59 -99 -170 -301q-21 -29 -47 -92q4 -31 4 -99q-6 -14 -62.5 -30.5t-77.5 -16.5q-10 0 -31 14q-27 18 -37 19q-68 25 -78 78q-2 10 -20 59q-14 35 -12 56q3 28 3 53q0 72 -26 117q6 12 10 27 q-23 156 -74 447q-10 12 -26 43q4 27 8 78q-6 16 -14 59q-12 100 -12 142q0 13 1 21z" />
<glyph unicode="x" horiz-adv-x="1205" d="M47 1209q0 6 21.5 38.5t25.5 43.5q23 12 31 12q10 0 25.5 -12.5t18.5 -13.5t67 -21q43 -12 62.5 -30.5t46.5 -53.5q57 -119 236 -285q117 144 365 443q5 1 10 1q42 0 117 -46q93 -55 93 -115q0 -74 -25 -128q-2 -4 -179 -197q-172 -185 -172 -207q0 -6 41 -53 q49 -53 64 -80q27 -45 135 -199q33 -47 33 -117q0 -111 -74 -111q-101 0 -195 115q-4 25 -20 74q-31 33 -70 92q-18 45 -64 86q-45 -51 -289 -371q-6 -18 12 -17q-41 -60 -59 -61h-47q-20 0 -63.5 21.5t-55.5 37.5q-20 23 -37 82q-18 51 -17 56q0 33 78 141q253 340 253 364 q0 8 -27 37q-33 35 -45 53q-35 59 -109 130t-101 116q-20 21 -55 62q4 12 4 29q-35 86 -35 84z" />
<glyph unicode="y" horiz-adv-x="1310" d="M51 1172q0 31 19 70q25 51 63 51q35 0 70 -19q41 -25 82 -51q29 -16 50 -53q45 -80 221 -230q31 -27 53 -58q12 0 29 19q137 142 388 410q9 9 29 9h4q16 0 129 -42q16 -18 37 -43q49 -67 49 -96q0 -12 -8 -16.5t-14 -8.5q6 -20 -4 -55q-59 -64 -194 -198.5t-200 -207.5 q-2 -16 -13 -46q-8 -8 7 -32q-39 -88 -39 -130q0 -8 12 -65q12 -62 16 -87q4 -10 -12 -30q0 -18 11 -62.5t11 -50.5q0 -8 -14 -72q-14 -72 -18 -99q-10 0 -33 -7t-31 -7q-33 0 -139 70q-20 47 -50 142q-4 10 9 28q0 55 -3 162q-2 10 -12 30t-10 30q2 21 2 40q0 100 -43 169 q8 12 0 31q-115 96 -343 306q-20 21 -64 72q-47 62 -47 127z" />
<glyph unicode="z" horiz-adv-x="1488" d="M45 187q0 18 16.5 75.5t30.5 74.5q60 70 355 357q29 18 82 61q70 68 199 216q-14 6 -41 -2q-33 -6 -45 -5h-9q-85 0 -368 -34q-18 -2 -72 -2q-41 0 -86 51q-14 16 -19 49q-2 0 -11 7t-9 18q0 12 12 33q-5 24 -5 48q0 53 24 110q146 47 314 47q35 0 71 -2q8 4 23 12 q43 4 261 4q187 0 336 -31q31 -18 88 -74q18 -29 32.5 -81t14.5 -70q0 -43 -57 -128q-45 -66 -72 -92q-158 -140 -494 -439q12 -12 26 -12l534 -7q57 0 111 -10q45 -10 82 -51q78 -84 78 -119q0 -49 -49 -158q-21 -29 -37 -29q-10 0 -152 15.5t-152 15.5q-252 0 -452 -10 q-99 -4 -303 -23q-12 -2 -46 -15.5t-43 -13.5q-64 0 -119 82q-49 72 -49 132z" />
<glyph unicode="{" horiz-adv-x="922" d="M25 538q0 10 4 16q2 4 0 6q6 16 0 29q14 47 82 119q53 51 106 103q-14 25 -26 53q-25 51 -25 78q0 8 8.5 35t8.5 39q0 35 -9 74q4 4 9 16q-12 59 39 150q55 99 143 158q47 31 140 64q82 27 102 28q14 0 71 -24.5t81 -42.5q12 -8 13 -31q4 -31 6 -37t18.5 -20.5 t16.5 -24.5t-56 -89q-6 -2 -45 -24q-29 -2 -86 -12q-16 -4 -95 -42q-41 -21 -77 -67q-27 -39 -52 -78q-10 -12 -10 -41q0 -16 29 -58q31 -49 35 -59q14 -39 8 -97q0 -2 6 0q4 0 4 -12q0 -80 -103 -179q10 -18 88.5 -65t92.5 -82q-4 -16 -2 -43q4 -12 19.5 -29t15.5 -27 q0 -6 -7.5 -38t-6.5 -48q-10 -20 -27 -59q-6 -2 -17 -9q-33 -64 -82 -195q33 -20 74 -20q8 0 74 4t76 4q57 0 66 -4q29 -8 75 -58.5t46 -77.5q0 -140 -216 -141h-162q-10 0 -74 18q-86 21 -139 126q-41 84 -41 192q0 8 15 59.5t18 72.5q0 33 14 90q2 6 13.5 13.5t11.5 17.5 q0 20 -19 49q-66 6 -195 29q0 10 -33 27q-4 37 -22 114q10 21 10 33q0 10 -6 12.5t-6 4.5z" />
<glyph unicode="|" horiz-adv-x="616" d="M60 735q0 16 14 178q14 137 14 253q0 6 -4 21.5t-4 21.5q-2 23 9.5 59.5t32 43.5t48.5 7q29 0 181 -45q20 -22 45 -59q2 -6 -12 -310q-18 -339 -17 -488q0 -16 19 -82q-4 -21 -8 -62q12 -59 30 -172q-55 -70 -84 -80q-23 -8 -97.5 11t-82.5 44l-52 180q-4 16 -18 212 q-16 209 -14 267z" />
<glyph unicode="}" horiz-adv-x="856" d="M51 1344q0 70 8 101q8 23 44 61q78 -14 154 -28q94 -18 160 -64q45 -33 174 -168q2 -6 -6 -31q23 -72 24 -111q0 -43 -63 -119q-74 -90 -84 -113q47 -4 131 -24q31 -14 136 -81q25 -25 77 -65q0 -12 4.5 -44t4.5 -42q0 -53 -60 -117q-12 0 -29 -4q-6 -2 -117 -50 q-70 -29 -117 -82q66 -49 173 -139q8 -10 51 -89q49 -88 49 -112q0 -10 -43 -74q-53 -82 -65 -105q-45 -37 -138 -101q-43 -27 -154 -75q-6 -2 -61 -2q-64 0 -105 26q0 37 -23 72v158q68 21 138 41q78 33 140 111q-14 29 -27 39q-39 21 -117 70q-43 35 -58 61 q-35 59 -35 138q-2 8 -8 24q-2 18 6 56l-10 6q0 -4 10 33q-2 12 -6 30q20 25 64 54l20 20q-133 94 -133 279q0 82 28.5 132.5t119.5 126.5q-14 31 -37 31q-8 0 -25 -12q-2 -2 -11 2t-18.5 4t-19.5 3t-18 3q-16 0 -23 -6l-29 30q-27 -2 -45 17q-6 8 -20 68q-12 55 -11 61z " />
<glyph unicode="&#xad;" d="M72 519q0 12 13 39t27.5 36t88.5 9l749 54q25 0 148 -97q2 -8 10 -41t8 -41q0 -129 -125 -129l-386 -17q-10 0 -114.5 -16t-114.5 -16q-76 0 -126 2q-16 14 -20 14q-10 0 -10 -8t-9 -8q-59 0 -106 121q0 2 -25 30q4 14 -2 38t-6 30z" />
<glyph unicode="&#xd1;" horiz-adv-x="1320" d="M92 1227q0 12 4 23q78 205 277 205q76 0 212.5 -51.5t206.5 -51.5q99 0 168 45q84 53 162 66q31 4 49.5 -14.5t18.5 -44.5q0 -49 -49 -56q-64 -10 -148 -67q-66 -44 -201 -44q-76 0 -211.5 50.5t-207.5 50.5q-64 0 -102 -33q-23 -21 -60 -86q-27 -49 -59 -49 q-60 0 -60 57zM99 103q0 66 26 186q21 101 43 201q10 31 23 85q16 92 41 248q4 86 29 234q131 37 178 37q43 0 54 -17l114 -172q62 -90 165 -203q125 -135 174 -197q12 14 14 41q2 20 0 58t0 51q2 51 7 170q6 103 6 111t-2 18t-2 15q0 111 2 88q-2 20 -12.5 54t-10.5 40 q0 39 68 64q53 20 106 20q39 0 73 -38t34 -77q0 -37 -18 -78q0 2 8 -26q-6 -4 -14 -13q0 -74 -10.5 -267.5t-10.5 -187.5q0 -80 16 -320q-1 -15 48 -66q-25 -84 -52 -115q-33 -37 -100 -37q-31 0 -37 8q-20 23 -70 56q0 37 -24 64q-86 117 -308 377q-39 41 -104 123 t-104 121q-27 -166 -76 -345q-10 -37 -45 -240q0 -49 -14 -129q-18 -35 -80 -35q-49 0 -94 37q-10 12 -31 33q-10 27 -10 23z" />
<glyph unicode="&#xf1;" horiz-adv-x="1388" d="M64 195q0 64 34 176q25 66 78 206q0 14 3 37q18 45 45 125q12 60 37 182q2 6 -2.5 18.5t-4.5 20.5q0 23 5.5 72t5.5 70q21 8 86 8q6 0 102 -22q16 -18 52 -50q-2 -8 -2 -20q12 -10 33 -33q4 -25 22 -64q20 -20 67.5 -63t64.5 -62q101 -105 283 -347l12 17q59 334 59 392 q0 27 -10 86q0 6 -8 17.5t-8 21.5q0 16 13.5 52t19.5 40q23 10 24 9q6 0 29 -19q76 -4 166 -86q2 -6 -6 -29q2 -18 9 -61.5t7 -49.5t-16 -63.5t-18 -83.5q-4 -53 -13 -156q-12 -41 -33 -128q-2 -47 -12 -137q-14 -78 -14 -90q0 -172 -52 -171q-8 0 -34.5 3t-37 3t-41 19.5 t-45.5 40.5q-37 86 -127 232q-2 2 -82 104q-49 60 -84 85q0 6 -4 18q-55 64 -199 213q-4 -21 -15 -69q-55 -166 -143 -427q4 -18 2 -47q-16 -29 -16 -58q0 -10 2 -22v-19q0 -41 -37 -53q-18 -4 -46 -4q-41 0 -88 45t-39 80q-23 25 -24 41zM261 1266q0 16 8 29 q94 164 258 164q23 0 48 -4q76 -12 202 -84t196 -82q45 -8 74 -8q39 0 90 23.5t133 23.5q57 2 56 -56q0 -59 -56 -59q-72 0 -116 -24.5t-93 -24.5q-39 0 -105 10q-76 12 -202 84t-196 84q-20 2 -35 2q-68 0 -145 -96q-31 -39 -58 -39q-23 0 -41 17.5t-18 39.5z" />
<glyph unicode="&#x2000;" horiz-adv-x="756" />
<glyph unicode="&#x2001;" horiz-adv-x="1512" />
<glyph unicode="&#x2002;" horiz-adv-x="756" />
<glyph unicode="&#x2003;" horiz-adv-x="1512" />
<glyph unicode="&#x2004;" horiz-adv-x="504" />
<glyph unicode="&#x2005;" horiz-adv-x="378" />
<glyph unicode="&#x2006;" horiz-adv-x="252" />
<glyph unicode="&#x2007;" horiz-adv-x="252" />
<glyph unicode="&#x2008;" horiz-adv-x="189" />
<glyph unicode="&#x2009;" horiz-adv-x="302" />
<glyph unicode="&#x200a;" horiz-adv-x="84" />
<glyph unicode="&#x2010;" d="M72 519q0 12 13 39t27.5 36t88.5 9l749 54q25 0 148 -97q2 -8 10 -41t8 -41q0 -129 -125 -129l-386 -17q-10 0 -114.5 -16t-114.5 -16q-76 0 -126 2q-16 14 -20 14q-10 0 -10 -8t-9 -8q-59 0 -106 121q0 2 -25 30q4 14 -2 38t-6 30z" />
<glyph unicode="&#x2011;" d="M72 519q0 12 13 39t27.5 36t88.5 9l749 54q25 0 148 -97q2 -8 10 -41t8 -41q0 -129 -125 -129l-386 -17q-10 0 -114.5 -16t-114.5 -16q-76 0 -126 2q-16 14 -20 14q-10 0 -10 -8t-9 -8q-59 0 -106 121q0 2 -25 30q4 14 -2 38t-6 30z" />
<glyph unicode="&#x2012;" d="M72 519q0 12 13 39t27.5 36t88.5 9l749 54q25 0 148 -97q2 -8 10 -41t8 -41q0 -129 -125 -129l-386 -17q-10 0 -114.5 -16t-114.5 -16q-76 0 -126 2q-16 14 -20 14q-10 0 -10 -8t-9 -8q-59 0 -106 121q0 2 -25 30q4 14 -2 38t-6 30z" />
<glyph unicode="&#x2013;" horiz-adv-x="1388" d="M72 519q0 12 13 39t27.5 36t88.5 9l956 58q25 0 148 -97q0 -8 8.5 -41t8.5 -41q0 -129 -124 -129l-593 -21q-10 0 -114.5 -16t-114.5 -16q-76 0 -126 2q-16 14 -20 14q-10 0 -10 -8t-9 -8q-59 0 -106 121q0 2 -25 30q4 14 -2 38t-6 30z" />
<glyph unicode="&#x2014;" horiz-adv-x="1492" d="M72 519q0 12 13 39t27.5 36t88.5 9l1084 52q25 0 149 -97q2 -8 9.5 -41t7.5 -41q0 -129 -125 -129l-721 -15q-10 0 -114.5 -16t-114.5 -16q-76 0 -126 2q-16 14 -20 14q-10 0 -10 -8t-9 -8q-59 0 -106 121q0 2 -25 30q4 14 -2 38t-6 30z" />
<glyph unicode="&#x2018;" horiz-adv-x="470" d="M35 1123q0 -33 105 -251q10 -6 26 -22q-6 -12 28 -39t56 -35q29 -10 60 -9q10 0 44 38t56 51q-59 191 -59 232q0 6 25.5 49t25.5 57q0 10 -16 33q-21 33 -23 37q-156 49 -174 49q-31 0 -80 -49q-23 -23 -48.5 -74t-25.5 -67z" />
<glyph unicode="&#x2019;" horiz-adv-x="587" d="M101 856q59 191 59 232q0 6 -25.5 49t-25.5 57q0 10 16 33q21 33 23 37q156 49 174 49q31 0 80 -49q23 -23 48.5 -74t25.5 -67q0 -33 -105 -251q-10 -6 -26 -22q6 -12 -28 -39t-56 -35q-29 -10 -60 -9q-10 0 -41 35q-37 41 -59 54z" />
<glyph unicode="&#x201c;" horiz-adv-x="881" d="M35 1123q0 -33 105 -251q10 -6 26 -22q-6 -12 28 -39t56 -35q29 -10 60 -9q10 0 44 38t56 51q-59 191 -59 232q0 6 25.5 49t25.5 57q0 10 -16 33q-21 33 -23 37q-156 49 -174 49q-31 0 -80 -49q-23 -23 -48.5 -74t-25.5 -67zM458 1123q0 -33 106 -251q10 -6 25 -22 q-6 -12 28 -39t56 -35q29 -10 60 -9q10 0 44 38t56 51q-59 191 -59 232q0 6 25.5 49t25.5 57q0 10 -16 33q-21 33 -23 37q-156 49 -174 49q-31 0 -80 -49q-23 -23 -48.5 -74t-25.5 -67z" />
<glyph unicode="&#x201d;" horiz-adv-x="957" d="M101 856q59 191 59 232q0 6 -25.5 49t-25.5 57q0 10 16 33q21 33 23 37q156 49 174 49q31 0 80 -49q23 -23 48.5 -74t25.5 -67q0 -33 -105 -251q-10 -6 -26 -22q6 -12 -28 -39t-56 -35q-29 -10 -60 -9q-10 0 -41 35q-37 41 -59 54zM523 856q59 191 58 232q0 6 -26 49 t-26 57q0 10 17 33q21 33 24 37q156 49 173 49q31 0 80 -49q23 -23 48.5 -74t25.5 -67q0 -33 -105 -251q-10 -6 -25 -22q4 -12 -29.5 -39t-59 -35.5t-58.5 -8.5q-8 0 -39 35q-37 41 -58 54z" />
<glyph unicode="&#x202f;" horiz-adv-x="302" />
<glyph unicode="&#x205f;" horiz-adv-x="378" />
<glyph unicode="&#x25fc;" horiz-adv-x="1326" d="M0 0v1326h1326v-1326h-1326z" />
</font>
</defs>
</svg>
