<?xml version="1.0" standalone="no"?>
<!DOCTYPE svg PUBLIC "-//W3C//DTD SVG 1.1//EN" "http://www.w3.org/Graphics/SVG/1.1/DTD/svg11.dtd" >
<svg xmlns="http://www.w3.org/2000/svg">
<metadata></metadata>
<defs>
<font id="draftsman__casual_6bregular" horiz-adv-x="1311" >
<font-face units-per-em="2048" ascent="1638" descent="-410" />
<missing-glyph horiz-adv-x="532" />
<glyph horiz-adv-x="2048" />
<glyph horiz-adv-x="2048" />
<glyph unicode="&#xd;" horiz-adv-x="532" />
<glyph unicode=" "  horiz-adv-x="532" />
<glyph unicode="&#x09;" horiz-adv-x="532" />
<glyph unicode="&#xa0;" horiz-adv-x="532" />
<glyph unicode="!" horiz-adv-x="524" d="M70 115v110q0 74 71 119q59 37 125 37q63 0 110 -35q50 -38 50 -98q0 -20 -12 -49q0 7 4 20v-104q0 -60 -49 -101t-119 -41q-58 0 -111 31q-69 39 -69 111zM80 602q0 130 9 300t9 300q0 60 50 102t120 42q71 0 119.5 -42t48.5 -102q0 -130 -9 -300t-9 -300 q0 -60 -49 -101.5t-119 -41.5q-71 0 -120.5 41.5t-49.5 101.5z" />
<glyph unicode="&#x22;" horiz-adv-x="922" d="M74 848q0 61 12 175q13 119 14 175q3 150 172 150q75 0 123 -38q45 -35 45 -85q0 -56 -16 -230q-3 -56 -7 -112q-8 -72 -41 -110q-43 -50 -134 -50q-76 0 -124 39q-44 36 -44 86zM489 848q0 63 8.5 189.5t8.5 189.5q0 50 49.5 85.5t120.5 35.5q70 0 119 -35.5t49 -85.5 q0 -57 -5 -171t-5 -172t-40 -103q-49 -54 -135 -54q-72 0 -121 35.5t-49 85.5z" />
<glyph unicode="#" horiz-adv-x="1356" d="M20 463q0 54 43 91.5t105 37.5h92q5 39 14 119h-81q-62 0 -105 37.5t-43 91.5q0 53 43 91t105 38h112q5 67 9 134q9 92 38 139q40 65 123 65q61 0 105.5 -36t44.5 -91q0 -69 -19 -207l94 2q3 149 20 209q38 129 154 129q59 0 103 -35q47 -38 47 -94q0 -38 -8 -101 q-11 -81 -12 -102l180 2q62 0 105.5 -37.5t43.5 -91.5t-43.5 -91.5t-105.5 -37.5q-54 0 -205 -2q-2 -14 -10 -109q63 7 94 7q65 0 106 -39t41 -90q0 -142 -243 -142h-15q-11 -158 -29 -215q-44 -139 -161 -139q-58 0 -102 33q-50 37 -50 94q0 38 18 106q20 78 23 109 q-49 -1 -112 -2q-11 -132 -34 -194q-45 -115 -153 -115q-58 0 -102 33q-49 37 -49 94q0 34 13 91q18 79 19 91h-65q-62 0 -105 36.5t-43 90.5zM561 594q36 0 107 2q3 40 10 121l-105 -2q-4 -40 -12 -121z" />
<glyph unicode="$" d="M82 838q0 209 436 354q10 64 52 109q48 53 120 53q81 0 118 -19q29 -15 38 -49q6 -32 12 -63q144 -30 175 -40q65 -22 89 -65q13 -21 13 -53q0 -62 -52 -100q-47 -35 -112 -35q-84 0 -123 18l-8 -92q156 -17 264 -78q145 -84 145 -225q0 -169 -156 -280 q-73 -52 -296 -142q-6 -87 -34 -126q-40 -56 -140 -56q-64 0 -113.5 36.5t-56.5 92.5h-15q-139 0 -237 65q-95 62 -95 146q0 60 50 102.5t120 42.5q48 0 107 -15q67 -18 88 -42l8 192q-156 18 -263 78q-134 75 -134 191zM369 866q0 -28 77 -28q19 0 56 10l6 106 q-139 -27 -139 -88zM791 383q143 34 143 158q0 47 -98 47h-9h-12h-8h-4z" />
<glyph unicode="%" horiz-adv-x="1499" d="M45 989q0 131 106 226.5t255 95.5h757q57 0 97 -35.5t40 -87.5q0 -49 -47 -92q-146 -134 -409 -540q-255 -393 -301 -542q-36 -114 -142 -114q-52 0 -93 32q-46 36 -46 91q0 131 254 530q188 295 358 512h-180q4 -24 4 -45q0 -120 -80 -219q-94 -117 -245 -117 q-148 0 -241 92q-87 87 -87 213zM299 965q0 -86 74 -86q21 0 44 30q29 39 29 103q0 4 1.5 17.5t1.5 21.5v8q-2 16 -7 16q-143 0 -143 -110zM788 252q0 121 78 218q92 114 246 114q140 0 241 -86.5t101 -212.5q0 -131 -102 -229q-106 -101 -256 -101q-127 0 -221 101 q-87 93 -87 196zM1038 242q0 -24 14 -49t29 -25q51 0 88 35t37 88q0 31 -29 56.5t-71 25.5q-68 0 -68 -131z" />
<glyph unicode="&#x26;" horiz-adv-x="1475" d="M49 414q0 187 176 329q-106 125 -106 220q0 150 120.5 249t297.5 99q169 0 277 -101q101 -96 101 -231t-229 -279q35 -29 191 -143q59 65 59 242q0 59 55 106t125 47q65 0 80 5.5t80 5.5q71 0 120.5 -42t49.5 -102t-49.5 -101.5t-120.5 -41.5q-7 0 -19.5 -1t-17.5 -1 q-8 -60 -52 -146q-38 -70 -75 -141q86 -46 236 -149q43 -39 43 -95q0 -53 -44 -96q-49 -47 -124 -47q-63 0 -283 143q-168 -157 -387 -157q-217 0 -360.5 122.5t-143.5 305.5zM389 414q0 -142 164 -142q67 0 133 60q-84 62 -248 192q-49 -47 -49 -110zM424 956q0 -45 63 -84 q23 10 66 33q57 41 57 78q0 39 -25 69q-21 27 -40 27q-121 0 -121 -123z" />
<glyph unicode="'" horiz-adv-x="565" d="M109 913q0 33 3 98t3 97q0 13 -3 51t-3 60q0 159 165 159q183 0 183 -221q0 -16 -1 -44t-1 -38v-47q0 -77 -6 -123.5t-50 -78.5q-48 -35 -120 -35q-76 0 -125 37q-45 36 -45 85z" />
<glyph unicode="(" horiz-adv-x="963" d="M59 481q0 350 121 581q147 283 488 429q33 14 71 14q75 0 124 -50q44 -45 44 -101q0 -77 -131 -151q-173 -96 -245 -196q-132 -183 -132 -526q0 -155 106 -334q111 -187 259 -258q90 -43 111 -60q49 -39 49 -105q0 -57 -44 -102q-49 -50 -124 -50q-34 0 -70 14 q-276 112 -454 373q-173 253 -173 522z" />
<glyph unicode=")" horiz-adv-x="963" d="M43 1374q0 57 44 102q49 50 124 50q34 0 70 -15q276 -111 455 -373q173 -254 173 -524q0 -349 -120 -580q-147 -281 -488 -427q-33 -15 -72 -15q-75 0 -124 50q-44 45 -44 102q0 77 132 150q173 96 245 195q131 183 131 525q0 156 -106 335q-111 188 -258 259 q-92 44 -112 60q-50 40 -50 106z" />
<glyph unicode="*" horiz-adv-x="979" d="M49 1083q0 52 37.5 90.5t91.5 38.5q40 0 84 -30l70 -58l10 -8v35v68q0 53 37 91t90 38t91 -38t38 -91v-113l39 33q71 59 77 64q49 34 91 34q54 0 91.5 -39t37.5 -90q0 -54 -49 -100l-92 -70q-57 -44 -115 -94q94 -67 196 -125q72 -41 72 -113q0 -49 -34 -87 q-37 -42 -93 -42q-52 0 -211 103v-56q0 -252 -139 -252q-58 0 -94 41q-33 38 -33 90q0 42 6 148l-35 -31q-38 -55 -106 -55q-54 0 -90.5 36.5t-36.5 90.5q0 66 196 242q-68 55 -136 111q-91 83 -91 138z" />
<glyph unicode="+" d="M66 610q0 67 45.5 113.5t111.5 46.5q29 0 87 4t87 4q19 0 49 -1q37 -1 50 -1q-4 200 -4 275q0 66 46.5 111.5t112.5 45.5t112 -45.5t46 -111.5q0 -55 6 -281q153 -2 272 -2q66 0 112 -45t46 -113q0 -81 -64 -125q-54 -36 -130 -36q-51 0 -228 4q4 -152 4 -285 q0 -67 -46 -114.5t-113 -47.5t-114.5 47.5t-47.5 114.5v14q0 182 -2 277q-12 0 -53 1q-34 1 -54 1q-29 0 -87 -4t-87 -4q-66 0 -111.5 45.5t-45.5 111.5z" />
<glyph unicode="," horiz-adv-x="565" d="M29 -258q0 42 41 72q12 9 33.5 108.5t29.5 108.5q-94 32 -94 102q0 54 63 95q80 53 228 53q196 0 196 -154q0 -108 -91 -287q-110 -213 -236 -213q-72 0 -121 35t-49 80z" />
<glyph unicode="-" horiz-adv-x="856" d="M51 483q0 112 98 151q58 23 187 23l305 2q70 1 119 -49t49 -121q0 -70 -48.5 -118.5t-119.5 -48.5q-44 0 -132 -1.5t-132 -1.5q-26 0 -77 -2t-77 -2q-70 0 -119 46q-53 48 -53 122z" />
<glyph unicode="." horiz-adv-x="532" d="M84 117q0 112 38 186q49 94 152 94q61 0 113 -23q64 -29 64 -77q0 -19 -3.5 -120t-3.5 -120q0 -48 -67 -76q-52 -22 -111 -22q-56 0 -109 21q-71 28 -71 77q0 9 -1 28.5t-1 31.5z" />
<glyph unicode="/" horiz-adv-x="778" d="M-131 -258q0 59 33 113q33 49 65 98q55 94 164 354q213 506 320 834q37 114 68 161q59 89 155 89q65 0 116 -39q56 -43 56 -109q0 -31 -15 -61q-36 -98 -110 -293q-89 -229 -275 -686q-74 -178 -100 -233q-60 -128 -125 -222q-7 -2 -14 -6q0 -62 -49.5 -105t-120.5 -43 t-119.5 43t-48.5 105z" />
<glyph unicode="0" d="M43 621q0 273 139 475q174 254 504 254q331 0 478 -254q104 -180 104 -455q0 -290 -132 -465q-163 -217 -507 -217q-299 0 -459 231q-127 184 -127 431zM383 621q0 -155 63 -259q68 -112 183 -112q168 0 237 104q60 90 60 287q0 418 -248 418q-140 0 -221 -135 q-74 -122 -74 -303z" />
<glyph unicode="1" d="M115 147q0 60 48.5 101t119.5 41q110 0 202 -2q22 115 27 284q2 142 4 285q-175 -111 -219 -111q-74 0 -124 47q-46 43 -46 99q0 71 154 173q195 128 211 146q78 90 82 94q56 50 120 50q65 0 116 -39q54 -42 54 -105q0 -67 -28 -852q-2 -47 -5 -75l195 4q69 0 119.5 -40 t50.5 -104q0 -149 -444 -149q-62 0 -235 5t-234 5q-71 0 -119.5 42t-48.5 101z" />
<glyph unicode="2" d="M41 137q0 72 204 216q189 133 378 267q204 164 204 283q0 60 -54 108q-57 50 -132 50q-105 0 -176 -53q-50 -49 -100 -97q-56 -53 -123 -53q-72 0 -121 44t-49 102q0 42 32 83q203 259 537 259q213 0 368.5 -132.5t155.5 -310.5q0 -164 -184 -343q-67 -66 -342 -271h479 q72 0 122 -42.5t50 -103.5q0 -60 -50 -102.5t-122 -42.5h-557q-46 0 -134 8q-91 8 -134 8q-50 -16 -84 -16q-64 0 -114 37q-54 40 -54 102z" />
<glyph unicode="3" d="M35 145q0 60 35 100q41 44 112 44q38 0 114 -19.5t118 -19.5q220 0 347 62q136 68 136 198q0 61 -39 86q-42 27 -149 27h-39h-19q-132 -66 -223 -66q-192 0 -192 143q0 65 61 105q50 33 125 41q126 38 164 67q45 32 45 95q0 15 -24 33q-29 22 -72 22h-35q-66 0 -82 -16 q-51 -64 -133 -64q-81 0 -127 54q-37 42 -37 91q0 82 161 155q142 65 242 65q171 0 298 -83q147 -96 147 -257q0 -64 -27 -127q293 -88 293 -371q0 -297 -280 -439q-216 -110 -541 -110q-84 0 -222 56q-157 64 -157 128z" />
<glyph unicode="4" d="M2 485q0 45 300 381q286 319 403 420q51 62 139 62q70 0 119 -42t49 -102v-651h71q185 0 185 -152q0 -49 -98 -96q-86 -41 -142 -41h-16v-121q0 -59 -48 -100t-118 -41q-69 0 -110.5 41t-41.5 102v119h-332q-135 0 -235 49q-125 60 -125 172zM393 553h301v353 q-61 -61 -165 -188q-122 -150 -136 -165z" />
<glyph unicode="5" d="M43 330q0 64 57 104q50 37 115 37q84 0 131 -57q37 -54 75 -107q56 -57 165 -57q303 0 303 252q0 182 -221 182q-132 0 -241 -58.5t-173 -58.5q-80 0 -128 41.5t-48 108.5q0 83 41 233.5t41 233.5q0 60 48.5 101.5t119.5 41.5q36 0 69 -12q48 0 155 21q104 22 150 22 q73 0 204 -9q161 -11 188 -24q90 -45 90 -125q0 -54 -44 -96q-49 -47 -124 -47q-27 0 -37 2q-63 12 -131 12q-294 0 -421 -33q-11 -67 -30 -160q224 52 271 52q273 0 416 -110t143 -318q0 -240 -178 -390.5t-463 -150.5q-173 0 -350 107q-193 117 -193 262z" />
<glyph unicode="6" d="M39 565q0 240 184 467q154 190 391 322q48 26 95 26q72 0 121 -44t49 -101t-170 -168q-194 -129 -232 -186q132 80 268 80q238 0 378 -147q128 -135 128 -337q0 -228 -186 -375q-178 -139 -434 -139q-289 0 -451 193q-141 167 -141 409zM379 549q0 -121 57 -202 q67 -95 195 -95t207 64q75 63 75 161q0 73 -63 134t-145 61h-43q-104 0 -157 -18q-79 -26 -126 -105z" />
<glyph unicode="7" d="M47 1128q0 108 175 150q129 31 396 31q62 0 180.5 -2t172.5 -2q65 0 116 2q2 0 4.5 1t4.5 1q73 0 122 -46q46 -43 46 -100q0 -68 -60 -110q-118 -167 -260 -460q-139 -285 -203 -484q-47 -148 -182 -148q-63 0 -112 36q-56 40 -56 103q0 88 173 448q130 272 237 462 q-66 -11 -133 -21q-154 -20 -277 -20q-344 0 -344 159z" />
<glyph unicode="8" d="M41 420q0 150 147 268q-88 93 -88 225q0 218 153 333q135 102 355 102q198 0 336 -84q164 -99 164 -283q0 -96 -49 -182q100 -52 156.5 -143.5t56.5 -194.5q0 -310 -227 -424q-147 -74 -439 -74q-242 0 -398 117q-167 125 -167 340zM379 420q0 -168 227 -168 q168 0 229 27q99 43 99 182q0 53 -32.5 75.5t-117.5 28.5l-28 2q-98 -22 -127 -22q-49 0 -90 4q-160 -57 -160 -129zM440 940q0 -106 154 -106h35q75 0 107 28.5t32 98.5q0 37 -38 65q-45 33 -122 33q-168 0 -168 -119z" />
<glyph unicode="9" d="M47 838q0 241 187 382q173 130 436 130q264 0 437 -186q157 -167 157 -380q0 -250 -203.5 -495.5t-478.5 -335.5q-32 -10 -60 -10q-75 0 -123 47q-43 43 -43 98q0 78 136 140q196 90 276 165q-99 -51 -203 -51q-244 0 -385 143q-133 136 -133 353zM387 838q0 -96 62 -158 t165 -62q139 0 289 117q1 5 12 24.5t11 24.5q0 116 -73 194.5t-179 78.5q-287 0 -287 -219z" />
<glyph unicode=":" horiz-adv-x="532" d="M80 94v37q0 115 27 165q43 79 167 79q71 0 122 -34q59 -40 59 -108q0 -28 -7.5 -70.5t-7.5 -70.5q0 -67 -60 -107q-52 -34 -120 -34q-72 0 -126 41.5t-54 101.5zM88 711q0 106 37 152q42 52 151 52q77 0 128 -41t51 -102v-43v-10q-5 -221 -189 -221q-71 0 -123.5 42 t-52.5 99q0 10 -1 34t-1 38z" />
<glyph unicode=";" horiz-adv-x="532" d="M27 82q0 64 55 102q56 30 113 60q50 28 102 28q66 0 129 -90q57 -80 57 -135q0 -132 -59 -289q-78 -204 -201 -204q-66 0 -117 38q-55 41 -55 103q0 91 66 260q-90 41 -90 127zM92 561v74q0 123 30 184q45 92 165 92q77 0 126.5 -42t49.5 -107q0 -13 -6 -35t-6 -63 q0 -18 2 -52.5t2 -50.5q0 -71 -66 -113q-54 -34 -121 -34q-72 0 -124 42t-52 105z" />
<glyph unicode="&#x3c;" horiz-adv-x="1135" d="M63 651q0 69 88 128l156 98q75 60 205 149q166 114 209 145q112 82 180 82q71 0 120.5 -42.5t49.5 -98.5q0 -64 -93 -135q-78 -51 -157 -103q-147 -100 -301 -215q187 -126 349 -257q196 -157 196 -197q0 -62 -56 -102q-51 -37 -116 -37q-91 0 -156 79q-43 53 -262 198 q-206 136 -276 167t-95 52q-41 34 -41 89z" />
<glyph unicode="=" d="M86 893q0 62 43.5 105.5t106.5 43.5q119 0 356 20.5t356 20.5q67 0 137 -45q80 -52 80 -120q0 -63 -53 -103q-47 -35 -104 -35q-10 0 -30 3t-30 3q-119 0 -356 -20.5t-356 -20.5q-63 0 -106.5 43t-43.5 105zM90 475q0 95 78 129q43 20 151 27q250 20 748 51h8 q67 0 110 -47q40 -44 40 -103q0 -115 -123 -145q-52 -13 -149 -17q-74 -3 -148 -5q-186 -15 -557 -37h-8q-67 0 -110 46q-40 43 -40 101z" />
<glyph unicode="&#x3e;" horiz-adv-x="1135" d="M63 207q0 64 94 134q78 51 156 101q114 78 301 217q-188 128 -349 256q-195 157 -195 197q0 62 55 103q51 38 117 38q89 0 155 -82q43 -52 262 -196q206 -135 276.5 -166t94.5 -52q41 -34 41 -89q0 -70 -88 -128l-156 -98q-75 -60 -204 -149q-166 -114 -209 -146 q-112 -81 -181 -81q-71 0 -120.5 42.5t-49.5 98.5z" />
<glyph unicode="?" horiz-adv-x="946" d="M33 1069q0 91 116 155q49 27 209 83q113 39 220 39q132 0 228.5 -82t96.5 -195q0 -97 -84 -167q-79 -50 -157 -101q-84 -56 -84 -121q0 -15 3 -44t3 -44q0 -63 -51.5 -104.5t-118.5 -41.5q-84 0 -136 62q-45 52 -45 115l3 16q0 78 105 200q45 51 214 216 q-142 -10 -223 -43q-34 -88 -131 -88q-71 0 -119.5 42.5t-48.5 102.5zM244 106l2 121q1 68 61 108q53 36 123 36q62 0 113 -36q61 -42 61 -110q0 -26 -6 -43v-76q0 -68 -62 -110q-52 -35 -114 -35q-61 0 -113 33q-66 42 -65 112z" />
<glyph unicode="@" horiz-adv-x="1659" d="M49 463q0 359 260 630q265 277 629 277q284 0 480 -207q192 -203 192 -487q0 -293 -158 -479q-172 -201 -475 -201q-162 0 -295 93q-156 109 -156 284q0 129 162 196q56 23 301 76q-30 98 -45 98q-22 0 -98.5 -25.5t-120.5 -25.5q-51 0 -86 27q-39 31 -39 82 q0 88 148 138q105 36 196 36q200 0 268 -212q43 -137 43 -460l48 43q67 101 67 354q0 185 -125.5 314t-306.5 129q-257 0 -450 -208.5t-193 -471.5q0 -266 173 -440q167 -168 427 -187q154 -11 154 -127q0 -51 -34.5 -88t-88.5 -37q-130 0 -283 47q-288 89 -443 313 q-151 216 -151 519zM772 373q0 -50 62 -90.5t143 -40.5h12q32 0 49 2q2 125 2 141q0 60 -6 82v-2l-2 -16q-260 -42 -260 -76z" />
<glyph unicode="A" horiz-adv-x="1384" d="M0 129q0 84 156 391q154 302 319 547q187 276 258 276q96 0 154 -98q34 -82 67 -164q112 -268 316 -680q114 -231 114 -274q0 -65 -58 -106q-52 -37 -116 -37q-96 0 -157 89l-78 154q-297 -42 -625 -51q-8 -28 -8 -47q0 -61 -49.5 -103t-120.5 -42t-121.5 42.5 t-50.5 102.5zM471 471q204 11 377 33l-166 368q-101 -160 -211 -401z" />
<glyph unicode="B" horiz-adv-x="1382" d="M20 135q0 81 72 119q13 232 43 696q-88 43 -88 127q0 69 290 155q260 77 370 77q189 0 319 -49q180 -68 180 -213q0 -103 -71 -189q198 -77 198 -258q0 -293 -418 -468q-340 -142 -725 -142q-75 0 -124 47q-46 43 -46 98zM442 303q549 72 549 295q0 18 -45 18h-12 q-86 0 -242 -44q-120 -37 -239 -74q-3 -65 -11 -195zM469 793q377 101 377 239q0 12 -10.5 12t-34 2.5t-33.5 2.5q-112 0 -203 -25q-42 -14 -84 -29q-2 -31 -12 -202z" />
<glyph unicode="C" horiz-adv-x="1339" d="M49 514q0 280 218 543q238 289 554 289q108 0 183 -44q88 -50 88 -143q0 -60 -50.5 -102.5t-121.5 -42.5q-69 0 -119 41q-159 -19 -290 -212q-120 -176 -120 -329q0 -107 79 -182.5t192 -75.5q107 0 200 53q9 4 138 97q74 53 133 53q71 0 121.5 -44.5t50.5 -103.5 q0 -49 -45 -96q-240 -250 -598 -250q-266 0 -444 169q-169 161 -169 380z" />
<glyph unicode="D" horiz-adv-x="1403" d="M18 1102q0 86 91 124q42 18 174 40q292 47 426 47q268 0 447 -123q198 -136 198 -373q0 -189 -184 -388q-169 -181 -423.5 -304t-465.5 -123q-76 0 -125 46q-45 42 -45 97q0 64 63 107q-43 147 -43 393q0 160 23 313q-62 11 -100 55q-36 41 -36 89zM473 645 q0 -189 25 -293q214 79 355 198q159 133 159 267q0 209 -303 209q-81 0 -201 -18q-35 -173 -35 -363z" />
<glyph unicode="E" horiz-adv-x="1233" d="M78 453q0 283 61 557q-45 41 -45 98q0 56 44 95.5t108 45.5l614 62h6h15q74 0 122 -48q44 -42 44 -96q0 -91 -126 -136q-90 -33 -249 -42q-92 -3 -185 -6q-21 -90 -32 -152l540 60q19 2 25 2q74 0 122 -49q42 -43 42 -96q0 -132 -277 -172q-242 -19 -485 -37 q-2 -99 -2 -110t-4 -41.5t-4 -45.5q0 -53 51 -53q146 0 324.5 55t250.5 55q76 0 125 -47q45 -43 45 -98q0 -130 -327 -203q-229 -51 -418 -51q-229 0 -320 144q-65 104 -65 309z" />
<glyph unicode="F" horiz-adv-x="1214" d="M18 1094q0 86 91 125q40 17 174 41q337 59 579 59q72 0 122 -41.5t50 -101.5t-50 -102t-122 -42q-170 0 -391 -35q-1 -57 -4 -131l290 52q173 30 292 30q75 0 123 -45q45 -42 45 -98q0 -129 -279 -179q-238 -27 -477 -55l-2 -43v-100q0 -223 47 -303q20 -35 20 -68 q0 -62 -53.5 -103.5t-120.5 -41.5q-72 0 -142 110q-72 115 -85 267q-8 99 -8 248v36q-60 44 -60 113q0 74 64 113q1 67 4 159q-107 37 -107 136z" />
<glyph unicode="G" horiz-adv-x="1458" d="M49 557q0 290 209 544q236 288 586 288q99 0 193 -50q110 -58 110 -143q0 -49 -36 -92q-47 -55 -130 -55q-35 0 -84 26.5t-53 26.5q-177 0 -316 -173q-137 -168 -137 -372q0 -113 95.5 -208t211.5 -95q369 0 369 328q0 28 -29 28q-8 0 -29 -3t-32 -3q-49 0 -121 -21.5 t-119 -21.5q-51 0 -99 27q-69 37 -69 108q0 203 439 203q401 0 401 -317q0 -283 -197.5 -451t-513.5 -168q-271 0 -466 193q-183 181 -183 401z" />
<glyph unicode="H" horiz-adv-x="1339" d="M76 137v228q0 122 30 434q19 188 37 377q5 56 53.5 94.5t116.5 38.5q69 0 118 -35q54 -39 54 -100q0 -3 -1 -7t-1 -6l-34 -428q249 10 419 31q-6 308 -6 410q0 60 50.5 101.5t121.5 41.5q185 0 185 -260q0 -29 -13 -226q72 -9 112 -65q30 -42 30 -84q0 -98 -134 -152 q7 -311 7 -393q0 -60 -50 -101.5t-120 -41.5q-189 0 -189 280q0 49 6 118.5t6 78.5v2q-209 -22 -452 -31q-4 -46 -4 -137v-168q0 -60 -49.5 -101.5t-120.5 -41.5q-72 0 -122 41.5t-50 101.5z" />
<glyph unicode="I" horiz-adv-x="838" d="M51 1174q0 151 291 151q59 0 144 -7q89 -7 100 -7q69 -1 117.5 -43t48.5 -101q0 -60 -49.5 -100.5t-120.5 -40.5v-752q204 -9 204 -145q0 -149 -278 -149q-53 0 -131 5q-81 7 -94 7q-29 -6 -43 -6q-84 0 -130 52q-38 42 -38 97q0 74 168 125v770q-81 1 -132 37 q-57 39 -57 107z" />
<glyph unicode="J" horiz-adv-x="1251" d="M39 500q0 59 46 115q58 73 157 73q73 0 122 -47q46 -43 46 -98q0 -44 -29 -78q15 -82 82.5 -150.5t128.5 -68.5q239 0 239 397q0 34 -2 90t-2 76q0 60 -6 192h-98q-377 0 -377 164q0 55 44 97q49 47 124 47q38 0 112 -10.5t113 -10.5h109q7 0 21 1t20 1q45 27 96 27 q36 0 76 -17q66 -6 108 -50q39 -42 39 -93q0 -61 -49 -100q10 -186 10 -250q0 -318 -105 -539q-148 -313 -472 -313q-239 0 -405 191q-148 168 -148 354z" />
<glyph unicode="K" horiz-adv-x="1276" d="M74 360q0 132 17 376q18 258 20 376q2 201 176 201q172 0 172 -160q0 -4 -4 -29q-11 -64 -15 -155q158 130 342 236t254 106q73 0 122.5 -44t49.5 -102q0 -67 -63 -110l-504 -350q68 0 269 -163q15 -12 257 -223q57 -49 97 -105q36 -50 36 -73q0 -59 -50.5 -102 t-121.5 -43q-65 0 -181 93q-79 70 -159 140q-231 206 -368 285q-4 -90 -4 -156v-217q0 -60 -49.5 -102.5t-120.5 -42.5t-120.5 42.5t-49.5 102.5z" />
<glyph unicode="L" horiz-adv-x="1102" d="M88 723v133q0 314 39 397q47 101 162 101q66 0 117 -39q55 -41 55 -105q0 -9 -2 -22q-29 -183 -29 -494v-65q0 -216 31 -334q212 0 450 31q16 2 29 2q75 0 125 -47q45 -43 45 -99q0 -178 -483 -178q-34 0 -86.5 1t-67.5 1q-165 0 -244 57l25 -12q-166 109 -166 672z" />
<glyph unicode="M" horiz-adv-x="1587" d="M51 147q0 45 17 126q18 90 20 128q10 159 10 349q0 69 -2 208.5t-2 208.5q0 47 40 91q45 50 114 53q24 6 49 6q79 0 163 -82q61 -69 122 -137q112 -123 223 -238q365 424 442 455h4h6q98 0 150 -53q41 -42 41 -95q0 -8 -2 -20q76 -707 76 -1002q0 -59 -49.5 -101 t-120.5 -42t-120.5 42t-49.5 101q0 310 -37 641q-69 -96 -211 -274q-54 -61 -137 -61q-66 0 -117 39q-55 42 -55 104q-108 130 -183 205q0 -7 -4 -15.5t-4 -15.5q0 -157 -11 -349q-17 -279 -48 -329q-52 -84 -152 -84q-65 0 -115 37q-57 41 -57 104z" />
<glyph unicode="N" horiz-adv-x="1298" d="M72 1165q0 60 48.5 102t119.5 42q50 0 100 -29q55 -32 68 -82q152 -161 444 -489q-8 202 -8 225q0 9 -1 31.5t-1 35.5q0 314 192 314q66 0 116 -38q54 -41 54 -103q0 -39 -11 -115.5t-11 -116.5q0 -57 6 -171t6 -169.5t12.5 -163t12.5 -162.5q0 -22 10 -67t10 -68 q0 -63 -55 -105q-51 -38 -117 -38q-81 0 -134 56q-14 14 -77 112q-169 261 -430 557q1 -70 5 -289q3 -180 3 -289q0 -59 -49.5 -101t-120.5 -42t-120.5 42t-49.5 101q0 112 -3 335.5t-3 334.5q0 25 2 74t2 74q0 34 -10 101t-10 101z" />
<glyph unicode="O" horiz-adv-x="1444" d="M49 575q0 259 176 491q210 275 541 275q348 0 506 -214q123 -166 123 -445q0 -274 -183 -483q-206 -236 -540 -236q-296 0 -471 204q-152 176 -152 408zM391 575q0 -136 78 -227q80 -94 203 -94q164 0 274 125q107 123 107 303q0 197 -62 281q-65 88 -225 88 q-143 0 -261 -158q-114 -151 -114 -318z" />
<glyph unicode="P" horiz-adv-x="1229" d="M-27 1055q0 133 338 205q231 49 430 49q171 0 302 -79q157 -94 157 -257q0 -222 -257 -367q-167 -94 -490 -172v-293q0 -59 -49 -101t-121 -42q-71 0 -120.5 41t-49.5 102v770q-63 10 -103 54q-37 41 -37 90zM453 731q405 101 405 242q-34 47 -117 47q-152 0 -288 -31 v-258z" />
<glyph unicode="Q" horiz-adv-x="1444" d="M49 559q0 266 165 499q200 283 531 283q650 0 650 -671q0 -345 -260 -559l24 -45q66 -121 66 -154q0 -65 -57 -108q-52 -40 -117 -40q-85 0 -140 67q-10 12 -77 128q-91 -22 -183 -22q-296 0 -463 209q-139 176 -139 413zM391 559q0 -145 70 -234q72 -92 190 -92h15h8 l-21 29q-63 52 -63 131q0 52 46 104q51 58 118 58q49 0 202 -172q97 120 97 287q0 199 -64 284q-70 93 -244 93q-138 0 -248 -160q-106 -153 -106 -328z" />
<glyph unicode="R" horiz-adv-x="1307" d="M0 1059q0 52 254 147q225 85 324 99q149 20 264 20q148 0 256 -59q141 -77 141 -228q0 -127 -153 -260q-130 -113 -318 -190q571 -425 571 -479q0 -59 -50 -102.5t-122 -43.5q-52 0 -102 29q-66 38 -269 190q-218 164 -362 287q0 -18 1 -84q1 -52 1 -84q0 -27 5 -81 t5 -81q0 -62 -52 -102.5t-120 -40.5q-180 0 -180 305q0 51 -2 152.5t-2 152.5q0 181 19 316q-109 34 -109 137zM442 788l11 5q125 42 250 85q194 78 194 154q0 10 -14 10q-209 0 -414 -47q-18 -86 -27 -207z" />
<glyph unicode="S" horiz-adv-x="1413" d="M49 815q0 225 324 393q276 144 512 144q98 0 180 -47q104 -60 104 -168q0 -61 -49 -103.5t-121 -42.5q-100 0 -145 68q-141 -11 -302 -96.5t-161 -147.5q0 -47 86 -47q33 0 95.5 8t78.5 8q26 0 78 1t78 1q555 0 555 -319q0 -205 -349 -366q-303 -140 -564 -140 q-116 0 -214 53q-126 69 -126 195q0 63 43 114q49 58 129 58q64 0 114 -38t56 -93q165 1 341 50q228 63 228 167q0 39 -55 39q-20 0 -60 -5t-55 -5q-35 0 -104.5 -2t-104.5 -2q-233 0 -384 59q-208 83 -208 264z" />
<glyph unicode="T" horiz-adv-x="1208" d="M-2 1163q0 60 49.5 102t120.5 42q46 0 137.5 2t136.5 2q50 0 148 -8.5t147 -8.5q17 0 50.5 -1t50.5 -1q35 0 102 12.5t100 12.5q76 0 126 -48q44 -43 44 -98q0 -167 -381 -167h-36q-27 1 -37 2v-11v-18q0 -74 6 -262t6 -283q0 -207 -35 -306q-46 -128 -164 -128 q-110 0 -155 106q-35 85 -35 263q0 112 16 333q17 237 19 322q-20 0 -123 -1q-75 -1 -123 -1q-71 0 -120.5 41.5t-49.5 101.5z" />
<glyph unicode="U" d="M53 666q0 90 19 264q23 212 53 282q43 103 162 103q64 0 115 -37q57 -42 57 -107q0 -58 -24 -165q-28 -125 -32 -170q-8 -75 -8 -170q0 -184 42 -275q65 -141 243 -141q235 0 235 428q0 139 -57 471q-2 12 -2 22q0 64 55 107q51 39 117 39q117 0 160 -98q17 -39 35 -177 q34 -270 34 -374q0 -274 -119 -465q-153 -244 -458 -244q-627 0 -627 707z" />
<glyph unicode="V" horiz-adv-x="1247" d="M-2 1174q0 63 55 106q51 39 117 39q107 0 155 -92l56 -166q102 -277 217 -504q105 207 311 623q63 129 178 129q66 0 118 -38q57 -42 57 -106q0 -36 -80 -186q-64 -119 -209 -407q-176 -350 -176 -369q18 -80 18 -90q0 -53 -38 -97q-47 -55 -130 -55q-94 0 -139 63 q-30 64 -59 128q-36 58 -105 176q-74 131 -196 408q-150 342 -150 438z" />
<glyph unicode="W" horiz-adv-x="1538" d="M8 1143q0 170 162 170q64 0 113 -39t49 -98q0 -5 -2 -13.5t-2 -11.5q44 -211 133 -573q42 219 84 437q72 296 198 296q98 0 152 -110q18 -36 57 -179q33 -178 99 -474q73 170 116 397q44 236 59 274q40 102 140 102q64 0 114 -40t50 -99q0 -170 -61 -376 q-37 -126 -135 -367q-99 -247 -136 -367q-31 -103 -145 -103q-123 0 -197 254q-34 172 -102 469q-42 -220 -85 -440q-72 -291 -210 -291q-89 0 -130 61q-20 29 -44 121q-134 513 -228 811q-49 157 -49 189z" />
<glyph unicode="X" horiz-adv-x="1108" d="M8 1163q0 60 51 103t121 43q147 0 387 -336l135 194q-2 16 -2 15q0 76 77 111q46 20 91 20q75 0 132 -37q67 -42 67 -113q0 -38 -25 -73l-278 -408q52 -93 160 -279q46 -62 92 -125q61 -84 61 -131q0 -62 -52.5 -103.5t-119.5 -41.5q-103 0 -214 155q-14 19 -128 218 q-58 -102 -117 -204q-116 -169 -229 -169q-66 0 -118 39q-56 41 -56 104q0 38 23 72l307 467q-98 136 -326 389q-39 43 -39 90z" />
<glyph unicode="Y" horiz-adv-x="1251" d="M10 1147q0 69 39 114q46 54 131 54q74 0 120 -44q42 -40 42 -95q0 -13 -1 -55t-1 -68q0 -269 143 -269q97 0 206 138q90 129 181 257q110 138 209 138q68 0 118 -46.5t50 -113.5q0 -52 -49 -86q-16 -14 -69.5 -98.5t-63.5 -112.5q-79 -208 -160 -657q-6 -35 -6 -62 q0 -7 3 -22t3 -23q0 -59 -49.5 -100t-120.5 -41q-68 0 -116 38t-52 95q-6 21 -6 53q0 116 74 394q-85 -41 -152 -41q-244 0 -373 239q-100 184 -100 414z" />
<glyph unicode="Z" horiz-adv-x="1194" d="M23 1163q0 61 50 103.5t122 42.5q120 0 360 2t360 2q80 0 141.5 -52.5t61.5 -119.5t-45 -135q-17 -25 -96 -115q-334 -382 -512 -608q112 -2 172 -2q184 0 373 30q12 2 30 2q75 0 125 -46q45 -43 45 -99q0 -85 -102 -129q-105 -45 -576 -45q-54 0 -162.5 2t-162.5 2 q-172 0 -172 180q0 82 637 844l-477 -2q-72 0 -122 41.5t-50 101.5z" />
<glyph unicode="[" horiz-adv-x="963" d="M80 -137q0 53 8 165t8 165v989q0 130 26 195q43 108 161 108q28 0 55 -8q103 8 289 8q71 0 120.5 -43.5t49.5 -106.5t-49.5 -107t-120.5 -44h-37q-98 0 -152 -2q-2 -42 -2 -123v-950q0 -29 -3 -86.5t-3 -85.5v-5q39 5 159 34q101 24 154 24q76 0 124 -49q44 -44 44 -101 q0 -124 -224 -177q-110 -26 -331 -38q-46 -33 -106 -33q-71 0 -120.5 43.5t-49.5 106.5v121z" />
<glyph unicode="\" horiz-adv-x="1028" d="M27 1235q0 64 54 108q51 41 118 41q119 0 214 -171q31 -57 109 -265q127 -358 396 -1069q79 -44 79 -139q0 -58 -53 -125q-60 -74 -129 -74q-127 0 -209 207q-134 368 -407 1104q-74 195 -146 303q-26 40 -26 80z" />
<glyph unicode="]" horiz-adv-x="963" d="M66 -209q0 66 55 107q47 34 108 34q28 0 60 -6q65 0 172 13q8 105 12 299q3 134 21 471q16 306 16 471h-12h-27q-25 0 -75.5 -1t-76.5 -1q-80 0 -139 34q-71 42 -71 117q0 150 233 150q28 0 83 1t83 1q348 0 348 -174q0 -29 -10 -54q4 -71 4 -63q0 -175 -16 -478 q-18 -344 -21 -479q-4 -184 -7 -253q-11 -199 -36 -265q-41 -108 -162 -108q-59 0 -108 35q-144 -19 -203 -19q-80 0 -151 44q-80 51 -80 124z" />
<glyph unicode="^" horiz-adv-x="1348" d="M39 879q0 66 232 264q237 200 333 200q130 0 402 -174q278 -179 278 -278q0 -49 -55 -82q-51 -31 -117 -31q-64 0 -104 25q-34 27 -68 55q-66 65 -132 131q-108 105 -165 123q-66 -36 -160 -152q-101 -124 -149 -157q-54 -37 -125 -37q-68 0 -119 32.5t-51 80.5z" />
<glyph unicode="_" horiz-adv-x="1024" d="M-168 -387q0 71 49 120.5t119 49.5q132 0 354.5 8t354.5 8q55 0 145 -3t145 -3q230 0 230 -174q0 -75 -51.5 -121.5t-120.5 -46.5q-65 0 -174 4t-174 4q-132 0 -354.5 -7t-354.5 -7q-71 0 -119.5 48.5t-48.5 119.5z" />
<glyph unicode="`" horiz-adv-x="655" d="M68 1421q0 66 47 113t112 47q98 0 235 -186q126 -172 126 -250q0 -70 -53 -116q-48 -42 -109 -42q-84 0 -147 95q-50 80 -101 159q-36 41 -72 81q-38 51 -38 99z" />
<glyph unicode="a" horiz-adv-x="1157" d="M41 264q0 155 145 230q121 63 324 63q35 0 211 -47q0 174 -154 174q-117 0 -166 -35q-6 -3 -18 -12l-4 -4q-29 -29 -100 -29q-66 0 -118 36q-57 39 -57 99q0 78 183 135q150 46 272 46q276 0 400 -122q105 -103 116 -311q12 -232 12 -385q0 -41 -28 -80q-44 -59 -135 -59 q-66 0 -136 82q-110 -84 -327 -84q-163 0 -282 74q-138 84 -138 229zM377 276q0 -83 100 -83q143 0 242 92q-102 82 -189 82q-153 0 -153 -91z" />
<glyph unicode="b" horiz-adv-x="1114" d="M74 813q0 59 5 178t5 178.5t48.5 100.5t119.5 41t120.5 -41t49.5 -101q0 -50 -6 -268q102 35 202 35q206 0 339 -154q114 -132 114 -282q0 -195 -113 -346q-146 -193 -421 -193q-22 0 -146 39q-70 -39 -104 -39q-93 0 -139 63q-34 48 -44 139l-8 140q-22 268 -22 510z M418 561q2 -69 20 -266q54 -49 86 -49q205 0 205 254q0 58 -43 106q-38 41 -68 41q-104 0 -200 -86z" />
<glyph unicode="c" horiz-adv-x="1083" d="M41 373q0 262 194 415q165 130 383 130q125 0 204 -47q85 -50 85 -136q0 -59 -54 -97q-50 -36 -116 -36q-84 0 -127 43q-94 -13 -160.5 -91.5t-66.5 -180.5q0 -54 45 -96q42 -39 90 -39q92 0 150 52l86 98q53 52 133 52q58 0 110 -30q64 -38 64 -103q0 -26 -17 -55 q-162 -287 -526 -287q-209 0 -348 129q-129 121 -129 279z" />
<glyph unicode="d" horiz-adv-x="1161" d="M41 391q0 205 134 362q157 185 425 185q58 0 119 -10v8q0 13 -1 88t-1 94q0 232 178 232q112 0 157 -118q35 -93 35 -290q0 -139 -20 -422q-21 -302 -23 -385q-1 -58 -50 -99.5t-122 -41.5q-61 0 -104 29q-138 -62 -262 -62q-197 0 -337 143q-128 131 -128 287zM383 391 q0 -51 45 -97q42 -42 78 -42q84 0 199 78l8 297q-54 22 -113 22q-86 0 -151.5 -74t-65.5 -184z" />
<glyph unicode="e" horiz-adv-x="1094" d="M41 436q0 183 131 322q150 160 399 160q181 0 315 -83q152 -94 152 -251q0 -123 -213 -170q-29 -7 -403 -82q49 -63 87 -81q35 -15 114 -15q48 0 129 36.5t129 36.5q69 0 120.5 -40t51.5 -97q0 -59 -117 -124q-95 -52 -184 -71q-71 -14 -131 -14q-241 0 -412 144 q-168 140 -168 329zM379 520l379 80q-66 96 -174 96q-137 0 -205 -176z" />
<glyph unicode="f" horiz-adv-x="801" d="M2 694q0 113 172 150q0 508 350 508q80 0 206 -62q138 -68 138 -133q0 -56 -47 -99q-51 -46 -125 -46q-40 0 -98.5 25.5t-73.5 25.5q-20 0 -20 -19q0 -8 6 -61t6 -61v-15q88 17 164 17q74 0 122 -44.5t48 -101.5q0 -99 -124 -135q-109 -17 -218 -35q-2 -61 -2 -96 q0 -65 12 -185t12 -180q0 -63 -52.5 -103t-119.5 -40q-196 0 -196 334q0 25 1 65t1 54v57v35q-72 2 -119 49q-43 42 -43 96z" />
<glyph unicode="g" horiz-adv-x="1114" d="M41 399q0 226 135 363q152 153 440 153q100 0 195 -36q29 8 53 8q178 0 178 -131q0 -16 -6 -35q4 -583 4 -711q0 -252 -71 -366q-111 -179 -430 -179q-288 0 -424 181q-43 40 -43 96q0 47 33 91q45 58 131 58q70 0 142 -66.5t161 -66.5q99 0 133 63q24 44 26 152 q-92 -26 -170 -26q-225 0 -364 148q-123 131 -123 304zM383 399q0 -77 47 -121q42 -38 102 -38q81 0 168 59v23v45q0 77 -4 231q-52 27 -80 27q-124 0 -177 -47q-56 -51 -56 -179z" />
<glyph unicode="h" horiz-adv-x="1065" d="M72 137v1039q0 59 48.5 101t119.5 42q70 0 120 -42t50 -101v-340q153 82 247 82q216 0 297 -193q54 -125 54 -360q0 -21 -1 -24t-1 -17v-144q0 -67 -41 -118q-48 -62 -131 -62q-69 0 -119.5 40t-50.5 101q0 37 2 80t2 80v27q0 187 -25 290q-56 0 -135 -64 q-15 -12 -98 -91v-326q0 -59 -50 -101t-120 -42q-71 0 -119.5 42t-48.5 101z" />
<glyph unicode="i" horiz-adv-x="512" d="M74 1186q0 19 1 52.5t1 45.5q0 50 32 95q47 67 142 67q60 0 112 -34q64 -41 64 -109q0 -13 -4 -25l-2 -6l2 -152v-2q0 -65 -58 -106q-52 -37 -116 -37q-174 0 -174 211zM82 762q0 60 49.5 102.5t120.5 42.5q70 0 119 -42.5t49 -102.5q0 -114 4 -310.5t4 -310.5 q0 -60 -49.5 -101.5t-120.5 -41.5t-120.5 41.5t-49.5 101.5q0 114 -3 310.5t-3 310.5z" />
<glyph unicode="j" horiz-adv-x="532" d="M-258 -256q0 64 53 108t121 44q49 0 106 -39q88 -58 95 -62v19q0 19 2 55.5t2 52.5v31q0 65 -4 194.5t-4 194.5q0 74 -13.5 201.5t-13.5 201.5q0 64 49.5 108t120.5 44t121.5 -44t50.5 -108q0 -74 13.5 -201.5t13.5 -201.5q0 -59 5 -179t5 -179q0 -108 -30 -255 q-39 -187 -96.5 -222t-119.5 -35q-146 0 -297 69q-180 83 -180 203zM74 1149v82q0 68 46 131q54 74 134 74q63 0 115 -38q61 -44 61 -114q0 -13 -5 -38t-5 -38q0 -17 3 -51t3 -51q0 -69 -58 -112q-52 -38 -116 -38q-84 0 -135 66q-43 56 -43 127z" />
<glyph unicode="k" horiz-adv-x="971" d="M63 139q0 74 12.5 221.5t12.5 221.5q0 98 -8 293.5t-8 293.5q0 61 49 102.5t121 41.5q71 0 121.5 -42t50.5 -102q0 -159 10 -438l10 10q75 75 160 130t123 55q73 0 124 -46q48 -43 48 -100q0 -59 -68 -105q-60 -38 -121 -77q-64 -37 -174 -119q157 -73 310 -180 q161 -113 161 -158q0 -61 -53 -103t-121 -42q-63 0 -110 37q-199 156 -305 205q-2 -37 -2 -98t-50.5 -102.5t-122.5 -41.5q-71 0 -120.5 41.5t-49.5 101.5z" />
<glyph unicode="l" horiz-adv-x="512" d="M72 174q0 20 6 39q0 127 12 406q12 276 12 405q0 27 -1 80t-1 80q0 170 172 170q70 0 121 -42.5t51 -103.5v-155q0 -75 -2 -115q-22 -439 -22 -793q0 -56 -40 -100q-45 -49 -118 -49q-96 0 -150 71q-40 53 -40 107z" />
<glyph unicode="m" horiz-adv-x="1581" d="M72 129v631q0 55 49.5 94t120.5 39q92 0 141 -62q153 87 252 87q160 0 246 -107q185 107 301 107q207 0 287 -180q53 -118 53 -339q0 -24 -1 -63.5t-1 -54.5v-107q0 -63 -40 -113q-49 -61 -132 -61q-101 0 -145 63q-25 38 -25 84q0 29 1 85.5t1 84.5v27q0 188 -25 301 q-78 -22 -192 -127q8 -116 8 -262v-80q0 -59 -44 -113q-52 -63 -130 -63q-170 0 -170 184v252q0 124 -19 209q-60 -17 -198 -153v-363q0 -56 -49 -95.5t-119 -39.5q-71 0 -120.5 39.5t-49.5 95.5z" />
<glyph unicode="n" horiz-adv-x="1065" d="M72 129v631q0 55 49.5 94t120.5 39q97 0 145 -66q172 91 279 91q207 0 287 -179q53 -119 53 -340q0 -25 -1 -66t-1 -57v-104q0 -62 -42 -112q-49 -60 -133 -60q-68 0 -117.5 38t-49.5 95q0 19 1 57.5t1 57.5v106q0 171 -27 291q-80 -20 -227 -156v-360q0 -56 -49 -95.5 t-119 -39.5q-71 0 -120.5 39.5t-49.5 95.5z" />
<glyph unicode="o" horiz-adv-x="1137" d="M41 401q0 177 127 331q153 186 401 186q238 0 389 -149q138 -134 138 -312q0 -209 -140 -345q-155 -151 -430 -151q-235 0 -369 145q-116 125 -116 295zM383 401q0 -81 42 -126q39 -42 101 -42q228 0 228 224q0 74 -60 131q-56 55 -125 55q-19 0 -51 -16 q-135 -69 -135 -226z" />
<glyph unicode="p" horiz-adv-x="1114" d="M70 748q0 59 47.5 102t122.5 43q88 0 135 -59q41 84 219 84q227 0 362 -152q117 -132 117 -311q0 -205 -174 -352q-179 -152 -440 -152q-25 0 -45 2l-2 -121v-18q0 -35 3 -105t3 -104q0 -59 -45 -102q-48 -46 -125 -46q-174 0 -174 187q0 28 -1 114q-1 75 -1 115 q0 89 3 266.5t3 266.5q0 56 -4 170.5t-4 171.5zM416 248q13 -4 41 -4q109 0 187 55q87 60 87 158q0 79 -41 125q-38 43 -96 43q-78 0 -178 -97v-51v-229z" />
<glyph unicode="q" horiz-adv-x="1114" d="M41 395q0 216 146 360q162 160 446 160q73 0 164 -36q38 22 96 22q66 0 116 -37q54 -40 54 -104q-1 -2 -2 -6q-19 -414 -19 -518q0 -106 3.5 -316t3.5 -315q0 -61 -49.5 -103.5t-120.5 -42.5q-72 0 -121 42.5t-49 103.5q0 206 -2 372q-78 -24 -164 -24q-227 0 -367 128 q-135 124 -135 314zM383 403q0 -157 160 -157q81 0 162 59q0 136 8 291q-49 29 -80 29q-250 0 -250 -222z" />
<glyph unicode="r" horiz-adv-x="893" d="M23 768q0 59 56 98q51 35 116 35q96 0 159 -86q154 103 260 103q118 0 201 -83q74 -73 74 -153q0 -60 -49 -97q-44 -34 -107 -34q-103 0 -155 82q-70 -53 -132 -113q3 -71 3 -57q0 -41 -2.5 -124t-2.5 -124q0 -14 1 -41t1 -41q0 -55 -45 -94q-49 -41 -125 -41 q-172 0 -172 154q0 47 4.5 142t4.5 142q0 162 -60 252q-30 47 -30 80z" />
<glyph unicode="s" horiz-adv-x="1065" d="M43 530q0 161 261 302q232 126 415 126q79 0 141 -55t62 -117q0 -56 -44.5 -95.5t-107.5 -39.5q-65 0 -92 17q-14 9 -51 55q-53 -7 -128 -52t-100 -87q48 -2 54 -2q18 0 54 1t54 1q459 0 459 -252q0 -183 -287 -300q-233 -95 -461 -95q-36 0 -63 10q-64 18 -109 63 q-49 50 -49 111q0 60 50 98q45 35 104 35q89 0 131 -66q29 -8 57 -8q92 0 212 50q110 45 110 69q0 14 -148 14h-55h-20q-449 0 -449 217z" />
<glyph unicode="t" horiz-adv-x="1106" d="M10 733q0 123 209 152l8 160q7 107 25 159q38 111 166 111q172 0 172 -187q0 10 -23 -198q79 13 159 25q95 16 159 16q74 0 123 -47q45 -44 45 -101q0 -86 -110 -131q-79 -33 -222 -45l-176 -12q-8 -172 -8 -346q0 -3 -1 -10t-1 -11q0 -12 8 -12q65 0 160.5 99.5 t181.5 99.5q72 0 122 -44t50 -102q0 -49 -39 -88q-129 -128 -210 -177q-128 -77 -284 -77q-154 0 -249 114q-80 95 -80 204q0 152 6 305q-3 0 -10 -1t-11 -1q-74 0 -124 46q-46 43 -46 99z" />
<glyph unicode="u" horiz-adv-x="1065" d="M57 676q0 201 174 201q69 0 119.5 -38.5t50.5 -95.5v-172q0 -9 -6 -81.5t-6 -118.5q0 -144 62 -144q57 0 116 60l86 98v363q0 55 50 95t120 40t119 -40t49 -95v-631q0 -56 -48.5 -94.5t-119.5 -38.5q-82 0 -131 47q-117 -72 -241 -72q-394 0 -394 717z" />
<glyph unicode="v" horiz-adv-x="1030" d="M-4 748q0 58 56 98q52 37 118 37q90 0 159 -79q14 -17 93 -140q66 -104 127 -213q137 220 137 299q0 56 49.5 94.5t120.5 38.5q72 0 122 -38.5t50 -94.5q0 -134 -121 -334q-63 -95 -168 -275q-39 -81 -68 -114q-54 -62 -130 -62q-92 0 -148 82q-21 32 -155 279l-138 216 q-104 165 -104 206z" />
<glyph unicode="w" horiz-adv-x="1389" d="M6 762q0 57 53 93q47 34 109 34q73 0 118 -44q23 -22 62 -91q30 -53 123 -270l94 244q79 161 189 161q65 0 104 -39q35 -36 35 -90q0 -17 -8 -58l-2 -10l96 -240q63 229 63 308q0 54 47.5 91.5t114.5 37.5t113.5 -37.5t46.5 -91.5q0 -41 -14 -90q-58 -203 -179 -607 q-30 -98 -143 -98q-100 0 -200 189q-49 113 -99 226q-84 -207 -84 -288q0 -61 -44.5 -97t-106.5 -36q-146 0 -191 139q-79 249 -233 516q-64 111 -64 148z" />
<glyph unicode="x" horiz-adv-x="1032" d="M12 758q0 56 52 95.5t120 39.5q89 0 206 -107q66 -69 132 -139q63 77 127 153q87 93 172 93q66 0 118 -36q56 -40 56 -99q0 -99 -247 -326q68 -59 137 -117q131 -125 131 -188q0 -56 -51.5 -95.5t-120.5 -39.5q-88 0 -197 100q-65 68 -129 135q-54 -51 -133 -145 q-56 -94 -168 -94q-81 0 -126 48q-36 39 -36 85q0 66 46 117l92 92q48 56 104 110l-154 132q-131 123 -131 186z" />
<glyph unicode="y" horiz-adv-x="1065" d="M18 -299q0 63 55 106q51 39 117 39q42 0 119 -34.5t148 -34.5q67 0 116 184q-27 -4 -63 -4q-224 0 -353 299q-98 227 -98 459q0 168 174 168q168 0 168 -164q0 -8 -1 -55.5t-1 -81.5q0 -334 113 -334q74 0 110 103q23 68 37 218q14 157 25 195q34 119 170 119 q80 0 127 -51q41 -43 41 -97q0 -59 -17 -145l-30 -144q-23 -188 -45 -377q-38 -262 -125 -398q-119 -185 -346 -185q-145 0 -274 47q-167 60 -167 168z" />
<glyph unicode="z" horiz-adv-x="1051" d="M20 186q0 96 164 233q128 94 256 189q-94 -2 -233 -2q-71 0 -120.5 39.5t-49.5 95.5t49 94.5t121 38.5q87 0 262 6.5t262 6.5q12 0 38.5 3t39.5 3q69 0 118 -29q58 -35 58 -100q0 -116 -508 -496q371 21 385 21q72 0 122 -39t50 -94q0 -56 -50 -96t-122 -40 q-78 0 -233.5 -12t-233.5 -12q-124 0 -235 43q-140 54 -140 147z" />
<glyph unicode="{" horiz-adv-x="877" d="M43 485q0 67 51 106q25 19 95 46q51 19 51 39q0 74 -23.5 222t-23.5 222q0 400 405 400h78q70 0 119 -44.5t49 -107.5q0 -149 -238 -149q-80 0 -80 -48q0 -8 2 -25t2 -26q0 -74 25 -222t25 -222q0 -96 -56 -176q47 -110 47 -264q0 -55 -34.5 -155t-34.5 -151 q0 -43 37 -43q17 0 51 4.5t51 4.5q71 0 120.5 -44.5t49.5 -107.5q0 -162 -272 -162q-190 0 -287 97q-90 91 -90 251q0 55 34.5 155t34.5 151q0 64 -4 100h-10q-60 0 -110 34q-64 42 -64 115z" />
<glyph unicode="|" horiz-adv-x="532" d="M96 -332v1759q0 64 49.5 108t120.5 44q72 0 122 -44t50 -108v-1759q0 -63 -50 -107t-122 -44q-71 0 -120.5 44t-49.5 107z" />
<glyph unicode="}" horiz-adv-x="895" d="M29 1343q0 59 44 103q49 49 124 49q182 0 289 -67q126 -78 126 -238q0 -53 -14 -158.5t-14 -159.5q0 -81 22 -99q12 -10 109 -32q137 -30 137 -145q0 -69 -57 -111q-50 -39 -115 -39q-10 0 -30.5 2.5t-31.5 2.5q-10 0 -10 -11q0 -12 18.5 -50t18.5 -46q0 -64 22.5 -191 t22.5 -192q0 -128 -83 -220q-95 -106 -257 -106q-287 0 -287 162q0 58 45 103q49 49 123 49q20 0 59.5 -7.5t59.5 -7.5q6 0 6 7q0 2 -2 9t-2 11q0 66 -21.5 197.5t-21.5 197.5q0 130 45 219q-110 108 -110 299q0 53 16 156t16 154q-247 21 -247 159z" />
<glyph unicode="~" horiz-adv-x="1343" d="M53 594q0 98 182 257q187 163 324 163q127 0 215 -118q22 -29 103 -189l2 -5q34 19 65 100q38 104 59 133q46 66 127 66q67 0 118 -28q55 -30 55 -76q0 -90 -161 -249q-170 -167 -294 -167q-126 0 -207 121l-100 186l-4 7q-45 -20 -94 -115q-62 -121 -66 -127 q-51 -64 -152 -64q-65 0 -115 28q-57 30 -57 77z" />
<glyph unicode="&#xa1;" horiz-adv-x="524" d="M70 666v108q0 72 69 112q53 32 111 32q70 0 119 -42t49 -102v-102q-4 13 -4 20q12 -29 12 -49q0 -60 -48.5 -97.5t-111.5 -37.5q-66 0 -125 38q-71 46 -71 120zM80 289q0 59 49.5 101t120.5 42q70 0 119 -41.5t49 -101.5q0 -130 9 -300.5t9 -299.5q0 -60 -48.5 -102 t-119.5 -42q-70 0 -120 42t-50 102q0 129 -9 299.5t-9 300.5z" />
<glyph unicode="&#xa2;" d="M80 406q0 144 119 301q117 154 276 225q41 184 47 197q48 116 164 116q65 0 115 -38q55 -43 55 -107q0 -32 -13 -82l-22 -80q160 -73 160 -182q0 -61 -49.5 -103.5t-120.5 -42.5q-54 0 -184 60q-72 -35 -139.5 -122t-67.5 -142q0 -107 65 -111q42 -14 82 -14 q87 0 207.5 105.5t204.5 105.5q70 0 120 -43t50 -103q0 -99 -197 -212q-162 -94 -282 -118q-23 -155 -47 -212q-54 -128 -172 -128q-65 0 -116 39q-56 42 -56 107q0 38 19 102q26 86 30 103q-248 83 -248 379z" />
<glyph unicode="&#xa3;" d="M-18 657q0 61 49.5 103.5t120.5 42.5q59 0 133 2q61 245 163 370q146 179 402 179q147 0 228 -96q71 -85 71 -211q0 -64 -56 -105q-50 -37 -116 -37q-149 0 -170 154q-109 -26 -166 -230q72 5 256 5q69 0 119.5 -40t50.5 -104q0 -102 -104 -133q-43 -12 -195 -18 q-79 -4 -197 -11q-22 -89 -53 -188q4 0 13 1t14 1q86 0 249 -37t246 -37q21 0 61 9.5t60 9.5q75 0 124 -49q44 -44 44 -99q0 -64 -117 -116q-99 -43 -176 -43q-85 0 -246.5 35.5t-244.5 35.5q-113 0 -160 -49q-41 -54 -65 -72q-40 -28 -103 -28q-69 0 -119.5 41t-50.5 102 q0 30 39 111q53 111 55 116q36 95 74 242h-20h-43q-71 0 -120.5 41.5t-49.5 101.5z" />
<glyph unicode="&#xa4;" d="M33 1204q0 59 54 98q51 37 118 37q68 0 114 -36q36 -28 109 -84q93 38 201 38q129 0 231 -36q53 33 105 67q67 39 120 39q72 0 120 -40.5t48 -94.5q0 -76 -161 -170q41 -84 41 -180q0 -73 -29 -144q174 -71 174 -159q0 -53 -46 -93q-49 -45 -124 -45q-45 0 -219 76 q-105 -47 -223 -47q-114 0 -217 35q-125 -109 -201 -109q-70 0 -120 41t-50 97q0 35 129 157q-47 79 -47 160q0 106 47 201q-174 115 -174 192zM498 811q0 -111 168 -111q53 0 91 38t38 104q0 143 -156 143q-51 0 -94 -48q-47 -53 -47 -126z" />
<glyph unicode="&#xa5;" d="M57 471q0 71 58 110q49 33 123 33t239 -6q-1 0 -2 17q-93 129 -258 346q-76 94 -91 118q-46 71 -46 134t54 105q50 38 116 38q93 0 152 -81l94 -150q78 -99 141 -181q129 169 197 240q153 158 260 158q71 0 120.5 -44t49.5 -102q0 -47 -48 -96l-88 -76 q-169 -148 -288 -340l-27 -65q1 -6 4 -35q202 -8 268 -8q71 0 119.5 -41.5t48.5 -102.5q0 -60 -48.5 -102.5t-119.5 -42.5q-50 0 -266 8q-10 -181 -18 -209q-36 -125 -166 -125q-168 0 -168 183q0 34 5 88q7 66 7 77q-155 7 -254 7q-70 0 -119 42.5t-49 102.5z" />
<glyph unicode="&#xa6;" horiz-adv-x="532" d="M78 1186q0 287 184 287q66 0 116 -41q54 -44 54 -109q0 -23 -8 -68t-8 -69q0 -191 30 -400q3 -13 3 -20q0 -66 -54 -109q-50 -41 -116 -41q-123 0 -164 113q-17 46 -27 198.5t-10 258.5zM92 305q0 66 55 108q50 40 115 40q195 0 195 -342v-76q0 -61 -4 -122t-4 -122.5 t-50 -104t-120 -42.5q-71 0 -119.5 42.5t-48.5 104.5q0 60 4 179.5t4 179.5q0 47 -13.5 78t-13.5 77z" />
<glyph unicode="&#xa7;" horiz-adv-x="1182" d="M23 -195q0 51 26 93q44 71 144 71q148 0 172 -155q0 1 1.5 2.5t12.5 1.5h14q100 0 212 64q106 60 106 102q0 69 -49 120h-9h-16q-59 0 -105.5 31.5t-60.5 81.5q-203 87 -272 135q-142 100 -142 236q0 108 117 194q-39 52 -39 125q0 197 277 332q223 109 411 109 q83 0 131 -54q74 -63 74 -151q0 -62 -49.5 -105t-120.5 -43q-80 0 -127 49q-229 -39 -256 -122q19 16 19 20q61 -11 151 -29q175 -42 297 -126q174 -121 174 -293q0 -151 -139 -265q74 -110 74 -245q0 -204 -246 -345q-209 -120 -412 -120q-152 0 -258 75q-112 81 -112 211z M395 588q0 -11 18 -17.5t36 -13.5q94 -38 280 -123q47 30 47 60q0 76 -170 118q-28 -10 -65 -10q-7 0 -41 3t-54 3q-51 0 -51 -20z" />
<glyph unicode="&#xa8;" horiz-adv-x="901" d="M74 1190v80q0 71 44 133q49 70 124 70q63 0 111 -46t48 -114q0 -15 -6 -45q-2 -10 -2 -19q0 -6 1 -19t1 -20q0 -180 -162 -180q-66 0 -112.5 46.5t-46.5 113.5zM498 1167q0 25 5 73.5t5 72.5q0 66 46 111.5t112 45.5q161 0 161 -184v-47q-4 -229 -168 -229q-64 0 -111 43 q-50 46 -50 114z" />
<glyph unicode="&#xa9;" horiz-adv-x="1638" d="M59 614q0 342 226.5 579t558.5 237q347 0 546 -225q189 -213 189 -558q0 -301 -209 -525q-215 -231 -518 -231q-315 0 -546 195q-247 208 -247 528zM317 614q0 -204 160 -337q154 -127 375 -127q198 0 333.5 146t135.5 351q0 248 -121 384q-126 140 -362 140 q-229 0 -375 -159.5t-146 -397.5zM432 600q0 189 132 329q136 144 327 144q59 0 128 -38q79 -45 79 -103q0 -46 -33 -82.5t-82 -36.5q-23 0 -53.5 14.5t-38.5 14.5q-94 0 -160.5 -71.5t-66.5 -170.5q0 -55 53.5 -92t136.5 -37q35 0 75.5 25t59.5 59q22 39 43 78q28 35 82 35 q44 0 80.5 -32t36.5 -83q0 -22 -6 -39q-41 -111 -142 -191q-109 -87 -229 -87q-160 0 -282 89q-140 103 -140 275z" />
<glyph unicode="&#xaa;" horiz-adv-x="825" d="M25 782q0 127 98 195q80 55 192 55q161 0 236 -41q-18 121 -115 121q-24 0 -74 -4t-77 -4q-51 0 -85 36.5t-34 82.5q0 59 109 96q85 29 161 29q202 0 292 -169q65 -120 65 -307q0 -22 -9 -88q17 -33 17 -98q0 -184 -119 -184q-48 0 -82 35q-83 -23 -209 -23 q-119 0 -228 60q-138 76 -138 208zM260 782q0 -32 84 -32h47q49 0 92 8q-57 94 -131 94q-92 0 -92 -70z" />
<glyph unicode="&#xab;" horiz-adv-x="1241" d="M29 432q0 47 61 97q55 37 109 75q65 60 131 119q85 74 157 74q67 0 119.5 -36.5t52.5 -90.5q0 -39 -196 -217q78 -52 141 -115q84 -84 84 -141q0 -56 -56 -93q-51 -34 -116 -34q-81 0 -148 69q-102 104 -122 117q-69 36 -138 73q-79 47 -79 103zM653 424q0 39 56 100 q3 3 94 90q48 54 96 107q63 59 143 59q66 0 117 -33q55 -37 55 -92q0 -53 -114 -168q-21 -18 -60 -55q140 -141 140 -215q0 -56 -56 -93q-51 -34 -116 -34q-69 0 -114 35q-29 22 -67.5 80t-64.5 80q-37 31 -73 61q-36 37 -36 78z" />
<glyph unicode="&#xac;" d="M55 819q0 71 49 120.5t119 49.5q128 0 414 8.5t414 8.5q188 0 188 -170q0 -51 -27 -93q2 -18 27 -174q16 -106 16 -176t-48.5 -120t-119.5 -50q-70 0 -119.5 50t-49.5 120q0 66 -33 273q-72 -2 -336 -9q-211 -6 -326 -6q-70 0 -119 49t-49 119z" />
<glyph unicode="&#xad;" horiz-adv-x="856" d="M51 483q0 112 98 151q58 23 187 23l305 2q70 1 119 -49t49 -121q0 -70 -48.5 -118.5t-119.5 -48.5q-44 0 -132 -1.5t-132 -1.5q-26 0 -77 -2t-77 -2q-70 0 -119 46q-53 48 -53 122z" />
<glyph unicode="&#xae;" horiz-adv-x="1638" d="M39 614q0 342 226.5 579t557.5 237q345 0 560.5 -219t215.5 -564q0 -301 -219 -536q-225 -240 -528 -240q-317 0 -558 207q-255 218 -255 536zM297 614q0 -205 170 -347q164 -138 385 -138q124 0 236 68q106 65 174 176q-19 -6 -35 -6q-30 0 -138 45q-66 29 -133 57 q-144 53 -198 53h-8h-5q-7 -123 -20 -162q-29 -86 -113 -86q-46 0 -82 32t-36 83q0 3 2 19q24 183 24 362v84q-8 23 -8 39q0 65 141 117q116 43 195 43q96 0 168 -34q96 -45 96 -134q0 -90 -111 -195q262 -69 326 -164q14 59 14 121q0 243 -140.5 383.5t-383.5 140.5 q-229 0 -374.5 -159.5t-145.5 -397.5zM754 815l2 -106q50 19 93 79l38 60q-14 6 -37 6q-60 0 -96 -39z" />
<glyph unicode="&#xaf;" horiz-adv-x="819" d="M20 1167q0 66 47 113t113 47q77 0 230.5 4t230.5 4q66 0 112 -46.5t46 -112.5q0 -67 -46 -112.5t-112 -45.5q-77 0 -230.5 -4t-230.5 -4q-66 0 -113 45.5t-47 111.5z" />
<glyph unicode="&#xb0;" horiz-adv-x="750" d="M41 1028q0 150 101 255.5t253 105.5q128 0 226 -135q88 -120 88 -234q0 -135 -89 -231q-93 -99 -231 -99q-134 0 -241 101.5t-107 236.5zM299 1028q0 -30 27 -54t63 -24q62 0 62 70q0 28 -16 62q-17 40 -40 40q-96 0 -96 -94z" />
<glyph unicode="&#xb1;" d="M117 121q0 58 48.5 98.5t119.5 40.5q119 0 358 3t358 3q69 0 126 -36q67 -44 67 -115q0 -100 -133 -121q-26 -4 -74 -4q-110 0 -351 -4t-351 -4q-71 0 -119.5 40.5t-48.5 98.5zM117 778q0 57 45 106q50 54 123 54h26q97 0 152 2q-1 8 -8 81q-6 58 -6 97q0 199 169 199 q187 0 187 -266v-80q125 10 201 10q68 0 119 -50t51 -110q0 -59 -51 -108t-119 -49q-76 0 -189 -11q2 -89 2 -200q0 -58 -49.5 -99t-120.5 -41t-120.5 41t-49.5 99q0 106 -2 168q-87 -5 -112 -5q-248 0 -248 162z" />
<glyph unicode="&#xb2;" horiz-adv-x="854" d="M33 639q0 39 47 89q40 38 80 75q94 92 137 136q102 106 147 173l-8 -6q-65 -39 -170 -39q-51 0 -90 32t-39 77q0 82 157 135q126 43 245 43q196 0 196 -164q0 -124 -291 -436q232 -9 291 -25q96 -26 96 -102q0 -43 -34 -75q-37 -34 -92 -34q-2 0 -21 2q-209 23 -475 23 q-7 0 -20.5 -2t-20.5 -2q-52 0 -90 23q-45 28 -45 77z" />
<glyph unicode="&#xb3;" horiz-adv-x="825" d="M39 993q0 59 76 87q40 15 157 31q101 14 129 34q-129 37 -153 37q-54 0 -90.5 31t-36.5 75q0 45 36.5 76t90.5 31q38 0 114.5 -26t114.5 -26q201 0 201 -131q0 -37 -19 -77q179 -46 179 -177q0 -108 -96 -191q-58 -51 -203 -126q-201 -102 -349 -102q-54 0 -91.5 32.5 t-37.5 75.5q0 77 103 103q147 36 229 67q148 56 182 121q-26 4 -77 4q-63 0 -176 -27.5t-156 -27.5q-53 0 -90 31.5t-37 74.5z" />
<glyph unicode="&#xb4;" horiz-adv-x="655" d="M49 1147q0 57 87 162q67 75 134 151q99 119 176 119q64 0 112 -46.5t48 -113.5q0 -46 -30.5 -91t-90.5 -110q-77 -83 -96 -106q-103 -125 -180 -125q-64 0 -112 46.5t-48 113.5z" />
<glyph unicode="&#xb6;" horiz-adv-x="1257" d="M49 993q0 162 218 266q182 87 380 87q201 0 361 -27l12 -2q46 -8 76 -42t30 -77q0 -8 -2 -18v-369q99 -26 99 -117q0 -88 -99 -112v-461q0 -52 -40.5 -87.5t-98.5 -35.5t-99.5 36t-41.5 87v459l-94 4v-463q0 -52 -40.5 -87.5t-99.5 -35.5q-58 0 -99.5 36t-41.5 87v504 q-175 46 -284 127q-136 103 -136 241zM326 993q0 -77 143 -116v206q-143 -25 -143 -90zM750 829q31 -1 94 -4v273q-50 3 -94 4v-273z" />
<glyph unicode="&#xb7;" horiz-adv-x="532" d="M78 541v51q0 12 8 101t8 102q0 48 70 75q53 21 110 21q58 0 112 -21q71 -27 71 -75q0 -33 -13 -70q-6 -19 -6 -164q0 -3 1 -10t1 -10q0 -48 -70 -76q-54 -21 -112 -21q-57 0 -111 21q-69 28 -69 76z" />
<glyph unicode="&#xb8;" horiz-adv-x="819" d="M68 -455q0 47 150 70q154 23 164 71q1 6 1 13q0 41 -68.5 88.5t-68.5 52.5q0 19 -3 64t-3 69q0 201 153 201q64 0 111 -43q49 -46 49 -115q0 -78 -2 -120q203 -41 203 -193q0 -160 -198 -249q-152 -68 -329 -68q-66 0 -112.5 46.5t-46.5 112.5z" />
<glyph unicode="&#xb9;" horiz-adv-x="600" d="M33 991q0 46 71 105q80 67 93 102q41 121 143 121q56 0 92 -35q33 -31 33 -72q0 -22 -14 -53v-41q0 -75 -4 -202q-4 -148 -5 -201q119 -16 119 -105q0 -45 -36.5 -76.5t-90.5 -31.5q-43 0 -129 4t-129 4q-54 0 -90.5 30.5t-36.5 75.5t36.5 76t90.5 31h8q3 56 6 168 q-17 -6 -28 -6q-54 0 -91.5 31.5t-37.5 74.5z" />
<glyph unicode="&#xba;" horiz-adv-x="983" d="M43 920q0 180 130 297q143 129 392 129q182 0 294 -142q89 -113 89 -225q0 -149 -90 -264q-118 -150 -346 -150q-184 0 -326.5 107t-142.5 248zM383 920q0 -33 42 -65t87 -32q96 0 96 156v35q0 76 -43 76q-182 0 -182 -170z" />
<glyph unicode="&#xbb;" horiz-adv-x="1241" d="M10 629q0 55 55 92q51 35 117 35q72 0 137 -54q53 -47 105 -94q67 -47 135 -93q84 -66 84 -114q0 -50 -59 -94q-44 -32 -104 -94q-69 -71 -99 -96q-66 -56 -143 -56q-70 0 -120 38.5t-50 90.5q0 39 32 74l64 60q3 3 63 67q-66 47 -133 115q-84 84 -84 123zM588 127 q0 18 90 124q78 92 139 155q-37 34 -121 98q-100 62 -100 123q0 51 49.5 90t120.5 39q76 0 185 -81q76 -64 153 -128q102 -62 102 -129q0 -49 -54 -108q-49 -47 -97 -95q-54 -60 -168 -170q-54 -45 -127 -45q-67 0 -118 35q-54 37 -54 92z" />
<glyph unicode="&#xbc;" horiz-adv-x="1677" d="M43 1024q0 51 59 92q51 32 103 64q43 32 78 106h16q37 37 88 37q119 0 119 -131q0 -20 -7 -58.5t-7 -58.5q0 -67 -6 -183q-6 -132 -7 -183h27q50 0 85.5 -29.5t35.5 -77.5q0 -110 -185 -110q-21 0 -58 1t-50 1q-21 0 -62 -2.5t-61 -2.5q-51 0 -85 34q-32 31 -32 75 q0 103 144 111l10 237q-59 -31 -88 -31q-52 0 -84.5 34t-32.5 75zM354 61q0 99 131 283q101 131 203 262q531 692 645 692q49 0 84 -32t35 -76q0 -36 -29 -70q-66 -64 -194 -196q-41 -46 -344 -443q-83 -102 -167 -204q-104 -134 -124 -220q-24 -102 -119 -102q-46 0 -82 28 q-39 31 -39 78zM821 227q0 104 210 314.5t323 210.5q50 0 84.5 -33t34.5 -76q0 -33 -21 -59q14 -69 14 -176v-37h17h30q50 0 85.5 -29.5t35.5 -79.5q0 -94 -129 -112q-23 -4 -45 -5q-6 -145 -6 -247q0 -46 -35 -77.5t-86 -31.5q-50 0 -84.5 31.5t-34.5 77.5q0 84 9 241 q-287 -18 -289 -18q-56 0 -87 35q-26 30 -26 71zM1087 344q59 7 142 14v13q0 59 -2 102q-4 -3 -140 -129z" />
<glyph unicode="&#xbd;" horiz-adv-x="1767" d="M-2 1042q0 62 75 98q118 57 124 62q41 47 83 95q53 57 107 57q49 0 84 -31.5t35 -75.5q0 -14 -8 -39q-31 -92 -40 -224q-5 -114 -9 -228l-3 -35h15q155 0 155 -107q0 -43 -31 -74q-34 -34 -85 -34q-8 0 -23 1t-22 1q-18 0 -52.5 -3t-52.5 -3h-80q-260 0 -260 119 q0 42 32.5 74t84.5 32q-16 0 78 -8q5 51 12 244q-59 -27 -102 -27q-51 0 -84 32.5t-33 73.5zM291 137q0 73 80 159q71 64 141 128q191 175 381 351q216 203 360 368q37 50 74 101q49 59 107 59q45 0 82.5 -31t37.5 -78q0 -58 -106 -174q-26 -28 -129 -129 q-115 -119 -350 -352q-140 -126 -416 -379q-12 -11 -18 -19q-5 0 -9 -4q0 -45 -33.5 -75.5t-82.5 -30.5q-50 0 -84.5 31t-34.5 75zM942 66q0 40 37 79q101 96 297 289q16 17 37 33l18 14q-39 -14 -79 -29q-52 -18 -78 -18q-51 0 -86 35q-31 32 -31 74q0 57 153 117 q135 53 209 53q83 0 140 -57t57 -128q0 -81 -51 -136q-54 -48 -107 -97q-27 -28 -82 -84q63 -2 94 -2q28 0 82.5 13.5t83.5 13.5q52 0 87 -36q32 -32 32 -75q0 -133 -285 -133q-28 0 -83.5 2t-83.5 2q-42 0 -122 -14.5t-120 -14.5q-48 0 -81 25q-38 28 -38 74z" />
<glyph unicode="&#xbe;" horiz-adv-x="1821" d="M55 1221q0 125 277 125q130 0 216 -38q116 -51 116 -161q0 -23 -7 -41q123 -52 123 -205q0 -134 -165 -221q-140 -74 -296 -74q-23 0 -68.5 7.5t-68.5 7.5q-49 0 -84 31.5t-35 76.5t35 77t84 32q23 0 68.5 -6.5t68.5 -6.5q222 0 222 76q0 12 -19 12h-10q-48 0 -138.5 -17 t-129.5 -17q-48 0 -82.5 31.5t-34.5 74.5q0 69 81 103l142 40h-8q-29 0 -85.5 -7t-84.5 -7q-51 0 -85 34q-32 31 -32 73zM283 113q0 34 46 89q37 39 73.5 78t209.5 246q214 255 445 459q108 96 141 127q75 72 125 139q33 45 94 45q45 0 80 -28q39 -31 39 -78 q0 -82 -182 -240q-75 -56 -209 -178q-109 -115 -318 -350q-185 -222 -201 -239q-160 -177 -225 -177q-48 0 -83 31t-35 76zM866 244q0 29 21 61q82 128 208 242q140 126 279 180q33 21 74 21q49 0 84 -31t35 -76q0 -73 -6 -221q61 6 106 6q50 0 84.5 -31.5t34.5 -77.5 q0 -45 -34.5 -76.5t-83.5 -31.5t-118 -8q-4 -104 -4 -195q0 -45 -34.5 -76.5t-84.5 -31.5q-49 0 -83.5 31.5t-34.5 76.5q0 43 4 154q-141 -25 -252 -25q-56 0 -118 27q-77 33 -77 82zM1190 367q51 4 133 14q1 54 2 131q-53 -57 -135 -145z" />
<glyph unicode="&#xbf;" horiz-adv-x="946" d="M86 -258q0 91 86 222t86 222q0 18 -3 52.5t-3 52.5q0 61 48.5 103t119.5 42t120.5 -42t49.5 -103q0 -18 4 -52.5t4 -52.5q0 -120 -86 -278t-86 -166v-2q14 22 18 22q16 0 96 70t150 70t120 -44t50 -104q0 -52 -45 -96q-95 -93 -160 -132q-98 -58 -211 -58q-135 0 -235 61 q-123 76 -123 213zM240 799q0 70 60 111q51 34 114 34t114 -34q62 -41 62 -111q0 -37 2 -60.5t2 -60.5q0 -70 -61 -111q-51 -35 -115 -35t-115 35q-61 41 -61 111q0 37 -1 60.5t-1 60.5z" />
<glyph unicode="&#xc0;" horiz-adv-x="1384" d="M0 129q0 84 156 391q154 302 319 547q187 276 258 276q96 0 154 -98q34 -82 67 -164q112 -268 316 -680q114 -231 114 -274q0 -65 -58 -106q-52 -37 -116 -37q-96 0 -157 89l-78 154q-297 -42 -625 -51q-8 -28 -8 -47q0 -61 -49.5 -103t-120.5 -42t-121.5 42.5 t-50.5 102.5zM404 1851q0 66 47 113t112 47q98 0 235 -186q126 -172 126 -250q0 -70 -53 -116q-48 -42 -109 -42q-84 0 -147 95q-50 80 -101 159q-36 41 -72 81q-38 51 -38 99zM471 471q204 11 377 33l-166 368q-101 -160 -211 -401z" />
<glyph unicode="&#xc1;" horiz-adv-x="1384" d="M0 129q0 84 156 391q154 302 319 547q187 276 258 276q96 0 154 -98q34 -82 67 -164q112 -268 316 -680q114 -231 114 -274q0 -65 -58 -106q-52 -37 -116 -37q-96 0 -157 89l-78 154q-297 -42 -625 -51q-8 -28 -8 -47q0 -61 -49.5 -103t-120.5 -42t-121.5 42.5 t-50.5 102.5zM471 471q204 11 377 33l-166 368q-101 -160 -211 -401zM561 1577q0 57 87 162q67 75 134 151q99 119 176 119q64 0 112 -46.5t48 -113.5q0 -46 -30.5 -91t-90.5 -110q-77 -83 -96 -106q-103 -125 -180 -125q-64 0 -112 46.5t-48 113.5z" />
<glyph unicode="&#xc2;" horiz-adv-x="1384" d="M0 129q0 84 156 391q154 302 319 547q187 276 258 276q96 0 154 -98q34 -82 67 -164q112 -268 316 -680q114 -231 114 -274q0 -65 -58 -106q-52 -37 -116 -37q-96 0 -157 89l-78 154q-297 -42 -625 -51q-8 -28 -8 -47q0 -61 -49.5 -103t-120.5 -42t-121.5 42.5 t-50.5 102.5zM344 1575q0 59 54 118q45 48 91 97q107 148 109 150q78 92 147 92q105 0 148 -119q12 -36 111 -163q85 -111 85 -169q0 -68 -49 -114t-112 -46q-23 0 -85 81q-99 130 -108 140q-51 -68 -102 -137q-77 -92 -131 -92q-69 0 -115 51q-43 48 -43 111zM471 471 q204 11 377 33l-166 368q-101 -160 -211 -401z" />
<glyph unicode="&#xc3;" horiz-adv-x="1384" d="M0 129q0 84 156 391q154 302 319 547q187 276 258 276q96 0 154 -98q34 -82 67 -164q112 -268 316 -680q114 -231 114 -274q0 -65 -58 -106q-52 -37 -116 -37q-96 0 -157 89l-78 154q-297 -42 -625 -51q-8 -28 -8 -47q0 -61 -49.5 -103t-120.5 -42t-121.5 42.5 t-50.5 102.5zM311 1577q0 107 125 205q118 92 226 92q56 0 109 -45q15 -12 83 -88q63 95 69 103q49 59 101 59q65 0 112.5 -47.5t47.5 -112.5q0 -48 -29 -88q-89 -126 -126 -161q-82 -77 -187 -77q-72 0 -132 66q-13 14 -65 92l-8 12q-85 -170 -164 -170q-62 0 -112 46 t-50 114zM471 471q204 11 377 33l-166 368q-101 -160 -211 -401z" />
<glyph unicode="&#xc4;" horiz-adv-x="1384" d="M0 129q0 84 156 391q154 302 319 547q187 276 258 276q96 0 154 -98q34 -82 67 -164q112 -268 316 -680q114 -231 114 -274q0 -65 -58 -106q-52 -37 -116 -37q-96 0 -157 89l-78 154q-297 -42 -625 -51q-8 -28 -8 -47q0 -61 -49.5 -103t-120.5 -42t-121.5 42.5 t-50.5 102.5zM361 1620v80q0 71 44 133q49 70 124 70q63 0 111 -46t48 -114q0 -15 -6 -45q-2 -10 -2 -19q0 -6 1 -19t1 -20q0 -180 -162 -180q-66 0 -112.5 46.5t-46.5 113.5zM471 471q204 11 377 33l-166 368q-101 -160 -211 -401zM785 1597q0 25 5 73.5t5 72.5 q0 66 46 111.5t112 45.5q161 0 161 -184v-47q-4 -229 -168 -229q-64 0 -111 43q-50 46 -50 114z" />
<glyph unicode="&#xc5;" horiz-adv-x="1384" d="M0 129q0 84 156 391q154 302 319 547q187 276 258 276q96 0 154 -98q34 -82 67 -164q112 -268 316 -680q114 -231 114 -274q0 -65 -58 -106q-52 -37 -116 -37q-96 0 -157 89l-78 154q-297 -42 -625 -51q-8 -28 -8 -47q0 -61 -49.5 -103t-120.5 -42t-121.5 42.5 t-50.5 102.5zM465 1663q0 114 86 190q81 73 191 73q107 0 186 -71q84 -75 84 -185q0 -108 -70 -188q-75 -85 -186 -85q-122 0 -202 66q-89 73 -89 200zM471 471q204 11 377 33l-166 368q-101 -160 -211 -401zM662 1663q0 -69 94 -69q19 0 39 23.5t20 52.5q0 18 -24 39.5 t-49 21.5q-32 0 -56 -21.5t-24 -46.5z" />
<glyph unicode="&#xc6;" horiz-adv-x="1763" d="M-61 84q0 51 209 445q265 496 288 546q61 129 78 152q60 82 160 82q27 0 51 -6q123 11 350 17q279 7 350 11h5h10q78 0 127 -48q43 -42 43 -97q0 -106 -124 -138q-58 -16 -218 -18q-95 0 -283 -4v-33q0 -35 -4 -104t-4 -105q325 35 553 35q70 0 120 -41.5t50 -101.5 t-50 -103t-120 -43q-212 0 -549 -38v-21v-39q0 -95 2 -194q231 25 514 36h4h6q77 0 125 -45q43 -42 43 -98q0 -106 -133 -138q-27 -6 -227 -20q-222 -15 -381 -36q-37 -19 -88 -19q-71 0 -119.5 41.5t-48.5 102t-1 180.5t-1 180v29q-99 -5 -242 -13q-13 -21 -97 -218 q-70 -162 -120 -212q-23 -23 -45 -46q-21 -15 -66 -15q-54 0 -103 29q-64 39 -64 108zM547 727l135 14q3 158 29 281l-35 8z" />
<glyph unicode="&#xc7;" horiz-adv-x="1339" d="M49 514q0 280 218 543q238 289 554 289q108 0 183 -44q88 -50 88 -143q0 -60 -50.5 -102.5t-121.5 -42.5q-69 0 -119 41q-159 -19 -290 -212q-120 -176 -120 -329q0 -107 79 -182.5t192 -75.5q107 0 200 53q9 4 138 97q74 53 133 53q71 0 121.5 -44.5t50.5 -103.5 q0 -49 -45 -96q-183 -190 -504 -240v-79q243 -49 243 -193q0 -160 -197 -249q-152 -68 -329 -68q-67 0 -113.5 46.5t-46.5 112.5q0 47 150 70q155 23 165 71q1 6 1 13q0 41 -68.5 88.5t-68.5 52.5q0 19 -3.5 64t-3.5 69q0 3 1 8t1 7q-196 51 -319 201q-119 147 -119 325z " />
<glyph unicode="&#xc8;" horiz-adv-x="1233" d="M78 453q0 283 61 557q-45 41 -45 98q0 56 44 95.5t108 45.5l614 62h6h15q74 0 122 -48q44 -42 44 -96q0 -91 -126 -136q-90 -33 -249 -42q-92 -3 -185 -6q-21 -90 -32 -152l540 60q19 2 25 2q74 0 122 -49q42 -43 42 -96q0 -132 -277 -172q-242 -19 -485 -37 q-2 -99 -2 -110t-4 -41.5t-4 -45.5q0 -53 51 -53q146 0 324.5 55t250.5 55q76 0 125 -47q45 -43 45 -98q0 -130 -327 -203q-229 -51 -418 -51q-229 0 -320 144q-65 104 -65 309zM269 1851q0 66 47 113t112 47q98 0 235 -186q126 -172 126 -250q0 -70 -53 -116 q-48 -42 -109 -42q-84 0 -147 95q-50 80 -101 159q-36 41 -72 81q-38 51 -38 99z" />
<glyph unicode="&#xc9;" horiz-adv-x="1233" d="M78 453q0 283 61 557q-45 41 -45 98q0 56 44 95.5t108 45.5l614 62h6h15q74 0 122 -48q44 -42 44 -96q0 -91 -126 -136q-90 -33 -249 -42q-92 -3 -185 -6q-21 -90 -32 -152l540 60q19 2 25 2q74 0 122 -49q42 -43 42 -96q0 -132 -277 -172q-242 -19 -485 -37 q-2 -99 -2 -110t-4 -41.5t-4 -45.5q0 -53 51 -53q146 0 324.5 55t250.5 55q76 0 125 -47q45 -43 45 -98q0 -130 -327 -203q-229 -51 -418 -51q-229 0 -320 144q-65 104 -65 309zM377 1577q0 57 87 162q67 75 134 151q99 119 176 119q64 0 112 -46.5t48 -113.5 q0 -46 -30.5 -91t-90.5 -110q-77 -83 -96 -106q-103 -125 -180 -125q-64 0 -112 46.5t-48 113.5z" />
<glyph unicode="&#xca;" horiz-adv-x="1233" d="M78 453q0 283 61 557q-45 41 -45 98q0 56 44 95.5t108 45.5l614 62h6h15q74 0 122 -48q44 -42 44 -96q0 -91 -126 -136q-90 -33 -249 -42q-92 -3 -185 -6q-21 -90 -32 -152l540 60q19 2 25 2q74 0 122 -49q42 -43 42 -96q0 -132 -277 -172q-242 -19 -485 -37 q-2 -99 -2 -110t-4 -41.5t-4 -45.5q0 -53 51 -53q146 0 324.5 55t250.5 55q76 0 125 -47q45 -43 45 -98q0 -130 -327 -203q-229 -51 -418 -51q-229 0 -320 144q-65 104 -65 309zM242 1575q0 59 54 118q45 48 91 97q107 148 109 150q78 92 147 92q105 0 148 -119 q12 -36 111 -163q85 -111 85 -169q0 -68 -49 -114t-112 -46q-23 0 -85 81q-99 130 -108 140q-51 -68 -102 -137q-77 -92 -131 -92q-69 0 -115 51q-43 48 -43 111z" />
<glyph unicode="&#xcb;" horiz-adv-x="1233" d="M78 453q0 283 61 557q-45 41 -45 98q0 56 44 95.5t108 45.5l614 62h6h15q74 0 122 -48q44 -42 44 -96q0 -91 -126 -136q-90 -33 -249 -42q-92 -3 -185 -6q-21 -90 -32 -152l540 60q19 2 25 2q74 0 122 -49q42 -43 42 -96q0 -132 -277 -172q-242 -19 -485 -37 q-2 -99 -2 -110t-4 -41.5t-4 -45.5q0 -53 51 -53q146 0 324.5 55t250.5 55q76 0 125 -47q45 -43 45 -98q0 -130 -327 -203q-229 -51 -418 -51q-229 0 -320 144q-65 104 -65 309zM240 1600v80q0 71 44 133q49 70 124 70q63 0 111 -46t48 -114q0 -15 -6 -45q-2 -10 -2 -19 q0 -6 1 -19t1 -20q0 -180 -162 -180q-66 0 -112.5 46.5t-46.5 113.5zM664 1577q0 25 5 73.5t5 72.5q0 66 46 111.5t112 45.5q161 0 161 -184v-47q-4 -229 -168 -229q-64 0 -111 43q-50 46 -50 114z" />
<glyph unicode="&#xcc;" horiz-adv-x="838" d="M51 1174q0 151 291 151q59 0 144 -7q89 -7 100 -7q69 -1 117.5 -43t48.5 -101q0 -60 -49.5 -100.5t-120.5 -40.5v-752q204 -9 204 -145q0 -149 -278 -149q-53 0 -131 5q-81 7 -94 7q-29 -6 -43 -6q-84 0 -130 52q-38 42 -38 97q0 74 168 125v770q-81 1 -132 37 q-57 39 -57 107zM88 1872q0 66 47 113t112 47q98 0 235 -186q126 -172 126 -250q0 -70 -53 -116q-48 -42 -109 -42q-84 0 -147 95q-50 80 -101 159q-36 41 -72 81q-38 51 -38 99z" />
<glyph unicode="&#xcd;" horiz-adv-x="838" d="M51 1174q0 151 291 151q59 0 144 -7q89 -7 100 -7q69 -1 117.5 -43t48.5 -101q0 -60 -49.5 -100.5t-120.5 -40.5v-752q204 -9 204 -145q0 -149 -278 -149q-53 0 -131 5q-81 7 -94 7q-29 -6 -43 -6q-84 0 -130 52q-38 42 -38 97q0 74 168 125v770q-81 1 -132 37 q-57 39 -57 107zM172 1577q0 57 87 162q67 75 134 151q99 119 176 119q64 0 112 -46.5t48 -113.5q0 -46 -30.5 -91t-90.5 -110q-77 -83 -96 -106q-103 -125 -180 -125q-64 0 -112 46.5t-48 113.5z" />
<glyph unicode="&#xce;" horiz-adv-x="838" d="M47 1555q0 59 54 118q45 48 91 97q107 148 109 150q78 92 147 92q105 0 148 -119q12 -36 111 -163q85 -111 85 -169q0 -68 -49 -114t-112 -46q-23 0 -85 81q-99 130 -108 140q-51 -68 -102 -137q-77 -92 -131 -92q-69 0 -115 51q-43 48 -43 111zM51 1174q0 151 291 151 q59 0 144 -7q89 -7 100 -7q69 -1 117.5 -43t48.5 -101q0 -60 -49.5 -100.5t-120.5 -40.5v-752q204 -9 204 -145q0 -149 -278 -149q-53 0 -131 5q-81 7 -94 7q-29 -6 -43 -6q-84 0 -130 52q-38 42 -38 97q0 74 168 125v770q-81 1 -132 37q-57 39 -57 107z" />
<glyph unicode="&#xcf;" horiz-adv-x="838" d="M43 1620v80q0 71 44 133q49 70 124 70q63 0 111 -46t48 -114q0 -15 -6 -45q-2 -10 -2 -19q0 -6 1 -19t1 -20q0 -180 -162 -180q-66 0 -112.5 46.5t-46.5 113.5zM51 1174q0 151 291 151q59 0 144 -7q89 -7 100 -7q69 -1 117.5 -43t48.5 -101q0 -60 -49.5 -100.5 t-120.5 -40.5v-752q204 -9 204 -145q0 -149 -278 -149q-53 0 -131 5q-81 7 -94 7q-29 -6 -43 -6q-84 0 -130 52q-38 42 -38 97q0 74 168 125v770q-81 1 -132 37q-57 39 -57 107zM467 1597q0 25 5 73.5t5 72.5q0 66 46 111.5t112 45.5q161 0 161 -184v-47q-4 -229 -168 -229 q-64 0 -111 43q-50 46 -50 114z" />
<glyph unicode="&#xd0;" horiz-adv-x="1475" d="M25 618q0 117 178 150q5 99 18 190q-61 11 -99 55q-36 41 -36 89q0 88 88 125q41 18 176 39q302 47 426 47q269 0 448 -123q199 -136 199 -373q0 -189 -184 -388q-169 -181 -424 -304t-467 -123q-75 0 -124 46q-46 42 -46 97q0 64 64 107q-28 95 -37 223h-17 q-73 0 -120 47q-43 42 -43 96zM543 539q4 -109 22 -187q215 80 357 197q159 134 159 268q0 209 -305 209q-81 0 -201 -18q-15 -77 -24 -174q189 38 221 38q76 0 124 -47q44 -43 44 -98q0 -84 -82 -121q-32 -15 -162 -39z" />
<glyph unicode="&#xd1;" horiz-adv-x="1298" d="M72 1165q0 60 48.5 102t119.5 42q50 0 100 -29q55 -32 68 -82q152 -161 444 -489q-8 202 -8 225q0 9 -1 31.5t-1 35.5q0 314 192 314q66 0 116 -38q54 -41 54 -103q0 -39 -11 -115.5t-11 -116.5q0 -57 6 -171t6 -169.5t12.5 -163t12.5 -162.5q0 -22 10 -67t10 -68 q0 -63 -55 -105q-51 -38 -117 -38q-81 0 -134 56q-14 14 -77 112q-169 261 -430 557q1 -70 5 -289q3 -180 3 -289q0 -59 -49.5 -101t-120.5 -42t-120.5 42t-49.5 101q0 112 -3 335.5t-3 334.5q0 25 2 74t2 74q0 34 -10 101t-10 101zM198 1577q0 107 125 205q118 92 226 92 q56 0 109 -45q15 -12 83 -88q63 95 69 103q49 59 101 59q65 0 112.5 -47.5t47.5 -112.5q0 -48 -29 -88q-89 -126 -126 -161q-82 -77 -187 -77q-72 0 -132 66q-13 14 -65 92l-8 12q-85 -170 -164 -170q-62 0 -112 46t-50 114z" />
<glyph unicode="&#xd2;" horiz-adv-x="1444" d="M49 575q0 259 176 491q210 275 541 275q348 0 506 -214q123 -166 123 -445q0 -274 -183 -483q-206 -236 -540 -236q-296 0 -471 204q-152 176 -152 408zM391 575q0 -136 78 -227q80 -94 203 -94q164 0 274 125q107 123 107 303q0 197 -62 281q-65 88 -225 88 q-143 0 -261 -158q-114 -151 -114 -318zM457 1851q0 66 47 113t112 47q98 0 235 -186q126 -172 126 -250q0 -70 -53 -116q-48 -42 -109 -42q-84 0 -147 95q-50 80 -101 159q-36 41 -72 81q-38 51 -38 99z" />
<glyph unicode="&#xd3;" horiz-adv-x="1444" d="M49 575q0 259 176 491q210 275 541 275q348 0 506 -214q123 -166 123 -445q0 -274 -183 -483q-206 -236 -540 -236q-296 0 -471 204q-152 176 -152 408zM391 575q0 -136 78 -227q80 -94 203 -94q164 0 274 125q107 123 107 303q0 197 -62 281q-65 88 -225 88 q-143 0 -261 -158q-114 -151 -114 -318zM541 1557q0 57 87 162q67 75 134 151q99 119 176 119q64 0 112 -46.5t48 -113.5q0 -46 -30.5 -91t-90.5 -110q-77 -83 -96 -106q-103 -125 -180 -125q-64 0 -112 46.5t-48 113.5z" />
<glyph unicode="&#xd4;" horiz-adv-x="1444" d="M49 575q0 259 176 491q210 275 541 275q348 0 506 -214q123 -166 123 -445q0 -274 -183 -483q-206 -236 -540 -236q-296 0 -471 204q-152 176 -152 408zM365 1575q0 59 54 118q45 48 91 97q107 148 109 150q78 92 147 92q105 0 148 -119q12 -36 111 -163q85 -111 85 -169 q0 -68 -49 -114t-112 -46q-23 0 -85 81q-99 130 -108 140q-51 -68 -102 -137q-77 -92 -131 -92q-69 0 -115 51q-43 48 -43 111zM391 575q0 -136 78 -227q80 -94 203 -94q164 0 274 125q107 123 107 303q0 197 -62 281q-65 88 -225 88q-143 0 -261 -158q-114 -151 -114 -318z " />
<glyph unicode="&#xd5;" horiz-adv-x="1444" d="M49 575q0 259 176 491q210 275 541 275q348 0 506 -214q123 -166 123 -445q0 -274 -183 -483q-206 -236 -540 -236q-296 0 -471 204q-152 176 -152 408zM305 1577q0 107 125 205q118 92 226 92q56 0 109 -45q15 -12 83 -88q63 95 69 103q49 59 101 59q65 0 112.5 -47.5 t47.5 -112.5q0 -48 -29 -88q-89 -126 -126 -161q-82 -77 -187 -77q-72 0 -132 66q-13 14 -65 92l-8 12q-85 -170 -164 -170q-62 0 -112 46t-50 114zM391 575q0 -136 78 -227q80 -94 203 -94q164 0 274 125q107 123 107 303q0 197 -62 281q-65 88 -225 88q-143 0 -261 -158 q-114 -151 -114 -318z" />
<glyph unicode="&#xd6;" horiz-adv-x="1444" d="M49 575q0 259 176 491q210 275 541 275q348 0 506 -214q123 -166 123 -445q0 -274 -183 -483q-206 -236 -540 -236q-296 0 -471 204q-152 176 -152 408zM381 1620v80q0 71 44 133q49 70 124 70q63 0 111 -46t48 -114q0 -15 -6 -45q-2 -10 -2 -19q0 -6 1 -19t1 -20 q0 -180 -162 -180q-66 0 -112.5 46.5t-46.5 113.5zM391 575q0 -136 78 -227q80 -94 203 -94q164 0 274 125q107 123 107 303q0 197 -62 281q-65 88 -225 88q-143 0 -261 -158q-114 -151 -114 -318zM805 1597q0 25 5 73.5t5 72.5q0 66 46 111.5t112 45.5q161 0 161 -184v-47 q-4 -229 -168 -229q-64 0 -111 43q-50 46 -50 114z" />
<glyph unicode="&#xd7;" d="M100 965q0 66 47 117q49 55 121 55q116 0 340 -228l98 214q69 126 175 126q70 0 115 -50q42 -46 42 -109q0 -75 -80 -243q-58 -119 -112 -204q172 -207 305 -319q59 -50 59 -125q0 -65 -45 -116q-50 -56 -125 -56q-119 0 -399 323q-250 -323 -354 -323q-68 0 -119 49 t-51 121q0 62 126 217q86 100 171 200q-49 53 -126 117q-99 82 -126 107q-62 57 -62 127z" />
<glyph unicode="&#xd8;" horiz-adv-x="1444" d="M0 -12q0 59 164 266q-111 195 -111 340q0 308 171 518q192 238 530 238q183 0 307 -64q119 139 215 139q67 0 116.5 -40t49.5 -101q0 -55 -49 -113l-88 -96l-19 -22q105 -207 105 -414q0 -278 -175 -468q-198 -216 -550 -216q-157 0 -275 65q-42 -61 -85 -123 q-58 -69 -136 -69q-63 0 -115 46q-55 48 -55 114zM393 594q0 -4 5 -34t5 -34q70 86 226 256q164 178 227 254q-41 17 -111 17q-150 0 -245 -109q-107 -122 -107 -350zM584 266q30 -14 82 -14q179 0 281 102t102 285q0 20 -11 55q-12 39 -14 54q-48 -59 -211 -228 q-156 -162 -229 -254z" />
<glyph unicode="&#xd9;" d="M53 666q0 90 19 264q23 212 53 282q43 103 162 103q64 0 115 -37q57 -42 57 -107q0 -58 -24 -165q-28 -125 -32 -170q-8 -75 -8 -170q0 -184 42 -275q65 -141 243 -141q235 0 235 428q0 139 -57 471q-2 12 -2 22q0 64 55 107q51 39 117 39q117 0 160 -98q17 -39 35 -177 q34 -270 34 -374q0 -274 -119 -465q-153 -244 -458 -244q-627 0 -627 707zM334 1851q0 66 47 113t112 47q98 0 235 -186q126 -172 126 -250q0 -70 -53 -116q-48 -42 -109 -42q-84 0 -147 95q-50 80 -101 159q-36 41 -72 81q-38 51 -38 99z" />
<glyph unicode="&#xda;" d="M53 666q0 90 19 264q23 212 53 282q43 103 162 103q64 0 115 -37q57 -42 57 -107q0 -58 -24 -165q-28 -125 -32 -170q-8 -75 -8 -170q0 -184 42 -275q65 -141 243 -141q235 0 235 428q0 139 -57 471q-2 12 -2 22q0 64 55 107q51 39 117 39q117 0 160 -98q17 -39 35 -177 q34 -270 34 -374q0 -274 -119 -465q-153 -244 -458 -244q-627 0 -627 707zM438 1577q0 57 87 162q67 75 134 151q99 119 176 119q64 0 112 -46.5t48 -113.5q0 -46 -30.5 -91t-90.5 -110q-77 -83 -96 -106q-103 -125 -180 -125q-64 0 -112 46.5t-48 113.5z" />
<glyph unicode="&#xdb;" d="M53 666q0 90 19 264q23 212 53 282q43 103 162 103q64 0 115 -37q57 -42 57 -107q0 -58 -24 -165q-28 -125 -32 -170q-8 -75 -8 -170q0 -184 42 -275q65 -141 243 -141q235 0 235 428q0 139 -57 471q-2 12 -2 22q0 64 55 107q51 39 117 39q117 0 160 -98q17 -39 35 -177 q34 -270 34 -374q0 -274 -119 -465q-153 -244 -458 -244q-627 0 -627 707zM273 1575q0 59 54 118q45 48 91 97q107 148 109 150q78 92 147 92q105 0 148 -119q12 -36 111 -163q85 -111 85 -169q0 -68 -49 -114t-112 -46q-23 0 -85 81q-99 130 -108 140q-51 -68 -102 -137 q-77 -92 -131 -92q-69 0 -115 51q-43 48 -43 111z" />
<glyph unicode="&#xdc;" d="M53 666q0 90 19 264q23 212 53 282q43 103 162 103q64 0 115 -37q57 -42 57 -107q0 -58 -24 -165q-28 -125 -32 -170q-8 -75 -8 -170q0 -184 42 -275q65 -141 243 -141q235 0 235 428q0 139 -57 471q-2 12 -2 22q0 64 55 107q51 39 117 39q117 0 160 -98q17 -39 35 -177 q34 -270 34 -374q0 -274 -119 -465q-153 -244 -458 -244q-627 0 -627 707zM287 1661v80q0 71 44 133q49 70 124 70q63 0 111 -46t48 -114q0 -15 -6 -45q-2 -10 -2 -19q0 -6 1 -19t1 -20q0 -180 -162 -180q-66 0 -112.5 46.5t-46.5 113.5zM711 1638q0 25 5 73.5t5 72.5 q0 66 46 111.5t112 45.5q161 0 161 -184v-47q-4 -229 -168 -229q-64 0 -111 43q-50 46 -50 114z" />
<glyph unicode="&#xdd;" horiz-adv-x="1251" d="M10 1147q0 69 39 114q46 54 131 54q74 0 120 -44q42 -40 42 -95q0 -13 -1 -55t-1 -68q0 -269 143 -269q97 0 206 138q90 129 181 257q110 138 209 138q68 0 118 -46.5t50 -113.5q0 -52 -49 -86q-16 -14 -69.5 -98.5t-63.5 -112.5q-79 -208 -160 -657q-6 -35 -6 -62 q0 -7 3 -22t3 -23q0 -59 -49.5 -100t-120.5 -41q-68 0 -116 38t-52 95q-6 21 -6 53q0 116 74 394q-85 -41 -152 -41q-244 0 -373 239q-100 184 -100 414zM397 1577q0 57 87 162q67 75 134 151q99 119 176 119q64 0 112 -46.5t48 -113.5q0 -46 -30.5 -91t-90.5 -110 q-77 -83 -96 -106q-103 -125 -180 -125q-64 0 -112 46.5t-48 113.5z" />
<glyph unicode="&#xde;" horiz-adv-x="1192" d="M-33 862q0 100 115 133q0 8 -1 28t-1 32q0 260 182 260q66 0 116 -38q54 -40 54 -103q0 -24 -6 -72t-6 -72q151 17 248 17q180 0 311 -64q162 -79 162 -225q0 -313 -715 -490q0 -13 1 -55q1 -34 1 -55q0 -170 -170 -170q-70 0 -119 41t-49 100q0 43 1 128.5t1 127.5 q0 97 -8 340q-117 31 -117 137zM422 743q0 -60 2 -182q377 83 377 197q0 24 -31 24q-100 0 -179 -12q-161 -26 -169 -27z" />
<glyph unicode="&#xdf;" horiz-adv-x="1212" d="M72 764q0 224 110 379q143 203 434 203q205 0 341 -93q153 -104 153 -290q0 -177 -274 -299q335 -120 335 -357q0 -170 -152 -265q-129 -81 -308 -81q-7 0 -25.5 -1t-30.5 -1q-166 0 -166 139q0 140 173 140h20q152 0 152 69q0 47 -88 87q-131 61 -161 84q-87 68 -87 184 q0 96 71 162q40 38 132 83q71 36 71 56q0 96 -156 96q-97 0 -152.5 -77.5t-55.5 -211.5q0 -107 9 -321.5t9 -321.5q0 -60 -49.5 -101.5t-120.5 -41.5q-70 0 -119 41.5t-49 101.5q0 106 -8 318.5t-8 318.5z" />
<glyph unicode="&#xe0;" horiz-adv-x="1157" d="M41 264q0 155 145 230q121 63 324 63q35 0 211 -47q0 174 -154 174q-117 0 -166 -35q-6 -3 -18 -12l-4 -4q-29 -29 -100 -29q-66 0 -118 36q-57 39 -57 99q0 78 183 135q150 46 272 46q276 0 400 -122q105 -103 116 -311q12 -232 12 -385q0 -41 -28 -80q-44 -59 -135 -59 q-66 0 -136 82q-110 -84 -327 -84q-163 0 -282 74q-138 84 -138 229zM252 1421q0 66 47 113t112 47q98 0 235 -186q126 -172 126 -250q0 -70 -53 -116q-48 -42 -109 -42q-84 0 -147 95q-50 80 -101 159q-36 41 -72 81q-38 51 -38 99zM377 276q0 -83 100 -83q143 0 242 92 q-102 82 -189 82q-153 0 -153 -91z" />
<glyph unicode="&#xe1;" horiz-adv-x="1157" d="M41 264q0 155 145 230q121 63 324 63q35 0 211 -47q0 174 -154 174q-117 0 -166 -35q-6 -3 -18 -12l-4 -4q-29 -29 -100 -29q-66 0 -118 36q-57 39 -57 99q0 78 183 135q150 46 272 46q276 0 400 -122q105 -103 116 -311q12 -232 12 -385q0 -41 -28 -80q-44 -59 -135 -59 q-66 0 -136 82q-110 -84 -327 -84q-163 0 -282 74q-138 84 -138 229zM336 1147q0 57 87 162q67 75 134 151q99 119 176 119q64 0 112 -46.5t48 -113.5q0 -46 -30.5 -91t-90.5 -110q-77 -83 -96 -106q-103 -125 -180 -125q-64 0 -112 46.5t-48 113.5zM377 276q0 -83 100 -83 q143 0 242 92q-102 82 -189 82q-153 0 -153 -91z" />
<glyph unicode="&#xe2;" horiz-adv-x="1157" d="M41 264q0 155 145 230q121 63 324 63q35 0 211 -47q0 174 -154 174q-117 0 -166 -35q-6 -3 -18 -12l-4 -4q-29 -29 -100 -29q-66 0 -118 36q-57 39 -57 99q0 78 183 135q150 46 272 46q276 0 400 -122q105 -103 116 -311q12 -232 12 -385q0 -41 -28 -80q-44 -59 -135 -59 q-66 0 -136 82q-110 -84 -327 -84q-163 0 -282 74q-138 84 -138 229zM201 1145q0 59 54 118q45 48 91 97q107 148 109 150q78 92 147 92q105 0 148 -119q12 -36 111 -163q85 -111 85 -169q0 -68 -49 -114t-112 -46q-23 0 -85 81q-99 130 -108 140q-51 -68 -102 -137 q-77 -92 -131 -92q-69 0 -115 51q-43 48 -43 111zM377 276q0 -83 100 -83q143 0 242 92q-102 82 -189 82q-153 0 -153 -91z" />
<glyph unicode="&#xe3;" horiz-adv-x="1157" d="M41 264q0 155 145 230q121 63 324 63q35 0 211 -47q0 174 -154 174q-117 0 -166 -35q-6 -3 -18 -12l-4 -4q-29 -29 -100 -29q-66 0 -118 36q-57 39 -57 99q0 78 183 135q150 46 272 46q276 0 400 -122q105 -103 116 -311q12 -232 12 -385q0 -41 -28 -80q-44 -59 -135 -59 q-66 0 -136 82q-110 -84 -327 -84q-163 0 -282 74q-138 84 -138 229zM137 1147q0 107 125 205q118 92 226 92q56 0 109 -45q15 -12 83 -88q63 95 69 103q49 59 101 59q65 0 112.5 -47.5t47.5 -112.5q0 -48 -29 -88q-89 -126 -126 -161q-82 -77 -187 -77q-72 0 -132 66 q-13 14 -65 92l-8 12q-85 -170 -164 -170q-62 0 -112 46t-50 114zM377 276q0 -83 100 -83q143 0 242 92q-102 82 -189 82q-153 0 -153 -91z" />
<glyph unicode="&#xe4;" horiz-adv-x="1157" d="M41 264q0 155 145 230q121 63 324 63q35 0 211 -47q0 174 -154 174q-117 0 -166 -35q-6 -3 -18 -12l-4 -4q-29 -29 -100 -29q-66 0 -118 36q-57 39 -57 99q0 78 183 135q150 46 272 46q276 0 400 -122q105 -103 116 -311q12 -232 12 -385q0 -41 -28 -80q-44 -59 -135 -59 q-66 0 -136 82q-110 -84 -327 -84q-163 0 -282 74q-138 84 -138 229zM217 1190v80q0 71 44 133q49 70 124 70q63 0 111 -46t48 -114q0 -15 -6 -45q-2 -10 -2 -19q0 -6 1 -19t1 -20q0 -180 -162 -180q-66 0 -112.5 46.5t-46.5 113.5zM377 276q0 -83 100 -83q143 0 242 92 q-102 82 -189 82q-153 0 -153 -91zM641 1167q0 25 5 73.5t5 72.5q0 66 46 111.5t112 45.5q161 0 161 -184v-47q-4 -229 -168 -229q-64 0 -111 43q-50 46 -50 114z" />
<glyph unicode="&#xe5;" horiz-adv-x="1157" d="M41 264q0 155 145 230q121 63 324 63q35 0 211 -47q0 174 -154 174q-117 0 -166 -35q-6 -3 -18 -12l-4 -4q-29 -29 -100 -29q-66 0 -118 36q-57 39 -57 99q0 78 183 135q150 46 272 46q276 0 400 -122q105 -103 116 -311q12 -232 12 -385q0 -41 -28 -80q-44 -59 -135 -59 q-66 0 -136 82q-110 -84 -327 -84q-163 0 -282 74q-138 84 -138 229zM301 1253q0 114 86 190q81 73 191 73q107 0 186 -71q84 -75 84 -185q0 -108 -70 -188q-75 -85 -186 -85q-122 0 -202 66q-89 73 -89 200zM377 276q0 -83 100 -83q143 0 242 92q-102 82 -189 82 q-153 0 -153 -91zM498 1253q0 -69 94 -69q19 0 39 23.5t20 52.5q0 18 -24 39.5t-49 21.5q-32 0 -56 -21.5t-24 -46.5z" />
<glyph unicode="&#xe6;" horiz-adv-x="1733" d="M41 231q0 151 154 226q122 59 301 59q77 0 159 -24q2 31 2 24q0 50 -13 95q-20 65 -58 65q-66 0 -162.5 -39t-155.5 -39q-72 0 -113 43q-32 34 -32 76q0 103 180 158q134 40 287 40q164 0 266 -88q143 93 307 93q153 0 260 -62q131 -75 131 -217q0 -68 -190 -171 q-151 -82 -344 -148q68 -95 201 -95q58 0 160 53.5t151 53.5q73 0 123 -44q47 -41 47 -93q0 -64 -106 -131q-77 -48 -179 -82q-85 -29 -196 -29q-150 0 -275 51q-60 -82 -141 -82q-91 0 -135 62q-111 -31 -236 -31q-149 0 -264 70q-129 79 -129 206zM342 215q0 -11 51 -12 h41q89 0 168 30q-39 48 -59 58q-25 14 -90 16h-4q-46 0 -76.5 -30t-30.5 -62zM954 506l297 131q-45 43 -112 43q-24 0 -43 -4q-118 -25 -142 -170z" />
<glyph unicode="&#xe7;" horiz-adv-x="1083" d="M41 373q0 262 194 415q165 130 383 130q125 0 204 -47q85 -50 85 -136q0 -59 -54 -97q-50 -36 -116 -36q-84 0 -127 43q-94 -13 -160.5 -91.5t-66.5 -180.5q0 -54 45 -96q42 -39 90 -39q92 0 150 52l86 98q53 52 133 52q58 0 110 -30q64 -38 64 -103q0 -26 -17 -55 q-119 -211 -411 -272v-84q244 -49 244 -193q0 -160 -198 -249q-152 -68 -329 -68q-67 0 -113.5 46.5t-46.5 112.5q0 47 152.5 70t162.5 71q1 6 1 13q0 41 -68.5 88.5t-68.5 52.5q0 19 -3.5 64t-3.5 69q0 3 1.5 7t1.5 6q-147 42 -238 155q-86 107 -86 232z" />
<glyph unicode="&#xe8;" horiz-adv-x="1094" d="M41 436q0 183 131 322q150 160 399 160q181 0 315 -83q152 -94 152 -251q0 -123 -213 -170q-29 -7 -403 -82q49 -63 87 -81q35 -15 114 -15q48 0 129 36.5t129 36.5q69 0 120.5 -40t51.5 -97q0 -59 -117 -124q-95 -52 -184 -71q-71 -14 -131 -14q-241 0 -412 144 q-168 140 -168 329zM273 1421q0 66 47 113t112 47q98 0 235 -186q126 -172 126 -250q0 -70 -53 -116q-48 -42 -109 -42q-84 0 -147 95q-50 80 -101 159q-36 41 -72 81q-38 51 -38 99zM379 520l379 80q-66 96 -174 96q-137 0 -205 -176z" />
<glyph unicode="&#xe9;" horiz-adv-x="1094" d="M41 436q0 183 131 322q150 160 399 160q181 0 315 -83q152 -94 152 -251q0 -123 -213 -170q-29 -7 -403 -82q49 -63 87 -81q35 -15 114 -15q48 0 129 36.5t129 36.5q69 0 120.5 -40t51.5 -97q0 -59 -117 -124q-95 -52 -184 -71q-71 -14 -131 -14q-241 0 -412 144 q-168 140 -168 329zM377 1147q0 57 87 162q67 75 134 151q99 119 176 119q64 0 112 -46.5t48 -113.5q0 -46 -30.5 -91t-90.5 -110q-77 -83 -96 -106q-103 -125 -180 -125q-64 0 -112 46.5t-48 113.5zM379 520l379 80q-66 96 -174 96q-137 0 -205 -176z" />
<glyph unicode="&#xea;" horiz-adv-x="1094" d="M41 436q0 183 131 322q150 160 399 160q181 0 315 -83q152 -94 152 -251q0 -123 -213 -170q-29 -7 -403 -82q49 -63 87 -81q35 -15 114 -15q48 0 129 36.5t129 36.5q69 0 120.5 -40t51.5 -97q0 -59 -117 -124q-95 -52 -184 -71q-71 -14 -131 -14q-241 0 -412 144 q-168 140 -168 329zM180 1145q0 59 54 118q45 48 91 97q107 148 109 150q78 92 147 92q105 0 148 -119q12 -36 111 -163q85 -111 85 -169q0 -68 -49 -114t-112 -46q-23 0 -85 81q-99 130 -108 140q-51 -68 -102 -137q-77 -92 -131 -92q-69 0 -115 51q-43 48 -43 111z M379 520l379 80q-66 96 -174 96q-137 0 -205 -176z" />
<glyph unicode="&#xeb;" horiz-adv-x="1094" d="M41 436q0 183 131 322q150 160 399 160q181 0 315 -83q152 -94 152 -251q0 -123 -213 -170q-29 -7 -403 -82q49 -63 87 -81q35 -15 114 -15q48 0 129 36.5t129 36.5q69 0 120.5 -40t51.5 -97q0 -59 -117 -124q-95 -52 -184 -71q-71 -14 -131 -14q-241 0 -412 144 q-168 140 -168 329zM176 1190v80q0 71 44 133q49 70 124 70q63 0 111 -46t48 -114q0 -15 -6 -45q-2 -10 -2 -19q0 -6 1 -19t1 -20q0 -180 -162 -180q-66 0 -112.5 46.5t-46.5 113.5zM379 520l379 80q-66 96 -174 96q-137 0 -205 -176zM600 1167q0 25 5 73.5t5 72.5 q0 66 46 111.5t112 45.5q161 0 161 -184v-47q-4 -229 -168 -229q-64 0 -111 43q-50 46 -50 114z" />
<glyph unicode="&#xec;" horiz-adv-x="512" d="M-75 1421q0 66 47 113t112 47q98 0 235 -186q126 -172 126 -250q0 -70 -53 -116q-48 -42 -109 -42q-84 0 -147 95q-50 80 -101 159q-36 41 -72 81q-38 51 -38 99zM82 762q0 60 49.5 102.5t120.5 42.5q70 0 119 -42.5t49 -102.5q0 -114 4 -310.5t4 -310.5 q0 -60 -49.5 -101.5t-120.5 -41.5t-120.5 41.5t-49.5 101.5q0 114 -3 310.5t-3 310.5z" />
<glyph unicode="&#xed;" horiz-adv-x="512" d="M29 1147q0 57 87 162q67 75 134 151q99 119 176 119q64 0 112 -46.5t48 -113.5q0 -46 -30.5 -91t-90.5 -110q-77 -83 -96 -106q-103 -125 -180 -125q-64 0 -112 46.5t-48 113.5zM82 762q0 60 49.5 102.5t120.5 42.5q70 0 119 -42.5t49 -102.5q0 -114 4 -310.5t4 -310.5 q0 -60 -49.5 -101.5t-120.5 -41.5t-120.5 41.5t-49.5 101.5q0 114 -3 310.5t-3 310.5z" />
<glyph unicode="&#xee;" horiz-adv-x="512" d="M-141 1145q0 59 54 118q45 48 91 97q107 148 109 150q78 92 147 92q105 0 148 -119q12 -36 111 -163q85 -111 85 -169q0 -68 -49 -114t-112 -46q-23 0 -85 81q-99 130 -108 140q-51 -68 -102 -137q-77 -92 -131 -92q-69 0 -115 51q-43 48 -43 111zM82 762 q0 60 49.5 102.5t120.5 42.5q70 0 119 -42.5t49 -102.5q0 -114 4 -310.5t4 -310.5q0 -60 -49.5 -101.5t-120.5 -41.5t-120.5 41.5t-49.5 101.5q0 114 -3 310.5t-3 310.5z" />
<glyph unicode="&#xef;" horiz-adv-x="512" d="M-110 1190v80q0 71 44 133q49 70 124 70q63 0 111 -46t48 -114q0 -15 -6 -45q-2 -10 -2 -19q0 -6 1 -19t1 -20q0 -180 -162 -180q-66 0 -112.5 46.5t-46.5 113.5zM82 762q0 60 49.5 102.5t120.5 42.5q70 0 119 -42.5t49 -102.5q0 -114 4 -310.5t4 -310.5 q0 -60 -49.5 -101.5t-120.5 -41.5t-120.5 41.5t-49.5 101.5q0 114 -3 310.5t-3 310.5zM314 1167q0 25 5 73.5t5 72.5q0 66 46 111.5t112 45.5q161 0 161 -184v-47q-4 -229 -168 -229q-64 0 -111 43q-50 46 -50 114z" />
<glyph unicode="&#xf0;" horiz-adv-x="1051" d="M41 377q0 214 185 320q150 85 384 85h11q-19 34 -38 67t-55 69q-31 -39 -90 -64q-48 -20 -80 -20q-73 0 -121.5 35t-48.5 92q0 60 72 120q-76 47 -76 127q0 70 54 109q48 35 120 35q41 0 82 -21q38 -21 76 -41q139 101 189 101q69 0 119 -43.5t50 -104.5q0 -68 -98 -149 q88 -89 153 -237q81 -184 81 -374q0 -219 -113 -354q-139 -168 -426 -168q-196 0 -320 138q-110 122 -110 278zM379 377q1 -53 34 -89q29 -32 58 -32q124 0 168 72q33 53 33 180v24q-293 -22 -293 -153q0 -3 0 -2z" />
<glyph unicode="&#xf1;" horiz-adv-x="1065" d="M72 129v631q0 55 49.5 94t120.5 39q97 0 145 -66q172 91 279 91q207 0 287 -179q53 -119 53 -340q0 -25 -1 -66t-1 -57v-104q0 -62 -42 -112q-49 -60 -133 -60q-68 0 -117.5 38t-49.5 95q0 19 1 57.5t1 57.5v106q0 171 -27 291q-80 -20 -227 -156v-360q0 -56 -49 -95.5 t-119 -39.5q-71 0 -120.5 39.5t-49.5 95.5zM116 1147q0 107 125 205q118 92 226 92q56 0 109 -45q15 -12 83 -88q63 95 69 103q49 59 101 59q65 0 112.5 -47.5t47.5 -112.5q0 -48 -29 -88q-89 -126 -126 -161q-82 -77 -187 -77q-72 0 -132 66q-13 14 -65 92l-8 12 q-85 -170 -164 -170q-62 0 -112 46t-50 114z" />
<glyph unicode="&#xf2;" horiz-adv-x="1137" d="M41 401q0 177 127 331q153 186 401 186q238 0 389 -149q138 -134 138 -312q0 -209 -140 -345q-155 -151 -430 -151q-235 0 -369 145q-116 125 -116 295zM293 1421q0 66 47 113t112 47q98 0 235 -186q126 -172 126 -250q0 -70 -53 -116q-48 -42 -109 -42q-84 0 -147 95 q-50 80 -101 159q-36 41 -72 81q-38 51 -38 99zM383 401q0 -81 42 -126q39 -42 101 -42q228 0 228 224q0 74 -60 131q-56 55 -125 55q-19 0 -51 -16q-135 -69 -135 -226z" />
<glyph unicode="&#xf3;" horiz-adv-x="1137" d="M41 401q0 177 127 331q153 186 401 186q238 0 389 -149q138 -134 138 -312q0 -209 -140 -345q-155 -151 -430 -151q-235 0 -369 145q-116 125 -116 295zM356 1147q0 57 87 162q67 75 134 151q99 119 176 119q64 0 112 -46.5t48 -113.5q0 -46 -30.5 -91t-90.5 -110 q-77 -83 -96 -106q-103 -125 -180 -125q-64 0 -112 46.5t-48 113.5zM383 401q0 -81 42 -126q39 -42 101 -42q228 0 228 224q0 74 -60 131q-56 55 -125 55q-19 0 -51 -16q-135 -69 -135 -226z" />
<glyph unicode="&#xf4;" horiz-adv-x="1137" d="M41 401q0 177 127 331q153 186 401 186q238 0 389 -149q138 -134 138 -312q0 -209 -140 -345q-155 -151 -430 -151q-235 0 -369 145q-116 125 -116 295zM180 1145q0 59 54 118q45 48 91 97q107 148 109 150q78 92 147 92q105 0 148 -119q12 -36 111 -163q85 -111 85 -169 q0 -68 -49 -114t-112 -46q-23 0 -85 81q-99 130 -108 140q-51 -68 -102 -137q-77 -92 -131 -92q-69 0 -115 51q-43 48 -43 111zM383 401q0 -81 42 -126q39 -42 101 -42q228 0 228 224q0 74 -60 131q-56 55 -125 55q-19 0 -51 -16q-135 -69 -135 -226z" />
<glyph unicode="&#xf5;" horiz-adv-x="1137" d="M41 401q0 177 127 331q153 186 401 186q238 0 389 -149q138 -134 138 -312q0 -209 -140 -345q-155 -151 -430 -151q-235 0 -369 145q-116 125 -116 295zM157 1147q0 107 125 205q118 92 226 92q56 0 109 -45q15 -12 83 -88q63 95 69 103q49 59 101 59q65 0 112.5 -47.5 t47.5 -112.5q0 -48 -29 -88q-89 -126 -126 -161q-82 -77 -187 -77q-72 0 -132 66q-13 14 -65 92l-8 12q-85 -170 -164 -170q-62 0 -112 46t-50 114zM383 401q0 -81 42 -126q39 -42 101 -42q228 0 228 224q0 74 -60 131q-56 55 -125 55q-19 0 -51 -16q-135 -69 -135 -226z " />
<glyph unicode="&#xf6;" horiz-adv-x="1137" d="M41 401q0 177 127 331q153 186 401 186q238 0 389 -149q138 -134 138 -312q0 -209 -140 -345q-155 -151 -430 -151q-235 0 -369 145q-116 125 -116 295zM197 1190v80q0 71 44 133q49 70 124 70q63 0 111 -46t48 -114q0 -15 -6 -45q-2 -10 -2 -19q0 -6 1 -19t1 -20 q0 -180 -162 -180q-66 0 -112.5 46.5t-46.5 113.5zM383 401q0 -81 42 -126q39 -42 101 -42q228 0 228 224q0 74 -60 131q-56 55 -125 55q-19 0 -51 -16q-135 -69 -135 -226zM621 1167q0 25 5 73.5t5 72.5q0 66 46 111.5t112 45.5q161 0 161 -184v-47q-4 -229 -168 -229 q-64 0 -111 43q-50 46 -50 114z" />
<glyph unicode="&#xf7;" d="M43 623q0 170 281 170q18 0 51 -1t47 -1h31q273 11 442 40q131 23 203 23q73 0 120 -39q50 -42 50 -110q0 -71 -49.5 -120.5t-119.5 -49.5t-183 -21q-137 -25 -181 -29l-510 -30h-12q-78 0 -127 55q-43 49 -43 113zM461 1053v73q0 166 178 166q71 0 119.5 -48.5 t48.5 -119.5q0 -33 -3 -35.5t-3 -35.5q0 -72 -49.5 -121t-120.5 -49q-72 0 -121 49t-49 121zM479 213q0 190 174 190q89 0 136 -76q36 -58 36 -130v-4q0 -104 -37 -148.5t-131 -44.5q-178 0 -178 213z" />
<glyph unicode="&#xf8;" horiz-adv-x="1130" d="M-27 -23q0 52 123 203q-53 97 -53 217q0 181 126 339q152 190 400 190q93 0 170 -23q89 119 176 119q65 0 116 -36q56 -40 56 -101q0 -24 -83 -160q94 -124 94 -270q0 -215 -141 -354q-155 -154 -431 -154q-93 0 -184 30q-109 -137 -197 -137q-65 0 -116 37 q-56 41 -56 100zM383 401q0 -81 42 -126q39 -42 101 -42q228 0 228 224q0 74 -60 131q-56 55 -125 55q-19 0 -51 -16q-135 -69 -135 -226z" />
<glyph unicode="&#xf9;" horiz-adv-x="1065" d="M57 676q0 201 174 201q69 0 119.5 -38.5t50.5 -95.5v-172q0 -9 -6 -81.5t-6 -118.5q0 -144 62 -144q57 0 116 60l86 98v363q0 55 50 95t120 40t119 -40t49 -95v-631q0 -56 -48.5 -94.5t-119.5 -38.5q-82 0 -131 47q-117 -72 -241 -72q-394 0 -394 717zM191 1421 q0 66 47 113t112 47q98 0 235 -186q126 -172 126 -250q0 -70 -53 -116q-48 -42 -109 -42q-84 0 -147 95q-50 80 -101 159q-36 41 -72 81q-38 51 -38 99z" />
<glyph unicode="&#xfa;" horiz-adv-x="1065" d="M57 676q0 201 174 201q69 0 119.5 -38.5t50.5 -95.5v-172q0 -9 -6 -81.5t-6 -118.5q0 -144 62 -144q57 0 116 60l86 98v363q0 55 50 95t120 40t119 -40t49 -95v-631q0 -56 -48.5 -94.5t-119.5 -38.5q-82 0 -131 47q-117 -72 -241 -72q-394 0 -394 717zM315 1147 q0 57 87 162q67 75 134 151q99 119 176 119q64 0 112 -46.5t48 -113.5q0 -46 -30.5 -91t-90.5 -110q-77 -83 -96 -106q-103 -125 -180 -125q-64 0 -112 46.5t-48 113.5z" />
<glyph unicode="&#xfb;" horiz-adv-x="1065" d="M57 676q0 201 174 201q69 0 119.5 -38.5t50.5 -95.5v-172q0 -9 -6 -81.5t-6 -118.5q0 -144 62 -144q57 0 116 60l86 98v363q0 55 50 95t120 40t119 -40t49 -95v-631q0 -56 -48.5 -94.5t-119.5 -38.5q-82 0 -131 47q-117 -72 -241 -72q-394 0 -394 717zM146 1145 q0 59 54 118q45 48 91 97q107 148 109 150q78 92 147 92q105 0 148 -119q12 -36 111 -163q85 -111 85 -169q0 -68 -49 -114t-112 -46q-23 0 -85 81q-99 130 -108 140q-51 -68 -102 -137q-77 -92 -131 -92q-69 0 -115 51q-43 48 -43 111z" />
<glyph unicode="&#xfc;" horiz-adv-x="1065" d="M57 676q0 201 174 201q69 0 119.5 -38.5t50.5 -95.5v-172q0 -9 -6 -81.5t-6 -118.5q0 -144 62 -144q57 0 116 60l86 98v363q0 55 50 95t120 40t119 -40t49 -95v-631q0 -56 -48.5 -94.5t-119.5 -38.5q-82 0 -131 47q-117 -72 -241 -72q-394 0 -394 717zM160 1190v80 q0 71 44 133q49 70 124 70q63 0 111 -46t48 -114q0 -15 -6 -45q-2 -10 -2 -19q0 -6 1 -19t1 -20q0 -180 -162 -180q-66 0 -112.5 46.5t-46.5 113.5zM584 1167q0 25 5 73.5t5 72.5q0 66 46 111.5t112 45.5q161 0 161 -184v-47q-4 -229 -168 -229q-64 0 -111 43 q-50 46 -50 114z" />
<glyph unicode="&#xfd;" horiz-adv-x="1065" d="M18 -299q0 63 55 106q51 39 117 39q42 0 119 -34.5t148 -34.5q67 0 116 184q-27 -4 -63 -4q-224 0 -353 299q-98 227 -98 459q0 168 174 168q168 0 168 -164q0 -8 -1 -55.5t-1 -81.5q0 -334 113 -334q74 0 110 103q23 68 37 218q14 157 25 195q34 119 170 119 q80 0 127 -51q41 -43 41 -97q0 -59 -17 -145l-30 -144q-23 -188 -45 -377q-38 -262 -125 -398q-119 -185 -346 -185q-145 0 -274 47q-167 60 -167 168zM330 1147q0 57 87 162q67 75 134 151q99 119 176 119q64 0 112 -46.5t48 -113.5q0 -46 -30.5 -91t-90.5 -110 q-77 -83 -96 -106q-103 -125 -180 -125q-64 0 -112 46.5t-48 113.5z" />
<glyph unicode="&#xfe;" horiz-adv-x="1114" d="M76 1044q0 297 186 297q65 0 115 -40q55 -43 55 -109q0 -32 -9 -96.5t-9 -98.5q0 -15 1 -44t1 -42q102 52 223 52q225 0 342 -172q90 -133 90 -304q0 -226 -149 -395q-167 -190 -439 -190h-37v-8q0 -50 1.5 -150t1.5 -150q0 -64 -55 -108q-51 -41 -118 -41 q-170 0 -170 215q0 70 2.5 211t2.5 211q0 149 -15 417q-16 292 -18 416zM432 528l12 -325h13h26q99 0 173.5 85t74.5 199v13q0 164 -92 164q-54 0 -93 -34l-69 -69q-17 -14 -45 -33z" />
<glyph unicode="&#xff;" horiz-adv-x="1065" d="M18 -299q0 63 55 106q51 39 117 39q42 0 119 -34.5t148 -34.5q67 0 116 184q-27 -4 -63 -4q-224 0 -353 299q-98 227 -98 459q0 168 174 168q168 0 168 -164q0 -8 -1 -55.5t-1 -81.5q0 -334 113 -334q74 0 110 103q23 68 37 218q14 157 25 195q34 119 170 119 q80 0 127 -51q41 -43 41 -97q0 -59 -17 -145l-30 -144q-23 -188 -45 -377q-38 -262 -125 -398q-119 -185 -346 -185q-145 0 -274 47q-167 60 -167 168zM170 1190v80q0 71 44 133q49 70 124 70q63 0 111 -46t48 -114q0 -15 -6 -45q-2 -10 -2 -19q0 -6 1 -19t1 -20 q0 -180 -162 -180q-66 0 -112.5 46.5t-46.5 113.5zM594 1167q0 25 5 73.5t5 72.5q0 66 46 111.5t112 45.5q161 0 161 -184v-47q-4 -229 -168 -229q-64 0 -111 43q-50 46 -50 114z" />
<glyph unicode="&#x152;" horiz-adv-x="2054" d="M49 543q0 283 202 527q232 280 585 280q210 0 327 -76q278 43 557 43q85 0 152 -40q78 -45 78 -120q0 -49 -36 -92q-46 -55 -128 -55q-41 0 -82 20q-141 -2 -363 -26q11 -48 11 -99q0 -47 -6 -110q6 0 225 31q146 20 225 20q73 0 119 -45q41 -40 41 -92q0 -100 -110 -138 q-49 -17 -204 -32q-121 -14 -364 -39q-36 -95 -86 -176q245 20 647 88q24 4 37 4q75 0 123 -48q43 -42 43 -98q0 -120 -203 -151q-620 -94 -936 -94q-15 0 -29 2q-140 -60 -294 -60q-289 0 -427 203q-104 152 -104 373zM389 539q0 -133 25 -190q41 -93 166 -93 q243 0 364 305q-16 30 -16 62q0 69 67 120q17 87 17 162q0 160 -162 160q-188 0 -327 -163q-134 -157 -134 -351v-12z" />
<glyph unicode="&#x153;" horiz-adv-x="1686" d="M41 340q0 191 123 362q156 218 426 218q145 0 241 -80q122 84 277 84q129 0 237 -65q125 -75 125 -195q0 -132 -174 -241q-147 -91 -333 -124q4 -66 63 -66q115 0 223 58q25 13 161 106q84 58 140 58q70 0 120 -40t50 -96t-78 -118q-298 -238 -616 -238q-154 0 -256 92 q-124 -88 -299 -88q-221 0 -333 111q-97 97 -97 262zM379 381q0 -70 13 -100q20 -45 79 -45q160 0 160 249q0 11 3 43t3 50q0 69 -55 69q-109 0 -162 -94q-41 -71 -41 -172zM948 518q175 2 291 141q-46 41 -109 41q-22 0 -47 -6q-116 -29 -135 -176z" />
<glyph unicode="&#x178;" horiz-adv-x="1251" d="M10 1147q0 69 39 114q46 54 131 54q74 0 120 -44q42 -40 42 -95q0 -13 -1 -55t-1 -68q0 -269 143 -269q97 0 206 138q90 129 181 257q110 138 209 138q68 0 118 -46.5t50 -113.5q0 -52 -49 -86q-16 -14 -69.5 -98.5t-63.5 -112.5q-79 -208 -160 -657q-6 -35 -6 -62 q0 -7 3 -22t3 -23q0 -59 -49.5 -100t-120.5 -41q-68 0 -116 38t-52 95q-6 21 -6 53q0 116 74 394q-85 -41 -152 -41q-244 0 -373 239q-100 184 -100 414zM279 1579v80q0 71 44 133q49 70 124 70q63 0 111 -46t48 -114q0 -15 -6 -45q-2 -10 -2 -19q0 -6 1 -19t1 -20 q0 -180 -162 -180q-66 0 -112.5 46.5t-46.5 113.5zM703 1556q0 25 5 73.5t5 72.5q0 66 46 111.5t112 45.5q161 0 161 -184v-47q-4 -229 -168 -229q-64 0 -111 43q-50 46 -50 114z" />
<glyph unicode="&#x2c6;" horiz-adv-x="819" d="M37 1145q0 59 54 118q45 48 91 97q107 148 109 150q78 92 147 92q105 0 148 -119q12 -36 111 -163q85 -111 85 -169q0 -68 -49 -114t-112 -46q-23 0 -85 81q-99 130 -108 140q-51 -68 -102 -137q-77 -92 -131 -92q-69 0 -115 51q-43 48 -43 111z" />
<glyph unicode="&#x2dc;" horiz-adv-x="983" d="M55 1147q0 107 125 205q118 92 226 92q56 0 109 -45q15 -12 83 -88q63 95 69 103q49 59 101 59q65 0 112.5 -47.5t47.5 -112.5q0 -48 -29 -88q-89 -126 -126 -161q-82 -77 -187 -77q-72 0 -132 66q-13 14 -65 92l-8 12q-85 -170 -164 -170q-62 0 -112 46t-50 114z" />
<glyph unicode="&#x2000;" horiz-adv-x="1016" />
<glyph unicode="&#x2001;" horiz-adv-x="2032" />
<glyph unicode="&#x2002;" horiz-adv-x="1016" />
<glyph unicode="&#x2003;" horiz-adv-x="2032" />
<glyph unicode="&#x2004;" horiz-adv-x="677" />
<glyph unicode="&#x2005;" horiz-adv-x="508" />
<glyph unicode="&#x2006;" horiz-adv-x="338" />
<glyph unicode="&#x2007;" horiz-adv-x="338" />
<glyph unicode="&#x2008;" horiz-adv-x="254" />
<glyph unicode="&#x2009;" horiz-adv-x="406" />
<glyph unicode="&#x200a;" horiz-adv-x="112" />
<glyph unicode="&#x2010;" horiz-adv-x="856" d="M51 483q0 112 98 151q58 23 187 23l305 2q70 1 119 -49t49 -121q0 -70 -48.5 -118.5t-119.5 -48.5q-44 0 -132 -1.5t-132 -1.5q-26 0 -77 -2t-77 -2q-70 0 -119 46q-53 48 -53 122z" />
<glyph unicode="&#x2011;" horiz-adv-x="856" d="M51 483q0 112 98 151q58 23 187 23l305 2q70 1 119 -49t49 -121q0 -70 -48.5 -118.5t-119.5 -48.5q-44 0 -132 -1.5t-132 -1.5q-26 0 -77 -2t-77 -2q-70 0 -119 46q-53 48 -53 122z" />
<glyph unicode="&#x2012;" horiz-adv-x="856" d="M51 483q0 112 98 151q58 23 187 23l305 2q70 1 119 -49t49 -121q0 -70 -48.5 -118.5t-119.5 -48.5q-44 0 -132 -1.5t-132 -1.5q-26 0 -77 -2t-77 -2q-70 0 -119 46q-53 48 -53 122z" />
<glyph unicode="&#x2013;" horiz-adv-x="1024" d="M-31 475q0 71 49 120.5t119 49.5q93 0 207 -3t207 -3q85 0 163 -5t163 -5q70 0 120 -49.5t50 -120.5t-49.5 -119.5t-120.5 -48.5q-85 0 -163 5t-163 5q-93 0 -207 3t-207 3q-71 0 -119.5 48.5t-48.5 119.5z" />
<glyph unicode="&#x2014;" horiz-adv-x="2048" d="M20 500q0 66 47 112.5t113 46.5h1688q63 0 110 -43q50 -47 50 -116q0 -70 -48.5 -114t-111.5 -44h-1688q-66 0 -113 46t-47 112z" />
<glyph unicode="&#x2018;" horiz-adv-x="565" d="M33 911q0 142 44 286q66 214 195 214q65 0 116 -30q56 -34 56 -85q0 -32 -23 -148t-36 -149q68 -4 109 -39.5t41 -76.5q0 -56 -72 -92q-68 -27 -135 -54q-53 -24 -99 -24q-68 0 -136 80q-60 71 -60 118z" />
<glyph unicode="&#x2019;" horiz-adv-x="565" d="M33 772q0 44 41 74q12 9 33.5 129.5t29.5 128.5q-94 32 -94 102q0 41 117 96q111 52 174 52q196 0 196 -154q0 -112 -91 -307q-110 -234 -236 -234q-73 0 -121.5 34t-48.5 79z" />
<glyph unicode="&#x201a;" horiz-adv-x="565" d="M45 145q0 100 137 134q36 34 142 34q174 0 174 -176q0 -72 -76 -256q-88 -211 -164 -211q-66 0 -117 30q-55 32 -55 81q0 30 18 133q19 109 31 131q-90 33 -90 100z" />
<glyph unicode="&#x201c;" horiz-adv-x="1061" d="M45 881q0 473 205 473q65 0 115 -30q57 -33 57 -85q0 -25 -18 -152q-19 -141 -21 -159q63 -8 103 -44q36 -34 36 -73q0 -49 -52 -81q-22 -13 -112 -46q-77 -29 -129 -29q-184 0 -184 226zM522 950q0 114 41 234q57 170 164 170q65 0 116 -30q56 -34 56 -85 q0 -67 -35 -231q61 -8 99 -41.5t38 -73.5q0 -45 -52 -82q-50 -30 -101 -59q-57 -35 -117 -35q-70 0 -143 96q-66 86 -66 137z" />
<glyph unicode="&#x201d;" horiz-adv-x="1061" d="M33 1223q0 40 45 73q29 22 103 53q92 37 149 37q82 0 128 -41q36 -33 36 -71q0 -19 4 -56.5t4 -56.5q0 -68 -54 -200q-65 -160 -139 -160q-65 0 -115 29q-57 32 -57 81q0 181 8 199l2 6q-114 27 -114 107zM559 1217q0 38 45 73q21 17 116 58q99 43 122 43q168 0 168 -172 q0 -140 -40 -270q-61 -201 -190 -201q-67 0 -118 31q-54 34 -54 81q0 33 18 129q19 100 31 125q-98 31 -98 103z" />
<glyph unicode="&#x201e;" horiz-adv-x="1061" d="M33 166q0 40 45 74q29 22 103 52q92 38 149 38q82 0 128 -42q36 -32 36 -71q0 -19 4 -56.5t4 -56.5q0 -68 -54 -200q-65 -160 -139 -160q-65 0 -115 29q-57 32 -57 82q0 174 8 198l2 6q-114 27 -114 107zM559 160q0 38 45 73q21 17 116 58q99 43 122 43q168 0 168 -172 q0 -140 -40 -270q-61 -201 -190 -201q-67 0 -118 32q-54 33 -54 80q0 33 18.5 131t30.5 123q-98 32 -98 103z" />
<glyph unicode="&#x2022;" horiz-adv-x="811" d="M121 680q0 6 1 18.5t1 18.5q0 90 123 172q113 76 209 76q105 0 175 -119q60 -102 60 -215q0 -79 -95 -172.5t-173 -93.5q-140 0 -220.5 87t-80.5 228z" />
<glyph unicode="&#x2026;" horiz-adv-x="2048" d="M168 117q0 112 38 186q49 94 152 94q61 0 113 -23q64 -29 64 -77q0 -19 -3.5 -120t-3.5 -120q0 -48 -67 -76q-52 -22 -111 -22q-56 0 -109 21q-71 28 -71 77q0 9 -1 28.5t-1 31.5zM850 117q0 112 38 186q49 94 152 94q61 0 113 -23q64 -29 64 -77q0 -19 -3.5 -120 t-3.5 -120q0 -48 -67 -76q-52 -22 -111 -22q-56 0 -109 21q-71 28 -71 77q0 9 -1 28.5t-1 31.5zM1534 117q0 112 38 186q49 94 152 94q61 0 113 -23q64 -29 64 -77q0 -19 -3.5 -120t-3.5 -120q0 -48 -67 -76q-52 -22 -111 -22q-56 0 -109 21q-71 28 -71 77q0 9 -1 28.5 t-1 31.5z" />
<glyph unicode="&#x202f;" horiz-adv-x="406" />
<glyph unicode="&#x2039;" horiz-adv-x="819" d="M88 397q0 48 120 181q92 102 185 184q56 49 131 49q66 0 117 -34q55 -38 55 -93q0 -57 -204 -250q55 -50 174 -147q67 -52 67 -103q0 -50 -49 -89.5t-121 -39.5q-79 0 -187 91q-128 109 -140 114q-81 33 -103 49q-45 33 -45 88z" />
<glyph unicode="&#x203a;" horiz-adv-x="819" d="M59 684q0 55 57 92q51 33 115 33q89 0 144 -64q16 -19 60 -42q57 -31 69 -39q89 -63 168 -91q100 -34 100 -112q0 -87 -133 -121q-51 -13 -167 -130q-104 -106 -193 -106q-69 0 -119.5 36t-50.5 89q0 79 192 232q-78 47 -155 95q-87 60 -87 128z" />
<glyph unicode="&#x205f;" horiz-adv-x="508" />
<glyph unicode="&#x20ac;" d="M4 494q0 90 125 100q5 40 21 96h-9q-43 0 -79 28q-39 29 -39 68q0 41 28.5 70t69.5 29q71 0 106 2q106 197 273 321q186 138 397 138q107 0 182 -44q88 -50 88 -143q0 -60 -50 -102.5t-122 -42.5q-68 0 -118 41q-120 -15 -230 -133q130 10 187 10q43 0 90 -30 q53 -34 53 -79q0 -41 -33.5 -65.5t-71.5 -24.5q-6 0 -19 2t-19 2q-85 0 -318 -20q-23 -53 -35 -96q151 12 389 28h4q44 0 73 -31q26 -28 26 -67q0 -77 -78 -96q-54 -13 -410 -35q30 -73 98.5 -118.5t153.5 -45.5q108 0 180 53q6 4 98 97q52 53 111 53q72 0 122 -44.5 t50 -103.5q0 -49 -45 -96q-125 -130 -221 -182q-125 -68 -295 -68q-227 0 -394 129q-158 120 -204 303l-30 -2h-7q-43 0 -72 32q-26 29 -26 67z" />
<glyph unicode="&#x2122;" horiz-adv-x="1778" d="M59 1214q0 50 47.5 88.5t120.5 38.5q32 0 95.5 -8t95.5 -8q44 0 131.5 10.5t132.5 10.5q71 0 120.5 -37.5t49.5 -89.5q0 -53 -49.5 -90t-120.5 -37h-2q-41 0 -62 -2q0 -3 -1 -7.5t-1 -7.5v-149q0 -23 10.5 -66.5t10.5 -64.5q0 -57 -56 -93q-51 -32 -116 -32 q-189 0 -189 264v115q0 5 1 16t2 14q-220 25 -220 135zM784 842q0 62 43 138l72 130q25 60 49 121q42 63 139 63q22 0 61 -46q58 -69 64 -74q110 174 193 174q127 0 168 -109q158 -421 158 -487q0 -57 -58 -94q-51 -33 -117 -33q-95 0 -146 80q-22 37 -52 143 q-111 -111 -158 -111q-24 0 -55 43q-45 59 -47 62q-49 -73 -52 -76q-42 -49 -92 -49q-67 0 -116 33q-54 36 -54 92z" />
<glyph unicode="&#x25fc;" horiz-adv-x="895" d="M0 0v895h895v-895h-895z" />
</font>
</defs>
</svg>
