<?xml version="1.0" standalone="no"?>
<!DOCTYPE svg PUBLIC "-//W3C//DTD SVG 1.1//EN" "http://www.w3.org/Graphics/SVG/1.1/DTD/svg11.dtd" >
<svg xmlns="http://www.w3.org/2000/svg">
<metadata></metadata>
<defs>
<font id="levimarkerregular" horiz-adv-x="583" >
<font-face units-per-em="2048" ascent="1638" descent="-410" />
<missing-glyph horiz-adv-x="573" />
<glyph horiz-adv-x="2048" />
<glyph horiz-adv-x="2048" />
<glyph unicode="&#xd;" horiz-adv-x="573" />
<glyph unicode=" "  horiz-adv-x="573" />
<glyph unicode="&#x09;" horiz-adv-x="573" />
<glyph unicode="&#xa0;" horiz-adv-x="573" />
<glyph unicode="!" horiz-adv-x="391" d="M55 600q0 84 25 225q10 63 26 123q2 4 -6 17q23 70 45 112q10 20 37 39t39 19q10 0 10 -7.5t9 -7.5q8 0 6 4t6 4q10 0 14 -5t6 -5q23 -31 39 -61q-2 -6 -4 -19q2 -2 21 -34v-187q-37 -256 -33 -291q-4 -29 -12 -80q-6 -6 -35 -40q-14 -18 -41 -19h-47q-4 16 -15 41 q-10 0 -10 -14h-24q-14 14 -39 55q-16 35 -17 131zM70 123v43q76 78 108 78q8 0 17.5 -10.5t15.5 -6.5l-18 21q43 -14 43 -45q0 -6 -3 -10q14 -6 41 -29q5 12 5 -29q-20 -12 -68 -43q0 -2 -21 -24q-12 -14 -36 -15q-10 0 -18.5 -7t-10.5 -7q-2 6 -1 20.5t-7 14.5 q-10 0 -17.5 -3t-9.5 -3q-2 16 -20 55z" />
<glyph unicode="&#x22;" horiz-adv-x="475" d="M2 961q0 51 31 145q8 18 18 41q8 14 42 34.5t52 20.5q33 0 84 -37q2 -4 10.5 -18t8.5 -23q0 -8 -12 -47q-14 -45 -19 -65q2 2 72 86q39 47 78 67q14 4 61 4q8 0 25.5 -16t19.5 -22.5t7 -28t5 -29.5q0 -45 -10 -72.5t-78.5 -130t-79.5 -102.5q-8 0 -8 2q0 4 -8 4 q-6 0 -24.5 -20.5t-28.5 -20.5t-8 3t-7 3q-10 0 -13 -6t-5 -6q-16 20 -59 68q-16 -10 -45 -27l-19 14q-33 18 -43 27q-16 14 -24 37q-23 63 -23 115z" />
<glyph unicode="#" horiz-adv-x="991" d="M35 418q0 100 190 123q4 25 -1 37t-5 10q0 49 33 106q-18 10 -65.5 14.5t-63.5 14.5q-27 16 -27 65q0 66 97 93q57 14 114 30q23 27 45.5 53.5t63.5 26.5q14 0 43 -22q2 -39 22 -45h43q70 0 94.5 37.5t59.5 37.5q6 0 35 -24q20 -43 35 -62q29 -37 59 -41q25 -47 24 -63 q0 -6 -10 -33q-35 -27 -104 -69q0 -18 -11.5 -71.5t-11.5 -57.5q0 -10 3 -13.5t3 -9.5q68 0 146 -14q135 -23 135 -74q0 -23 -8 -39q-18 -4 -96 -53q-10 -6 -61.5 -17.5t-76.5 -11.5q-8 0 -18 3t-21 3q-33 0 -32 -41q0 -8 4 -27.5t4 -29.5q8 -12 24 -12v-113 q-29 -16 -77 -55l-15 14l-18 -8q-23 0 -35 16q-18 16 -43 56q-2 8 -4 102q-2 57 -23 82q-25 6 -77 -2q-29 -23 -31 -92q-18 -20 -51 -60q-41 0 -62 31q-25 41 -39 45q12 35 2 68q-20 -4 -63 0l-51 6q-33 0 -55.5 26.5t-22.5 59.5zM416 588q0 -39 35 -39q8 0 38 16 q-2 10 -2 23q0 20 10.5 63.5t12.5 61.5h-51q-43 -127 -43 -125z" />
<glyph unicode="$" horiz-adv-x="808" d="M29 641q0 47 75 123q96 94 99.5 96t9.5 8q6 55 51 174q61 168 123 168q27 0 39 -10q10 -23 33 -45q10 -10 10 -49q0 -8 -8 -88q-4 -27 -33 -82v-25q78 0 156 -16q8 -12 18 -45q29 -12 55 -12l9 -9v-30q-117 -78 -258 -142v-18q39 -25 59 -25q80 0 172 -67 q86 -59 113 -121q43 -96 43 -147q0 -49 -33 -124t-135 -106q-49 -14 -166 -24q4 -35 0 -105q18 -33 6 -51q-8 8 -47 16.5t-49 20.5q-55 61 -90 137q-66 10 -91 16q-59 14 -106 45h20q12 12 13 19q0 8 -20.5 29.5t-20.5 27.5q0 27 22.5 57.5t44.5 30.5q6 0 24.5 -3t45.5 -3 q6 4 6 17q0 80 -31 155q-6 14 -41 19q-39 35 -106 104q-12 68 -12 84zM424 242q39 8 80 16q61 16 61 45q0 33 -141 80v-141z" />
<glyph unicode="%" horiz-adv-x="940" d="M35 709q0 16 12 63q14 57 31 82q27 20 67 70h52q8 -8 8 -29q31 -12 67 -12q8 0 5 7t6 7q10 0 25.5 -18.5t19.5 -38.5q10 -4 24 -15q8 -51 8 -45q0 -49 -52 -125.5t-97 -76.5q-57 0 -113 36q-63 41 -63 95zM205 238q0 72 145 376q111 233 166 328q10 16 60.5 70.5 t66.5 54.5q26 0 51 -66l-205 -421q-18 -43 -51 -117q-31 -61 -76 -182q0 -51 -20 -123q0 -4 8 -17q-2 -2 0 -30q-6 -37 -47 -37q-4 0 -27.5 12t-42.5 8q-29 100 -28 144zM430 281q0 33 31 129q14 23 47 66.5t74 60.5q12 6 112.5 23.5t128.5 17.5q8 0 12.5 -10.5t12.5 -10.5 q10 0 11 6t3 6q58 -98 58 -135t-21 -92q-23 -66 -57 -102q-57 -45 -160 -144q0 -8 6 -14q-2 0 -18.5 -4t-25.5 -4t-9 -4t-8 -4q-14 0 -60 22q-51 25 -73 49q-18 18 -41 66.5t-23 77.5zM621 264h30q31 27 60 53q47 47 47 76q-43 -10 -84 -20q-53 -12 -53 -51v-58z" />
<glyph unicode="&#x26;" horiz-adv-x="866" d="M35 258q0 16 28 111q27 80 109 200q53 76 53 103q0 8 -12 33q-18 39 -41 49q-4 16 -26.5 59t-22.5 53q0 8 15.5 39t15.5 41q16 39 68 77t81 36l13 5q12 5 20 5q10 0 23.5 -5t17.5 -7q25 2 78 -19q29 -23 59 -65q33 -49 33 -76q0 -6 5 -21.5t5 -23.5q0 -47 -10 -72 q-12 -37 -60 -125q-39 -76 -38 -84q0 -31 98 -174q37 14 90 68q68 72 80 78q16 14 76 30q4 -12 43 -51q-14 -12 -15 -22q0 -10 7 -16l8 -7q12 -49 12 -59q0 -39 -82 -125q-63 -68 -94 -90q29 -45 55 -90q29 -51 29 -93q0 -14 -2 -28q-43 -41 -58 -41q-8 0 -7 3t-7 3t-10 -10 t-10 -10t-21.5 4t-19.5 4q-27 31 -37 47q-20 31 -22.5 53.5t-8.5 63.5q0 4 -6 10q-43 -33 -151.5 -74t-159.5 -41q-6 0 -30 11.5t-46 11.5q-2 8 -15 16q-59 16 -88 94q-23 57 -22 121zM113 901v39h12v-39h-12zM270 256q105 35 164 70q-27 55 -69 112q-100 -123 -95 -182z M293 864q0 -8 12 -33q14 16 14 39q-4 0 -13 -3t-13 -3z" />
<glyph unicode="'" horiz-adv-x="284" d="M20 778q0 2 23 82l-4 10q-4 9 -4 19q0 57 42 122.5t91 75.5q29 -23 80 -65q24 -24 24 -51q0 -14 -18 -64q-20 -55 -39 -82q-49 -57 -131 -153q2 8 6 16q2 10 -8 10q-12 0 -39 -12q0 14 -11.5 49t-11.5 43z" />
<glyph unicode="(" horiz-adv-x="382" d="M35 367q0 29 12 127q16 125 37 180q39 106 125 219q18 23 168 117q4 0 6 -7.5t6 -11.5q-18 -10 -51 -67q-20 -18 -47 -64q27 25 76 66q-12 -12 -13 -27q2 0 9.5 3t11.5 3q-18 -31 -58 -90q-27 -33 -63 -96q-27 -74 -31 -148l-7 -70t-5 -59v-206q0 -8 27 -41h-21 q0 -10 -3 -36t-3 -40q0 6 -16 6q-12 0 -13 -12l-16 12q4 -6 -12 -6q-8 0 -6 6t-6.5 6t-30 31t-25.5 41q-10 16 -23 20q-8 16 -20 47q-8 59 -8 97zM362 932v12h25v-12h-25z" />
<glyph unicode=")" horiz-adv-x="485" d="M-16 88q33 35 63 68q41 45 57 80q41 84 82 167q51 106 52 170q0 10 5 35t5 33q0 35 -13.5 88t-27.5 74q-33 27 -80 74q-29 35 -29 63q0 92 103 92q92 0 166 -80q61 -66 96 -168q12 -35 8 -135q8 -26 8 -22q0 -6 -5 -19.5t-5 -19.5q0 -104 -80 -228q-33 -49 -141 -170 q-23 -10 -62 -36q-53 -53 -69 -54q-10 0 -8 7.5t-7 7.5q-8 0 -13 -7.5t-13 -7.5t-8 6q0 8 -11 9q-6 0 -34 -27h-39z" />
<glyph unicode="*" horiz-adv-x="454" d="M18 758q0 16 30 58t38 48q-41 59 -41 66q0 20 23 67q23 10 24 11q10 0 15.5 -3.5t7.5 -3.5q6 6 6 13q16 0 51 -30t39 -30q6 0 60.5 16.5t88.5 16.5q8 0 35 -19.5t33 -21.5q4 -8 18 -22q-8 -12 -49 -64q-33 -43 -32 -51q0 2 8 -35q12 -16 33 -53q10 -12 26 -12v-45 q-18 -16 -43 -56q-6 6 -22 6q-18 0 -19 -18q-68 45 -123 100q-76 -53 -129 -53q-27 0 -22 16q-8 23 -35 48q-20 18 -21 51z" />
<glyph unicode="+" horiz-adv-x="616" d="M23 604q0 61 137 90q6 29 27.5 86.5t37.5 71.5q25 25 82 25q25 0 53 -58q8 -18 11 -61q2 0 2 -9.5t10 -9.5q8 0 72.5 4.5t72.5 4.5l70 -52q10 -18 10 -34q0 -14 -12 -41t-27 -35q-70 -23 -200 -80q-10 -4 -11 -47q-4 -8 -20 -90q-4 -12 -21.5 -44t-17.5 -46q2 -2 -41 -3 q-25 0 -63 37q-18 18 -31 58q-10 33 -21 65v47q-20 6 -57 21q-20 10 -43 53q-20 37 -20 47z" />
<glyph unicode="," horiz-adv-x="368" d="M10 -225q12 12 31 37q-4 4 -12 4v30q0 8 24 58q25 57 31 78q10 33 31 178q8 8 26.5 18t63.5 10q33 0 39 -6q18 -12 51 -22q6 -12 33 -56q14 -22 14 -67q0 -47 -31 -129q-25 -70 -61 -105q-20 -18 -61.5 -39.5t-53.5 -21.5q-86 0 -84 0q-27 33 -41 33z" />
<glyph unicode="-" d="M31 463q0 45 75 90q25 6 73 19.5t155 43.5l12 -14q6 6 31 6q94 0 145 -41q12 -25 35 -71q-2 -21 10 -60q-66 -63 -75 -63q-8 0 -6.5 3t-8.5 3q-25 0 -6 -19q-74 25 -135 25q-8 0 -83 -3t-83 -3q-35 0 -82 22q-57 27 -57 62z" />
<glyph unicode="." horiz-adv-x="223" d="M25 94q18 2 28 16.5t19 26.5q8 4 28 4q59 0 99 -88v-24q-37 -8 -111 -33l-14 14q-6 -2 -11 2q-2 6 1.5 14.5t13.5 12.5l-15 10q-6 0 -30 -22q2 10 -8 67zM37 68l8 -17h12l-10 23z" />
<glyph unicode="/" horiz-adv-x="501" d="M25 346q0 106 174 399q51 82 102 150q4 10 -10 10q37 25 76 49q27 16 55 17q23 0 80 -45q2 -10 14 -38t12 -36q0 -12 -28.5 -79.5t-48.5 -104.5q-59 -92 -160 -267q-20 -41 -51 -131q-16 -53 -47 -82q-14 0 -29 15q-12 -12 -8 -15q-10 -2 -33 -4q-4 6 -14 17 q-4 0 -7.5 -2t-11.5 -2q-4 0 -25.5 28.5t-27.5 34.5q-12 70 -12 86z" />
<glyph unicode="0" horiz-adv-x="765" d="M68 465l30 102q-2 10 -2 29q16 37 56 115q33 53 137 98q92 39 149 39q8 0 45 -10.5t43 -10.5q8 0 28.5 7.5t29.5 7.5q12 0 51 -24.5t53 -45t29.5 -73t15.5 -68.5q0 -74 -28 -127q-57 -102 -226 -238q-25 -12 -73 -45q-76 -66 -138 -65q-16 0 -53 14q-43 16 -63 41 q-27 31 -55.5 121t-28.5 133zM279 430q0 -23 16 -37q90 68 133 111q84 81 102 153h-30q-57 -14 -146 -94q-20 -10 -47 -33q-29 -57 -28 -100z" />
<glyph unicode="1" horiz-adv-x="665" d="M76 631q0 35 98 137q119 125 121 127q16 27 33 53q27 37 53 37q10 0 53 -18q14 -4 39 -21q12 -14 27 -37q25 -41 24 -84q0 -8 -17.5 -121.5t-17.5 -121.5v-129q31 -12 64 -25q45 -23 65 -78v-51q-66 -59 -204 -119q-6 -2 -54 -26q-35 -18 -43 -18.5t-32.5 -4.5t-32.5 -4 q-39 0 -66 25q-23 18 -47 57t-24 51q0 51 45 84q27 20 106 53q-6 51 -6 140q-10 0 -37.5 -14.5t-36.5 -14.5q-12 0 -41 20q-16 12 -32 25q-2 6 -2 18q-35 29 -35 60z" />
<glyph unicode="2" horiz-adv-x="774" d="M88 301q10 10 4 35q2 2 103 147q25 37 51 99q33 80 39 92q-10 12 -13 12q-8 0 -46 -14.5t-46 -14.5q-18 0 -37.5 29t-19.5 51q0 18 35 103q8 20 67.5 44.5t87.5 24.5q90 0 146 -82q45 -70 45 -151q0 -8 -3 -24.5t-3 -24.5q-14 -35 -20.5 -60.5t-26.5 -64.5 q-27 -47 -29 -58q4 -4 12 -4q10 0 10 7.5t9 7.5q70 0 120 16t82 16q8 0 52.5 -12t60.5 -16q-4 -31 -4 -29q0 -2 18 -12q-23 -45 -65 -105q-106 -70 -144 -69q-10 0 -15 -6.5t-9 -12.5q-25 -8 -162 -55q-98 -35 -113 -35q-72 0 -129 45t-57 121z" />
<glyph unicode="3" horiz-adv-x="737" d="M41 301q6 10 20 72q12 0 38 10t34 10t17.5 -7t15.5 -7q8 0 13 4t16 4q8 0 8 -4t8 -4q82 0 108 10q-94 45 -94 127q0 49 41 94q59 63 82 111q-18 2 -64 -16.5t-57 -18.5q-14 0 -55 16q0 4 -18.5 22.5t-18.5 25.5q0 66 17 98q6 12 73 49q84 47 221 47q18 0 42 -18.5 t67 -65.5q43 -82 43 -112q0 -45 -41 -113q12 -6 33 -21q25 -23 67 -75q29 -54 29 -105q0 -59 -29 -98q-43 -55 -69 -76q-59 -47 -121 -55q-45 -2 -129 -12q-33 0 -84 -17q0 2 -6 10q-55 10 -58 11q-18 0 -28 -29q-23 8 -66 22q0 2 19 23q-6 8 -15.5 20.5t-11.5 14.5 q8 0 14 6l-10 10q-14 -14 -20 -14q-10 0 -14.5 5t-6.5 5q16 0 17 16v11q-10 -2 -11 -2z" />
<glyph unicode="4" horiz-adv-x="587" d="M55 557q0 49 54.5 165t91.5 144q16 16 32 11l15 12q20 0 65 -27q-10 -82 -59 -221q-4 -37 -29 -115q4 -4 17 -4q12 0 23 13.5t11 27.5q0 12 -10 17q61 98 96 120q29 18 105 19q2 0 24.5 -20.5t45.5 -20.5q0 -10 7 -34t7 -30q0 -14 -10 -55q-33 -152 -31 -170 q-6 -8 -41 -102q-33 -84 -57 -84q-8 0 -10.5 -7.5t-10.5 -7.5t-25.5 14.5t-25.5 14.5t-6 -4t-8 -4q-8 0 -22.5 14.5t-18.5 16.5q-49 29 -39 135q2 -2 -35 -2q-14 0 -57 12t-56 25q-23 20 -35 67q-8 33 -8 80z" />
<glyph unicode="5" horiz-adv-x="747" d="M41 193q0 31 30.5 67.5t61.5 36.5q6 0 14.5 -6t16.5 -6q10 0 10 10q0 -10 16 -10q29 0 123 30q-98 100 -110 115q-61 74 -70 135q0 4 -8 16.5t-8 18.5q0 10 8 30.5t8 24.5q4 14 80 164q2 14 6 39q14 18 31.5 51t91.5 66q43 20 127 41q74 16 92 16q37 0 137 -71 q50 -121 50 -123q0 -12 -35 -45t-39 -33q-131 0 -142.5 -2t-43 -13.5t-41 -11.5t-60.5 -12l-25 -21q0 12 -10 13q-12 -39 -33 -119q49 -39 97 -76q66 -53 92 -100q49 -88 49 -178q0 -16 -21.5 -46t-42 -35t-59.5 -20q-12 -14 -37 -37q-16 -4 -45 -10q-2 -2 -14 -12t-21 -12 q-82 -20 -122 -21q-31 0 -70 14q-29 12 -56.5 55.5t-27.5 76.5z" />
<glyph unicode="6" horiz-adv-x="641" d="M76 358q0 82 18 172q10 14 19.5 60.5t23 64t27.5 33.5q18 27 14 49q53 41 164 148q2 0 29.5 22.5t95.5 22.5q37 0 76 -25q43 -31 43 -74q0 -35 -31 -76.5t-53 -54.5q-35 -18 -121 -86q10 -10 18 -10q4 0 17 10q-12 4 86 4q31 0 67 -57q14 -20 33 -61l10 -76 q0 -74 -69.5 -168t-136.5 -94q-8 0 -11.5 -7.5t-13.5 -7.5q-8 0 -13.5 7.5t-13.5 7.5t-10 -7.5t-10 -7.5q-10 0 -19 13l-12 12q-43 2 -135 12q-12 2 -41 45q-20 29 -39 60q-12 68 -12 69z" />
<glyph unicode="7" horiz-adv-x="739" d="M76 768q0 68 28 106q20 27 109 64q18 10 49 25q186 43 211 43q29 0 72 -37q47 -43 69 -80q8 0 15 -15q-2 -29 -6 -83q-16 -59 -43 -183q16 -6 102 -53q2 -18 6 -37q4 -31 27 -33q-20 -37 -78 -96q-41 -10 -131 -49q0 -8 -9.5 -33.5t-11.5 -40.5q2 -59 -10 -170 q-4 -10 -18.5 -26.5t-24.5 -16.5q-23 0 -33 -6l-14 12q-14 -12 -20 -12q-20 0 -82 64q-20 20 -27 73q-8 63 -14 78q8 29 2 57q-16 10 -43 29q-12 10 -41 53t-29 60q0 6 14.5 35.5t14.5 42.5q31 20 62.5 37.5t72.5 21.5q12 35 39 111q-8 20 -27 20q-6 0 -21.5 -3t-23.5 -3 q-14 2 -51 -7t-43 -9q-18 0 -68 41q-10 0 -12 -4.5t-4 -4.5q-8 10 -8 29z" />
<glyph unicode="8" horiz-adv-x="716" d="M53 258q14 18 33 49q-8 8 -25 -8q6 37 77 119t71 90t-20.5 43t-26.5 49q-35 94 -35 195q0 63 37 139q139 78 158 78q6 0 18 -3t20 -3q10 0 40 10t40 10q80 0 140 -31q72 -35 122 -106q9 -14 9 -88q0 -33 -31 -90q-27 -45 -53 -90q-16 -29 -72 -97q-47 -57 -47 -67 q0 -6 19.5 -35t25.5 -37q35 -74 41 -137q8 -25 8 -21q0 -45 -29 -118q-8 -16 -43 -60q-45 -51 -67 -51q-8 0 -37 -3t-37 -3q-72 0 -145 28q-45 18 -107 70q-14 10 -26.5 48t-14.5 61q0 8 7.5 25.5t7.5 25.5q0 16 -15 26l-14 -12q0 14 -6 21q-2 -2 -10.5 -12.5t-12.5 -14.5z M256 178l47 -10q62 0 62 55q0 43 -39 53q-25 -33 -70 -98zM352 756q27 -55 43 -70q70 80 125 148q-33 0 -78 -3q-2 0 -6 -11t-13 -11t-20 -2h-10q2 -27 -6 -33q-12 0 -22.5 3t-12.5 3v-24z" />
<glyph unicode="9" horiz-adv-x="688" d="M43 162q0 51 16 84q12 27 68 43q20 0 61 4q2 0 3.5 6t11.5 6q18 0 28 -20q8 0 11 10q33 86 100 274l-74 15q-49 8 -94 37q-2 0 -41 47q-20 27 -24 67q0 2 -9.5 5t-9.5 14q0 20 16 57q-2 8 -4 20q12 41 58 87q39 37 78 75q131 45 161 45q-6 0 99 -41q0 -47 14 -47q8 0 7 4 t7 4t20.5 -5t18.5 -5q23 -39 53 -67q6 -14 0 -29q17 -23 17 -37q0 -6 -4 -53q-6 -55 -8 -78q-20 -80 -66 -248q-23 -37 -53 -133q-2 -8 6 -8q-10 0 -16 -8l-66 -144q-39 -80 -96 -143q-6 -12 -15 -25q-12 -18 -22 -18h-62q-25 0 -68.5 27.5t-51.5 38.5q-20 33 -40 65.5 t-22 63.5q0 2 -4 1t-4 9zM348 768q31 12 45 12q16 0 17 -2q0 18 0 17l20 14v39q-25 0 -53.5 -26.5t-28.5 -53.5z" />
<glyph unicode=":" horiz-adv-x="395" d="M43 346q0 27 37 100q4 6 18 9q12 18 43 45q47 16 88 16q10 0 12.5 -9t7.5 -10t33.5 -8.5t36.5 -7.5q6 0 7 15q2 -12 19 -51.5t17 -47.5q0 -55 -59 -133q-12 -27 -57 -80q-20 -16 -43 -16h-66q-14 0 -20 10t-11 19q-18 20 -55 63q0 12 -4 47q-4 29 -4 39zM98 729 q0 8 27 39q37 39 43 47q29 -12 74 -2q14 -10 26.5 -37t12.5 -39q0 -70 -74 -116q6 -6 18 2q-14 -14 -14 -25q-4 2 -11 12.5t-10 14.5q-6 -6 -6 -15h-20q-8 0 -19.5 8.5t-14.5 8.5t-12 13t-9 22.5t-5.5 34t-5.5 32.5z" />
<glyph unicode=";" horiz-adv-x="450" d="M41 6q0 20 29 92q35 53 96 164q27 59 27 100v35q6 20 33.5 42t52.5 22q37 0 88 -37q16 -12 32.5 -58t16.5 -79q0 -57 -16.5 -100.5t-67.5 -106.5q-59 -72 -117 -100q-45 -23 -51 -23t-35 -3t-37 -3q-23 0 -51 55zM96 676q0 51 49 88q18 6 48 22q6 6 30 35q18 20 29 21 q27 0 53 -56q21 -46 21 -77q0 -37 -66 -84q-53 -37 -102 -56q-2 12 -21 29q-29 25 -31 30t-6 21.5t-4 26.5z" />
<glyph unicode="&#x3c;" horiz-adv-x="563" d="M39 344q-2 20 4 52t33 87q25 37 53 62q88 84 176 166q100 86 174 86q18 0 37 -38t19 -50q0 -31 -46 -80q-31 -35 -86 -78q-76 -59 -86 -70q41 -16 111 -53q29 -20 64 -66q43 -50 43 -79q0 -35 -21 -66q-25 -37 -59 -37q-6 0 -15.5 -7t-17.5 -7t-53 26.5t-64 32.5 q-59 10 -176 45q-20 8 -49 35q-35 35 -41 39z" />
<glyph unicode="=" horiz-adv-x="700" d="M27 422l8 22q68 55 239 86q33 10 95 23q143 16 188 16q-6 0 119 -30q10 -19 24 -19q-14 -8 -36 -28q2 -4 2 -23q-18 -4 -59.5 -19.5t-49.5 -15.5t-7 3t-7 3t-21.5 -8t-17.5 -10q-133 -43 -209 -43q-27 0 -31 -2q6 -10 -10 -10q-8 0 -17.5 6t-15.5 6q-10 0 -38.5 -6 t-37.5 -6q-57 0 -92 8q0 4 6 14zM94 719q0 72 129 110q90 27 170 27q29 0 103 -37l-7 -8q68 -49 68 -94l-41 -64q-39 -20 -63 -24q-256 -45 -250 -45q-4 0 -36 24.5t-48 32.5q-2 12 -13.5 41t-11.5 37z" />
<glyph unicode="&#x3e;" horiz-adv-x="632" d="M23 299q0 10 9 15t9 8q4 29 25 47q100 76 290 200q25 12 25 35q0 27 -59 66q-33 18 -66 37q-2 6 -8 14q-90 55 -90 94q0 35 36.5 63.5t81.5 28.5q55 0 134 -65q70 -59 102 -121q25 -27 63 -80q23 -39 23 -84q0 -72 -90 -170q-18 -18 -74 -45q-66 -31 -80 -41 q-27 -18 -96 -90q-61 -63 -70 -64q-33 0 -47 13q-4 -4 -4 -19h-19.5h-33.5q12 37 -45 90q-2 8 -9 34t-7 34z" />
<glyph unicode="?" horiz-adv-x="526" d="M57 866q0 10 23 56q12 23 57 59.5t64 36.5q8 0 6 -3t6 -3q10 0 54 17.5t52 17.5q66 0 125 -99q50 -80 50 -123q0 -10 -8.5 -11t-8.5 -3q-4 -27 -14 -70q-8 -16 -62 -110q-39 -68 -39 -78t-12 -15.5t-12 -7.5q-2 -8 0 -36q6 -4 14 -15q-2 10 -2 -98q-20 -8 -55 -37 q-23 -18 -53 -18q-8 0 -12.5 3t-12.5 3t-5 -7.5t-5 -7.5q-18 0 -72 41q-45 37 -49 43q-14 37 -14 76q0 82 65 168q86 109 105 160q-4 4 -31 4q-8 0 -39 -14.5t-39 -14.5q-33 0 -67 23q0 10 -4.5 32.5t-4.5 30.5zM84 111q117 156 197 165q16 -47 55 -47v-47q2 -33 14 -43 q-18 -43 -49 -57q-49 -23 -78 -23q-8 0 -11 3.5t-11 3.5t-17.5 -9.5t-17.5 -9.5q-41 0 -54.5 20.5t-27.5 43.5z" />
<glyph unicode="@" horiz-adv-x="1163" d="M31 526q16 29 10 74q-6 49 0 70q16 23 45 73q59 115 154 183q53 37 136 70.5t304 33.5q10 0 111 -18q16 0 47 -6q49 -12 71 -27q51 -33 68 -51q12 -31 41 -82q84 -119 104 -285q8 -66 8 -119q0 -47 -2 -65q-8 -63 -69 -146q-51 -68 -105 -133q-20 -16 -59 -43 q-10 -6 -61 -20q-14 -8 -43 -23q-104 -35 -150 -35q-6 0 -71.5 3.5t-71.5 3.5t-21 8q-45 4 -102 55q-82 74 -88 78q-49 63 -90 182q-4 43 -21 137q-8 -2 -23.5 -28.5t-11.5 -34.5q-25 18 -41 43q-12 4 -26 12q2 8 -2 27l1 1t-1 1q-2 2 -9 2q-8 0 -8 -10q-6 6 -6 16 q0 6 2 16.5t2 16.5q0 18 -22 20zM256 414q0 -59 25 -123q8 -31 34 -80q14 -16 43 -33.5t39 -17.5q6 0 21.5 2t21.5 2q12 -2 45 -8q27 -6 33 -6q2 0 25 8q49 0 82 10q4 0 13 7t17 7q6 0 5 -3t6 -3q39 0 131 51q14 12 43 33l20 10q35 53 64 68q0 12 4 29q37 59 37 131 q0 86 -19 170q-2 4 -31 49q-6 27 -47 74q-8 8 -90 16q-23 2 -69.5 10t-51.5 8q-53 0 -206 -49q-20 -12 -56 -33q-10 -12 -26 -28q-31 -25 -70 -68q-43 -96 -43 -233zM369 502q0 27 41 89t77 87q20 12 76 31l9 8q10 8 18 8t38.5 -19.5t37.5 -19.5q6 0 6 3t8 3q6 0 6 -6t2 -6 q45 -6 60 -37q27 -57 28 -59q2 -35 12 -109q7 -2 25 -10q-6 -14 -20 -39q14 -20 14 -41q0 -18 -29 -88q-23 -12 -26 -12q-6 0 -5 2t-6 2q-10 0 -10 -15q-20 10 -33 11q-37 0 -98 106q-96 -70 -135 -69q-23 0 -45 28q-20 20 -45 66q-4 14 0 69q-6 27 -6 17z" />
<glyph unicode="A" horiz-adv-x="765" d="M16 231l113 506q18 43 64 140q10 0 37.5 30.5t54.5 30.5q18 0 59 -12q-2 18 0 57q10 23 27 80q0 6 47 38t67 32q37 0 100.5 -46.5t78.5 -105.5q38 -166 38 -365v-10q0 -78 -6 -164q0 -6 9.5 -25.5t9.5 -25.5q0 -8 -10.5 -41t-12.5 -53q-6 -88 -10 -174q-8 -111 -37 -166 q-23 -41 -41 -41q2 0 -26 8q-14 14 -41 45q-23 39 -33 74q-8 29 -31 195q-6 16 -29 16q-8 0 -51 -3t-51 -3q-10 0 -43 33q-4 -6 -27 -70q6 -14 0 -29q0 -2 -26 -110q-55 -37 -76 -37q-4 0 -19.5 10t-37.5 10l-7 4q-12 8 -32 33q-23 49 -47 72q8 10 8 20t-9.5 25.5t-9.5 21.5 zM350 481q10 2 56 17q35 10 53 10v377q-55 -8 -56 -8q2 -4 13.5 -42t11.5 -49q0 -8 -40 -141t-38 -143v-21z" />
<glyph unicode="B" horiz-adv-x="1019" d="M82 276q0 213 0 211q0 4 18 146q10 80 35 129q2 6 -4 24q-6 19 -6 32q0 46 35 73q23 16 96 55q84 43 109 43l14 -6q4 0 52 11.5t71 11.5q10 0 38.5 2t37.5 2q29 0 96 -45q61 -43 74 -66q16 -31 16 -84q0 -84 -23 -137q-6 -12 -30 -39q121 -37 192 -100q80 -70 80 -154 q0 -8 -9 -29.5t-9 -31.5q-8 -66 -154 -185q-37 -31 -90 -49q-43 -14 -131 -33q-78 -16 -94 -16q-10 0 -11.5 7t-9.5 7t-20.5 -4t-20.5 -4q-39 0 -63 10q-6 2 -19.5 16.5t-23.5 14.5q-8 0 -43 -37t-43 -37q-82 0 -125 95q-33 70 -35 167zM313 700q18 -43 17 -71 q61 47 147 135h-43q-14 0 -62 -24.5t-59 -39.5zM328 254h51h4q9 0 25 6q20 8 26 8q35 0 152 58q57 29 59 30q39 20 57 43q-49 16 -61 17q-76 0 -160 -17q-6 0 -15 -5t-20 -5q-6 0 -34.5 3t-44.5 3q-8 20 -16.5 29.5t-22.5 11.5v-182z" />
<glyph unicode="C" horiz-adv-x="919" d="M43 377q3 70 3 107.5t-3 41.5q33 143 139 273q117 147 240 147q53 0 117 -22q29 -10 47 -29q12 -20 10 -35q-72 -66 -231 -231q-16 -20 -39 -62q-24 -43 -24 -62q0 -3 1 -5q-14 -39 -14 -86q0 -43 14 -90q8 -10 19 -17q4 0 20 -8t25 -8h34q37 0 197 76q39 20 137 79 q80 49 90 50q8 0 4 -7.5t7 -7.5q12 1 32 11q-20 -6 -20 -31q2 -37 4 -31q-27 -25 -80 -70q0 -10 21 -10q-104 -119 -152 -162q-98 -86 -190 -104q-18 -12 -27.5 -12t-45.5 -3t-44 -3q-16 0 -84 22q-27 8 -70 51q-23 12 -59 43q-61 90 -78 195z" />
<glyph unicode="D" horiz-adv-x="954" d="M35 205l88 583v54q-4 6 -25 6q-22 51 -22 100q0 43 76 76q63 27 108 27q43 0 240 -33l18 -14q109 0 223 -113q23 -23 68 -76q72 -98 72 -231q0 -84 -37 -152q-25 -41 -109 -143q-49 -55 -141 -117q-43 -27 -90 -47q-143 -63 -187 -64q-6 0 -27.5 3.5t-29.5 3.5 q-29 0 -63 -15q-4 -6 -15 -16q-35 -10 -28 -10q-16 0 -54.5 25.5t-42.5 39.5q-4 37 -22 113zM289 287q68 4 196 102q150 113 150 219q0 45 -23 74q-14 16 -48 35.5t-44 19.5t-11 -3t-9 -3q-8 1 -58 21q-45 19 -55 18h-2h-35q0 -25 -4 -104q-1 -32 -1 -56t1 -41 q-6 -41 -33 -145q-27 -94 -24 -100v-37z" />
<glyph unicode="E" horiz-adv-x="1001" d="M41 455q0 8 27.5 116.5t27.5 118.5q0 4 -20.5 37t-20.5 45q0 76 158 143q33 16 90 41q23 8 164 39q160 35 203 35q39 0 100 -16q72 -18 100 -47q2 -12 13.5 -39t11.5 -33q0 -39 -117 -78q-68 -23 -133 -35q-43 -16 -129 -43q-47 -10 -184 -59q-2 -8 -13 -23v-18 q-4 -4 13 -4h-1q1 1 71 23q80 24 147 24q80 0 110 -31q8 -16 25 -45q0 -2 -4 -8q10 -27 10 -29q0 -76 -57 -96q-94 -37 -127 -37q-10 0 -8 4t-6 4q-6 0 -40 -17t-42 -17t-7.5 3t-7.5 3t-41 -15q-39 -16 -55 -18q-6 -4 -6 -31q0 -100 59 -100q80 0 279.5 89t208.5 89 q6 0 35.5 -4t44.5 -4q10 -29 24 -64q-6 -25 -8 -18q6 -6 18 -16q-6 6 -10 0q2 -14 2 -41q-8 -16 -35 -50q-76 -45 -258 -155q-23 -14 -137 -53q-2 0 -3 -9.5t-10 -9.5t-83 -6t-82 -6q-49 0 -145 72q-143 111 -144 315q0 27 2 51q-10 18 -10 23z" />
<glyph unicode="F" horiz-adv-x="831" d="M68 717q0 27 63 162q6 12 28.5 27.5t35.5 15.5q6 0 15 -3.5t19 -3.5q8 0 50.5 24t52.5 24q8 0 6 -3.5t6 -3.5t26.5 9.5t28.5 11.5q37 10 107 24q31 2 145 3q23 0 78 -39q45 -31 64.5 -49.5t19.5 -51.5q0 -29 -18 -63q-10 -4 -33 -20.5t-31 -16.5q-16 0 -31 12h2 q0 2 -102 2q-25 0 -180 -37q-16 -2 -35 -6q-25 -6 -36 -23.5t-7 -52.5q4 -25 8 -49q0 -35 -16 -90v-18q2 -4 12 -17q86 33 174 68q76 27 160 27q8 0 51 -31q12 -12 37 -45q6 -8 16 -55v-25q-8 6 -14 6q-2 -2 2 -16q-14 -16 -12 -21q-18 -10 -62 -28q-35 -8 -92 -27 q-39 -14 -139 -64q-86 -43 -94 -43q-10 0 -8 4.5t-7 4.5q-51 0 -51 -128q0 -25 2 -55q0 -31 -18 -49q-43 -43 -55 -43q-8 0 -17.5 7.5t-20 7.5t-20.5 2q-18 18 -47 49q-14 27 -47 82q-4 39 -4 107t4 165q4 141 4 213q8 6 8 23q0 33 0 30q-2 10 -26 47q-2 8 -2 19z" />
<glyph unicode="G" horiz-adv-x="1120" d="M41 485q0 55 37 172q6 25 72 113q150 121 235 164q109 55 233 55q10 0 33 -26.5t23 -38.5q0 -4 -4 -6q14 -6 32 -29q-8 0 -16 -21q-16 -6 -45 -16q-6 -4 4 -10q4 0 -27 -13q-8 -6 -32 -22q-66 -27 -109 -68l-74 -49q-63 -43 -102 -88q-20 -27 -20 -104q0 -111 63 -172 q55 -53 141 -54q8 0 19.5 6.5t17.5 6.5q115 8 256 149q0 16 -6 17q-10 0 -113.5 -34t-111.5 -34t-43 14q-41 16 -58 21q-63 96 -63 110q0 29 20 50q72 63 234 102q26 6 72 6h25h29q41 0 64 4q55 20 189 47q12 -14 18 -18q4 -16 35 -47q16 -17 16 -54q0 -35 -35.5 -59 t-72.5 -51q20 -31 20 -72q0 -92 -176 -243q-133 -115 -209 -150q-33 -16 -104 -16q-231 0 -356 139q-111 123 -111 319z" />
<glyph unicode="H" horiz-adv-x="841" d="M76 451q0 6 5 24.5t3 24.5q10 8 27 24q10 52 10 83v9q8 47 24 146q-4 12 -4 31q0 57 34 113.5t87 56.5q37 0 78 -39q31 -31 47 -66q8 -20 8 -41v-41q2 -18 19 -31q-4 -43 -19 -133q12 -12 15 -12q31 0 53 53q4 4 12 15q2 16 4 43q0 2 15 24q8 16 4 35q61 47 108 64 q8 0 27.5 6t28.5 6q20 0 45 -23q6 -8 55 -75q16 -25 16 -82t-11 -157.5t-19 -201.5q-16 -131 -48 -201q4 -12 0 -20q-35 -45 -65 -45h-41q-10 0 -45 43t-49 76q-4 8 -13 78q-6 61 -28 90q-35 -6 -94 -33q-6 -66 -13 -133q-18 -121 -49 -121q-6 0 -28.5 -3t-32.5 -3t-12 8 l-1 8q-33 0 -67 45q-29 37 -41 70q-20 51 -21 96q0 20 6 55q4 27 0 41q-2 6 -18 50q-12 33 -12 43z" />
<glyph unicode="I" horiz-adv-x="477" d="M61 147l76 574q14 27 8 53q4 27 49.5 56.5t75.5 29.5q23 0 88 -94q8 -16 19 -51q5 -28 5 -62t-5 -75q12 7 12 -9q0 -10 -4 -11t-6 -3q-4 -33 -10.5 -101.5t-12.5 -103.5q-31 -94 -55 -205q-6 -53 -20 -149q-2 -18 -25 -41q-31 -31 -33 -37q-31 12 -69 16q-18 27 -60 82 q0 23 -33 131zM76 1014q0 6 11 45t15 59q8 8 25 8q8 0 9 -3t11 -3q6 0 38 31t44 37q8 -8 23 -8q0 -23 10 -39l14 12l43 -8q-16 -18 -45 -58l7 -26q-12 -16 -27 -33q-16 -23 -16 -37q-23 -4 -64 -26.5t-47 -22.5q-23 0 -37 26.5t-14 45.5z" />
<glyph unicode="J" horiz-adv-x="901" d="M49 111v39q39 -12 47 -9q-10 6 -28 27q8 8 8 29h24l13 -13q6 6 20 6q8 0 62.5 -33.5t62.5 -33.5t75.5 -3t76.5 -3q55 0 55 135q0 55 -12 82l-19 -19q-18 -4 -70.5 -23.5t-60.5 -19.5h-47q-47 0 -86 23q-47 27 -47 70q0 35 74 102q57 53 86 70q51 27 149 71q2 6 12 19v51 q-12 12 -14 12q-6 0 -29.5 -10t-35.5 -10h-89q-35 0 -76.5 31.5t-41.5 62.5q0 -14 8 43q39 49 88 63q78 25 209 54q113 24 133 24h2q39 0 72 -39q27 -33 26 -55q0 -8 -17 -42t-17 -44q0 -8 4 -21.5t4 -19.5v-25q-2 -16 -2 -28q41 -12 131 -12q2 -18 2 -50q59 -79 59 -110 q0 -39 -31.5 -83t-64.5 -44q6 0 -57 20q-2 -2 -9 -10q0 -35 -6 -111q-4 -92 -6 -120q-2 0 -8 -9q-4 -23 -10 -49t-29 -82q-14 -20 -44 -51t-38 -31q-10 0 -16 3.5t-15 3.5q-6 0 -45 -15q-51 -18 -106 -30q-6 -2 -31 -3q-90 0 -182 41q-109 47 -109 121q0 23 13 47 q4 10 -17 11z" />
<glyph unicode="K" horiz-adv-x="1095" d="M76 256q0 8 5 18.5t5 16.5q2 55 12 178q10 74 49 225q12 29 25 86q-2 6 -8 6q16 20 49 58q18 2 49 2q68 0 109 -139q-4 -29 -4 -86q63 61 200 182q29 23 58 22q29 0 73.5 -49t44.5 -74q0 -104 -237 -268q55 -35 180 -110q115 -80 324 -226q20 -14 41 -43q16 -20 30 -22 q0 -2 -12 -43q-8 -25 -34.5 -55.5t-55.5 -30.5h-41q-63 0 -193 88q-53 31 -141 86q-139 90 -305 162q-16 -76 -31 -105q-25 -47 -69 -47q-31 0 -80 37q-12 10 -25 102q-6 6 -12 12.5t-6 16.5z" />
<glyph unicode="L" horiz-adv-x="684" d="M47 102q0 10 4 9.5t4 1.5q0 4 -3 19t-3 20q4 4 8 10q2 61 29 278q2 27 16 76q12 41 13 59q0 23 -13 35q18 37 27 95q10 68 18 90q4 2 25 22q14 16 25 17q43 0 77.5 -36t47 -94.5t12.5 -85.5q0 -158 -41 -397v-18q2 -4 8 -4q55 25 111 49q47 18 92 18q66 0 121 -45 q4 -6 14 -20q-2 -4 4 -47q-8 -8 -8 -13q12 -14 20 -22q-25 -10 -22 -35q-33 -16 -225 -125q-131 -76 -187 -76q-63 0 -76 11q-98 76 -98 208z" />
<glyph unicode="M" horiz-adv-x="1138" d="M55 256q0 96 107 274q100 164 182 232q57 43 135 43q12 0 57.5 -32t61.5 -58q27 -41 55 -176q20 25 60 102q43 90 67 127q18 16 49 59q2 6 32 16.5t34 10.5q6 0 113 -86q10 -23 28 -68q2 -23 11 -67q12 -59 12 -137q0 -4 -19 -121q-18 -127 -24 -195q-2 -39 -8 -108 q-2 -23 -19 -62q-23 -51 -39 -51q-10 0 -8 3t-6 3t-15.5 -10t-15.5 -10q-16 0 -65 26q-25 12 -48.5 42t-25.5 44q-4 25 -12 76q-1 6 -1 19q0 50 13 198q2 0 -12 -20q8 -33 -5.5 -60.5t-33.5 -107.5q-16 -55 -47 -94q-8 0 -23 14q-4 -2 -12 -14.5t-19 -12.5q-41 0 -59 8 q-45 23 -68 56q-37 55 -43 162q-6 84 -10 165q-2 10 4 29q-4 2 -9 4t-9 6q-41 -37 -96 -202q-6 -59 -35 -172q-14 -31 -37 -70q-72 8 -105 43q-14 25 -47 74q-10 10 -27.5 36.5t-17.5 61.5z" />
<glyph unicode="N" horiz-adv-x="901" d="M47 147q0 8 31 215q27 106 35 136q23 84 51 143q14 0 49 7t43 7q43 0 70 -16q35 -16 94 -64q82 -94 143 -233h8q8 0 10.5 10t3.5 19.5t1 109.5v205q0 2 6 35t4 47q33 37 49 37q8 0 21.5 -6t21.5 -6t15.5 3t15.5 3t16 -11.5t12.5 -13.5t20.5 -65q4 2 12 8q6 -2 41 -31 q8 -34 8 -75q0 -20 -2 -42q-3 -21 -3 -37q0 -21 5 -32q11 -27 11 -19q0 -18 -33 -217q-27 -70 -74 -219q-82 -80 -96 -80q-8 0 -13.5 10.5t-13.5 10.5q-4 0 -4 -13q6 0 -24 25q-18 -4 -56 4q-47 27 -88 76q-31 37 -63 106q-31 61 -60 123q-8 -6 -18 -24q-18 -82 -23 -156 q3 -19 3 -49q0 -15 -1 -33l-14 -33q-12 -23 -12 -39q-8 0 -14 7q-2 0 -9.5 -13.5t-15.5 -13.5l-12 6h-76q0 47 -41 57q-25 25 -27 82q0 6 -4 22.5t-4 26.5z" />
<glyph unicode="O" horiz-adv-x="829" d="M92 301q0 29 17 78q-2 2 -7 8q4 33 13 88q18 61 57 135q35 47 70 95q50 67 85 67h1q25 0 37 -20.5t41 -20.5q8 0 49 8q49 12 69 17h-1q0 2 67 2q45 0 85 -34t40 -71q67 -35 67 -137q0 -8 -6 -42t-6 -48q-14 -41 -39 -123q-51 -61 -143 -178q-35 -31 -90 -88 q-133 -51 -187 -51q-45 0 -92 30q-53 33 -84 103q-43 102 -43 182zM311 219h37q174 74 256 334h-24q-53 -23 -123 -79t-97 -97q-14 0 -32 -4q-16 -10 -17 -70q0 -47 11 -67q-4 -6 -11 -17z" />
<glyph unicode="P" horiz-adv-x="813" d="M68 119q0 131 30 315q2 16 13.5 38t11.5 34q0 10 -6 24q25 10 53 33q-12 12 -20 12q14 12 4 33q-20 -20 -31 -20v69q0 33 55 97q-8 6 -20 -2q0 12 2 30q31 35 135 60q86 18 151 18q68 0 138 -37q61 -33 108 -94q12 -14 23.5 -52t23.5 -52q4 -12 4 -45q0 -203 -174 -306 q-16 -8 -77.5 -25.5t-75.5 -17.5q-66 0 -111 9q-16 -40 -16 -95v-12q0 -78 -4 -102q-6 -14 -15 -41q-4 -35 -43 -111q-4 -12 4 -20h-18q-12 -2 -20 -2q-27 0 -50 24q-20 18 -39 39q0 20 -8 74q-8 61 -10 84q0 6 -9 19.5t-9 21.5zM199 582q80 0 82 -150q18 -8 43 -8 q35 0 110 53q84 62 84 113q0 23 -23.5 44t-50.5 21q-143 0 -182 -10q-20 -4 -55 -24q0 -16 -8 -39z" />
<glyph unicode="Q" horiz-adv-x="1026" d="M39 324q0 4 31 161q-4 6 -11 7q31 49 54 110q45 59 90 119q59 78 110 92q25 14 76 37q59 16 141 16q78 0 119 -16q23 -10 25 -23q41 -6 104 -26q2 0 20.5 -15.5t28.5 -15.5t11.5 6t3.5 6q18 -33 32 -55q0 -10 8.5 -34.5t26.5 -28.5q12 -51 13 -48q-1 -57 30 -65 q-10 -66 -18 -127q-55 -109 -178 -223q6 -6 30 -47q10 -39 39 -117q25 -45 52 -92q36 -64 36 -101q0 -16 -24 -88q-42 -30 -61 -30h-1q-8 0 -17 -7.5t-17 -7.5q-20 0 -64 31q-63 45 -121 129q-16 23 -84 156q-23 -12 -71 -33q-70 -23 -113 -23q-8 0 -23.5 3t-25.5 3l-19 13 q-104 16 -149 86q-29 45 -55 117q-29 80 -29 131zM279 324q0 -113 57 -113q8 0 30.5 4t30.5 4q2 6 17 21q-16 35 -17 88q0 57 25 82q4 4 48 21.5t65 17.5q20 0 48.5 -20.5t63.5 -59.5h25q27 33 59 88q20 12 35 63q8 33 16 64q-6 0 -16 8t-33 10q-29 2 -37 6q-80 25 -139 25 q-111 0 -147 -23q-29 -18 -88 -104q-2 -4 -3 -12q-10 -25 -26 -68q-14 -57 -14 -102z" />
<glyph unicode="R" horiz-adv-x="1081" d="M57 113v182q0 14 8.5 46t8.5 48t-6 29q12 41 26 188q10 119 43 174q31 33 51 41q14 0 41 4q20 16 64 37q106 31 209 31q37 0 65 -16q8 -6 80 -74q8 -20 35 -51q16 -45 16 -95l-32 -90q-10 -35 -39 -90q-43 -49 -105 -86q291 -109 496 -198q4 -6 33 -43q24 -29 24 -39 q0 2 -5 -16.5t-3 -33.5q-82 -55 -92 -55h-62h1q0 3 -152 41l-191 74q-6 0 -18 7t-21 7q2 0 -245 82q-2 -4 -35 -119q-23 -76 -74 -121q-31 12 -59 25q-39 23 -45 49q-16 66 -17 62zM307 582q2 -6 9.5 -17.5t5.5 -15.5q-16 -27 -11 -60q18 8 39 17q41 41 84 82q56 61 60 98h1 q-1 1 -17 4q-20 4 -56 4q-39 -6 -111 -28q0 -49 -4 -84z" />
<glyph unicode="S" horiz-adv-x="690" d="M33 557q0 20 24 61q8 25 39 74q45 49 132 88t149 39q49 0 119 -31q23 -10 57 -61q2 -18 12 -53q-25 -33 -116 -62q-109 -35 -156 -69q31 -20 160 -66q102 -37 149 -96q23 -29 35 -62q25 -65 25 -110q0 -8 -12.5 -25.5t-14.5 -23.5q-14 -94 -129 -164q-102 -63 -207 -64 q-6 0 -26.5 6.5t-32.5 4.5q-33 8 -88 32q-14 20 -58 54q0 2 15 16q-8 12 -9 25q0 6 2 16t2 12q0 10 -16 13q6 12 14.5 25.5t18.5 13.5t12 -3.5t4 -3.5l2 17q2 10 13 10q8 0 22 -3t23 -3q8 0 46 7t46 7q47 0 127 58q-8 2 -29.5 13t-30.5 11q-8 0 -6 -4t-6 -4t-15 12t-14 12 q-78 25 -108 39q-72 33 -117 91q-2 10 -4 26q-12 20 -43 62q2 12 -4 33.5t-6 29.5zM401 -86l9 25q12 0 24 -27q-33 0 -33 2z" />
<glyph unicode="T" horiz-adv-x="831" d="M45 743.5q10 20.5 12 30.5q31 27 58 37q2 8 -4 14q4 -4 17 5.5t21.5 9.5t9.5 3t9 3t243.5 24.5t243.5 24.5l88 -23q-2 -8 -2 -14q0 -18 21.5 -50t21.5 -44q0 -6 -9 -22.5t-7 -28.5q-6 0 -16 -8q0 -12 -4 -39q-35 -31 -68 -31q-2 0 -79 -6t-118 -6q0 -41 2 -134 q12 0 13 -14q0 -8 -17 -63q-18 -61 -22 -88q-6 -44 -6 -78v-17q-8 -4 -9 -28q0 -63 -4 -162q0 -14 -30 -59q-39 -55 -72 -56q-63 0 -111 49q-20 23 -37 99q-12 66 -12 108q0 -2 7.5 41t9.5 115q30 91 30 152q0 15 -2 28q16 18 17 47v33q2 -2 -35 -2q-53 0 -105 29 q-65 36 -65 92q0 8 10 28.5z" />
<glyph unicode="U" horiz-adv-x="866" d="M82 297q0 4 7 72.5t7 97.5q14 41 35 123q-2 12 0 28q14 14 28.5 50.5t22.5 47.5t33 29.5t57 18.5q53 0 90 -86q12 -119 13 -121q0 -6 -14.5 -54t-15.5 -69.5t-9 -81t-8 -65.5q0 -20 14 -21q18 0 86 60.5t68 66.5q6 49 34 150q8 4 52 45q29 27 39 26q8 0 17 -10t17 -10 q10 0 11 10q0 -10 14 -10q8 0 15 -9.5t14 -4.5l-13 -17q39 -37 60 -94q2 -18 10 -43q53 -438 53 -483q0 -27 -41 -84.5t-67 -57.5q-57 0 -101 76q-31 53 -41 105q-6 8 -14 28q-4 66 -27 168q-37 -59 -163 -149q-33 -23 -84 -23q-57 0 -88 31q-111 102 -111 260z" />
<glyph unicode="V" horiz-adv-x="790" d="M47 702q0 43 2 39q6 6 41 78q41 -4 111 -16q72 -86 114 -246q33 -133 66 -264q6 0 12 -6q2 10 13 32q8 2 22 13q20 47 45 143q-2 16 0 55q20 162 62 232q25 43 55 43q12 0 46 -17.5t50 -33.5q12 -35 37 -47q-2 -2 -6 -9.5t-6 -11.5q26 -22 26 -47q0 -4 -47 -135 q-51 -147 -67 -215q-2 -10 -21 -51q-12 -31 -12 -56q0 -10 2 -22q-16 -43 -105 -219q-53 -37 -92 -37q-20 0 -67 26.5t-54 36.5q-20 27 -61 96q-12 27 -61 158q-14 39 -29 117q-16 88 -25 123q-51 172 -51 241z" />
<glyph unicode="W" horiz-adv-x="1060" d="M41 508q0 53 25.5 103.5t70.5 50.5q61 0 99 -84q18 -61 38 -123q4 -47 31 -142q23 18 30 50t11 67t8 72q8 53 23 78q43 61 94 61q18 0 68.5 -47t52.5 -53q10 -80 41 -248q4 10 14 26q33 98 68 306q41 252 51 299q25 16 47 57q18 33 37 68l10 8t21 8q6 0 71 -51 q12 -10 24.5 -41.5t12.5 -54.5q0 -70 -18 -179q-23 -96 -56 -278q4 -18 5 -55q-10 -51 -35 -156q2 -8 4 -21q-25 -63 -62 -184q-10 -16 -28 -43q-68 -84 -174 -84q-33 0 -99.5 53.5t-72.5 75.5q-6 -12 -29 -80q-12 -35 -49 -62.5t-74 -27.5q-98 0 -180 227q-10 18 -21 50 q-14 88 -41 266q-15 92 -17 92q-1 0 -1 -4z" />
<glyph unicode="X" horiz-adv-x="800" d="M74 735q0 37 53 60q18 2 74 2q27 0 123 -78q31 -35 106 -105q18 25 59 64q68 51 115 51q18 0 78 -51q37 -33 37 -98q0 -33 -57.5 -128.5t-57.5 -91.5q0 -16 47 -86q53 -78 58 -90q36 -82 36 -98q0 -25 -20 -56.5t-37 -39.5q-12 8 -53 8q-51 0 -164 135q-72 -90 -135 -194 q-14 -23 -55 -23q-8 0 -11.5 -3t-11.5 -3q2 0 -33 8q-4 2 -10 19q-12 4 -33.5 28.5t-36.5 32.5q-2 10 -6 32.5t-4 30.5q0 55 23 107q16 39 73 121q53 74 54 82q0 16 -52 69q-61 59 -61 62q-25 35 -68 106q-18 33 -20 49q-10 59 -10 78z" />
<glyph unicode="Y" horiz-adv-x="794" d="M47 797q0 8 7 27.5t9 29.5q61 31 62 31q27 0 47 -8q78 -39 147 -187q10 -27 50 -90q0 4 6 21q6 12 -2 26q33 18 57 66q18 43 37 88q12 8 47 49q16 6 53 29q23 14 49 14q61 0 93 -53l36 -70q-4 4 -14 -4q12 -22 12 -44q0 -12 -4 -24q-6 -20 -16 -61q-4 -14 -31 -45 q6 -6 13 -6q-37 -39 -74 -133q-57 -147 -60 -154q-33 -49 -88 -152q-25 -55 -47 -153q-2 -2 3 -13.5t5 -21.5q0 -25 -12 -78q-18 -67 -42 -67h-1q-8 0 -32.5 -3.5t-30.5 -3.5q-25 0 -39 17q-33 25 -82 76q-23 35 -23 135t29 184t59 168q-10 10 -18 14q-70 23 -139 170 q-66 137 -66 226z" />
<glyph unicode="Z" horiz-adv-x="1202" d="M61 78q0 57 80 149q51 53 103 105q-16 0 -49 6q-39 14 -56 65l-16 74q35 16 102 47q45 6 129 23q2 2 5 11t14 9q8 0 7 -4t7 -4t45 80q8 20 29 66q-2 2 -3 10t-12 8q-6 0 -50 -13.5t-54 -13.5q-6 0 -13 6.5t-18 6.5q-39 0 -71 43q-29 37 -29 65q0 8 8 18.5t8 14.5 q20 45 97 76q64 26 107 26h3q25 0 72 -12q55 -14 69 -31q6 -6 99 -112q18 -20 18 -84v-80q4 0 105 -2q151 -4 151 -91q0 -7 -16.5 -30t-18.5 -31q-14 6 -59 6q-6 0 -32.5 -13t-43.5 -19q-47 -8 -92 -17q-57 -14 -86 -55q-57 -90 -125 -162q12 -4 46 2t39 6t57.5 17.5 t76.5 21.5q295 49 334 49q23 0 73 -16t54 -27q-4 -10 12 -28q13 -44 13 -60q0 -10 -8 -15l-9 -5q6 -25 -18 -49q-37 -35 -41 -41q-51 -18 -158 -56q-4 0 -174 -30q-20 -10 -29.5 -10.5t-182.5 -34t-181 -33.5h-76q-168 0 -205 69.5t-37 98.5z" />
<glyph unicode="[" horiz-adv-x="718" d="M88 461q0 147 14 315q2 35 2 72t17 59q18 31 39 54q2 0 26 10q18 6 27 6q10 0 15 -3t14 -3q4 0 48 14t66 16q121 16 158 17q47 0 47 -23v-2q0 -6 -6 -12q4 -6 30.5 -16.5t26.5 -28.5q0 -10 -24 -47q-33 -10 -101 -23q-6 -4 -4 -14q-16 -16 -39 -16q-96 0 -116 -27 q0 6 0 -236q0 -121 -21 -274q-20 -47 -22 -113v-82q4 -4 14 -4q8 0 150 29q164 35 221 45l16 -14v-72q-20 0 -61 -33q-47 -39 -56 -41q-172 -63 -213 -63h-47q-6 0 -48 10t-62 12q-14 10 -27 27q0 8 -8 45q-6 29 -4 43q-35 37 -49 78q-12 35 -19 156q6 14 4 32q-8 70 -8 107 z" />
<glyph unicode="\" horiz-adv-x="630" d="M27 936q0 70 77 70q35 0 78 -25q51 -29 121 -115q61 -74 88 -131q55 -113 101 -264q23 -109 83 -313q17 -43 17 -68t-19 -51q-25 -33 -24 -33q-2 0 -10.5 6t-18.5 6q-8 0 -25.5 -10t-23.5 -10q-29 35 -33 35q-6 0 -20 -15q-57 68 -111 207q-37 113 -74 224 q-31 66 -79 186q-14 43 -95 203q-8 14 -18 49t-6 45z" />
<glyph unicode="]" horiz-adv-x="684" d="M41 43q0 12 28.5 45t123.5 76q102 45 157 45h33q4 4 2 41t2 121q4 92 4 106q6 2 10 21v217q-8 6 -7 27.5t-5 31.5q-2 -2 -22.5 -15.5t-30.5 -13.5q-33 0 -45 -6h-6q-47 0 -78 35q-23 31 -23 64q0 37 23 55q96 72 221 72q39 0 45 -4q76 -35 109 -103q20 -43 28 -135 q2 -35 12.5 -104.5t10.5 -75.5q0 -59 -39 -447q-2 -12 -19 -33q-25 -31 -28.5 -33.5t-14 -7t-22.5 -4.5q-8 0 -26.5 3.5t-28.5 3.5q-47 0 -82 -29q-27 -23 -90.5 -52.5t-96.5 -62.5q-2 2 -39 33q-27 23 -34 23q-8 0 -18.5 -3.5t-24.5 -3.5q-2 12 -17 62q-12 43 -12 51z" />
<glyph unicode="^" horiz-adv-x="651" d="M47 578q0 14 39 92q35 68 45 82q29 41 152 178q2 0 32 24q25 18 33 19q111 0 178 -86q43 -59 90 -201q0 -6 7.5 -38t7.5 -40q0 -51 -17 -80q-14 -8 -39 -24q-2 0 -13 -12.5t-19 -12.5h-35q-41 0 -66 23q-39 35 -77 123q-35 78 -37 77q-18 0 -117 -114q-8 -16 -31 -53 q-37 -35 -86 -35q-25 0 -39 8q0 10 -4 35.5t-4 34.5z" />
<glyph unicode="_" horiz-adv-x="761" d="M41 0q0 53 115 88q86 25 145 25q145 0 264 -11q55 -4 152 -30q4 -8 0 -29q-4 -17 16 -35q-12 -12 -33 -37q-41 -8 -84 -16q-53 -12 -90 -12q-246 0 -296 -10.5t-85 -10.5t-69.5 22.5t-34.5 55.5z" />
<glyph unicode="`" horiz-adv-x="401" d="M10 1151q0 70 40 119t97 49q29 0 55.5 -23.5t30.5 -40.5q2 -49 25 -143q23 -27 57 -82q72 -143 72 -176q0 -8 -21.5 -31.5t-29.5 -23.5t-39 7t-38 7t-75 45q-49 33 -98 97.5t-59 113.5q-16 76 -17 82z" />
<glyph unicode="a" horiz-adv-x="712" d="M68 236q0 35 51 113.5t102 111.5q23 16 94 39l13 9q12 9 22 9q8 0 48 -23.5t48 -23.5t8.5 3t8.5 3q10 0 10 -7t2 -9q59 -6 76 -45q33 -72 37 -76q2 -45 14 -137q8 -5 33 -15q-8 -16 -29 -49q20 -23 21 -51q0 -25 -37 -113l-12 -8q-13 -8 -23 -8q-8 0 -6 3t-6 3 q-12 0 -13 -18q-27 12 -43 12q-39 0 -77 55q-23 41 -45 82q-127 -90 -175 -90q-29 0 -57 37q-25 27 -57 82q-2 10 -2 32.5t2 57.5l-4 5q-4 5 -4 16z" />
<glyph unicode="b" horiz-adv-x="665" d="M35 61q0 4 12 70t12 98q2 119 41 226q16 45 31.5 135t28.5 131q10 18 26 53q6 12 31 31.5t43 19.5q29 0 45.5 -14t40.5 -35q23 -29 23 -96q0 -10 -5.5 -12t-7.5 -4q0 -37 -20 -142q2 -4 10 -16h21q39 12 71 12q63 0 94 -26l74 -86q0 -8 4 -37t4 -37q0 -74 -51 -162 t-123 -127q-78 -43 -98 -43q-8 0 -41 7t-41 7q-25 0 -50.5 -45t-66.5 -45q-6 0 -15 10.5t-17 10.5q-10 0 -17.5 -3t-9.5 -3q-2 12 -19.5 29.5t-21.5 27.5q-8 23 -8 65zM274 158h25q51 31 86 90q22 45 45 92q-33 -10 -65 -18q-47 -14 -68 -37q-8 -43 -23 -127z" />
<glyph unicode="c" horiz-adv-x="694" d="M76 256q0 35 53 127q47 84 66 98q66 51 102 62q55 16 106 16q10 0 9.5 -5t6.5 -6t42 -32q39 -37 39 -59q0 -8 -8.5 -20.5t-10.5 -16.5q-41 -8 -90 -67.5t-49 -96.5q0 -31 25 -31h41q8 0 98 34t98 34q43 0 51 -8q-10 -41 -37 -117q-31 -43 -102 -117q-45 -39 -74 -49 q-60 -22 -79 -22h-1h-24q-8 0 -24.5 8t-22.5 10q-119 10 -193 203q-23 57 -22 55z" />
<glyph unicode="d" horiz-adv-x="800" d="M41 250q0 10 34 76.5t56 101.5q4 4 51 45q35 33 31 51l16 -12q2 0 9.5 7t16.5 7t16.5 10.5t11.5 14.5q63 29 106 29q8 0 8 -3.5t9 -3.5q20 0 36 19q0 6 6.5 22.5t6.5 24.5q0 49 26.5 84t71.5 35q10 0 15 -4t7 -4q6 6 23 55q0 -6 -2 -19.5t-2 -21.5q0 -29 18 -39 q29 -14 37 -27q0 -6 10.5 -18t14.5 -21q25 -68 31 -122q2 -106 22 -322q10 -51 10 -57q0 -70 -18 -127q-4 -2 -27 -31q-18 -20 -26 -20h-31q-27 0 -60.5 23.5t-64.5 82.5q-23 43 -43 84q-35 -35 -82 -86q-10 -12 -75.5 -48t-80.5 -36q-6 0 -44 10t-54 10q-23 35 -68 105 q-6 12 -6 37q2 33 0 45q-2 6 -9 19.5t-7 23.5zM299 240q59 28 143 104v43h-7q-47 0 -89 -51q-39 -47 -47 -96zM410 551h18v10h-18v-10z" />
<glyph unicode="e" horiz-adv-x="565" d="M68 246q0 82 12 114q59 166 145 224q12 0 35 4q12 10 37 24q27 8 78 9q23 0 31 -21q4 6 4 12q35 -2 65.5 -22.5t32.5 -52.5q0 -2 5 -8.5t5 -16.5q0 -27 -10 -57q-4 -6 -16 -27l10 -12q34 37 34 56q0 3 -1 5q2 -5 2 -10q0 -23 -36 -60q-44 -45 -73 -55q-12 -4 -59 -35 q-38 -26 -62 -26h-2q-8 0 -14 2q-4 -8 -4 -41q0 -88 125 -88q14 0 20 6l17 -14q41 -14 47 -15q0 -6 -6.5 -25.5t-6.5 -25.5q-10 2 -27.5 -3t-17.5 -15q0 -6 6 -13q-6 -6 -55 -32q-33 -18 -29 -39h-57h-2q-7 0 -27 8q-24 10 -32 10q-20 4 -21 -4q0 -2 2 -6q-8 0 -28 6 q-82 98 -97 123q-31 53 -30 121z" />
<glyph unicode="f" horiz-adv-x="778" d="M27 260q0 18 14 43t51 37t72 22q14 80 49 242q-4 6 -12 19q14 18 43 116q23 23 40 51.5t58 47.5q72 28 96 28h2q18 0 31 -26q8 -18 16 -37q-6 -6 -6 -21l11 -10q0 -27 -9 -37q-16 -20 -22 -37q-6 -14 0 -39q6 -31 4 -41q-18 -31 -19 -59q0 -25 17 -39q-8 6 -14 6 q0 -27 -13 -77q18 -18 27 -19q20 0 63 7t64 7q96 0 125 -24q18 -14 30 -47q9 -24 19 -49q-8 -12 -23 -50l-34 7q-10 0 -22.5 -12.5t-18.5 -14.5q-27 0 -74 -10q-41 -20 -105 -33q-53 -12 -84 -33q-12 -111 -53 -299q-6 0 -18 -4q-2 0 -7.5 -12.5t-15.5 -12.5q-18 0 -18 -14 q-33 12 -64 17q-20 16 -55 47q-6 31 -14 90q-4 51 -4 88.5t4 60.5q-45 20 -88 44t-43 77z" />
<glyph unicode="g" horiz-adv-x="866" d="M20 270q0 86 70 191q16 23 78 74q70 59 98 59q6 0 15.5 -7t19.5 -7q6 0 24.5 12t27.5 12t28.5 2t28.5 2q10 0 19 -10t13 -12q-4 -16 9 -39q-8 2 -35 -12l24 -23q4 6 4 12h23h2q51 0 74 -104q8 -53 14 -109q12 -74 21 -141q18 12 59 39q89 49 128 49h3h29q20 -29 63 -78 q-4 -25 -24 -69q-35 -39 -181 -136q0 -12 27 -20q-2 0 -8 2t-15 2q-10 0 -51 -35t-53 -59q-23 -43 -41 -125q-23 -104 -33 -133q-51 -160 -98 -160q-10 0 -8 3t-6 3t-17.5 -13t-17.5 -13q-20 0 -47 22q-12 12 -25 23q-20 4 -53 32q-14 18 -35 62q-2 25 -8 41q-2 4 1 11t3 9 l-6 11q0 78 78 176q33 29 84 96q6 57 20 170q8 33 23 100l-11 10q-16 -18 -39 -61q-16 -18 -32 -35q-33 -33 -51 -33q-8 0 -33 -3t-33 -3q-31 0 -76 36t-55 63q-18 43 -19 116zM217 266q63 16 148 92q4 12 12 39q16 27 39 80h-29q-43 0 -109 -80q-61 -75 -61 -125v-6z" />
<glyph unicode="h" horiz-adv-x="782" d="M37 283q0 92 43 274q0 25 2 74q0 6 8 35.5t8 48.5q0 16 -6 26q31 25 41 107q16 109 23 127q23 63 86 63q27 0 77 -39q16 -43 19 -79q-6 -12 10 -13q8 0 11 3t6 3v-227q-20 -37 -21 -106q0 -78 -14 -111l12 -12q-4 8 12 8q8 0 24.5 16.5t22.5 20.5q29 16 76 16 q23 0 80 -27.5t66.5 -40t29.5 -38.5q10 -37 41 -68q12 -39 29 -129q4 -13 4 -68q0 -88 -20 -116q-33 -51 -82 -51q-25 0 -68 22q-49 27 -74 131q-8 33 -28 98q-57 -37 -104.5 -102.5t-49.5 -110.5q-66 -80 -80 -79h-35q-35 0 -73.5 38.5t-59.5 114.5q-16 55 -16 191z" />
<glyph unicode="i" horiz-adv-x="587" d="M47 270q0 90 57 193q20 27 62 86q18 6 55 18q39 -27 78 -39q41 -63 41 -98q0 -66 -35 -145h-2q0 2 68 2q8 0 59 27.5t62 27.5q8 0 11 -10t11 -10t27 -3h24q-4 -23 -28 -49q-27 -33 -31 -43q-12 -33 -39 -90q-31 -47 -102 -106q-23 -14 -66 -43q-4 -2 -33 -2 q-219 0 -219 284zM61 764q0 29 31 55q27 18 55 39q59 2 89 8q2 -4 16 -16.5t14 -20.5q0 6 -10 -41q-6 -4 -53 -43q-33 -29 -42 -28.5t-26.5 -2.5t-25.5 -3q-16 0 -32 23.5t-16 29.5z" />
<glyph unicode="j" horiz-adv-x="657" d="M0 -348q0 6 7 47t9 57q12 20 58 123q6 16 39 68q31 45 30 53q0 6 -7 36t-9 42q-25 238 -25 270q0 59 17 107q4 18 29.5 47.5t35.5 29.5q72 0 111 -47q31 -55 61 -108q-2 -16 -2 -34q0 -54 19 -118q33 25 133 109q77 69 88 69q8 0 5 -7t5 -7q10 0 15.5 10.5t7.5 10.5 q14 -14 28 -15v-30q0 -33 -30 -103q-51 -117 -125 -190q-25 -16 -47 -33q-33 -23 -41 -51q-4 -12 -4 -27q0 -18 8 -57t8 -58q0 -134 2 -134v1q-4 -94 -35 -168q-2 -25 -18 -61q-18 -18 -54 -29l-20 -22q-29 0 -80 4t-55 4q-37 0 -76 31q-45 37 -53 39q0 10 14 22q0 6 -24 27 q-25 57 -25 92zM109 696q0 57 24 78q78 72 211 72q10 0 37 -16.5t35 -18.5q-2 -8 -17.5 -22.5t-15.5 -28.5q0 -8 6 -21q-20 0 -49 -18q-10 -10 -35 -29q-23 -10 -84 -45q-33 -18 -53 -18t-39.5 26.5t-19.5 40.5zM158 -283v-45q16 12 17 32t1 36q-6 -8 -18 -23z" />
<glyph unicode="k" horiz-adv-x="772" d="M47 205q0 6 12 24q0 8 -4 21.5t-4 17.5v14q0 29 6 70q12 78 13 82q6 66 6 211q0 16 10 63.5t16.5 72t28.5 71.5q18 29 53 29q70 0 118 -154q0 -33 5 -102q2 -4 6 -22.5t4 -24.5q0 -16 -6 -46t-6 -36v-54q16 2 29 -6l225 144q20 -4 53 -17q14 -12 39 -35q2 -12 9.5 -45.5 t7.5 -42.5q0 -31 -45 -65q-25 -18 -50 -37q53 -33 158 -100q2 -10 10.5 -42t8.5 -42q0 -6 -5.5 -19.5t-3.5 -21.5q-10 -18 -30 -29q-59 -29 -95 -29q-6 0 -16 6.5t-18.5 6.5t-37 4t-36.5 4q-14 0 -223 35q-4 -29 -15 -82q-18 -51 -67 -90q4 0 -10 14q-4 -2 -15.5 -11.5 t-21.5 -9.5t-26.5 14.5t-33.5 12.5q-49 106 -49 246z" />
<glyph unicode="l" horiz-adv-x="440" d="M35 242q0 51 37 274l20 184q18 117 74 166h5q65 0 120 -104q14 -27 14 -55q0 -20 -2 -74v-76q0 -4 6 -12t6 -17q0 -8 -20.5 -132t-20.5 -132v-26q25 0 76 -2q20 -12 58 -39q22 -70 22 -88q0 -8 -8 -21.5t-10 -24.5q-4 -31 -19 -40q-78 -49 -127 -50q-224 0 -224 234 q0 13 1 26q-8 -6 -8 9z" />
<glyph unicode="m" horiz-adv-x="1079" d="M41 106v199q12 6 12 31q-2 39 -2 43q2 4 10 149q0 12 11.5 45t11.5 43q59 53 70 54q27 0 73 -31q6 -4 43 -72q74 51 149 100.5t150 49.5q45 0 105 -70q53 -61 59 -100q8 10 46 25.5t52 15.5q27 0 84 -39q49 -35 58 -45q33 -49 43 -90q8 -33 8 -72q0 -104 -27 -217 q-41 -166 -114 -166q-6 0 -17.5 -7t-19.5 -7q-20 0 -41 20q-33 31 -45 37q-2 8 -19 45q-10 29 -10 45l41 258l-12 12q-37 -39 -55 -90q-27 -78 -27 -79q2 -6 2 -21q-2 0 -37 -98q-25 -70 -53 -86l-53 -29q-31 0 -71 24.5t-48 41.5q-29 55 -29 102q0 6 13.5 43t18.5 53.5 t34 120.5q4 0 14 8q6 20 0 39q23 23 23 43v45q-31 -10 -91 -45q-35 -25 -106 -78q-2 -72 -19 -161q2 -2 5 -9q-20 -227 -113 -227q-10 0 -18.5 5t-10.5 5q-47 12 -76 62q-23 41 -22 75z" />
<glyph unicode="n" horiz-adv-x="724" d="M61 80v147v-1q3 0 70 323q27 16 31 35l22 10q16 6 27 6q12 0 48 -18.5t52 -32.5q10 -35 29 -107q84 55 131 56q25 0 107 -43q41 -23 69 -127q23 -85 23 -148q0 -53 -27 -211l-37 -37q-32 -28 -61 -28h-2q-10 0 -35 17.5t-33 17.5q-10 0 -8 -3.5t-6 -3.5t-64 97 q0 12 -4 28q2 18 0 56q-2 43 -2 57q-39 -29 -69 -82q-47 -86 -52 -92q-27 -37 -55 -37q-8 0 -13 7t-14 7q-10 0 -11 -4t-9 -4q-14 0 -60.5 45t-46.5 70z" />
<glyph unicode="o" horiz-adv-x="624" d="M35 242q0 131 39 254q18 61 59 88q57 37 137 37q4 0 35 -6.5t45 -6.5q25 -10 131 -30q31 -16 76 -54q25 -32 25 -118q0 -6 -3.5 -22.5t-3.5 -25.5q0 -14 -13 -42.5t-13 -39.5q-6 -41 0 -55q-18 -33 -60 -94q-14 -20 -61 -70q-29 -29 -84 -66.5t-68 -37.5h-61 q-84 0 -137 110q-43 90 -43 179zM233 270q0 -14 7.5 -38.5t7.5 -32.5q61 16 125 106q55 78 63 131h-22q-45 -6 -88 -12q-53 -10 -75 -40q-19 -25 -19 -89q0 -12 1 -25z" />
<glyph unicode="p" horiz-adv-x="694" d="M55 -86q0 41 11 281q6 27 14 79q-4 8 -10 9q2 0 10 8q18 119 35 170q33 112 77 112h1q6 0 22 -7t25 -5h8q16 27 66.5 57.5t82.5 30.5q100 0 172 -82q20 -4 29 -16q51 -134 51 -189t-51 -174q-8 -6 -23 -28q-16 -57 -59 -113q-41 -45 -80 -90q-63 -74 -137 -82 q-17 -17 -17 -49q0 -12 3 -27q2 -39 4 -106q-12 -31 -31 -88q-4 0 -14 6q-20 -20 -25 -21q-31 0 -37 -6h-8h-2q-17 0 -43 37q-10 23 -35 62q-39 160 -39 231zM309 205q20 25 60 98q49 88 49 121q0 41 -72 41q-25 0 -37 -16v-244z" />
<glyph unicode="q" horiz-adv-x="847" d="M27 250q0 84 36 178q12 33 5 47q14 0 18 8q115 219 303 219q16 0 66 -16q14 -12 47 -35q0 -6 6 -20.5t8 -18.5q-6 -4 -12 -10v-16q29 -18 65 -19q8 0 10.5 3t10.5 3l31 -20l18 6q49 -115 49 -133q0 -8 -6 -13t-6 -7q-6 -31 -21 -89q-6 -25 4 -61q-8 -2 -16 -14 q1 -10 1 -21q0 -41 -17 -96q-18 -59 -37 -121q2 -4 4 -10q-12 -35 -41 -107q2 -6 5 -11t15 -5q8 0 46 10t51 10q115 20 118 21q4 -4 4.5 -11t4.5 -10q16 -4 51 -10q45 -51 45 -90q0 -37 -37 -84q-12 27 -37 27q4 0 -92 -56q-8 0 -10 5q0 4 -8 4q-29 0 -207 -93 q-12 -14 -27 -30q-27 -29 -47 -29t-43 -6q-68 47 -104 84q0 8 -4.5 35.5t-4.5 38.5q0 23 27 170q14 76 29 151q-14 4 -54 -2q-45 -6 -47 -6q-45 0 -90 29q-8 6 -37 47q-18 14 -45 49q-6 35 -26 98q-2 4 -2 27zM260 246q57 25 59 26q37 16 62 39q25 16 59 54q6 12 35 65 q23 43 23 51t-11.5 31t-11.5 33q-2 0 -4 -3t-10 -3q-16 0 -4 10q10 4 32 4q0 4 3.5 17.5t3.5 15.5q-43 -16 -99 -49q-37 -43 -96 -125q-43 -84 -41 -109v-57z" />
<glyph unicode="r" horiz-adv-x="563" d="M45 403q0 33 37 160q4 4 11 10.5t18 6.5q20 0 73 -52q10 -23 35 -71q57 106 62 110q37 53 92 54q23 0 79 -36t68 -57q17 -30 17 -53t-39 -51q-2 -2 1 -9t3 -12q-14 -8 -43 -8q-8 0 -22.5 10.5t-22.5 10.5q-10 0 -45 -37q-51 -57 -80 -172q-5 -21 -5 -56q0 -17 1 -38 q-16 -53 -21 -82q-18 -4 -12 -21q-32 -30 -81 -30h-3q-84 0 -107 110q-2 10 -9 147.5t-7 165.5z" />
<glyph unicode="s" horiz-adv-x="712" d="M14 98v84q16 0 37 14.5t31 14.5q8 0 64.5 -6t64.5 -6q57 0 158 24q-23 37 -74 72q-49 100 -49 145q0 6 10 44t12 53q2 31 31 68.5t66 53.5q70 31 131 31q10 0 94 -24q8 -12 28 -33q2 -10 3 -55q0 -66 -31 -84q-104 -59 -105 -62q14 -23 105 -84q78 -51 88 -104 q0 -8 9 -34t9 -36q0 -102 -121 -151q-92 -39 -176 -50q-72 -8 -147 -8q-12 0 -100 39q-37 16 -97 16q-14 25 -41 78z" />
<glyph unicode="t" horiz-adv-x="706" d="M20 516q0 57 140 121q16 6 37 43q2 14 10 41q23 53 61 158h25q-9 -39 -9 -73q0 -59 27 -104q25 2 80 15.5t64 13.5q43 0 69 -18q14 -18 47 -60q-4 -12 6.5 -40.5t10.5 -34.5q0 -12 -18.5 -37t-18.5 -37q0 -6 2 -10q-45 0 -113 -13q-23 -4 -73 -30.5t-56 -26.5l-12 6 q-4 -27 -18.5 -96.5t-14.5 -77.5q0 -45 62 -45q45 0 133 41q53 25 108 49l13 11q14 10 22 7h43q0 -53 19 -53q10 0 12 2t4 2q4 -14 2 -43q-11 -27 12 -47q-12 -31 -51 -82q-25 -18 -159 -78.5t-152 -60.5q-6 0 -48 7t-50 7q-102 0 -158 111q-10 18 -19 96q-2 4 -7 18.5 t-5 22.5q0 10 20.5 80t22.5 78v33q-33 2 -53 39q-16 31 -17 65z" />
<glyph unicode="u" horiz-adv-x="663" d="M68 317q0 8 32 187q29 37 27 57q53 53 63 53q23 0 43.5 -22.5t40.5 -46.5q6 -68 21 -254q0 -6 8 -19q27 12 64 33q16 20 12 53q4 14 12 39q29 76 45 105q39 61 92 78q2 0 62 -37q10 -12 28 -35q31 -57 31 -107q0 -18 -6 -34q7 -7 19 -17q-10 4 -27 -26q-10 -25 0 -39 q-18 -18 -27 -49q-12 -51 -18 -156q-2 -2 -6 -8q0 -33 -39 -76t-78 -43q-47 0 -76 35q-4 4 -49 80q-63 -27 -90 -27q-88 0 -141 109q-43 86 -43 167z" />
<glyph unicode="v" horiz-adv-x="665" d="M47 481q0 29 51 103q20 10 27 10q18 0 66.5 -33t50.5 -41q18 -41 49 -125h12q2 8 19 25q10 10 10 33q16 16 41 51q2 10 10 31.5t55 50t64 28.5q18 0 61 -24q25 -14 47 -27q0 -6 8.5 -27.5t8.5 -33.5q0 -4 -6.5 -32t-6.5 -42q-43 -86 -98 -180q4 -10 -2 -19 q-53 -88 -176 -270h-39q-14 0 -63.5 49t-57.5 64q-41 80 -106 243q-25 84 -25 166z" />
<glyph unicode="w" horiz-adv-x="839" d="M27 467q0 10 5 11t5 3q2 20 0 62q6 12 12 28q27 16 43 17q8 0 13.5 -10.5t13.5 -10.5t6 3t8 3q16 0 47 -45q20 -68 62 -206q16 12 30 53q25 72 25 74q0 10 4 34q8 14 24.5 42t22.5 40q5 2 13 2q19 1 51 -15q44 -22 61 -44q29 -31 43 -98q10 -59 21 -117q23 0 32 26 q8 18 15 39q4 4 26 48q-8 23 -8 38q0 18 17.5 50t15.5 57q-6 2 41 2q10 0 12 13.5t4 13.5q39 -39 70 -66q0 -20 14.5 -67.5t14.5 -53.5q0 -51 -23 -125q-23 -63 -43 -129q-2 0 -41 -63q-18 -20 -47 -60q-35 -51 -113 -51q-49 0 -96 43q-31 31 -63 60q-14 -20 -31 -42 t-37.5 -31t-75.5 -9q-92 0 -143 168q-33 113 -41 245q0 8 -5 34t-5 34z" />
<glyph unicode="x" horiz-adv-x="667" d="M20 35q0 68 52 131q14 20 78 86q49 53 49 61t-19.5 43t-25.5 50q-25 78 -25 100q0 37 43 121h49q51 0 88 -47.5t70 -94.5q49 31 96 64q35 18 88 18q6 0 20.5 -11t20.5 -13q17 -33 17 -68q0 -61 -23 -90l-74 -70v-22q41 -14 74 -43q-2 -12 4 -37q6 -31 6 -35 q0 -27 -16 -39q4 -10 -2 -22q-35 -41 -62 -41h-36q-25 0 -61 17.5t-73 35.5q-76 -59 -125 -141q-8 -25 -30 -74q-6 -2 -26.5 -12.5t-29.5 -10.5q-53 0 -73 29q-43 63 -48.5 71.5t-5.5 43.5z" />
<glyph unicode="y" horiz-adv-x="630" d="M52.5 540q25.5 60 45.5 60q88 0 129 -51q12 -14 25 -66q8 -39 37 -53q14 27 43 74q23 18 67 59q-8 4 43 4q35 0 79 -32t44 -89q0 -4 -9 -34.5t-9 -46.5l-21 -35q-8 -27 -34 -82q-4 -10 0 -33q-23 -39 -62 -117q0 -18 -10 -49q-37 -51 -51 -139q16 -14 14 -49v-56 q-4 -16 -18 -43q-49 -49 -76 -49q-6 0 -16.5 7.5t-18.5 7.5t-6 3t-6 3q-47 0 -82 80q-23 53 -27 92q-10 18 -10 22q0 45 24 162q14 23 37 105q-18 20 -48 36.5t-60 57.5q-6 10 -27 63q-22 63 -22 100q0 28 25.5 88z" />
<glyph unicode="z" horiz-adv-x="790" d="M55 109q0 49 37 88q55 59 72 92q-82 27 -82 104q0 12 24 62q61 16 191 51q14 4 22.5 26.5t16.5 45.5v18q4 4 -10 4q2 0 -42 -16.5t-89 -16.5q-23 0 -41 43q-10 20 -11 41q0 68 64 113q57 41 125 41q12 0 52 -19.5t44 -19.5q59 -12 94 -72q18 -29 41 -157q18 -10 31 -11 q8 0 12 3t12 3t48.5 -19t56.5 -24q0 4 0 -32q0 -18 14 -31q-18 -20 -63 -49q-51 -8 -150 -31q-33 -10 -55 -59q-16 -39 -33 -78q11 -2 26 -2q22 0 54 4q63 8 62 8q8 0 36.5 6t38.5 6q45 0 75 -29.5t30 -72.5q0 -18 -22.5 -57t-28.5 -43q-80 -35 -82 -35q-8 0 -6 3t-7 3 q-12 0 -28 -16q-27 -4 -320 -47q-18 -12 -18 -13q-8 0 -3 7.5t-3 7.5t-8.5 -3.5t-8.5 -3.5q-33 6 -59 17q-61 23 -76 55q-33 66 -33 105z" />
<glyph unicode="{" horiz-adv-x="700" d="M20 383q0 8 12.5 44t16.5 46q47 20 101 68q-6 14 -54 106q-35 68 -35 103q0 8 4.5 21t4.5 20q-8 90 61 153q63 61 152 57q39 0 69 11q12 -23 49 -64q-4 -8 -77 -69q-66 -57 -66 -82q0 -6 20.5 -103.5t20.5 -107.5l-31 -82q0 -2 -30 -33q49 -47 69 -113q12 -55 23 -110 q2 -8 0 -23q-4 -18 -4 -24q-4 2 59 2l99 37q98 36 134 36q31 0 70 -15.5t39 -35.5q0 -37 -45 -96q-12 -16 -35.5 -36.5t-150.5 -94.5q-137 -82 -166 -82q-8 0 -42 4t-42 4q-14 0 -47 22.5t-54 47.5q-33 43 -55 164q2 41 -2 135q0 2 -25 33q-4 0 -13 4t-15 4q4 8 4 16 q0 14 -9 24z" />
<glyph unicode="|" horiz-adv-x="370" d="M47 498q0 98 25 333q6 14 14 41q0 20 4 62q4 23 25.5 59.5t42.5 48.5q12 2 43 17l16 -15q63 -23 76 -112q0 -63 2 -127q0 -20 5 -68.5t5 -54.5q0 -10 -4 -11t-4 -3q-4 -14 -6 -95q2 -133 0 -395q-14 -23 -37 -61l-14 -5q-15 -6 -25 -6q-23 0 -37 -6l-4 23q-2 12 -10 12 t-7 -4t-7 -4q-102 0 -103 371z" />
<glyph unicode="}" horiz-adv-x="473" d="M20 66q0 20 48 47q59 37 61 39q-2 23 -16 88q-10 55 -11 65q0 20 35 180q12 16 13 23q0 8 -13.5 48t-13.5 48q0 2 43 105q47 113 67 192q6 29 -4 49q16 18 17 35q0 4 -10 37q-4 12 -31 18q-16 4 -33 9q-70 35 -70 79q0 47 99 48q113 0 180 -111q55 -88 55 -176 q0 -53 -41 -162q-29 -70 -55 -139q55 -18 74 -19q2 -2 6 -11t8 -9q-6 -29 -25 -66q-33 -29 -81 -88q-2 -4 -7 -59q-2 -16 4 -70q6 -61 7 -92q0 -59 -17 -90q-23 -20 -73 -49q-104 -29 -121 -29q-35 0 -74 14q-20 35 -21 46z" />
<glyph unicode="~" horiz-adv-x="913" d="M27 442q0 14 37.5 59.5t54.5 55.5q61 41 92 61q29 10 82 33q41 18 131 19q18 0 55 -24.5t74 -61.5q6 -4 31 -49q16 -29 43 -29h26q23 0 68 65q20 35 41 70q8 10 43 29l6 -14q6 -13 16 -13t16.5 3t8.5 3q6 -20 18 -57q-10 -41 4 -45q0 -45 -8 -68q-20 -47 -41 -92 q-6 -12 -37 -41q-23 -23 -16 -33q-131 -57 -186 -57q-10 0 -14.5 8t-6.5 10q-43 -10 -116 68q-61 68 -80 117q-43 -23 -109 -72q-82 -61 -104 -78l-17 15q-14 -14 -26 -15q-43 0 -54 58q-2 37 -2 71q-14 -12 -22 -12t-8 16z" />
<glyph unicode="&#xa7;" horiz-adv-x="536" d="M47 1313q0 90 88 90q33 0 78 -44t53 -67q39 -129 39 -164q0 -39 -18 -120q-37 -37 -37 -78q-37 8 -78 -21q0 2 -20 29q2 10 2 27q-35 106 -103 305q-4 14 -4 43zM311 1274q0 129 62 129q16 0 37 -17q2 -6 8 -16q10 0 28 -4q27 -47 39 -86q8 -27 19 -102q4 -41 4 -39 q0 -6 -3 -17.5t-1 -17.5q-23 -45 -74 -133q-12 -23 -53 -23q-10 0 -26.5 14.5t-24.5 16.5q20 20 20 29q0 6 -9 27.5t-9 31.5q-2 49 -15 135q-2 8 -2 72z" />
<glyph unicode="&#xa8;" horiz-adv-x="600" d="M53 860q0 94 58 217q66 150 153 150q31 0 84 -72q-2 -14 10 -55q-57 -57 -75 -160q0 2 59 90q43 63 102 98q27 16 43 17q39 0 88 -23q0 -2 -12 -14l19 -21q-8 -25 -31 -63q-23 -27 -168 -203q2 -4 2 -28q-2 0 -9 3t-18 3q-14 0 -61 -80q-14 0 -45 -8q0 25 6 81t6 58v45 q-27 -4 -40 -38t-25 -64q0 2 -6 12q-8 -8 -25 -45q-14 -29 -22.5 -29t-21.5 -3t-24 -3q-10 0 -23.5 16.5t-15.5 28.5q-8 43 -8 90zM262 901h10v33h-10v-33z" />
<glyph unicode="&#xa9;" horiz-adv-x="935" d="M61 836q0 39 72 245l35 47q45 63 72 78q4 8 11 17.5t17 9.5q8 0 9.5 -4t7.5 -4q0 2 -6 10q0 12 22 29q121 84 174 84q8 0 8 -3.5t9 -3.5q49 41 67 41q76 0 150 -30q18 -8 57 -47q53 -55 65 -66q-14 -33 7 -33q10 0 12 3t4 3q25 -80 47 -157q29 -91 29 -152 q0 -4 -14.5 -56t-16.5 -79q-2 -70 -41 -135q-43 -76 -113 -137q-8 -6 -90 -45q-25 -18 -82 -43q-55 -16 -65 -17q-8 0 -11 7.5t-12 7.5q-8 0 -40.5 -3.5t-41.5 -3.5q-49 0 -88 15q-119 47 -192 192q-61 123 -62 230zM205 840q0 -98 14 -148q20 -61 76 -94q39 -23 57 -23 q10 0 35 -4t31 -4h18q4 0 23 13q39 -2 102 18q72 23 101 53q37 41 61 137q22 83 22 140q0 8 -4 39.5t-4 44.5q-2 27 -30 100q-4 6 -13 16q-78 6 -69 7q23 -10 30 -29q31 -61 31 -111q0 -6 -21.5 -30.5t-39.5 -24.5t-32.5 20.5t-43.5 20.5q-84 0 -103 -84q-2 -4 -10 -21.5 t-8 -25.5q0 -6 21 -72q12 0 35.5 -3t31.5 -3t31.5 6t32.5 6q31 0 45 -36q-2 0 -62 -62q14 -14 15 -18q-16 -6 -48 -21q-2 -10 -12 -22q-6 -2 -22.5 -5.5t-24.5 -3.5q-49 0 -111 54q-53 49 -71 98q2 10 4 27q0 12 -7 38.5t-7 32.5q0 31 18 45q-8 29 4 66q20 70 64 113 q25 20 45 20q16 0 10 -4q-14 -12 -25 -39q-6 -18 -14 -39q10 6 22 16q2 10 7 27q57 76 186 76q-47 25 -47 24q-8 0 -52 -20.5t-53 -20.5q-8 0 -13 3.5t-13 3.5q-16 0 -70 -45q-31 -18 -74 -54q-6 -12 -18 -39q-51 -109 -51 -159zM516 1102h39v12h-39v-12zM571 1128l45 7v12 l-45 -6v-13z" />
<glyph unicode="&#xaa;" horiz-adv-x="624" d="M31 551q0 20 24 59q6 23 37 70q41 47 124 84t142 37q45 0 111 -29q20 -10 55 -59q2 -16 11 -49q-23 -33 -109 -60q-102 -33 -150 -65q29 -20 152 -64q98 -33 143 -90q20 -27 33 -59q23 -60 23 -105q0 -6 -12.5 -22.5t-12.5 -22.5q-14 -92 -123 -158q-96 -59 -196 -59 q-4 0 -23.5 6t-32.5 4q-33 8 -84 31q-14 18 -53 51q0 2 12 15q-8 12 -8 24q0 6 2 15.5t2 13.5q0 8 -16 10q6 10 14 23.5t19 13.5q10 0 11 -3t3 -3t4 13t10 13t21.5 -4t21.5 -4t44 7.5t42 7.5q35 0 121 53q-6 2 -26.5 13t-28.5 11t-6 -3t-6 -3t-15.5 10.5t-11.5 12.5 q-74 23 -102 35q-68 33 -113 86q0 10 -4 24q-12 20 -39 60q2 10 -4 31.5t-6 27.5zM88 -590q0 18 29 88q33 51 90 156q27 55 26 94v35q6 18 33 38.5t49 20.5q33 0 82 -35q14 -10 30.5 -55t16.5 -74q0 -55 -14 -97t-63 -99q-57 -70 -111 -96q-43 -23 -47 -23q-10 0 -37 -3 t-35 -3q-20 0 -49 53zM381 -57l6 22q13 1 25 -24q-31 0 -31 2z" />
<glyph unicode="&#xad;" d="M31 463q0 45 75 90q25 6 73 19.5t155 43.5l12 -14q6 6 31 6q94 0 145 -41q12 -25 35 -71q-2 -21 10 -60q-66 -63 -75 -63q-8 0 -6.5 3t-8.5 3q-25 0 -6 -19q-74 25 -135 25q-8 0 -83 -3t-83 -3q-35 0 -82 22q-57 27 -57 62z" />
<glyph unicode="&#xae;" horiz-adv-x="993" d="M53 829q0 78 24.5 155t92.5 173q45 61 122 111.5t136 60.5q2 10 19.5 24.5t29.5 14.5q8 0 6 -3t9 -3q8 0 31.5 13.5t31.5 13.5q102 0 220 -74t140 -146q8 -8 23.5 -27.5t28.5 -56.5q22 -79 22 -161q0 -133 -80 -285q-92 -172 -221 -215q-74 -25 -201 -25q-33 0 -119.5 32 t-101.5 44q-98 80 -176 182q-2 8 -4 21q-33 45 -33 151zM203 840q0 -57 57 -129q59 268 162 331q20 -20 18 -32q2 0 6.5 3t14.5 3q6 0 16 -19q4 -29 10 -75q35 -4 95 59q-8 -4 -17 -4q-37 0 -81 37t-44 69q0 18 25 54q82 20 106 20q72 0 125 -33q70 -45 70 -129 q0 -23 -18 -77q-8 -20 -39 -54.5t-31 -40.5q0 -31 92 -92q76 144 76 250q0 80 -37 141q-18 31 -132 77t-161 46h-55q0 -6 6 -14q-90 -41 -166 -137q-72 -88 -90 -168q-8 -37 -8 -86zM379 612q131 -45 149 -45q37 0 127 23q0 -1 23 22q-39 23 -100 82q-51 49 -101 99 q-23 -29 -49 -99q-23 -61 -49 -82z" />
<glyph unicode="&#xaf;" horiz-adv-x="1261" d="M53 475q27 39 64 55q135 53 504 58q31 2 102.5 4t77.5 2q2 0 67.5 -4t98.5 -6q117 0 116 0q74 -6 117 -41q-4 -2 -10 -6.5t-10 -6.5q12 -10 30 -32q17 -33 17 -47q0 -27 -41 -58q-23 -16 -76 -26q-139 -25 -154 -25h-241q-6 0 -34 -6t-36 -6q-10 0 -44 3t-42 3 t-152.5 -20.5t-152.5 -20.5h-47q-29 0 -68 24.5t-55 53.5q-10 16 -16 49q-8 41 -15 53z" />
<glyph unicode="&#xb1;" horiz-adv-x="712" d="M41 260q0 53 31 82q8 8 101 39t146 43q-6 12 -21 14l-30 4q-63 82 -63 160q0 29 12 45q-14 10 -41 25l-14 -13h-39q10 20 2 39l-14 -12q12 37 -23 57q20 23 43 47.5t49 32.5q6 6 19 17q27 8 51 14q37 14 41 33q2 31 18 82q10 18 37 40.5t39 22.5q131 0 131 -160v-18 q158 -47 158 -125q0 -10 -29 -47t-37 -37q-14 0 -38.5 -5t-34.5 -7h-48q-29 -2 -36 -19.5t-7 -46.5q0 -18 -14 -43q-6 -23 -12 -43q-10 -35 -37 -39q8 -8 16 -8q10 0 39 3t37 3q215 0 215 -129q0 -6 -3 -18t-3 -19q-2 -14 -13.5 -20t-11.5 -12q0 -4 2 -11q-63 8 -227 -20 q-39 -6 -149 -31q-94 -18 -103 -18q-8 0 -20.5 3t-20.5 3q-25 0 -61.5 36t-36.5 56z" />
<glyph unicode="&#xb2;" horiz-adv-x="1236" d="M25 434v25q16 6 47 33q449 25 538 22l17 12q0 -12 8 -12h90l13 7q14 7 22 7q25 0 94 -14q2 4 8 5t10 5l-20 19q-16 10 -43 14q-18 29 -35.5 56.5t-17.5 50.5q0 53 86 53q98 0 225 -66q150 -78 150 -178q0 -14 -25 -139q-4 -25 -55 -64q-41 -31 -78 -45q-115 -53 -182 -53 q-18 -10 -27.5 -10t-105 -7.5t-103.5 -7.5q-25 0 -41 17q18 23 43 65q0 -6 14 -6q39 0 215 111q-180 45 -256 45l-403 -8q-6 0 -25.5 9t-31.5 9q-14 0 -46 -2t-38 -2q-18 0 -39 23q0 10 -8 26z" />
<glyph unicode="&#xb3;" horiz-adv-x="1048" d="M61 463q12 18 13 51q-2 49 -2 51q18 55 114.5 131t155.5 90q8 2 44 17.5t44 15.5t35 -6t35 -6l18 6q8 0 24.5 -14.5t20.5 -16.5q-2 -2 -10 -20q16 -55 16 -47q0 -18 -18 -29q-4 -2 8 -8l346 20q-22 0 119 -20q0 -23 -23 -78q-14 -18 -108 -37q-82 -14 -119 -14 q-8 0 -32.5 3t-32.5 3t-31 -10t-31 -10h-135q-72 0 -186 -37q16 -10 51 -27q4 -10 20 -22q188 -35 170 -35q8 0 9.5 3t11.5 3q8 0 9 -10.5t9 -10.5h29q4 0 4 13q16 -14 27 -15q-8 -12 -29 -30q0 -4 20 -25q-27 -6 -75 -20q-6 -2 -16.5 -16.5t-18.5 -14.5t-7 3t-8 3 q-8 0 -10 -10.5t-10 -10.5t-8 5q0 4 -8 4q-18 0 -56.5 -14.5t-56.5 -14.5q-6 0 -38 7t-40 7q-96 0 -166 72q-18 18 -41 59q-27 49 -37 62z" />
<glyph unicode="&#xb4;" horiz-adv-x="417" d="M14 940q0 20 29 88q35 53 96 158q27 57 27 98v33q6 20 34.5 40.5t51.5 20.5q37 0 88 -35q18 -14 33.5 -60t15.5 -73q0 -53 -15.5 -96t-68.5 -102q-59 -70 -115 -97q-45 -23 -49 -22q-10 0 -38.5 -3t-36.5 -3q-23 0 -52 53z" />
<glyph unicode="&#xb7;" horiz-adv-x="393" d="M41 551q0 29 12 45q16 31 60 78q25 10 63 33q8 6 45 47q25 31 39 30q39 0 74 -77q31 -68 31 -109q0 -51 -93 -119q-74 -51 -143 -76q-4 16 -31 39q-39 33 -42 40t-9 31t-6 38z" />
<glyph unicode="&#xb8;" horiz-adv-x="387" d="M-10 -209q0 20 26 88q33 49 88 150q25 55 25 94q0 33 2 33q6 18 31.5 38.5t48.5 20.5q31 0 80 -35q12 -10 28.5 -54t16.5 -73q0 -53 -14.5 -93t-61.5 -97q-55 -68 -108 -94q-41 -20 -47.5 -20.5t-33 -3.5t-34.5 -3q-20 0 -47 49z" />
<glyph unicode="&#xba;" horiz-adv-x="735" d="M35 139v84q16 0 36.5 14.5t30.5 14.5q8 0 64.5 -6t64.5 -6q57 0 158 24q-23 37 -74 72q-49 100 -49 145q0 6 10.5 44t12.5 53q2 31 30.5 68.5t65.5 53.5q70 31 131 31q10 0 94 -24q8 -12 29 -33q2 -10 2 -56q0 -66 -31 -83q-104 -59 -104 -62q14 -23 104 -84 q78 -51 88 -104q0 -8 9.5 -34t9.5 -36q0 -102 -121 -152q-92 -39 -176 -49q-72 -8 -148 -8q-12 0 -100 39q-37 16 -96 16q-14 25 -41 78zM164 -356q2 0 84 61q53 39 53 49q0 6 -33 49q-16 23 -16 58q0 16 37 69q10 0 38.5 4.5t37.5 4.5q18 0 73 -15q63 -16 72 -28 q0 -27 11 -88.5t11 -67.5q0 -53 -36 -92q-78 -78 -191 -137q-16 -8 -39 -9q-8 0 -20.5 7.5t-18.5 9.5q2 14 -12 24q-20 12 -22 15q-12 20 -29 86z" />
<glyph unicode="&#xc2;" horiz-adv-x="878" d="M47 174q0 25 23 123q27 90 57 250q29 125 59 209q16 27 41 80q6 4 41 38q27 27 56 27q18 0 59 -14q4 6 2 22q-4 23 -4 27q0 61 37 104q18 20 57 40t53 20q35 0 99 -45q25 -18 49 -56q16 -27 35 -55q43 -154 32 -559q0 -6 10.5 -26.5t10.5 -26.5t-11.5 -40t-11.5 -50 q-2 -63 -8 -211q0 -33 -26 -101q-29 -80 -60 -80q-8 0 -31 23q-31 29 -41 35q0 6 -5 24.5t-9 26.5t-14 23q-4 35 -12 102q-20 25 -21 90q-14 25 -27 25q-8 0 -53 -4.5t-53 -4.5q-10 0 -43 35q-8 -23 -31 -73q4 -8 4 -27q-20 -152 -106 -152q-4 0 -19.5 10.5t-40.5 10.5h-4 q-23 33 -88 104q0 2 4 14.5t6 20.5q-16 23 -16 41zM272 1290q0 25 66 105l70 78q43 59 133 161q12 10 73 11q10 0 40 -20.5t44 -41.5q33 -45 43 -70q20 -59 47 -159q23 -93 23 -109q0 -43 -30.5 -81t-71.5 -38t-80 23q-29 16 -68 61q-10 14 -29 64q-16 43 -24 43 t-61.5 -51.5t-61.5 -51.5t-23.5 4.5t-23.5 4.5h-29q-8 0 -16 9t-10 13t-6.5 19.5t-4.5 25.5zM389 430q10 2 57 16q38 13 56 13v387q-57 -8 -58 -8q27 -57 27 -95q0 -8 -41 -145t-41 -145v-23z" />
<glyph unicode="&#xc3;" horiz-adv-x="841" d="M61 215l117 520q18 45 64 142q12 2 39.5 33.5t56.5 31.5q18 0 59 -14q-2 20 0 59q8 16 21 47q2 20 14 47q72 59 111 60q37 0 102.5 -48.5t79.5 -107.5q41 -174 41 -385q0 -80 -6 -166q0 -8 9 -27.5t9 -27.5q0 -6 -10 -41t-12 -55q-6 -90 -11 -181q-8 -113 -38 -168 q-23 -43 -41 -43l-29 9q-14 14 -39 50t-37 73q-8 27 -31 198q-6 18 -28 19q-8 0 -53.5 -4.5t-53.5 -4.5q-10 0 -43 35q-6 -8 -26 -71q4 -14 0 -29q-2 -2 -29 -115q-57 -37 -78 -37q-4 0 -19.5 10.5t-39.5 10.5l-4 4q-14 8 -35 33q-23 51 -49 73q8 10 8 21q0 10 -9.5 26.5 t-9.5 22.5zM293 1468q0 33 31 99q61 31 65 30q35 0 113 -71q4 -8 14 -25q59 31 86 49q12 8 88 72q53 43 64 43q8 0 13 -6t15 -6q27 0 27 12q10 -18 10 -43q0 -4 -6 -31.5t-4 -44.5q-31 -37 -43 -90q-53 -74 -76 -121q-8 -14 -65 -59q-63 -47 -86 -47q-39 0 -72 16 q-59 27 -105 80q-53 59 -57 117q-12 18 -12 26zM403 471q10 2 58 16q37 13 55 13v387l-59 -8q8 -6 18 -43t10 -52q0 -8 -41 -145t-41 -145v-23z" />
<glyph unicode="&#xce;" horiz-adv-x="630" d="M35 1188q0 25 65 104l70 78q43 59 133 162q12 10 74 10q10 0 39.5 -20.5t44.5 -40.5q33 -45 43 -70q20 -59 47 -160q22 -92 22 -108q0 -43 -30.5 -81t-71.5 -38t-80 23q-29 16 -67 61q-10 14 -29 63q-16 43 -25 43q-8 0 -61 -51t-62 -51q-8 0 -23 4t-24 4h-28 q-8 0 -16.5 9.5t-10.5 13.5t-6 19.5t-4 25.5zM111 209l73 573q16 27 11 54q4 27 48 56.5t74 29.5q25 0 91 -95q8 -16 18 -51q10 -55 0 -137q12 8 12 -8q0 -10 -5 -11.5t-5 -3.5q-4 -33 -11 -101.5t-11 -102.5q-31 -94 -56 -205q-6 -53 -20 -150q-2 -18 -25 -41 q-31 -31 -33 -36q-31 12 -69 16q-18 27 -62 82q2 23 -30 131z" />
<glyph unicode="&#xde;" horiz-adv-x="759" d="M27 829q0 6 11 28t13 32q31 27 60 39q2 8 -5 14q6 -4 19.5 6t23 10t9.5 3.5t9 3.5t256 24.5t255 24.5l92 -23q-2 -6 -2 -14q0 -18 23.5 -52t23.5 -46q0 -6 -10 -23.5t-8 -30.5q-6 -2 -17 -8q-2 -14 -4 -43q-39 -31 -74 -31q-2 0 -81.5 -7t-122.5 -7q0 -41 2 -139 q14 2 14 -17q0 -6 -18 -65q-18 -66 -23 -92q-10 -59 -8 -99q-6 -4 -6 -28q0 -68 -6 -170q0 -14 -33 -64q-41 -57 -74 -57q-43 0 -63.5 8t-53.5 43q-23 23 -39 103q-14 70 -14 114q0 -2 8.5 43t12.5 121q39 117 28 188q16 18 17 50v34q-6 4 -17 0q-14 -2 -20 -2 q-49 0 -107 31q-72 37 -71 98zM104 -590q0 23 31 98q37 57 101 173q29 63 28 106v37q8 23 38 45t54 22q33 0 90 -38q20 -14 37 -72q17 -49 17 -74q0 -59 -16.5 -105t-71.5 -112q-63 -76 -123 -106q-47 -23 -51 -23q-10 0 -40 -4t-38 -4q-25 0 -56 57z" />
<glyph unicode="&#xe2;" horiz-adv-x="661" d="M41 276q0 33 53 115t101 111q27 16 94 39l12 9q12 9 23 9q8 0 48 -23.5t48 -23.5t8 3t8 3q10 0 10 -7t3 -9q59 -6 75 -45q33 -72 37 -76q2 -45 14 -137q8 -5 33 -15q-8 -16 -28 -49q20 -23 20 -51q0 -25 -37 -113l-12 -8t-23 -8q-8 0 -6 3t-6 3q-12 0 -12 -18 q-27 12 -43 12q-39 0 -78 55q-23 41 -45 82q-127 -90 -174 -90q-29 0 -58 37q-25 27 -57 82q-4 20 0 90l-4 5q-4 5 -4 15zM205 741q0 59 53 125q84 98 98 125q6 10 49.5 45t55.5 35q47 0 123 -110q18 -27 45 -123q20 -67 20 -90q0 -27 -37 -187l-28 6q-6 0 -18.5 -14 t-22.5 -14q-23 0 -62 26.5t-43 44.5q-6 33 -2 97q6 72 2 106q-8 -6 -65 -86q-53 -72 -66 -72h-65q-31 0 -37 86z" />
<glyph unicode="&#xe3;" horiz-adv-x="763" d="M55 256q0 33 53.5 115t100.5 110q27 16 94 39l13 10q12 9 22 9q8 0 48 -23.5t48 -23.5t8 3t9 3q10 0 10 -7.5t2 -9.5q59 -6 76 -45q33 -72 36 -76q2 -45 15 -137q8 -4 33 -14q-8 -16 -29 -49q20 -23 20 -51q0 -25 -36 -113l-12 -8q-13 -8 -23 -8q-8 0 -6 3t-7 3 q-12 0 -12 -19q-27 12 -43 13q-39 0 -78 55q-23 41 -45 82q-125 -90 -174 -90q-29 0 -57 36q-25 27 -58 82q-4 20 0 91l-4 5q-4 5 -4 15zM301 733q0 29 16 90q8 35 43 68q18 16 23 16q53 0 76.5 -57t32.5 -57q43 0 161 51q68 31 135 61q43 17 72 15q-2 -4 -33 -35 q6 -4 21 -13v-30q-8 -12 -21.5 -23.5t-13.5 -17.5t6 -15q-29 -8 -96.5 -56t-87.5 -50q-6 -27 -53 -47q-39 -14 -78 -27q-6 -6 -12.5 -12t-16.5 -6h-55q-6 0 -38 19.5t-44 23.5q-37 82 -37 102z" />
<glyph unicode="&#xee;" horiz-adv-x="612" d="M68 270q0 90 57 193q20 27 61 86q18 6 56 18q39 -27 77 -39q41 -63 41 -98q0 -66 -34 -145q-12 2 65 2q8 0 59.5 27.5t61.5 27.5q8 0 11 -10t11.5 -10t26.5 -3h25q-4 -23 -29 -49q-27 -33 -31 -43q-12 -33 -39 -90q-31 -47 -102 -106q-23 -14 -66 -43q-4 -2 -32 -2 q-219 0 -219 284zM94 741q0 59 56 125q82 98 98 125q4 10 47 45t55 35q49 0 123 -110q20 -27 47 -123q19 -67 19 -90q0 -27 -35 -187l-31 6q-6 0 -17.5 -14t-23.5 -14q-18 0 -59 27.5t-43 43.5q-8 31 -2 97q4 72 2 106q-8 -6 -68 -86q-53 -72 -65 -72h-64q-31 0 -39 86z" />
<glyph unicode="&#xfe;" horiz-adv-x="745" d="M14 -424q0 10 6.5 16.5t12.5 10.5q12 35 49 65q31 25 61 49q94 35 121 95q-6 25 12 61q12 2 27.5 16.5t24.5 14.5q123 0 155 -23q10 -8 29.5 -43t19.5 -43q0 -74 -43 -153q-49 -37 -149 -105q-74 -43 -115 -43q-6 0 -19 -3t-21.5 -3t-42 -7t-42.5 -7q-35 0 -61 39 q-25 33 -25 63zM49 537q0 33 51 69q43 25 86 51q23 12 50 84q23 53 59 158h27q-25 -106 18 -176q25 2 80 15.5t61 13.5q45 0 72 -19q14 -18 45 -59q-2 -12 7 -41t9 -35q0 -12 -18 -36.5t-18 -37.5q0 -6 2 -10q-45 0 -111 -12q-23 -4 -73 -31t-58 -27l-12 7 q-2 -27 -16.5 -96.5t-14.5 -78.5q0 -45 61 -45q41 0 133 43q106 47 107.5 48.5t15 10.5t21.5 7h43q0 -53 18 -53q8 0 11.5 2t5.5 2q2 -14 2 -43q-11 -27 12 -47q-12 -31 -53 -82q-18 -14 -152 -76q-139 -63 -158 -63q-8 0 -49 7t-49 7q-104 0 -160 110q-8 18 -18 97 q0 4 -5 18t-5 23q0 10 20.5 79.5t20.5 77.5v33q-33 2 -51 39q-16 31 -17 66z" />
<glyph unicode="&#x2000;" horiz-adv-x="832" />
<glyph unicode="&#x2001;" horiz-adv-x="1665" />
<glyph unicode="&#x2002;" horiz-adv-x="832" />
<glyph unicode="&#x2003;" horiz-adv-x="1665" />
<glyph unicode="&#x2004;" horiz-adv-x="555" />
<glyph unicode="&#x2005;" horiz-adv-x="416" />
<glyph unicode="&#x2006;" horiz-adv-x="277" />
<glyph unicode="&#x2007;" horiz-adv-x="277" />
<glyph unicode="&#x2008;" horiz-adv-x="208" />
<glyph unicode="&#x2009;" horiz-adv-x="333" />
<glyph unicode="&#x200a;" horiz-adv-x="92" />
<glyph unicode="&#x2010;" d="M31 463q0 45 75 90q25 6 73 19.5t155 43.5l12 -14q6 6 31 6q94 0 145 -41q12 -25 35 -71q-2 -21 10 -60q-66 -63 -75 -63q-8 0 -6.5 3t-8.5 3q-25 0 -6 -19q-74 25 -135 25q-8 0 -83 -3t-83 -3q-35 0 -82 22q-57 27 -57 62z" />
<glyph unicode="&#x2011;" d="M31 463q0 45 75 90q25 6 73 19.5t155 43.5l12 -14q6 6 31 6q94 0 145 -41q12 -25 35 -71q-2 -21 10 -60q-66 -63 -75 -63q-8 0 -6.5 3t-8.5 3q-25 0 -6 -19q-74 25 -135 25q-8 0 -83 -3t-83 -3q-35 0 -82 22q-57 27 -57 62z" />
<glyph unicode="&#x2012;" d="M31 463q0 45 75 90q25 6 73 19.5t155 43.5l12 -14q6 6 31 6q94 0 145 -41q12 -25 35 -71q-2 -21 10 -60q-66 -63 -75 -63q-8 0 -6.5 3t-8.5 3q-25 0 -6 -19q-74 25 -135 25q-8 0 -83 -3t-83 -3q-35 0 -82 22q-57 27 -57 62z" />
<glyph unicode="&#x2013;" horiz-adv-x="1071" d="M31 463q0 45 143 90q48 6 139.5 19.5t296.5 43.5l23 -14q11 6 59 6q180 0 277 -41q23 -25 67 -71q-4 -21 19 -60q-126 -63 -143 -63q-16 0 -13 3t-16 3q-48 0 -11 -19q-142 25 -258 25q-16 0 -159 -3t-158 -3q-67 0 -157 22q-109 27 -109 62z" />
<glyph unicode="&#x2014;" horiz-adv-x="2095" d="M31 463q0 45 287 90q95 6 278.5 19.5t592.5 43.5l46 -14q23 6 118 6q359 0 554 -41q46 -25 134 -71q-8 -21 38 -60q-252 -63 -287 -63q-30 0 -24.5 3t-32.5 3q-95 0 -23 -19q-283 25 -516 25q-30 0 -316.5 -3t-317.5 -3q-134 0 -313 22q-218 27 -218 62z" />
<glyph unicode="&#x202f;" horiz-adv-x="333" />
<glyph unicode="&#x205f;" horiz-adv-x="416" />
<glyph unicode="&#x25fc;" horiz-adv-x="624" d="M0 0v625h625v-625h-625z" />
</font>
</defs>
</svg>
